<?xml version="1.0" encoding="UTF-8" standalone="no"?>
<svg width="100px" height="100px" viewBox="0 0 100 100" version="1.1" xmlns="http://www.w3.org/2000/svg" xmlns:xlink="http://www.w3.org/1999/xlink">
    <!-- Generator: Sketch 39.1 (31720) - http://www.bohemiancoding.com/sketch -->
    <title>logo</title>
    <desc>Created with Sketch.</desc>
    <defs>
        <polygon id="path-1" points="0 182 230.049 182 230.049 0.148 0 0.148"></polygon>
        <polygon id="path-3" points="39.3757 0.57 0.249 0.57 0.249 12.3428 39.3757 12.3428 39.3757 0.57"></polygon>
        <path d="M0.716,0.696918447 L0.716,38.917 C0.716,39.827 1.462,40.572 2.372,40.572 L88.37,40.572 C89.28,40.572 90.025,39.827 90.025,38.917 L90.025,0.696918447 L0.716,0.696918447 L0.716,0.696918447 Z" id="path-5"></path>
        <polygon id="path-7" points="0.95 0.7647 0.95 20.1607 16.8309 20.1607 16.8309 0.7647 0.95 0.7647"></polygon>
        <polygon id="path-9" points="0.8977 9.572 15.3447 9.572 15.3447 0.4019 0.8977 0.4019 0.8977 9.572"></polygon>
        <polygon id="path-11" points="0.2253 19.572 15.0403 19.572 15.0403 0.5967 0.2253 0.5967 0.2253 19.572"></polygon>
        <polygon id="path-13" points="15.856 6.5018 15.856 0.2528 0.7334 0.2528 0.7334 6.5018 15.856 6.5018"></polygon>
    </defs>
    <g id="Page-1" stroke="none" stroke-width="1" fill="none" fill-rule="evenodd">
        <g id="logo">
            <g id="Page-1" transform="translate(-64.400002, -1.000000)">
                <polygon id="Fill-1" fill="#231814" points="96.835 42.121 126.146 42.121 126.146 35.558 96.835 35.558"></polygon>
                <g id="Group-35" transform="translate(0.000000, 0.852000)">
                    <path d="M156.4248,100.4639 L72.3158,100.4639 C67.9458,100.4639 64.3698,96.8899 64.3698,92.5189 L64.3698,39.3869 C64.3698,35.0169 67.9458,31.4409 72.3158,31.4409 L156.4248,31.4409 C160.7958,31.4409 164.3698,35.0169 164.3698,39.3869 L164.3698,92.5189 C164.3698,96.8899 160.7958,100.4639 156.4248,100.4639 L156.4248,100.4639 Z" id="Fill-2" fill="#757575"></path>
                    <path d="M64.3701,90.9248 L64.3701,96.3258 C64.3701,98.6028 66.2201,100.4638 68.4791,100.4638 L160.2631,100.4638 C162.5201,100.4638 164.3701,98.6028 164.3701,96.3258 L164.3701,90.9248 L64.3701,90.9248 Z" id="Fill-4" fill="#BEBEBE"></path>
                    <path d="M157.3701,86.5723 L71.3721,86.5723 C70.4621,86.5723 69.7161,85.8273 69.7161,84.9173 L69.7161,38.7983 C69.7161,37.8873 70.4621,37.1433 71.3721,37.1433 L157.3701,37.1433 C158.2801,37.1433 159.0241,37.8873 159.0241,38.7983 L159.0241,84.9173 C159.0241,85.8273 158.2801,86.5723 157.3701,86.5723" id="Fill-6" fill="#BEBEBE"></path>
                    <mask id="mask-2" fill="white">
                        <use xlink:href="#path-1"></use>
                    </mask>
                    <g id="Clip-9"></g>
                    <polygon id="Fill-8" fill="#231814" mask="url(#mask-2)" points="102.192 44.021 126.249 44.021 126.249 34.463 102.192 34.463"></polygon>
                    <path d="M122.1396,42.208 C120.5676,42.208 119.2956,40.934 119.2956,39.363 C119.2956,37.792 120.5676,36.519 122.1396,36.519 C123.7096,36.519 124.9836,37.792 124.9836,39.363 C124.9836,40.934 123.7096,42.208 122.1396,42.208 M108.1396,42.208 C106.5696,42.208 105.2936,40.934 105.2936,39.363 C105.2936,37.792 106.5696,36.519 108.1396,36.519 C109.7096,36.519 110.9836,37.792 110.9836,39.363 C110.9836,40.934 109.7096,42.208 108.1396,42.208 M135.3256,40.81 C130.9896,33.321 118.2236,24.487 115.1396,24.487 C112.0536,24.487 99.2876,33.323 94.9536,40.812 C91.2196,42.503 87.7336,44.646 84.5656,47.175 C87.7156,46.307 91.4776,45.757 95.7036,46.069 C101.8116,46.519 109.8586,48.887 115.1396,54.142 C120.4206,48.887 128.4676,46.519 134.5776,46.069 C138.8016,45.757 142.5636,46.306 145.7116,47.173 C142.5456,44.646 139.0596,42.501 135.3256,40.81" id="Fill-10" fill="#C30D23" mask="url(#mask-2)"></path>
                    <g id="Group-13" mask="url(#mask-2)">
                        <g transform="translate(95.000000, 33.000000)">
                            <mask id="mask-4" fill="white">
                                <use xlink:href="#path-3"></use>
                            </mask>
                            <g id="Clip-12" stroke="none" fill="none"></g>
                            <path d="M6.1357,12.3428 C2.8897,12.3428 0.2487,9.7018 0.2487,6.4558 C0.2487,3.2098 2.8897,0.5698 6.1357,0.5698 L33.4897,0.5698 C36.7357,0.5698 39.3757,3.2098 39.3757,6.4558 C39.3757,9.7018 36.7357,12.3428 33.4897,12.3428 L6.1357,12.3428 Z" id="Fill-11" stroke="none" fill="#919191" fill-rule="evenodd" opacity="0.699999988" mask="url(#mask-4)"></path>
                        </g>
                    </g>
                    <path d="M128.4893,32.8428 L101.1353,32.8428 C97.4833,32.8428 94.5223,35.8038 94.5223,39.4558 C94.5223,43.1088 97.4833,46.0698 101.1353,46.0698 L128.4893,46.0698 C132.1413,46.0698 135.1023,43.1088 135.1023,39.4558 C135.1023,35.8038 132.1413,32.8428 128.4893,32.8428 M128.4893,34.2958 C131.3353,34.2958 133.6493,36.6108 133.6493,39.4558 C133.6493,42.3018 131.3353,44.6158 128.4893,44.6158 L101.1353,44.6158 C98.2903,44.6158 95.9753,42.3018 95.9753,39.4558 C95.9753,36.6108 98.2903,34.2958 101.1353,34.2958 L128.4893,34.2958" id="Fill-14" fill="#1A1A1A" mask="url(#mask-2)"></path>
                    <path d="M118.5928,1.3008 C117.6978,1.3008 116.9558,1.9808 116.9408,2.8158 C116.9388,2.9728 116.9598,3.1298 117.0108,3.2838 C117.0828,3.5118 116.9638,3.7568 116.7388,3.8388 C116.0458,4.0928 115.5498,4.8978 115.5318,5.7948 C115.5268,6.1068 115.5748,6.4088 115.6788,6.6928 C115.7258,6.8218 115.7118,6.9638 115.6398,7.0808 C115.4988,7.3098 115.4248,7.5588 115.4188,7.8218 C115.4128,8.1888 115.4838,8.8548 116.0378,9.1868 C116.2508,9.3138 116.3838,9.5338 116.3958,9.7788 C116.4048,10.0188 116.2958,10.2448 116.1028,10.3868 C115.7628,10.6348 115.5848,11.0368 115.5748,11.5818 C115.5698,11.8508 115.6518,12.1078 115.8198,12.3478 C115.9428,12.5238 115.9228,12.7618 115.7728,12.9148 C115.4228,13.2728 115.2338,13.7058 115.2258,14.1688 C115.2198,14.4698 115.2918,14.7608 115.4368,15.0338 C115.5048,15.1628 115.5068,15.3178 115.4408,15.4468 C115.1768,15.9598 115.0298,16.5558 115.0188,17.1708 C114.9858,18.9538 116.0728,20.4268 117.4428,20.4518 L117.4798,20.4518 C118.4878,20.4518 119.4228,19.6278 119.8058,18.4018 C119.8678,18.2028 120.0598,18.0748 120.2668,18.0908 C120.3718,18.0988 120.4718,18.1038 120.5678,18.1058 C120.5988,18.1068 120.6298,18.1068 120.6608,18.1068 C122.3118,18.1068 123.6688,17.2868 123.6888,16.2798 C123.6908,16.1438 123.6668,16.0048 123.6178,15.8698 C123.5438,15.6608 123.6338,15.4288 123.8288,15.3248 C124.6888,14.8688 125.2338,14.0088 125.2508,13.0768 C125.2688,12.0658 124.6608,11.1198 123.7018,10.6668 C123.5538,10.5978 123.4558,10.4538 123.4468,10.2918 C123.4368,10.1288 123.5148,9.9738 123.6518,9.8868 C124.1948,9.5418 124.4968,9.0968 124.5068,8.6298 C124.5188,8.0188 124.0228,7.4288 123.1788,7.0538 C123.0598,7.0008 122.9678,6.8978 122.9308,6.7718 C122.8958,6.6458 122.9148,6.5098 122.9878,6.4008 C123.1808,6.1078 123.2818,5.7878 123.2878,5.4508 C123.2978,4.9198 123.0658,4.4128 122.6318,4.0228 C122.1808,3.6158 121.5728,3.3858 120.9168,3.3728 C120.8488,3.3718 120.7858,3.3738 120.7198,3.3768 C120.5928,3.3848 120.4718,3.3358 120.3818,3.2468 C120.2938,3.1568 120.2448,3.0348 120.2528,2.9088 C120.2528,2.8958 120.2548,2.8828 120.2548,2.8698 L120.2548,2.8758 C120.2628,2.4688 120.1008,2.0808 119.7978,1.7838 C119.4888,1.4818 119.0728,1.3098 118.6258,1.3018 L118.5928,1.3008 Z M117.4798,21.3448 L117.4798,21.3448 L117.4268,21.3448 C115.5658,21.3098 114.0848,19.4298 114.1278,17.1548 C114.1398,16.4838 114.2838,15.8268 114.5478,15.2428 C114.3978,14.8958 114.3268,14.5298 114.3328,14.1518 C114.3448,13.5778 114.5458,13.0218 114.9068,12.5528 C114.7528,12.2408 114.6768,11.9048 114.6828,11.5658 C114.6968,10.8348 114.9388,10.2378 115.3878,9.8218 C114.8218,9.3868 114.5108,8.6648 114.5268,7.8058 C114.5338,7.4568 114.6178,7.1138 114.7768,6.7998 C114.6788,6.4718 114.6338,6.1298 114.6398,5.7788 C114.6608,4.6538 115.2218,3.6538 116.0718,3.1688 C116.0538,3.0458 116.0458,2.9228 116.0478,2.7978 C116.0728,1.4638 117.2408,0.3798 118.6438,0.4088 C119.3198,0.4208 119.9518,0.6848 120.4248,1.1478 C120.8038,1.5198 121.0418,1.9858 121.1198,2.4888 C121.9188,2.5428 122.6628,2.8488 123.2298,3.3598 C123.8588,3.9248 124.1968,4.6748 124.1808,5.4678 C124.1748,5.8068 124.1028,6.1418 123.9678,6.4558 C124.8878,6.9928 125.4148,7.7888 125.3998,8.6468 C125.3878,9.2238 125.1358,9.7628 124.6768,10.2118 C125.6048,10.8858 126.1628,11.9578 126.1438,13.0948 C126.1218,14.2338 125.5208,15.2918 124.5538,15.9328 C124.5728,16.0538 124.5828,16.1748 124.5788,16.2968 C124.5518,17.8118 122.8308,18.9988 120.6608,18.9988 C120.6238,18.9988 120.5868,18.9988 120.5518,18.9978 C120.5478,18.9968 120.5438,18.9968 120.5398,18.9968 C119.9778,20.4148 118.7818,21.3448 117.4798,21.3448 L117.4798,21.3448 Z" id="Fill-15" fill="#999999" mask="url(#mask-2)"></path>
                    <path d="M120.2314,18.9814 C120.0364,18.9814 119.8584,18.8534 119.8014,18.6574 C119.7704,18.5484 119.7354,18.4004 119.6904,18.2124 C119.5834,17.7644 119.4184,17.0884 119.2114,16.5224 C118.9364,15.7744 118.7334,15.6244 118.6884,15.5984 C118.6884,15.5994 118.6864,15.6004 118.6864,15.6004 C118.4654,15.7114 118.1984,15.6254 118.0854,15.4054 C117.9734,15.1854 118.0614,14.9174 118.2804,14.8054 C118.5324,14.6774 118.8074,14.6704 119.0554,14.7854 C119.8094,15.1324 120.2114,16.5654 120.5574,18.0034 C120.5984,18.1744 120.6354,18.3224 120.6614,18.4134 C120.7274,18.6504 120.5904,18.8974 120.3524,18.9634 C120.3114,18.9754 120.2704,18.9814 120.2314,18.9814" id="Fill-16" fill="#999999" mask="url(#mask-2)"></path>
                    <path d="M121.5713,10.2529 C121.3253,10.2529 121.1263,10.0539 121.1243,9.8089 C121.1203,8.6319 121.6963,8.0639 122.2023,7.5639 C122.4733,7.2959 122.7293,7.0439 122.9283,6.6939 C123.0513,6.4799 123.3253,6.4049 123.5383,6.5279 C123.7533,6.6509 123.8273,6.9239 123.7043,7.1379 C123.4423,7.5939 123.1163,7.9149 122.8313,8.1979 C122.3563,8.6649 122.0143,9.0029 122.0163,9.8059 C122.0183,10.0519 121.8193,10.2529 121.5733,10.2529 L121.5713,10.2529 Z" id="Fill-17" fill="#999999" mask="url(#mask-2)"></path>
                    <path d="M124.0381,16.166 C123.8801,16.166 123.7251,16.081 123.6451,15.931 C123.4751,15.612 123.3411,15.327 123.2221,15.075 C122.7391,14.048 122.6401,13.835 121.5521,13.993 C120.8821,14.091 120.3701,13.974 120.0301,13.646 C119.5151,13.15 119.5971,12.382 119.6421,11.97 C119.6471,11.921 119.6511,11.877 119.6531,11.841 C119.6711,11.595 119.8841,11.411 120.1301,11.427 C120.3761,11.444 120.5611,11.657 120.5441,11.903 C120.5421,11.948 120.5361,12.003 120.5281,12.064 C120.5011,12.325 120.4481,12.812 120.6491,13.004 C120.7761,13.126 121.0521,13.163 121.4251,13.109 C123.1651,12.856 123.5281,13.628 124.0301,14.696 C124.1431,14.937 124.2721,15.212 124.4331,15.509 C124.5481,15.726 124.4661,15.996 124.2491,16.112 C124.1831,16.149 124.1101,16.166 124.0381,16.166" id="Fill-18" fill="#999999" mask="url(#mask-2)"></path>
                    <path d="M117.7998,10.7275 C117.7728,10.7275 117.7428,10.7245 117.7138,10.7185 C117.5288,10.6825 117.3918,10.5365 117.3608,10.3605 C117.2548,10.3405 117.0968,10.3255 116.9718,10.3115 C116.5498,10.2705 116.0248,10.2175 115.5808,9.9525 C115.3698,9.8275 115.2998,9.5515 115.4268,9.3405 C115.5538,9.1295 115.8268,9.0595 116.0378,9.1865 C116.3118,9.3485 116.7098,9.3895 117.0598,9.4235 C117.5108,9.4685 117.8998,9.5075 118.1218,9.8085 C118.2038,9.9165 118.2898,10.1025 118.2378,10.3675 C118.1958,10.5805 118.0088,10.7275 117.7998,10.7275" id="Fill-19" fill="#999999" mask="url(#mask-2)"></path>
                    <path d="M119.1162,4.7939 C118.8742,4.7939 118.6772,4.6009 118.6712,4.3559 C118.6652,4.1099 118.8602,3.9059 119.1082,3.9009 C119.2022,3.8989 119.2232,3.8979 119.3702,3.5849 C119.5402,3.2199 119.7982,2.6689 120.6042,2.4949 C120.8452,2.4419 121.0832,2.5969 121.1342,2.8369 C121.1862,3.0769 121.0342,3.3149 120.7922,3.3669 C120.4342,3.4439 120.3372,3.6239 120.1792,3.9619 C120.0262,4.2869 119.7982,4.7789 119.1262,4.7939 L119.1162,4.7939 Z" id="Fill-20" fill="#999999" mask="url(#mask-2)"></path>
                    <path d="M118.7744,9.6621 C118.7534,9.5751 118.5734,8.7821 119.1554,7.5071 C119.2864,7.2221 119.2294,7.0911 118.5774,6.7051 C118.2064,6.4851 117.7844,6.2351 117.8174,5.7631 C117.8354,5.5161 118.0494,5.3311 118.2944,5.3491 C118.5044,5.3641 118.6724,5.5231 118.7044,5.7241 C118.7724,5.7821 118.9244,5.8741 119.0324,5.9361 C119.4974,6.2121 120.4654,6.7861 119.9674,7.8781 C119.5184,8.8601 119.6394,9.4401 119.6394,9.4461 L119.6374,9.4391 L118.7744,9.6621 Z" id="Fill-21" fill="#999999" mask="url(#mask-2)"></path>
                    <path d="M108.6807,2.9131 C107.4327,2.9131 106.3997,3.7391 106.3327,4.7941 C106.3117,5.1301 106.3857,5.4571 106.5537,5.7651 C106.6167,5.8801 106.6257,6.0171 106.5787,6.1401 C106.5307,6.2621 106.4327,6.3561 106.3097,6.4001 C105.4387,6.7041 104.8937,7.2501 104.8547,7.8601 C104.8257,8.3261 105.0907,8.7961 105.6027,9.1841 C105.7317,9.2821 105.7977,9.4431 105.7747,9.6041 C105.7507,9.7661 105.6417,9.9011 105.4877,9.9581 C104.4927,10.3291 103.8097,11.2221 103.7447,12.2311 C103.6847,13.1601 104.1557,14.0631 104.9737,14.5891 C105.1607,14.7091 105.2317,14.9481 105.1397,15.1491 C105.0787,15.2801 105.0457,15.4161 105.0357,15.5521 C104.9717,16.5711 106.3257,17.5221 107.9927,17.6301 C108.0907,17.6361 108.1907,17.6401 108.2957,17.6401 C108.5027,17.6411 108.6847,17.7861 108.7297,17.9891 C109.0127,19.2631 109.8917,20.1621 110.9127,20.2271 C112.2917,20.3161 113.4857,18.9351 113.6007,17.1591 C113.6397,16.5461 113.5437,15.9391 113.3257,15.4061 C113.2687,15.2701 113.2827,15.1171 113.3627,14.9941 C113.5307,14.7331 113.6237,14.4501 113.6437,14.1491 C113.6747,13.6871 113.5207,13.2391 113.2037,12.8551 C113.0677,12.6901 113.0677,12.4511 113.2037,12.2861 C113.3897,12.0601 113.4937,11.8111 113.5107,11.5441 C113.5457,10.9991 113.4017,10.5841 113.0827,10.3081 C112.9037,10.1511 112.8117,9.9161 112.8427,9.6791 C112.8737,9.4351 113.0267,9.2261 113.2467,9.1171 C113.8267,8.8331 113.9537,8.1751 113.9777,7.8091 C113.9947,7.5461 113.9407,7.2921 113.8197,7.0521 C113.7567,6.9311 113.7547,6.7861 113.8117,6.6621 C113.9387,6.3881 114.0127,6.0911 114.0327,5.7791 C114.0907,4.8841 113.6627,4.0411 112.9937,3.7291 C112.7767,3.6301 112.6767,3.3761 112.7687,3.1551 C112.8307,3.0061 112.8667,2.8501 112.8757,2.6921 C112.9327,1.8431 112.2337,1.1031 111.3217,1.0451 C110.4097,0.9861 109.6277,1.6331 109.5697,2.4721 L109.5697,2.5151 C109.5637,2.6411 109.5067,2.7591 109.4097,2.8391 C109.3137,2.9201 109.1887,2.9561 109.0637,2.9401 C108.9917,2.9311 108.9267,2.9231 108.8667,2.9191 C108.8057,2.9151 108.7437,2.9131 108.6807,2.9131 M111.0377,21.1241 L111.0377,21.1241 C110.9777,21.1241 110.9167,21.1221 110.8567,21.1181 C109.5327,21.0331 108.3977,20.0051 107.9467,18.5211 C107.9447,18.5211 107.9407,18.5201 107.9367,18.5201 C105.7097,18.3781 104.0457,17.0481 104.1457,15.4951 C104.1537,15.3741 104.1727,15.2531 104.2017,15.1341 C103.2917,14.4151 102.7807,13.3111 102.8547,12.1751 C102.9267,11.0391 103.5737,10.0171 104.5537,9.4231 C104.1337,8.9381 103.9267,8.3801 103.9637,7.8041 C104.0187,6.9471 104.6107,6.1981 105.5737,5.7391 C105.4637,5.4151 105.4187,5.0751 105.4427,4.7361 C105.5397,3.2141 106.9617,2.0201 108.6807,2.0201 C108.7007,2.0201 108.7197,2.0201 108.7397,2.0211 C109.0027,0.9431 110.0147,0.1481 111.2057,0.1481 C111.2627,0.1481 111.3217,0.1501 111.3797,0.1541 C112.7827,0.2451 113.8547,1.4091 113.7687,2.7511 C113.7587,2.8741 113.7417,2.9971 113.7137,3.1181 C114.5207,3.6711 114.9967,4.7141 114.9247,5.8371 C114.9017,6.1871 114.8267,6.5251 114.7037,6.8441 C114.8347,7.1691 114.8917,7.5181 114.8687,7.8661 C114.8137,8.7261 114.4427,9.4181 113.8427,9.8041 C114.2567,10.2561 114.4487,10.8721 114.4017,11.6011 C114.3797,11.9401 114.2747,12.2681 114.0967,12.5661 C114.4167,13.0631 114.5717,13.6351 114.5347,14.2071 C114.5107,14.5841 114.4097,14.9421 114.2317,15.2761 C114.4447,15.8811 114.5347,16.5471 114.4917,17.2161 C114.3507,19.4071 112.8327,21.1241 111.0377,21.1241" id="Fill-22" fill="#999999" mask="url(#mask-2)"></path>
                    <path d="M108.2939,18.5322 C108.2409,18.5322 108.1889,18.5232 108.1379,18.5042 C107.9049,18.4172 107.7899,18.1602 107.8759,17.9282 C107.9089,17.8412 107.9559,17.6962 108.0129,17.5292 C108.4779,16.1252 108.9949,14.7302 109.7759,14.4462 C110.0339,14.3522 110.3079,14.3832 110.5459,14.5312 C110.7569,14.6612 110.8209,14.9352 110.6899,15.1452 C110.5619,15.3542 110.2859,15.4202 110.0769,15.2902 C110.0749,15.2902 110.0749,15.2892 110.0729,15.2882 C110.0259,15.3092 109.8139,15.4422 109.4779,16.1652 C109.2239,16.7122 109.0049,17.3722 108.8599,17.8092 C108.7999,17.9932 108.7509,18.1372 108.7119,18.2432 C108.6439,18.4232 108.4739,18.5322 108.2939,18.5322" id="Fill-23" fill="#999999" mask="url(#mask-2)"></path>
                    <path d="M107.6826,9.7236 C107.6686,9.7236 107.6576,9.7226 107.6436,9.7216 C107.3976,9.7006 107.2156,9.4836 107.2376,9.2386 C107.3076,8.4396 106.9936,8.0756 106.5616,7.5696 C106.2976,7.2626 106.0006,6.9166 105.7786,6.4406 C105.6726,6.2166 105.7706,5.9516 105.9936,5.8466 C106.2156,5.7426 106.4816,5.8386 106.5866,6.0616 C106.7586,6.4276 106.9916,6.7006 107.2396,6.9896 C107.7026,7.5306 108.2276,8.1436 108.1256,9.3156 C108.1066,9.5476 107.9116,9.7236 107.6826,9.7236" id="Fill-24" fill="#999999" mask="url(#mask-2)"></path>
                    <path d="M113.2002,10.21 L113.1692,10.21 C112.3522,10.153 110.8412,9.424 110.8562,8.23 C110.8602,7.983 111.0612,7.79 111.3092,7.79 C111.5552,7.793 111.7532,7.995 111.7492,8.242 C111.7432,8.761 112.6672,9.28 113.2292,9.319 C113.4752,9.336 113.6612,9.55 113.6432,9.795 C113.6282,10.03 113.4322,10.21 113.2002,10.21" id="Fill-25" fill="#999999" mask="url(#mask-2)"></path>
                    <path d="M108.2646,12.9199 C107.9206,12.9199 107.5926,12.8279 107.3196,12.7519 C106.8426,12.6189 106.6686,12.5939 106.5786,12.7059 C106.4266,12.8989 106.1456,12.9329 105.9516,12.7799 C105.7586,12.6269 105.7276,12.3469 105.8796,12.1529 C106.3526,11.5559 107.0496,11.7499 107.5576,11.8919 C108.0516,12.0299 108.3696,12.1009 108.6316,11.9249 C108.8366,11.7879 109.1146,11.8439 109.2506,12.0489 C109.3876,12.2529 109.3326,12.5299 109.1276,12.6669 C108.8466,12.8569 108.5496,12.9199 108.2646,12.9199" id="Fill-26" fill="#999999" mask="url(#mask-2)"></path>
                    <path d="M109.1475,5.5322 L109.1395,5.5322 C108.8935,5.5292 108.6965,5.3272 108.7005,5.0802 C108.7115,4.2142 109.7085,2.6432 111.2435,2.1552 C111.4775,2.0792 111.7295,2.2102 111.8035,2.4442 C111.8775,2.6782 111.7495,2.9302 111.5125,3.0052 C110.2785,3.3982 109.5985,4.6622 109.5925,5.0932 C109.5885,5.3372 109.3895,5.5322 109.1475,5.5322" id="Fill-27" fill="#999999" mask="url(#mask-2)"></path>
                    <path d="M112.6709,20.1768 C112.5169,20.1768 112.3659,20.0968 112.2839,19.9548 C112.2819,19.9528 112.1299,19.6938 111.8289,19.3328 C111.3659,18.7788 111.6029,17.9228 112.4459,17.1008 C112.4599,17.0868 112.4829,17.0328 112.4819,16.9168 C112.4759,16.2908 111.8349,15.1898 111.4209,14.8018 C111.0889,14.4918 110.9309,14.0128 110.9759,13.4518 C111.0319,12.7218 111.4289,11.9898 111.9599,11.6328 C112.1649,11.4948 112.4419,11.5498 112.5809,11.7538 C112.7179,11.9578 112.6629,12.2358 112.4579,12.3738 C112.1509,12.5798 111.9009,13.0638 111.8639,13.5228 C111.8429,13.8018 111.9029,14.0308 112.0299,14.1498 C112.5709,14.6558 113.3639,15.9818 113.3739,16.9078 C113.3779,17.3458 113.2099,17.6028 113.0669,17.7408 C112.5689,18.2278 112.4229,18.6538 112.5149,18.7618 C112.8659,19.1848 113.0479,19.4928 113.0559,19.5058 C113.1789,19.7198 113.1069,19.9918 112.8939,20.1158 C112.8229,20.1568 112.7469,20.1768 112.6709,20.1768" id="Fill-28" fill="#999999" mask="url(#mask-2)"></path>
                    <path d="M94.7295,38.4141 C93.1145,37.3251 90.3175,35.1381 89.7415,32.7181 C89.0555,29.8421 89.3465,24.0111 89.5835,22.0631 C89.9755,18.8311 92.5415,16.4011 94.6275,14.9351 C96.9655,13.2861 99.9115,12.0321 102.1295,11.7391 L102.2645,12.7601 C98.6375,13.2391 91.2355,17.0011 90.6045,22.1871 C90.3315,24.4331 90.1375,29.9461 90.7415,32.4791 C91.2565,34.6361 94.1045,36.7521 95.3055,37.5611 L94.7295,38.4141 Z" id="Fill-29" fill="#999999" mask="url(#mask-2)"></path>
                    <path d="M102.083,11.1006 C102.724,11.0696 103.269,11.5626 103.3,12.2036 C103.331,12.8426 102.837,13.3876 102.196,13.4186 C101.556,13.4506 101.013,12.9556 100.981,12.3156 C100.95,11.6746 101.444,11.1306 102.083,11.1006" id="Fill-30" fill="#999999" mask="url(#mask-2)"></path>
                    <path d="M94.3467,38.9287 C94.8857,39.2747 95.6047,39.1177 95.9507,38.5777 C96.2957,38.0377 96.1377,37.3207 95.5987,36.9747 C95.0597,36.6287 94.3407,36.7857 93.9947,37.3247 C93.6497,37.8657 93.8057,38.5827 94.3467,38.9287" id="Fill-31" fill="#999999" mask="url(#mask-2)"></path>
                    <path d="M136.0518,38.124 L135.2788,37.315 C135.5088,37.095 135.7788,36.854 136.0888,36.577 C138.9838,33.993 144.3698,29.184 141.0128,21.188 C138.8288,15.993 136.4368,12.841 133.6968,11.552 C131.3248,10.436 129.0418,10.864 126.9058,11.397 L126.6338,10.313 C128.8638,9.756 131.4698,9.268 134.1728,10.54 C137.1748,11.952 139.7488,15.294 142.0418,20.755 C145.7098,29.485 139.7158,34.839 136.8348,37.411 C136.5308,37.683 136.2668,37.917 136.0518,38.124" id="Fill-32" fill="#999999" mask="url(#mask-2)"></path>
                    <path d="M127.1396,12.0693 C126.4656,12.2393 125.7806,11.8293 125.6106,11.1533 C125.4406,10.4773 125.8506,9.7933 126.5266,9.6233 C127.2006,9.4543 127.8856,9.8643 128.0556,10.5393 C128.2256,11.2143 127.8156,11.8993 127.1396,12.0693" id="Fill-33" fill="#999999" mask="url(#mask-2)"></path>
                    <path d="M134.6436,37.0049 C134.2746,37.5949 134.4526,38.3719 135.0416,38.7429 C135.6316,39.1129 136.4096,38.9359 136.7806,38.3459 C137.1516,37.7559 136.9716,36.9779 136.3816,36.6069 C135.7936,36.2369 135.0146,36.4149 134.6436,37.0049" id="Fill-34" fill="#999999" mask="url(#mask-2)"></path>
                </g>
                <g id="Group-38" transform="translate(69.000000, 46.852000)">
                    <mask id="mask-6" fill="white">
                        <use xlink:href="#path-5"></use>
                    </mask>
                    <g id="Clip-37"></g>
                    <path d="M45.9092,136 C41.9702,136 33.2202,110.404 18.9992,89.183 C10.2122,76.071 0.4732,65.137 -2.3448,49.012 C-14.6478,53.623 -30.6358,58.131 -45.8588,55.8 C-58.5788,53.854 -70.5788,40.924 -68.8288,24.5 C-64.2358,26.485 -55.7018,28.017 -47.1708,28.017 C-38.6398,28.017 -22.4498,26.704 -9.9798,19.267 C2.4892,11.829 3.6512,10.757 8.3212,8.011 C8.5692,7.863 8.8232,7.712 9.0912,7.554 C14.1382,4.587 20.3822,0.303 26.2162,0.726 C29.4032,0.961 33.3972,1.832 37.0752,3.521 C40.4192,4.931 43.6492,6.978 46.0242,9.87 C48.3972,6.978 51.6302,4.931 54.9722,3.521 C58.6512,1.832 62.6452,0.961 65.8332,0.726 C71.6672,0.303 77.9112,4.587 82.9562,7.554 C83.2232,7.712 83.4792,7.863 83.7272,8.011 C88.3952,10.757 89.5592,11.829 102.0282,19.267 C114.4972,26.704 130.6862,28.017 139.2202,28.017 C147.7512,28.017 156.2842,26.485 160.8782,24.5 C162.6282,40.924 150.6262,53.854 137.9052,55.8 C122.6842,58.131 106.6942,53.623 94.3912,49.012 C91.5732,65.137 81.8352,76.071 73.0502,89.183 C58.8272,110.404 50.0772,136 46.1392,136 L45.9092,136 Z" id="Fill-36" fill="#C30D23" mask="url(#mask-6)"></path>
                </g>
                <g id="Group-51" transform="translate(99.000000, 54.852000)">
                    <g id="Group-41">
                        <mask id="mask-8" fill="white">
                            <use xlink:href="#path-7"></use>
                        </mask>
                        <g id="Clip-40"></g>
                        <polygon id="Fill-39" fill="#CACACA" mask="url(#mask-8)" points="16.6279 13.5967 16.5209 20.0517 1.6999 20.1607 0.9779 2.3987 0.9499 0.7647 16.8309 1.2527 16.7709 4.9657 16.7329 7.2257 7.8269 7.0587 8.1629 13.5477"></polygon>
                    </g>
                    <g id="Group-44" transform="translate(1.000000, 23.000000)">
                        <mask id="mask-10" fill="white">
                            <use xlink:href="#path-9"></use>
                        </mask>
                        <g id="Clip-43"></g>
                        <polygon id="Fill-42" fill="#CACACA" mask="url(#mask-10)" points="7.9287 5.7949 15.3447 7.6549 15.2257 14.8979 1.2177 11.4389 0.8977 0.4949 4.0477 0.4529 7.6357 0.4019"></polygon>
                    </g>
                    <g id="Group-47" transform="translate(16.000000, 13.000000)">
                        <mask id="mask-12" fill="white">
                            <use xlink:href="#path-11"></use>
                        </mask>
                        <g id="Clip-46"></g>
                        <polygon id="Fill-45" fill="#DBDBDC" mask="url(#mask-12)" points="0.7393 0.5967 13.3393 0.6707 15.0403 0.6797 14.8563 2.3127 13.7003 19.2797 13.6063 20.4697 0.3443 24.8587 0.2253 24.8977 0.3443 17.6557 0.4643 17.6197 7.6143 15.4347 8.3873 6.9947 0.6353 7.0517 0.5203 7.0517 0.6283 0.5967"></polygon>
                    </g>
                    <g id="Group-50" transform="translate(16.000000, 1.000000)">
                        <mask id="mask-14" fill="white">
                            <use xlink:href="#path-13"></use>
                        </mask>
                        <g id="Clip-49"></g>
                        <polygon id="Fill-48" fill="#DBDBDC" mask="url(#mask-14)" points="0.9424 0.2568 15.8564 0.7168 15.7824 2.2488 15.5304 5.2478 15.4524 6.5018 0.8444 6.2278 0.7334 6.2258 0.7704 3.9658 0.8314 0.2528"></polygon>
                    </g>
                </g>
            </g>
        </g>
    </g>
</svg>