<?xml version="1.0" encoding="utf-8"?>
<!-- Generator: Adobe Illustrator 15.1.0, SVG Export Plug-In  -->
<!DOCTYPE svg PUBLIC "-//W3C//DTD SVG 1.1//EN" "http://www.w3.org/Graphics/SVG/1.1/DTD/svg11.dtd" [
	<!ENTITY ns_flows "http://ns.adobe.com/Flows/1.0/">
]>
<svg version="1.1"
	 xmlns="http://www.w3.org/2000/svg" xmlns:xlink="http://www.w3.org/1999/xlink" xmlns:a="http://ns.adobe.com/AdobeSVGViewerExtensions/3.0/"
	 x="0px" y="0px" width="150px" height="150px" viewBox="-3.28 -0.477 150 150" enable-background="new -3.28 -0.477 150 150"
	 xml:space="preserve">
<defs>
</defs>
<path fill="#FFC800" d="M85.259,15.26c0,8.43-6.835,15.263-15.263,15.263c-8.427,0-15.261-6.833-15.261-15.263
	C54.735,6.833,61.569,0,69.996,0C78.424,0,85.259,6.833,85.259,15.26z M116.416,33.726c-2.602-8.018-11.215-12.401-19.229-9.798
	c-4.675,1.519-8.11,5.081-9.65,9.375c-0.598,1.657-1.708,3.033-3.002,3.684c-0.068,0.033-0.14,0.069-0.209,0.098
	c-0.011,0.003-0.019,0.008-0.028,0.011c-0.13,0.054-0.266,0.104-0.401,0.148c-0.716,0.233-1.442,0.309-2.144,0.249
	c-1.369-0.16-2.801-1.1-4.268-1.984c-1.426-0.856-4.441-1.966-7.488-1.966c-3.046,0-6.06,1.11-7.485,1.966
	c-1.465,0.885-2.893,1.822-4.26,1.983c-0.707,0.061-1.434-0.014-2.151-0.248c-0.138-0.044-0.272-0.094-0.405-0.148
	c-0.008-0.004-0.016-0.008-0.025-0.011c-0.07-0.029-0.141-0.065-0.209-0.098c-1.295-0.651-2.404-2.027-3.002-3.684
	c-1.541-4.296-4.977-7.857-9.651-9.375c-8.017-2.605-16.628,1.78-19.231,9.798c-2.604,8.017,1.784,16.625,9.799,19.23
	c4.674,1.518,9.549,0.658,13.319-1.913c1.456-0.99,3.163-1.45,4.595-1.216c0.074,0.016,0.15,0.027,0.227,0.044
	c0.01,0.002,0.021,0.004,0.027,0.007c0.141,0.033,0.278,0.071,0.416,0.115c1.736,0.566,2.998,1.916,3.523,3.532
	c0.525,1.614,0.299,3.449-0.774,4.927c-0.087,0.118-0.175,0.23-0.27,0.34c-0.006,0.006-0.01,0.014-0.019,0.021
	c-0.05,0.058-0.104,0.114-0.158,0.169c-1.02,1.03-2.669,1.66-4.428,1.716c-4.564,0.137-9.012,2.306-11.9,6.281
	c-4.955,6.82-3.445,16.362,3.374,21.318c6.821,4.954,16.362,3.441,21.317-3.376c2.89-3.978,3.574-8.88,2.299-13.258
	c-0.492-1.693-0.402-3.458,0.262-4.746c0.037-0.068,0.072-0.136,0.113-0.204c0.004-0.008,0.01-0.016,0.014-0.023
	c0.074-0.123,0.154-0.243,0.238-0.36c1.074-1.479,2.748-2.259,4.446-2.26c1.7,0.001,3.37,0.781,4.446,2.26
	c0.086,0.117,0.167,0.237,0.241,0.36c0.006,0.007,0.009,0.015,0.014,0.023c0.04,0.067,0.074,0.135,0.111,0.204
	c0.668,1.288,0.756,3.053,0.267,4.746c-1.28,4.378-0.596,9.281,2.296,13.258c4.954,6.817,14.495,8.33,21.316,3.376
	c6.816-4.956,8.329-14.499,3.374-21.318c-2.885-3.975-7.336-6.144-11.898-6.281c-1.758-0.056-3.411-0.686-4.431-1.716
	c-0.053-0.055-0.108-0.111-0.157-0.169c-0.007-0.007-0.013-0.014-0.021-0.021c-0.093-0.11-0.183-0.223-0.267-0.34
	c-1.075-1.478-1.301-3.313-0.777-4.927c0.526-1.616,1.787-2.965,3.524-3.532c0.139-0.044,0.275-0.083,0.418-0.115
	c0.007-0.003,0.017-0.005,0.025-0.007c0.077-0.017,0.15-0.028,0.229-0.044c1.428-0.234,3.135,0.226,4.593,1.216
	c3.771,2.571,8.645,3.431,13.32,1.913C114.635,50.35,119.023,41.742,116.416,33.726z M102.282,29.211
	c1.175,0,2.381,0.238,3.578,0.708c1.292,0.514,2.316,1.207,3.053,2.057c0.279,0.328,0.421,0.664,0.421,1.002
	c0,0.396-0.155,0.76-0.448,1.054c-0.292,0.29-0.654,0.444-1.053,0.444c-0.328,0-0.666-0.146-1.004-0.434
	c-0.784-0.671-0.784-0.672-0.782-0.671c-1.085-0.83-2.325-1.234-3.778-1.234c-1.783,0-3.267,0.616-4.536,1.884
	c-1.268,1.269-1.885,2.752-1.885,4.535c0,1.792,0.617,3.28,1.885,4.549c1.27,1.267,2.753,1.883,4.536,1.883
	c1.453,0,2.689-0.403,3.776-1.231l0.796-0.684c0.329-0.28,0.664-0.422,0.992-0.422c0.398,0,0.761,0.153,1.053,0.445
	c0.293,0.292,0.448,0.655,0.448,1.053c0,0.34-0.142,0.673-0.421,0.991c-0.735,0.854-1.761,1.551-3.055,2.069
	c-1.195,0.465-2.401,0.704-3.576,0.704c-2.573,0-4.801-0.923-6.619-2.741c-1.817-1.819-2.741-4.045-2.741-6.616
	c0-2.563,0.927-4.784,2.748-6.604l0,0C97.493,30.135,99.717,29.211,102.282,29.211z M82.641,42.527c0,0.226-0.054,0.447-0.161,0.643
	l-7.429,14.838c-0.367,0.754-0.91,0.912-1.3,0.912c-0.394,0-0.937-0.16-1.301-0.92c0,0-1.459-2.902-2.237-4.449
	c-0.005-0.006-0.005-0.012-0.009-0.018c-0.036-0.076-0.115-0.131-0.208-0.131c-0.089,0-0.165,0.054-0.202,0.128
	c-0.004,0.008-0.008,0.015-0.01,0.023c-0.777,1.552-2.232,4.456-2.232,4.456c-0.369,0.754-0.913,0.912-1.305,0.912
	c-0.384,0-0.918-0.157-1.303-0.908l-7.419-14.829c-0.11-0.208-0.165-0.429-0.165-0.656c0-0.376,0.158-0.714,0.455-0.978
	c0.283-0.248,0.613-0.375,0.979-0.375c0.528,0,0.955,0.27,1.203,0.757c0,0,4.738,9.468,6.035,12.058
	c0.004,0.01,0.008,0.017,0.012,0.024c0.039,0.076,0.114,0.128,0.203,0.128c0.09,0,0.168-0.052,0.206-0.128
	c0.002-0.007,0.01-0.014,0.011-0.024c0.688-1.372,1.817-3.632,1.982-3.96c-0.227-0.457-3.426-6.845-3.426-6.845
	c-0.111-0.208-0.166-0.428-0.166-0.657c0-0.376,0.159-0.714,0.457-0.978c0.274-0.245,0.611-0.375,0.965-0.375
	c0.536,0,0.968,0.27,1.216,0.757c0,0,1.501,2.998,2.288,4.571c0.006,0.011,0.01,0.02,0.016,0.028c0.039,0.073,0.111,0.125,0.2,0.125
	s0.159-0.049,0.2-0.12c0.008-0.01,0.012-0.021,0.017-0.034c0.791-1.574,2.293-4.572,2.293-4.572
	c0.248-0.485,0.678-0.754,1.215-0.754c0.354,0,0.688,0.13,0.969,0.375c0.296,0.264,0.457,0.603,0.457,0.978
	c0,0.228-0.058,0.449-0.165,0.643c0,0-3.207,6.401-3.436,6.859c0.163,0.329,1.301,2.593,1.988,3.965
	c0.002,0.005,0.004,0.009,0.006,0.014c0.04,0.079,0.116,0.133,0.211,0.133c0.088,0,0.165-0.053,0.204-0.13
	c0.003-0.006,0.007-0.012,0.011-0.02C75.262,51.402,80,41.929,80,41.929c0.25-0.485,0.678-0.754,1.204-0.754
	c0.364,0,0.697,0.127,0.978,0.375C82.481,41.813,82.641,42.152,82.641,42.527z M45.69,30.854v15.439
	c0,0.937-0.576,1.517-1.506,1.517c-0.945,0-1.509-0.567-1.509-1.517c0,0,0-4.825,0-5.97c0-0.134-0.108-0.242-0.243-0.242
	c-1.291,0-7.361,0-8.652,0c-0.135,0-0.242,0.108-0.242,0.242c0,1.145,0,5.97,0,5.97c0,0.937-0.576,1.517-1.506,1.517
	c-0.934,0-1.508-0.58-1.508-1.517V30.854c0-0.937,0.574-1.519,1.508-1.519c0.93,0,1.506,0.582,1.506,1.519c0,0,0,4.825,0,5.971
	c0,0.134,0.107,0.241,0.242,0.241c1.291,0,7.361,0,8.652,0c0.135,0,0.243-0.107,0.243-0.241c0-1.146,0-5.971,0-5.971
	c0-0.937,0.576-1.519,1.509-1.519C45.114,29.334,45.69,29.917,45.69,30.854z"/>
<path d="M11.601,121.706c0,0.555-0.274,0.834-0.821,0.834c-0.548,0-0.821-0.279-0.821-0.835v-6.62H1.643v6.62
	c0,0.556-0.275,0.835-0.821,0.835c-0.547,0-0.821-0.279-0.821-0.834v-14.887c0-0.556,0.274-0.832,0.821-0.832
	c0.546,0,0.821,0.276,0.821,0.832v6.622h8.315v-6.622c0-0.556,0.273-0.832,0.821-0.832c0.547,0,0.821,0.276,0.821,0.832V121.706z
	 M25.394,116.732c0,1.605-0.568,2.974-1.703,4.105c-1.136,1.134-2.502,1.702-4.098,1.702c-1.594,0-2.959-0.568-4.096-1.702
	c-1.135-1.132-1.703-2.5-1.703-4.105c0-1.596,0.568-2.961,1.703-4.094c1.137-1.133,2.502-1.699,4.096-1.699
	c1.596,0,2.962,0.566,4.098,1.699C24.825,113.771,25.394,115.137,25.394,116.732z M23.751,116.732c0-1.137-0.406-2.111-1.219-2.928
	c-0.813-0.813-1.793-1.223-2.939-1.223c-1.143,0-2.124,0.409-2.938,1.223c-0.813,0.816-1.219,1.791-1.219,2.928
	c0,1.145,0.406,2.124,1.219,2.94c0.813,0.815,1.795,1.225,2.938,1.225c1.146,0,2.127-0.409,2.939-1.225
	C23.345,118.856,23.751,117.877,23.751,116.732z M54.541,119.213c0,0.131-0.038,0.273-0.114,0.433
	c-0.462,0.873-1.164,1.573-2.102,2.1c-0.936,0.529-1.91,0.795-2.92,0.795c-1.596,0-2.961-0.568-4.096-1.702
	c-1.136-1.132-1.703-2.5-1.703-4.105c0-1.596,0.567-2.961,1.703-4.094c1.135-1.133,2.5-1.699,4.096-1.699
	c0.568,0,1.164,0.106,1.787,0.319c0.707,0.244,1.398,0.632,2.072,1.163c0.843,0.663,1.266,1.285,1.266,1.871
	c0,0.298-0.137,0.521-0.411,0.674l-7.813,4.519c0.819,0.941,1.854,1.412,3.1,1.412c1.304,0,2.346-0.478,3.12-1.432
	c0.099-0.144,0.255-0.357,0.473-0.644c0.216-0.285,0.441-0.431,0.677-0.431c0.229,0,0.43,0.08,0.605,0.241
	C54.454,118.792,54.541,118.986,54.541,119.213z M52.491,113.988c-0.83-0.938-1.863-1.406-3.102-1.406
	c-1.141,0-2.116,0.406-2.926,1.22c-0.811,0.815-1.215,1.787-1.215,2.919c0,0.458,0.07,0.898,0.215,1.324L52.491,113.988z
	 M82.014,106.789c0,0.137-0.036,0.269-0.103,0.396l-7.382,14.748c-0.197,0.403-0.468,0.606-0.809,0.606
	c-0.34,0-0.611-0.206-0.807-0.616l-2.918-5.817l-2.916,5.827c-0.196,0.403-0.467,0.606-0.809,0.606
	c-0.333,0-0.604-0.203-0.808-0.606l-7.381-14.748c-0.068-0.128-0.103-0.26-0.103-0.396c0-0.219,0.089-0.407,0.269-0.563
	c0.182-0.159,0.384-0.238,0.613-0.238c0.322,0,0.559,0.149,0.711,0.451l6.698,13.384l2.792-5.578l-3.531-7.059
	c-0.068-0.128-0.104-0.26-0.104-0.396c0-0.219,0.09-0.407,0.27-0.563c0.18-0.159,0.381-0.238,0.603-0.238
	c0.328,0,0.569,0.149,0.723,0.451l2.973,5.941l2.974-5.941c0.151-0.302,0.393-0.451,0.725-0.451c0.221,0,0.42,0.079,0.6,0.238
	c0.179,0.156,0.273,0.345,0.273,0.563c0,0.137-0.038,0.269-0.104,0.396l-3.534,7.059l2.792,5.578l6.698-13.384
	c0.152-0.302,0.391-0.451,0.713-0.451c0.229,0,0.431,0.079,0.613,0.238C81.923,106.382,82.014,106.57,82.014,106.789z
	 M91.617,116.732c0,1.605-0.568,2.974-1.703,4.105c-1.137,1.134-2.502,1.702-4.096,1.702c-1.596,0-2.962-0.568-4.095-1.702
	c-1.139-1.132-1.705-2.5-1.705-4.105c0-1.596,0.566-2.961,1.705-4.094c1.133-1.133,2.499-1.699,4.095-1.699
	c1.594,0,2.959,0.566,4.096,1.699C91.049,113.771,91.617,115.137,91.617,116.732z M89.976,116.732c0-1.137-0.407-2.111-1.218-2.928
	c-0.814-0.813-1.795-1.223-2.939-1.223c-1.147,0-2.126,0.409-2.938,1.223c-0.814,0.816-1.22,1.791-1.22,2.928
	c0,1.145,0.405,2.124,1.22,2.94c0.813,0.815,1.791,1.225,2.938,1.225c1.145,0,2.125-0.409,2.939-1.225
	C89.568,118.856,89.976,117.877,89.976,116.732z M110.077,121.699c0,0.219-0.087,0.412-0.258,0.584
	c-0.168,0.169-0.366,0.257-0.584,0.257c-0.219,0-0.412-0.086-0.578-0.252l-4.968-4.954c-0.141-0.13-0.229-0.273-0.26-0.433v4.805
	c0,0.555-0.274,0.834-0.821,0.834s-0.821-0.279-0.821-0.834v-14.887c0-0.556,0.274-0.832,0.821-0.832s0.821,0.276,0.821,0.832v9.773
	c0.029-0.163,0.113-0.313,0.248-0.445l4.972-4.96c0.166-0.166,0.362-0.248,0.582-0.248s0.417,0.085,0.588,0.258
	c0.171,0.171,0.258,0.365,0.258,0.587c0,0.214-0.085,0.408-0.249,0.583l-4.377,4.367l4.386,4.386
	C109.995,121.294,110.077,121.487,110.077,121.699z M122.119,119.213c0,0.131-0.038,0.273-0.113,0.433
	c-0.462,0.873-1.164,1.573-2.103,2.1c-0.938,0.529-1.912,0.795-2.923,0.795c-1.594,0-2.958-0.568-4.094-1.702
	c-1.136-1.132-1.701-2.5-1.701-4.105c0-1.596,0.565-2.961,1.701-4.094s2.5-1.699,4.094-1.699c0.57,0,1.168,0.106,1.789,0.319
	c0.708,0.244,1.398,0.632,2.074,1.163c0.842,0.663,1.265,1.285,1.265,1.871c0,0.298-0.137,0.521-0.409,0.674l-7.814,4.519
	c0.819,0.941,1.853,1.412,3.096,1.412c1.308,0,2.349-0.478,3.125-1.432c0.098-0.144,0.253-0.357,0.471-0.644
	c0.216-0.285,0.441-0.431,0.68-0.431c0.227,0,0.426,0.08,0.604,0.241C122.032,118.792,122.119,118.986,122.119,119.213z
	 M120.07,113.988c-0.831-0.938-1.863-1.406-3.103-1.406c-1.141,0-2.116,0.406-2.927,1.22c-0.809,0.815-1.215,1.787-1.215,2.919
	c0,0.458,0.073,0.898,0.216,1.324L120.07,113.988z M139,118.812c0,1.025-0.368,1.902-1.1,2.634
	c-0.731,0.728-1.604,1.095-2.622,1.095c-0.763,0-1.471-0.225-2.118-0.669c-0.649-0.442-1.101-1.018-1.359-1.725
	c-0.046-0.12-0.069-0.231-0.069-0.33c0-0.229,0.088-0.42,0.263-0.575c0.177-0.155,0.377-0.233,0.606-0.233
	c0.257,0,0.496,0.166,0.717,0.493c0.342,0.519,0.558,0.82,0.641,0.903c0.334,0.329,0.777,0.493,1.333,0.493
	c0.57,0,1.057-0.206,1.461-0.615c0.403-0.408,0.605-0.897,0.605-1.471c0-1.27-0.709-1.964-2.122-2.086
	c-0.854-0.067-1.542-0.348-2.066-0.845c-0.563-0.523-0.844-1.206-0.844-2.049c0-0.797,0.284-1.478,0.854-2.044
	c0.566-0.565,1.248-0.849,2.046-0.849c1.154,0,1.984,0.482,2.491,1.443c0.082,0.161,0.126,0.306,0.126,0.437
	c0,0.228-0.088,0.423-0.263,0.584c-0.177,0.16-0.379,0.241-0.605,0.241c-0.229,0-0.486-0.179-0.768-0.532
	c-0.281-0.354-0.614-0.53-0.995-0.53c-0.341,0-0.635,0.123-0.88,0.372c-0.243,0.247-0.364,0.542-0.364,0.878
	c0,0.751,0.433,1.169,1.3,1.253c1.101,0.104,1.991,0.471,2.659,1.093C138.641,116.847,139,117.725,139,118.812z M143.439,106.794
	c0,0.106-0.021,0.221-0.067,0.343l-1.662,4.126c-0.136,0.34-0.384,0.511-0.74,0.511c-0.226,0-0.43-0.077-0.605-0.231
	c-0.174-0.154-0.261-0.344-0.261-0.569c0-0.107,0.02-0.217,0.055-0.329l1.659-4.124c0.139-0.355,0.389-0.532,0.748-0.532
	c0.232,0,0.435,0.078,0.609,0.232C143.354,106.376,143.439,106.568,143.439,106.794z M30.912,141.072
	c0,0.182-0.087,0.372-0.261,0.569c-0.64,0.745-1.529,1.345-2.666,1.8c-1.07,0.418-2.131,0.626-3.18,0.626
	c-2.284,0-4.236-0.809-5.854-2.426c-1.615-1.616-2.425-3.569-2.425-5.856c0-2.276,0.81-4.224,2.431-5.842
	c1.621-1.616,3.57-2.427,5.848-2.427c1.049,0,2.109,0.209,3.18,0.627c1.137,0.456,2.026,1.053,2.666,1.789
	c0.174,0.205,0.261,0.398,0.261,0.582c0,0.228-0.085,0.428-0.258,0.598c-0.171,0.171-0.369,0.256-0.599,0.256
	c-0.174,0-0.365-0.087-0.569-0.262c-0.166-0.155-0.425-0.376-0.777-0.666c-1.118-0.854-2.422-1.282-3.913-1.282
	c-1.824,0-3.385,0.649-4.683,1.945c-1.296,1.297-1.946,2.858-1.946,4.682c0,1.834,0.65,3.399,1.946,4.697
	c1.298,1.297,2.858,1.943,4.683,1.943c1.491,0,2.795-0.428,3.913-1.28c0.168-0.152,0.427-0.374,0.777-0.663
	c0.204-0.176,0.396-0.264,0.569-0.264c0.229,0,0.428,0.087,0.599,0.257C30.827,140.646,30.912,140.846,30.912,141.072z
	 M43.614,138.262c0,1.605-0.566,2.976-1.702,4.106c-1.136,1.134-2.501,1.699-4.097,1.699c-1.594,0-2.959-0.565-4.094-1.699
	c-1.138-1.131-1.705-2.501-1.705-4.106c0-1.595,0.567-2.96,1.705-4.095c1.135-1.132,2.5-1.698,4.094-1.698
	c1.596,0,2.961,0.566,4.097,1.698C43.048,135.302,43.614,136.667,43.614,138.262z M41.974,138.262c0-1.135-0.405-2.11-1.221-2.928
	c-0.813-0.815-1.791-1.225-2.938-1.225c-1.143,0-2.124,0.409-2.938,1.225c-0.813,0.817-1.219,1.793-1.219,2.928
	c0,1.146,0.405,2.125,1.219,2.94c0.813,0.814,1.795,1.224,2.938,1.224c1.146,0,2.125-0.409,2.938-1.224
	C41.568,140.387,41.974,139.407,41.974,138.262z M88.842,139.929c0,1.14-0.405,2.115-1.213,2.926
	c-0.808,0.809-1.781,1.213-2.921,1.213c-1.136,0-2.109-0.404-2.918-1.213c-0.808-0.811-1.213-1.786-1.213-2.926v-6.64
	c0-0.546,0.276-0.82,0.825-0.82c0.546,0,0.816,0.274,0.816,0.823v6.646c0,0.683,0.244,1.269,0.731,1.758
	c0.487,0.487,1.073,0.729,1.758,0.729c0.687,0,1.273-0.242,1.76-0.729c0.487-0.489,0.731-1.075,0.731-1.758v-6.646
	c0-0.549,0.274-0.823,0.826-0.823c0.544,0,0.816,0.274,0.816,0.82V139.929z M104.731,128.767c0,0.339-0.124,0.628-0.37,0.868
	c-0.248,0.239-0.541,0.358-0.881,0.358c-0.343,0-0.637-0.119-0.883-0.358c-0.246-0.24-0.37-0.529-0.37-0.868
	c0-0.341,0.124-0.634,0.37-0.88s0.54-0.37,0.883-0.37c0.34,0,0.633,0.124,0.881,0.37
	C104.607,128.133,104.731,128.426,104.731,128.767z M104.301,133.289v9.946c0,0.557-0.272,0.832-0.82,0.832
	c-0.549,0-0.823-0.275-0.823-0.832v-9.946c0-0.546,0.274-0.82,0.823-0.82C104.028,132.469,104.301,132.743,104.301,133.289z
	 M114.775,142.45c0,0.563-0.29,0.989-0.869,1.277c-0.456,0.228-0.997,0.34-1.618,0.34c-0.912,0-1.692-0.325-2.343-0.976
	c-0.652-0.651-0.977-1.435-0.977-2.347v-6.636h-1.646c-0.552,0-0.828-0.273-0.828-0.825c0-0.543,0.276-0.815,0.828-0.815h1.646
	v-4.122c0-0.552,0.275-0.83,0.821-0.83s0.823,0.278,0.823,0.83v4.122h1.646c0.554,0,0.829,0.272,0.829,0.815
	c0,0.552-0.275,0.825-0.829,0.825h-1.646v6.646c0,0.458,0.162,0.851,0.485,1.179c0.325,0.328,0.719,0.491,1.175,0.491
	c0.375,0,0.734-0.139,1.078-0.415c0.345-0.276,0.598-0.415,0.758-0.415C114.552,141.596,114.775,141.881,114.775,142.45z
	 M124.723,144.905c0,1.132-0.405,2.106-1.213,2.921s-1.781,1.221-2.921,1.221c-0.714,0-1.398-0.186-2.06-0.561
	c-0.684-0.38-1.187-0.882-1.515-1.498c-0.082-0.167-0.125-0.316-0.125-0.443c0-0.225,0.089-0.415,0.269-0.579
	c0.176-0.164,0.377-0.245,0.6-0.245c0.188,0,0.533,0.28,1.03,0.842c0.498,0.563,1.1,0.843,1.806,0.843
	c0.684,0,1.271-0.245,1.757-0.733s0.73-1.076,0.73-1.762v-1.674c-0.739,0.556-1.565,0.831-2.486,0.831
	c-1.137,0-2.112-0.404-2.923-1.213c-0.808-0.811-1.213-1.786-1.213-2.926v-6.64c0-0.546,0.274-0.82,0.827-0.82
	c0.544,0,0.814,0.274,0.814,0.823v6.646c0,0.683,0.243,1.269,0.73,1.758c0.488,0.487,1.073,0.729,1.759,0.729
	c0.685,0,1.271-0.242,1.761-0.729c0.485-0.489,0.73-1.075,0.73-1.758v-6.646c0-0.549,0.275-0.823,0.826-0.823
	c0.544,0,0.815,0.274,0.815,0.82V144.905z M32.94,113.312c0.49,0.488,0.736,1.073,0.736,1.758v6.636
	c0,0.556,0.272,0.835,0.815,0.835c0.55,0,0.826-0.279,0.826-0.835v-6.636c0-0.685,0.244-1.27,0.735-1.758
	c0.49-0.486,1.078-0.729,1.768-0.729c0.688,0,1.276,0.243,1.768,0.729c0.49,0.488,0.735,1.073,0.735,1.758v6.636
	c0,0.556,0.271,0.835,0.815,0.835c0.551,0,0.826-0.279,0.826-0.835v-6.626c0-1.141-0.406-2.115-1.215-2.926
	c-0.809-0.81-1.784-1.214-2.923-1.214c-1.384,0-2.489,0.557-3.317,1.667c-0.828-1.11-1.932-1.667-3.307-1.667h-0.023
	c-1.139,0-2.115,0.404-2.924,1.214c-0.809,0.811-1.214,1.785-1.214,2.926v6.626c0,0.556,0.275,0.835,0.825,0.835
	c0.545,0,0.816-0.279,0.816-0.835v-6.636c0-0.685,0.244-1.27,0.734-1.758c0.49-0.486,1.08-0.729,1.769-0.729
	C31.866,112.582,32.449,112.825,32.94,113.312z M51.692,134.84c0.492,0.489,0.736,1.074,0.736,1.76v6.636
	c0,0.557,0.271,0.832,0.814,0.832c0.552,0,0.828-0.275,0.828-0.832V136.6c0-0.686,0.244-1.271,0.732-1.76
	c0.491-0.486,1.08-0.73,1.769-0.73s1.278,0.244,1.769,0.73c0.49,0.489,0.734,1.074,0.734,1.76v6.636
	c0,0.557,0.272,0.832,0.816,0.832c0.551,0,0.826-0.275,0.826-0.832v-6.627c0-1.14-0.406-2.114-1.215-2.925
	c-0.81-0.811-1.785-1.215-2.923-1.215c-1.384,0-2.49,0.556-3.317,1.668c-0.828-1.112-1.93-1.668-3.305-1.668h-0.025
	c-1.141,0-2.115,0.404-2.924,1.215c-0.81,0.811-1.214,1.785-1.214,2.925v6.627c0,0.557,0.275,0.832,0.825,0.832
	c0.545,0,0.816-0.275,0.816-0.832V136.6c0-0.686,0.244-1.271,0.734-1.76c0.491-0.486,1.08-0.73,1.769-0.73
	C50.616,134.109,51.2,134.354,51.692,134.84z M69.347,134.84c0.488,0.489,0.736,1.074,0.736,1.76v6.636
	c0,0.557,0.271,0.832,0.816,0.832c0.551,0,0.824-0.275,0.824-0.832V136.6c0-0.686,0.247-1.271,0.734-1.76
	c0.492-0.486,1.08-0.73,1.769-0.73c0.689,0,1.28,0.244,1.768,0.73c0.492,0.489,0.736,1.074,0.736,1.76v6.636
	c0,0.557,0.272,0.832,0.815,0.832c0.551,0,0.827-0.275,0.827-0.832v-6.627c0-1.14-0.404-2.114-1.215-2.925
	c-0.809-0.811-1.783-1.215-2.924-1.215c-1.384,0-2.488,0.556-3.317,1.668c-0.83-1.112-1.929-1.668-3.307-1.668h-0.023
	c-1.14,0-2.115,0.404-2.924,1.215c-0.81,0.811-1.215,1.785-1.215,2.925v6.627c0,0.557,0.275,0.832,0.826,0.832
	c0.545,0,0.816-0.275,0.816-0.832V136.6c0-0.686,0.245-1.271,0.735-1.76c0.49-0.486,1.077-0.73,1.767-0.73
	C68.271,134.109,68.854,134.354,69.347,134.84z M95.404,111.431c0.523-0.334,1.097-0.501,1.717-0.501
	c0.568,0,1.124,0.154,1.664,0.459c0.542,0.307,0.943,0.709,1.202,1.206c0.082,0.169,0.126,0.316,0.126,0.447
	c0,0.222-0.093,0.414-0.27,0.573c-0.182,0.162-0.38,0.243-0.602,0.243c-0.22,0-0.51-0.215-0.869-0.648
	c-0.358-0.43-0.782-0.644-1.269-0.644c-0.458,0-0.849,0.164-1.172,0.489c-0.324,0.331-0.485,0.72-0.485,1.169v7.479
	c0,0.557-0.272,0.836-0.815,0.836c-0.549,0-0.82-0.279-0.82-0.835v-6.16C93.812,114.369,93.631,112.602,95.404,111.431z
	 M125.924,111.431c0.521-0.334,1.095-0.501,1.715-0.501c0.57,0,1.123,0.154,1.666,0.459c0.542,0.307,0.942,0.709,1.2,1.206
	c0.083,0.169,0.126,0.316,0.126,0.447c0,0.222-0.092,0.414-0.271,0.573c-0.18,0.162-0.379,0.243-0.6,0.243
	c-0.222,0-0.511-0.215-0.87-0.648c-0.355-0.43-0.78-0.644-1.269-0.644c-0.456,0-0.847,0.164-1.171,0.489
	c-0.322,0.331-0.485,0.72-0.485,1.169v7.479c0,0.557-0.274,0.836-0.816,0.836c-0.547,0-0.816-0.279-0.816-0.835v-6.16
	C124.333,114.369,124.15,112.602,125.924,111.431z M95.733,132.469c-1.132,0-2.104,0.404-2.919,1.215
	c-0.813,0.811-1.221,1.785-1.221,2.925v6.627c0,0.557,0.276,0.832,0.827,0.832c0.543,0,0.816-0.275,0.816-0.832V136.6
	c0-0.686,0.246-1.271,0.74-1.76c0.492-0.486,1.082-0.73,1.763-0.73c0.683,0,1.268,0.244,1.763,0.73
	c0.492,0.489,0.739,1.074,0.739,1.76v6.636c0,0.557,0.272,0.832,0.815,0.832c0.549,0,0.826-0.275,0.826-0.832v-6.627
	c0-1.14-0.406-2.114-1.219-2.925c-0.814-0.811-1.787-1.215-2.92-1.215H95.733z"/>
</svg>
