<svg viewBox="0 0 10 10" xmlns="http://www.w3.org/2000/svg"><path d="m.625 1.25h8.75c.34517797 0 .625.27982203.625.625s-.27982203.625-.625.625h-8.75c-.34517797 0-.625-.27982203-.625-.625s.27982203-.625.625-.625zm0 3.125h8.75c.34517797 0 .625.27982203.625.625s-.27982203.625-.625.625h-8.75c-.34517797 0-.625-.27982203-.625-.625s.27982203-.625.625-.625zm0 3.125h8.75c.34517797 0 .625.27982203.625.625s-.27982203.625-.625.625h-8.75c-.34517797 0-.625-.27982203-.625-.625s.27982203-.625.625-.625z" fill-rule="evenodd"/></svg>