<?xml version="1.0" encoding="utf-8"?>
<!-- Generator: Adobe Illustrator 17.0.0, SVG Export Plug-In . SVG Version: 6.00 Build 0)  -->
<!DOCTYPE svg PUBLIC "-//W3C//DTD SVG 1.1//EN" "http://www.w3.org/Graphics/SVG/1.1/DTD/svg11.dtd">
<svg version="1.1" id="レイヤー_1" xmlns="http://www.w3.org/2000/svg" xmlns:xlink="http://www.w3.org/1999/xlink" x="0px"
	 y="0px" width="500px" height="500px" viewBox="0 0 500 500" enable-background="new 0 0 500 500" xml:space="preserve">
<g>
	<g>
		<path fill="#47BBC5" d="M187.56,209.732l-20.909,10.944c-0.111,0.058-0.641,0.363-0.806,0.658
			c-0.361,0.645-4.233,7.419-4.286,7.515c-0.295,0.522-0.256,1.184,0.354,1.794l21.412,21.412c0.723,0.724,1.894,1.007,2.611,0.629
			l21.238-11.115c0.089-0.047,0.171-0.099,0.235-0.164c0.456-0.456,4.358-7.742,4.421-7.806c0.457-0.457,0.388-1.193-0.247-1.827
			l-21.409-21.412C189.449,209.638,188.28,209.356,187.56,209.732z"/>
		<path fill="#70C7D9" d="M207.161,239.579c0.725,0.725,0.73,1.617,0.012,1.991l-21.238,11.115
			c-0.717,0.377-1.888,0.094-2.611-0.629l-21.412-21.412c-0.724-0.723-0.728-1.615-0.009-1.991l21.237-11.115
			c0.718-0.375,1.886-0.092,2.609,0.63L207.161,239.579z"/>
	</g>
	<g>
		<path fill="#ECD217" d="M98.844,239.127l10.944-20.91c0.058-0.111,0.364-0.642,0.658-0.807c0.645-0.362,7.419-4.232,7.515-4.288
			c0.522-0.293,1.184-0.256,1.793,0.356l21.413,21.411c0.724,0.723,1.006,1.895,0.629,2.612l-11.115,21.237
			c-0.048,0.09-0.099,0.171-0.165,0.235c-0.456,0.457-7.741,4.357-7.804,4.421c-0.456,0.456-1.194,0.388-1.828-0.247l-21.411-21.411
			C98.749,241.016,98.468,239.847,98.844,239.127z"/>
		<path fill="#F8E961" d="M128.691,258.728c0.724,0.725,1.615,0.729,1.991,0.011l11.115-21.237c0.377-0.717,0.095-1.889-0.629-2.612
			l-21.413-21.411c-0.722-0.724-1.615-0.728-1.99-0.009l-11.116,21.236c-0.375,0.719-0.094,1.888,0.63,2.61L128.691,258.728z"/>
	</g>
	<g>
		<path fill="#5AB546" d="M158.973,187.187c-0.135-0.05-0.359-0.005-0.657,0.152l-21.661,11.321c-0.733,0.382-1.637,1.286-2.02,2.02
			l-11.321,21.661c-0.189,0.361-0.215,0.614-0.105,0.73c0.112,0.12,6.657,6.645,6.764,6.763c0.11,0.125,0.369,0.104,0.743-0.094
			l21.661-11.32c0.732-0.382,1.636-1.286,2.018-2.019l11.322-21.661c0.191-0.367,0.217-0.621,0.102-0.735
			C165.704,193.89,159.17,187.26,158.973,187.187z"/>
		<path fill="#7EBF58" d="M147.628,209.632c-0.382,0.734-1.287,1.637-2.019,2.02l-21.661,11.321c-0.734,0.385-1.017,0.1-0.633-0.632
			l11.322-21.661c0.382-0.733,1.286-1.637,2.018-2.019l21.661-11.322c0.734-0.382,1.017-0.1,0.633,0.633L147.628,209.632z"/>
	</g>
	<g>
		<path fill="#E7364A" d="M125.328,247.505l-20.911,10.944c-0.11,0.059-0.642,0.364-0.806,0.658
			c-0.362,0.646-4.233,7.419-4.288,7.516c-0.293,0.522-0.255,1.184,0.355,1.793l21.412,21.412c0.723,0.724,1.893,1.007,2.611,0.629
			l21.237-11.115c0.09-0.047,0.17-0.099,0.236-0.163c0.457-0.458,4.357-7.742,4.421-7.806c0.458-0.456,0.388-1.194-0.247-1.827
			l-21.41-21.413C127.215,247.411,126.046,247.129,125.328,247.505z"/>
		<path fill="#E9545D" d="M144.927,277.352c0.725,0.724,0.729,1.616,0.011,1.991l-21.237,11.115
			c-0.718,0.377-1.888,0.094-2.611-0.629l-21.412-21.412c-0.723-0.722-0.727-1.614-0.01-1.99l21.237-11.115
			c0.72-0.376,1.888-0.094,2.611,0.629L144.927,277.352z"/>
	</g>
	<g>
		<path fill="#A5559C" d="M181.954,271.559c-0.135-0.049-0.359-0.004-0.658,0.151l-21.66,11.322c-0.733,0.382-1.636,1.286-2.02,2.02
			l-11.321,21.66c-0.189,0.362-0.215,0.614-0.106,0.73c0.114,0.119,6.659,6.644,6.765,6.763c0.109,0.124,0.367,0.103,0.744-0.094
			l21.66-11.32c0.731-0.382,1.636-1.286,2.018-2.02l11.322-21.66c0.191-0.366,0.217-0.621,0.103-0.735
			C188.685,278.262,182.151,271.632,181.954,271.559z"/>
		<path fill="#B86EA9" d="M170.609,294.004c-0.382,0.733-1.286,1.637-2.018,2.02l-21.662,11.32c-0.732,0.385-1.016,0.1-0.631-0.634
			l11.321-21.66c0.381-0.732,1.287-1.637,2.017-2.018l21.661-11.323c0.735-0.382,1.018-0.099,0.634,0.633L170.609,294.004z"/>
	</g>
	<g>
		<path fill="#25489C" d="M169.465,262.689l10.944-20.91c0.058-0.111,0.364-0.641,0.658-0.806c0.645-0.361,7.419-4.233,7.515-4.287
			c0.523-0.295,1.184-0.257,1.794,0.355l21.412,21.412c0.724,0.723,1.008,1.893,0.63,2.61l-11.115,21.239
			c-0.047,0.088-0.099,0.169-0.164,0.234c-0.456,0.457-7.742,4.357-7.806,4.421c-0.457,0.456-1.193,0.388-1.828-0.246l-21.41-21.412
			C169.371,264.577,169.089,263.408,169.465,262.689z"/>
		<path fill="#425AA6" d="M199.311,282.289c0.724,0.725,1.616,0.73,1.991,0.013l11.115-21.239c0.378-0.717,0.094-1.887-0.63-2.61
			l-21.412-21.412c-0.722-0.724-1.614-0.728-1.99-0.01l-11.116,21.237c-0.374,0.72-0.093,1.887,0.63,2.611L199.311,282.289z"/>
	</g>
</g>
<g>
	<path fill="#4B5654" d="M256.732,211.155c10.518,0,15.736,6.129,15.736,6.129l-3.809,5.632c0,0-4.473-4.804-11.596-4.804
		c-8.448,0-14.577,6.294-14.577,14.909c0,8.531,6.129,15.074,14.826,15.074c7.785,0,12.921-5.632,12.921-5.632l3.23,5.88
		c0,0-5.797,6.708-16.73,6.708c-13.169,0-22.445-9.359-22.445-21.948C234.287,220.68,243.563,211.155,256.732,211.155z"/>
	<path fill="#4B5654" d="M277.932,198.078l8.034-2.493v45.636c0,5.052,1.987,5.964,4.472,5.964c0.746,0,1.408-0.083,1.408-0.083
		v7.123c0,0-1.243,0.165-2.65,0.165c-4.556,0-11.264-1.242-11.264-11.761V198.078z"/>
	<path fill="#4B5654" d="M320.917,227.886h1.821v-0.746c0-6.874-3.892-9.194-9.193-9.194c-6.46,0-11.679,4.059-11.679,4.059
		l-3.312-5.88c0,0,6.046-4.97,15.653-4.97c10.602,0,16.566,5.798,16.566,16.399v26.504h-7.455v-3.975
		c0-1.906,0.166-3.313,0.166-3.313h-0.166c0,0-3.396,8.282-13.418,8.282c-7.206,0-14.246-4.389-14.246-12.755
		C295.655,228.466,313.876,227.886,320.917,227.886z M311.639,248.592c6.792,0,11.182-7.123,11.182-13.335v-1.326h-2.07
		c-6.046,0-16.979,0.414-16.979,7.952C303.771,245.279,306.421,248.592,311.639,248.592z"/>
	<path fill="#4B5654" d="M340.045,243.209c0,0,4.721,4.887,12.009,4.887c3.479,0,6.958-1.823,6.958-5.218
		c0-7.703-21.534-6.13-21.534-19.795c0-7.62,6.791-11.927,15.157-11.927c9.194,0,13.5,4.639,13.5,4.639l-3.23,6.046
		c0,0-3.727-3.727-10.353-3.727c-3.479,0-6.874,1.491-6.874,5.135c0,7.538,21.534,5.881,21.534,19.63
		c0,6.957-5.963,12.175-15.157,12.175c-10.27,0-15.903-6.128-15.903-6.128L340.045,243.209z"/>
	<path fill="#4B5654" d="M374.416,243.209c0,0,4.721,4.887,12.009,4.887c3.478,0,6.957-1.823,6.957-5.218
		c0-7.703-21.534-6.13-21.534-19.795c0-7.62,6.791-11.927,15.157-11.927c9.193,0,13.5,4.639,13.5,4.639l-3.229,6.046
		c0,0-3.728-3.727-10.354-3.727c-3.478,0-6.875,1.491-6.875,5.135c0,7.538,21.535,5.881,21.535,19.63
		c0,6.957-5.963,12.175-15.157,12.175c-10.27,0-15.903-6.128-15.903-6.128L374.416,243.209z"/>
</g>
<g>
	<path fill="#8F918E" d="M234.287,278.316l4.736-1.516v3.376c0,1.007-0.101,1.864-0.101,1.864h0.101
		c1.21-2.973,4.787-5.844,8.767-5.844c4.283,0,6.802,1.965,7.659,5.794h0.101c1.41-3.073,4.938-5.794,9.068-5.794
		c5.744,0,8.414,3.275,8.414,9.774v16.324h-4.887v-15.266c0-3.578-0.705-6.399-4.535-6.399c-3.577,0-6.247,3.023-7.154,6.499
		c-0.251,1.058-0.353,2.217-0.353,3.527v11.639h-4.887v-15.266c0-3.326-0.504-6.399-4.434-6.399c-3.728,0-6.348,3.073-7.305,6.701
		c-0.252,1.008-0.303,2.167-0.303,3.325v11.639h-4.887V278.316z"/>
	<path fill="#8F918E" d="M289.3,276.196c7.205,0,11.034,5.34,11.034,11.94c0,0.655-0.151,2.116-0.151,2.116h-18.591
		c0.252,5.593,4.232,8.414,8.767,8.414c4.383,0,7.558-2.972,7.558-2.972l2.015,3.577c0,0-3.779,3.627-9.875,3.627
		c-8.011,0-13.503-5.794-13.503-13.352C276.553,281.435,282.045,276.196,289.3,276.196z M295.346,286.574
		c-0.151-4.383-2.872-6.499-6.146-6.499c-3.729,0-6.751,2.317-7.457,6.499H295.346z"/>
	<path fill="#8F918E" d="M305.471,281.083h-3.326v-3.93h3.477v-5.899l4.736-1.456v7.355h6.147v3.93h-6.147v11.336
		c0,5.088,3.577,5.743,5.441,5.743c0.706,0,1.159-0.101,1.159-0.101v4.333c0,0-0.705,0.101-1.713,0.101
		c-3.274,0-9.774-1.008-9.774-9.522V281.083z"/>
	<path fill="#8F918E" d="M320.18,268.148l4.887-1.424v13.049c0,1.21-0.101,2.116-0.101,2.116h0.101
		c1.108-2.469,4.333-5.693,9.422-5.693c5.995,0,8.766,3.275,8.766,9.774v16.324h-4.887v-15.216c0-3.577-0.756-6.398-4.837-6.398
		c-3.829,0-7.003,2.62-8.061,6.298c-0.302,1.007-0.403,2.166-0.403,3.375v11.941h-4.887V268.148z"/>
	<path fill="#8F918E" d="M360.433,276.196c7.608,0,13.755,5.592,13.755,13.301c0,7.759-6.147,13.402-13.755,13.402
		c-7.607,0-13.754-5.643-13.754-13.402C346.679,281.788,352.826,276.196,360.433,276.196z M360.433,298.666
		c4.837,0,8.767-3.829,8.767-9.169c0-5.29-3.93-9.069-8.767-9.069c-4.786,0-8.767,3.779-8.767,9.069
		C351.667,294.837,355.647,298.666,360.433,298.666z"/>
	<path fill="#8F918E" d="M389.129,276.196c5.895,0,7.86,4.03,7.86,4.03h0.101c0,0-0.101-0.755-0.101-1.712v-10.397l4.887-1.393
		v35.57h-4.635v-2.418c0-1.007,0.051-1.713,0.051-1.713h-0.101c0,0-2.066,4.736-8.363,4.736c-6.902,0-11.235-5.441-11.235-13.352
		C377.591,281.435,382.378,276.196,389.129,276.196z M389.784,298.666c3.779,0,7.355-2.67,7.355-9.169
		c0-4.534-2.367-9.069-7.204-9.069c-4.031,0-7.356,3.325-7.356,9.119C382.579,295.089,385.551,298.666,389.784,298.666z"/>
</g>
</svg>
