<?xml version="1.0" encoding="utf-8"?>
<!-- Generator: Adobe Illustrator 16.0.4, SVG Export Plug-In . SVG Version: 6.00 Build 0)  -->
<!DOCTYPE svg PUBLIC "-//W3C//DTD SVG 1.1//EN" "http://www.w3.org/Graphics/SVG/1.1/DTD/svg11.dtd">
<svg version="1.1" id="レイヤー_1" xmlns="http://www.w3.org/2000/svg" xmlns:xlink="http://www.w3.org/1999/xlink" x="0px"
	 y="0px" width="600px" height="412px" viewBox="0 0 600 412" enable-background="new 0 0 600 412" xml:space="preserve">
<g>
	<g>
		<polygon fill-rule="evenodd" clip-rule="evenodd" fill="#E44D26" points="142.476,143.369 142.476,143.389 284.887,285.77 
			220.157,143.359 64.798,143.359 0.11,285.77 		"/>
		<g>
			<polygon fill="#F16529" points="0.11,0.973 64.824,143.359 220.182,143.359 284.887,0.973 142.496,143.369 142.496,143.349 			
				"/>
		</g>
	</g>
	<polygon fill-rule="evenodd" clip-rule="evenodd" fill="#369CD6" points="599.774,0.991 457.363,65.718 457.363,221.077 
		599.779,285.77 457.353,143.402 457.373,143.402 	"/>
	<g>
		<polygon fill="#2162AF" points="314.996,285.77 457.383,221.052 457.383,65.695 315.001,0.991 457.394,143.382 457.373,143.382 		
			"/>
	</g>
	<g>
		<path fill="#231815" d="M40.27,389.736H28.333v-27.921H12.578v27.921H0.642v-63.681h11.936v25.307h15.756v-25.307H40.27V389.736z"
			/>
		<path fill="#231815" d="M71.297,389.736H59.404v-53.268H47.116v-10.413h36.469v10.413H71.297V389.736z"/>
		<path fill="#231815" d="M113.339,389.736l-12.201-54.229h-0.483c0.556,4.182,0.834,8.016,0.834,11.5v42.729H90.431v-63.681h18.344
			l10.972,50.047h0.352l10.882-50.047h18.607v63.681h-11.321v-43.163c0-3.571,0.205-7.231,0.614-10.979h-0.351l-12.156,54.143
			H113.339z"/>
		<path fill="#231815" d="M160.912,389.736v-63.681h11.936v53.313h16.544v10.367H160.912z"/>
		<path fill="#231815" d="M213.311,349.881c4.827,0,8.667,1.673,11.52,5.012c2.853,3.338,4.279,7.909,4.279,13.72
			c0,6.938-1.777,12.34-5.333,16.203c-3.554,3.858-8.491,5.79-14.811,5.79c-5.617,0-10.167-1.062-13.648-3.18v-11.061
			c1.492,1.071,3.416,2.022,5.772,2.853c2.354,0.823,4.541,1.238,6.561,1.238c6.29,0,9.435-3.626,9.435-10.888
			c0-6.767-3.058-10.15-9.173-10.15c-2.428,0-5.002,0.466-7.723,1.396l-3.863-2.832l1.975-31.927h27.385v10.585h-17.159
			l-0.877,13.765C209.288,350.058,211.174,349.881,213.311,349.881z"/>
		<path fill="#231815" d="M289.757,389.736H260.84v-63.681h28.917v10.236h-16.983v15.156h15.756v10.281h-15.756v17.64h16.983
			V389.736z"/>
		<path fill="#231815" d="M306.828,364.951l-12.198-23.739h12.112l6.494,14.812l6.014-14.812h12.025l-12.289,23.739l12.815,24.785
			h-12.203l-6.934-15.506l-6.447,15.506h-12.157L306.828,364.951z"/>
		<path fill="#231815" d="M359.228,390.605c-2.104,0-3.971-0.47-5.594-1.415c-1.624-0.941-3.141-2.604-4.542-4.986h-0.616
			c0.471,3.949,0.702,6.331,0.702,7.141v19.819h-11.763v-69.952h9.042l2.019,6.317h0.526c2.433-4.82,5.956-7.228,10.579-7.228
			c4.445,0,7.925,2.185,10.443,6.555c2.519,4.369,3.772,10.544,3.772,18.529c0,7.869-1.3,14.044-3.904,18.515
			S363.733,390.605,359.228,390.605z M355.631,350.144c-2.28,0-3.93,1.052-4.936,3.155c-1.012,2.109-1.548,5.599-1.604,10.479v1.522
			c0,5.346,0.511,9.234,1.533,11.672c1.026,2.443,2.726,3.661,5.092,3.661c4.097,0,6.146-5.143,6.146-15.419
			c0-5.052-0.506-8.825-1.513-11.323C359.339,351.393,357.766,350.144,355.631,350.144z"/>
		<path fill="#231815" d="M400.044,390.605c-6.114,0-10.935-2.153-14.464-6.467c-3.524-4.314-5.284-10.418-5.284-18.317
			c0-8.011,1.593-14.268,4.784-18.772c3.186-4.497,7.636-6.747,13.341-6.747c5.325,0,9.522,1.922,12.592,5.771
			c3.075,3.849,4.607,9.24,4.607,16.178v6.186h-23.476c0.086,4.329,0.981,7.545,2.675,9.649c1.7,2.104,4.036,3.155,7.025,3.155
			c3.803,0,7.691-1.174,11.672-3.525v9.539C409.77,389.489,405.277,390.605,400.044,390.605z M398.329,349.229
			c-1.663,0-3.039,0.88-4.122,2.634c-1.081,1.76-1.714,4.48-1.886,8.168h11.85c-0.061-3.54-0.603-6.23-1.629-8.057
			C401.521,350.144,400.114,349.229,398.329,349.229z"/>
		<path fill="#231815" d="M444.193,340.302c1.432,0,2.838,0.218,4.213,0.652l-1.36,11.237c-0.819-0.293-1.887-0.435-3.206-0.435
			c-2.837,0-5.017,1.107-6.539,3.327c-1.522,2.226-2.281,5.457-2.281,9.695v24.957h-11.672v-48.524h9.608l1.314,7.581h0.4
			c1.284-3.05,2.69-5.229,4.213-6.533C440.4,340.954,442.17,340.302,444.193,340.302z"/>
		<path fill="#231815" d="M470.613,380.806c1.638,0,3.407-0.405,5.31-1.22v9.058c-1.902,1.311-4.755,1.962-8.557,1.962
			c-4.243,0-7.389-1.253-9.438-3.767c-2.048-2.514-3.074-6.281-3.074-11.304v-25.13h-4.739v-5.184l6.1-4.182l2.988-10.281h7.46
			v10.453h8.865v9.193h-8.865v25.525C466.663,379.183,467.978,380.806,470.613,380.806z"/>
		<path fill="#231815" d="M509.012,375.535c0,4.733-1.4,8.431-4.192,11.086c-2.791,2.655-6.913,3.984-12.355,3.984
			c-4.824,0-8.818-0.944-11.979-2.832v-10.059c1.607,1.104,3.489,2.018,5.639,2.741c2.154,0.729,4.046,1.093,5.685,1.093
			c1.815,0,3.196-0.445,4.146-1.33c0.951-0.885,1.427-2.054,1.427-3.504c0-1.482-0.496-2.777-1.492-3.88s-2.822-2.452-5.487-4.051
			c-3.54-2.089-6.073-4.319-7.611-6.686c-1.537-2.367-2.306-5.158-2.306-8.385c0-4.122,1.426-7.389,4.278-9.801
			c2.852-2.407,6.767-3.611,11.743-3.611c4.328,0,8.41,1.128,12.243,3.394l-3.818,8.319c-3.13-1.685-5.881-2.523-8.253-2.523
			c-1.492,0-2.609,0.39-3.358,1.173c-0.744,0.784-1.117,1.745-1.117,2.877c0,1.306,0.46,2.469,1.386,3.485
			c0.92,1.017,2.64,2.28,5.153,3.788c3.044,1.83,5.178,3.383,6.407,4.662c1.229,1.274,2.18,2.727,2.853,4.354
			C508.673,371.455,509.012,373.356,509.012,375.535z"/>
		<path fill="#231815" d="M516.295,383.769c0-2.265,0.606-4.021,1.82-5.27c1.213-1.249,3.024-1.876,5.422-1.876
			c2.396,0,4.212,0.616,5.441,1.851c1.229,1.239,1.846,2.999,1.846,5.295c0,2.266-0.638,4.021-1.912,5.27
			c-1.27,1.249-3.064,1.871-5.375,1.871c-2.367,0-4.168-0.632-5.396-1.891C516.911,387.754,516.295,386.004,516.295,383.769z"/>
		<path fill="#231815" d="M539.204,411.164c-2.458,0-4.491-0.364-6.1-1.088v-9.628c1.346,0.524,2.604,0.783,3.773,0.783
			c2.751,0,4.126-2.468,4.126-7.404v-52.615h11.673v54.144c0,5.052-1.179,8.95-3.53,11.691
			C546.79,409.793,543.477,411.164,539.204,411.164z M540.563,328.539c0-1.917,0.562-3.435,1.69-4.552
			c1.127-1.117,2.686-1.674,4.672-1.674c1.962,0,3.5,0.566,4.612,1.693c1.108,1.134,1.664,2.646,1.664,4.532
			c0,1.946-0.566,3.469-1.71,4.571c-1.142,1.108-2.665,1.658-4.566,1.658c-1.9,0-3.434-0.535-4.606-1.612
			C541.15,332.084,540.563,330.542,540.563,328.539z"/>
		<path fill="#231815" d="M584.405,390.605c-2.104,0-3.97-0.47-5.593-1.415c-1.623-0.941-3.142-2.604-4.542-4.986h-0.617
			c0.471,3.949,0.704,6.331,0.704,7.141v19.819h-11.764v-69.952h9.042l2.018,6.317h0.526c2.433-4.82,5.957-7.228,10.58-7.228
			c4.445,0,7.925,2.185,10.443,6.555c2.518,4.369,3.771,10.544,3.771,18.529c0,7.869-1.299,14.044-3.903,18.515
			S588.911,390.605,584.405,390.605z M580.81,350.144c-2.281,0-3.929,1.052-4.936,3.155c-1.012,2.109-1.548,5.599-1.604,10.479
			v1.522c0,5.346,0.511,9.234,1.532,11.672c1.027,2.443,2.726,3.661,5.093,3.661c4.097,0,6.145-5.143,6.145-15.419
			c0-5.052-0.506-8.825-1.513-11.323C584.517,351.393,582.943,350.144,580.81,350.144z"/>
	</g>
</g>
</svg>
