<svg width="1200" height="704" xmlns="http://www.w3.org/2000/svg"><g fill="none" fill-rule="nonzero"><g opacity=".5" transform="translate(4 8)"><path fill="#92D6AD" d="M36 416h24v24H36z"/><path fill="#FADC75" d="M251 480v24l-24-24z"/><path fill="#E3B5E8" d="M244 592h48v48h-48z"/><circle fill="#B5D4FF" cx="964" cy="544" r="12"/><circle fill="#B5D4FF" cx="212" cy="193" r="16"/><path fill="#E3B5E8" d="M1124 528h32v32h-32z"/><path fill="#FFA3B3" d="M241.941 339l16.97 16.97-33.94 33.942L208 372.942zM1079.893 633l18.446 18.446-36.892 36.893L1043 669.892z"/><path fill="#92D6AD" d="M440 532l24 24-24 24-24-24z"/><path fill="#E3B5E8" d="M24 132l24 24-24 24-24-24z"/><path d="M356 396c-6.627 0-12-5.373-12-12s5.373-12 12-12 12 5.373 12 12-5.373 12-12 12zM1156 196h48v24h-48zM1044 448h48l-48 48zM1120 200l12 12-12 12-12-12z" fill="#B5D4FF"/><path fill="#E3B5E8" d="M304 38l12 12-12 12-12-12z"/><path d="M772 512h16v16h-16v-16zm0 24h16v16h-16v-16zm0 24h16v16h-16v-16z" fill="#FFA3B3"/><path fill="#E3B5E8" d="M868 608h32v32h-32z"/><circle fill="#FADC75" cx="676" cy="656" r="32"/><path fill="#FADC75" d="M740 104l24 24h-24z"/><circle fill="#FFA3B3" cx="804" cy="16" r="16"/><path fill="#FADC75" d="M388 672v24h-24zM927.742 419.55c.056-.43-.212-.916-.709-1.286-.279-.209-.394-.214-5.233-.242-3.797-.023-4.948-.058-4.948-.153 0-.14 2.9-17.52 2.984-17.869h-2.938l-8.32 13.821c-4.576 7.602-8.392 14.005-8.48 14.23-.305.783.124 1.61.957 1.843.233.065 2.166.105 5.086.105l4.711.001-1.444 8.72c-.794 4.797-1.468 9.126-1.497 9.28h2.848l8.467-14.034c6.1-10.113 8.48-14.141 8.516-14.416z"/><path d="M804.008 283.996L826 272l21.98 12.12-21.97 11.72-22.002-11.844zM828 299.346V320l20-10.724v-20.652l-20 10.722zm-4 0l-20-10.822v20.752L824 320v-20.654z" fill="#92D6AD"/><path d="M118.347 546.339a8 8 0 0 1 11.314 11.314A23.906 23.906 0 0 1 132 568c0 13.255-10.745 24-24 24s-24-10.745-24-24 10.745-24 24-24c3.705 0 7.214.84 10.347 2.339z" fill="#FFA3B3"/><path d="M334.667 241.879l5.414 10.993a2.584 2.584 0 0 0 1.946 1.416l12.106 1.763c2.121.31 2.967 2.92 1.433 4.418l-8.76 8.556a2.594 2.594 0 0 0-.743 2.293l2.068 12.082c.362 2.116-1.854 3.73-3.75 2.731l-10.828-5.704a2.583 2.583 0 0 0-2.406 0l-10.828 5.704c-1.896 1-4.113-.615-3.75-2.73l2.067-12.083a2.594 2.594 0 0 0-.743-2.293l-8.76-8.556c-1.534-1.5-.688-4.11 1.433-4.418l12.106-1.763a2.584 2.584 0 0 0 1.946-1.416l5.414-10.993c.947-1.926 3.687-1.926 4.635 0z" fill="#FADC75"/><path d="M1012 296c0-13.255 10.745-24 24-24s24 10.745 24 24-10.745 24-24 24c0 13.255-10.745 24-24 24s-24-10.745-24-24 10.745-24 24-24z" fill="#FFA3B3"/><path d="M900 144h48v12h-48v-12zm20 20h28v28h-28v-28zm-20 0h12v12h-12v-12zm0 16h12v12h-12v-12z" fill="#E3B5E8"/><rect fill="#B5D4FF" x="84" y="256" width="48" height="80" rx="8"/><path d="M144 96c13.255 0 28-11 28-16s-14.745-16-28-16-28 11-28 16 14.745 16 28 16z" fill="#FFA3B3"/><path d="M437.587 119.21a5.607 5.607 0 0 1 1.47-5.395c2.217-2.213 2.238-5.775.054-7.959-2.184-2.183-5.745-2.163-7.955.047a5.602 5.602 0 0 1-5.4 1.475c-13.915-3.687-25.834 18.347-38.03 12.15l-3.298 3.299 37.712 37.712 3.298-3.298c-6.196-12.196 15.838-24.115 12.15-38.03zm-32.417 31.901c-3.013 3.013-8.282 3.032-11.26.055-2.977-2.978-3.067-8.355-.054-11.369l11.314 11.314z" fill="#92D6AD"/><path d="M1044.108 76c1.942-3.824 4.096-9.076 3.986-12.736a17.634 17.634 0 0 1-4.094-11.25C1044 40.452 1055.324 32 1068 32c12.598 0 24 8.39 24 20.014 0 12.104-13.464 23.41-31.936 18.916-3.356 2.054-10.754 4.13-15.956 5.07z" fill="#FADC75"/></g><g stroke="#90C0F0" stroke-width="2"><path d="M33 417h22v22H33zM239 481h-20.586L239 501.586V481zM241 593h46v46h-46z"/><circle cx="960" cy="544" r="11"/><circle cx="208" cy="193" r="15"/><path d="M1121 529h30v30h-30zM241.941 336.414l15.556 15.557-32.526 32.527-15.557-15.557zM1079.893 630.414l17.032 17.032-35.478 35.478-17.032-17.032zM440 529.414L417.414 552 440 574.586 462.586 552 440 529.414zM24 129.414L1.414 152 24 174.586 46.586 152 24 129.414zM352 395c6.075 0 11-4.925 11-11s-4.925-11-11-11-11 4.925-11 11 4.925 11 11 11zM1153 197h46v22h-46zM1041 449v44.586L1085.586 449H1041zM1120 197.414L1109.414 208 1120 218.586 1130.586 208 1120 197.414zM304 37.414L293.414 48 304 58.586 314.586 48 304 37.414zM769 513v14h14v-14h-14zm0 24v14h14v-14h-14zm0 24v14h14v-14h-14zM865 609h30v30h-30z"/><circle cx="672" cy="656" r="31"/><path d="M741 102.414V123h20.586L741 102.414z"/><circle cx="800" cy="16" r="15"/><path d="M383 674.414L362.414 695H383v-20.586zM922.73 419.37a1.032 1.032 0 0 0-.244-.266 5.24 5.24 0 0 0-.406-.03c-.571-.026-1.38-.035-4.286-.052a179.832 179.832 0 0 1-3.922-.05c-.4-.012-.684-.027-.882-.047a2.184 2.184 0 0 1-.332-.055c-.109-.03-.109-.03-.297-.12-.294-.18-.294-.18-.509-.882 0-.205 2.1-12.817 2.794-16.868h-1.183l-8.028 13.337c-4.314 7.166-8.352 13.943-8.405 14.078-.088.225.024.44.294.516.09.025 2.164.068 4.817.068l5.89.001-1.636 9.884c-.4 2.419-1.009 6.204-1.314 8.116h1.114l8.174-13.551c3.1-5.14 5.19-8.623 6.528-10.89a156.209 156.209 0 0 0 1.486-2.553 20.765 20.765 0 0 0 .347-.636zM804.107 283.99l19.905 10.715 19.87-10.6-19.885-10.964-19.89 10.85zM827 299.945v18.384l18-9.651v-18.383l-18 9.65zm-6-.003l-18-9.74v18.476l18 9.651v-18.387z"/><g transform="translate(80 544)"><path d="M34.578 3.571A22.897 22.897 0 0 0 24 1C11.297 1 1 11.297 1 24s10.297 23 23 23 23-10.297 23-23c0-3.738-.892-7.343-2.571-10.578a7 7 0 0 1-9.85-9.85z"/><path d="M40 15a7 7 0 1 0 0-14 7 7 0 0 0 0 14z"/><circle cx="24" cy="24" r="11"/></g><path d="M329.77 242.32c-.582-1.18-2.26-1.18-2.84 0l-5.414 10.993a3.584 3.584 0 0 1-2.7 1.965l-12.106 1.763c-1.3.189-1.82 1.792-.878 2.712l8.76 8.557a3.594 3.594 0 0 1 1.03 3.177l-2.068 12.082c-.223 1.3 1.137 2.29 2.299 1.678l10.828-5.704a3.583 3.583 0 0 1 3.338 0l10.827 5.704c1.162.611 2.522-.378 2.3-1.678l-2.068-12.082a3.594 3.594 0 0 1 1.03-3.177l8.76-8.557c.942-.92.422-2.523-.879-2.712l-12.106-1.763a3.584 3.584 0 0 1-2.7-1.965l-5.413-10.992z"/><path d="M328.5 285.5v4M308.38 271.816l-3.76 1.368M347.62 271.816l3.76 1.368M343.56 244.804l-2.12 3.392M313.44 244.804l2.12 3.392" stroke-linecap="round"/><g transform="translate(984 272)"><circle cx="48" cy="24" r="23"/><circle cx="24" cy="48" r="23"/></g><path d="M897 145v10h46v-10h-46zm20 20v26h26v-26h-26zm-20 0v10h10v-10h-10zm0 16v10h10v-10h-10z"/><g transform="translate(80 256)"><rect x="1" y="1" width="46" height="78" rx="8"/><path d="M1 17h46v46H1z"/><path d="M30 9H18" stroke-linecap="round"/><circle cx="24" cy="71" r="3"/></g><g transform="translate(112 64)"><path d="M28 31c5.896 0 12.625-2.3 18.437-5.97C51.53 21.81 55 18.026 55 16s-3.469-5.811-8.563-9.03C40.625 3.3 33.896 1 28 1 22.104 1 15.375 3.3 9.563 6.97 4.47 10.19 1 13.974 1 16s3.469 5.811 8.563 9.03C15.375 28.7 22.104 31 28 31z"/><circle cx="28" cy="16" r="11"/></g><path d="M436.62 119.466a6.607 6.607 0 0 1 1.73-6.358c1.827-1.824 1.846-4.753.054-6.545-1.791-1.791-4.72-1.774-6.54.046a6.601 6.601 0 0 1-6.365 1.736c-5.012-1.329-9.39.433-17.303 5.825-.336.229-.335.228-1.27.869-4.68 3.205-6.89 4.546-9.584 5.573-3.38 1.288-6.456 1.4-9.406.12l-2.094 2.095 36.298 36.298 2.095-2.094c-1.28-2.95-1.168-6.025.12-9.405 1.027-2.694 2.368-4.904 5.572-9.583l.87-1.272c5.391-7.914 7.153-12.291 5.824-17.305zm0 0zm-32.92 31.59l-9.785-9.786c-1.92 2.685-1.67 6.816.703 9.189 2.352 2.352 6.396 2.549 9.082.596zM1041.89 74.631c5.34-1.128 11.054-2.964 13.652-4.554l.355-.217.403.098c16.589 4.036 30.7-5.358 30.7-17.944C1087 41.376 1076.56 33 1064 33c-12.583 0-23 8.394-23 19.014 0 3.852 1.387 7.654 3.86 10.608l.223.266.01.346c.09 2.98-1.159 7.031-3.204 11.397z"/></g></g></svg>