<?xml version="1.0" encoding="UTF-8"?>
<svg width="920px" height="440px" viewBox="0 0 920 440" version="1.1" xmlns="http://www.w3.org/2000/svg" xmlns:xlink="http://www.w3.org/1999/xlink">
    <!-- Generator: Sketch 51.3 (57544) - http://www.bohemiancoding.com/sketch -->
    <title>icons</title>
    <desc>Created with Sketch.</desc>
    <defs></defs>
    <g id="icons" stroke="none" stroke-width="1" fill="none" fill-rule="evenodd">
        <rect id="Rectangle-2-Copy-5" fill="#9AA5ED" fill-rule="nonzero" x="0" y="300" width="20" height="20"></rect>
        <polygon id="Rectangle-2" fill="#FADC75" fill-rule="nonzero" transform="translate(110.000000, 330.000000) rotate(90.000000) translate(-110.000000, -330.000000) " points="100 320 120 320 100 340"></polygon>
        <rect id="Rectangle-2-Copy-2" fill="#E3B5E8" fill-rule="nonzero" x="150" y="400" width="40" height="40"></rect>
        <circle id="Oval" fill="#9AA5ED" fill-rule="nonzero" cx="730" cy="390" r="10"></circle>
        <rect id="Rectangle-5" fill="#E3B5E8" fill-rule="nonzero" x="860" y="350" width="20" height="20"></rect>
        <rect id="Rectangle-6-Copy-2" fill="#F58E9F" fill-rule="nonzero" transform="translate(160.000000, 220.000000) rotate(45.000000) translate(-160.000000, -220.000000) " x="150" y="200" width="20" height="40"></rect>
        <polygon id="Polygon" fill="#92D6AD" fill-rule="nonzero" points="330 360 350 380 330 400 310 380"></polygon>
        <polygon id="Polygon" fill="#E3B5E8" fill-rule="nonzero" points="20 60 40 80 20 100 0 80"></polygon>
        <polygon id="Polygon" fill="#F58E9F" fill-rule="nonzero" points="270 0 290 20 270 40 250 20"></polygon>
        <path d="M590,360 L600,360 L600,370 L590,370 L590,360 Z M560,390 L570,390 L570,400 L560,400 L560,390 Z M590,390 L600,390 L600,400 L590,400 L590,390 Z" id="Combined-Shape" fill="#F58E9F" fill-rule="nonzero"></path>
        <path d="M230,256 C233.313708,256 236,253.313708 236,250 C236,246.686292 233.313708,244 230,244 C226.686292,244 224,246.686292 224,250 C224,253.313708 226.686292,256 230,256 Z M230,260 C224.477153,260 220,255.522847 220,250 C220,244.477153 224.477153,240 230,240 C235.522847,240 240,244.477153 240,250 C240,255.522847 235.522847,260 230,260 Z" id="Oval-3" fill="#9AA5ED" fill-rule="nonzero"></path>
        <rect id="Rectangle-10-Copy" fill="#9AA5ED" fill-rule="nonzero" x="880" y="100" width="40" height="20"></rect>
        <path d="M804,304 L804,330.343146 L830.343146,304 L804,304 Z M800,300 L840,300 L800,340 L800,300 Z" id="Rectangle-4" fill="#9AA5ED" fill-rule="nonzero"></path>
        <path d="M845.656854,110 L850,114.343146 L854.343146,110 L850,105.656854 L845.656854,110 Z M850,100 L860,110 L850,120 L840,110 L850,100 Z" id="Polygon-Copy" fill="#9AA5ED" fill-rule="nonzero"></path>
        <polygon id="Polygon-Copy-2" fill="#FADC75" fill-rule="nonzero" points="581 40 591 50 581 60 571 50"></polygon>
        <path d="M703.118018,276.291859 C703.164658,275.933555 702.941368,275.527939 702.527757,275.21963 C702.29516,275.04625 702.199112,275.041812 698.166659,275.018101 C695.002773,274.999486 694.043433,274.96992 694.043546,274.890983 C694.043715,274.773437 696.460694,260.291042 696.529622,260 L694.081324,260 L687.148311,271.517558 C683.335155,277.852215 680.155372,283.188534 680.082124,283.376047 C679.827354,284.028271 680.185357,284.717904 680.879322,284.911722 C681.073054,284.96583 682.684193,284.999191 685.117718,284.999484 L689.04357,285.000036 L687.840286,292.266975 C687.178481,296.263789 686.616836,299.871821 686.592186,300 L688.965983,300 L696.021347,288.304596 C701.105136,279.877371 703.088253,276.520502 703.118018,276.291859 Z" id="amp" fill="#FADC75" fill-rule="nonzero"></path>
        <path d="M797.744165,165.294099 L774.436234,188.602029 C774.169003,187.150925 774.063018,185.675964 774.118281,184.205937 L793.348073,164.976146 C794.8181,164.920883 796.293061,165.026867 797.744165,165.294099 Z M787.547959,166.062214 L775.204349,178.405824 C776.163334,175.634785 777.749197,173.032548 779.961941,170.819805 C782.174684,168.607062 784.77692,167.021198 787.547959,166.062214 Z M804.559338,167.907016 L777.049151,195.417202 C776.428668,194.406936 775.906229,193.353476 775.481836,192.270472 L801.412611,166.339698 C802.495611,166.764094 803.549072,167.286532 804.559338,167.907016 Z M809.590598,172.303846 L781.445981,200.448463 C780.934656,200.029501 780.439237,199.581373 779.961941,199.104076 C779.64513,198.787266 779.34117,198.462471 779.05006,198.130339 L807.272475,169.907925 C807.604606,170.199034 807.929401,170.502994 808.246212,170.819805 C808.723508,171.297101 809.171637,171.79252 809.590598,172.303846 Z M812.981324,178.341211 L787.483347,203.839188 C786.37042,203.449742 785.285047,202.958987 784.24157,202.366919 L811.509055,175.099435 C812.101122,176.142911 812.591878,177.228285 812.98132,178.341216 L812.981324,178.341211 Z M814.026793,186.723832 L795.865967,204.884658 C794.337148,205.019058 792.795819,204.97816 791.274614,204.761966 L813.904102,182.132478 C814.120296,183.653683 814.161193,185.195013 814.026793,186.723832 Z M802.215621,203.249049 L812.391185,193.073486 C811.421358,195.26122 810.039701,197.310588 808.246212,199.104076 C806.452723,200.897565 804.403355,202.279223 802.215621,203.249049 Z M777.132478,218.904102 C775.84782,218.721526 774.577514,218.413932 773.341215,217.98132 L787.483347,203.839188 C786.37042,203.449742 785.285047,202.958987 784.24157,202.366919 L770.099435,216.509055 C769.127348,215.957493 768.191621,215.318008 767.303846,214.590598 L781.445981,200.448463 C780.934656,200.029501 780.439237,199.581373 779.961941,199.104076 C779.64513,198.787266 779.34117,198.462471 779.05006,198.130339 L764.907925,212.272475 C764.15499,211.413439 763.48802,210.505325 762.907016,209.559338 L777.049151,195.417202 C776.428668,194.406936 775.906229,193.353476 775.481836,192.270472 L761.339698,206.412611 C760.872185,205.219563 760.523651,203.990666 760.294099,202.744165 L774.436234,188.602029 C774.169003,187.150925 774.063018,185.675964 774.118281,184.205937 L759.976146,198.348073 C760.05002,196.38296 760.412043,194.426664 761.062214,192.547959 L773.405824,180.204349 C780.415929,177.778334 788.506334,179.364198 794.104076,184.961941 C800.121074,190.978938 801.502731,199.875966 798.249049,207.215621 L788.073486,217.391185 C786.044688,218.290554 783.896897,218.835757 781.723832,219.026793 L795.865967,204.884658 C794.337148,205.019058 792.795819,204.97816 791.274614,204.761966 L777.132478,218.904102 Z" id="filter" fill="#F58E9F" fill-rule="nonzero"></path>
        <path d="M56,174 L56,168 C56,165.790861 54.209139,164 52,164 L28,164 C25.790861,164 24,165.790861 24,168 L24,174 L56,174 Z M56,206 L24,206 L24,212 C24,214.209139 25.790861,216 28,216 L52,216 C54.209139,216 56,214.209139 56,212 L56,206 Z M28,160 L52,160 C56.418278,160 60,163.581722 60,168 L60,212 C60,216.418278 56.418278,220 52,220 L28,220 C23.581722,220 20,216.418278 20,212 L20,168 C20,163.581722 23.581722,160 28,160 Z M24,178 L24,202 L56,202 L56,178 L24,178 Z M40,214 C38.3431458,214 37,212.656854 37,211 C37,209.343146 38.3431458,208 40,208 C41.6568542,208 43,209.343146 43,211 C43,212.656854 41.6568542,214 40,214 Z M36,167 L44,167 C45.1045695,167 46,167.895431 46,169 C46,170.104569 45.1045695,171 44,171 L36,171 C34.8954305,171 34,170.104569 34,169 C34,167.895431 34.8954305,167 36,167 Z" id="pwa" fill="#9AA5ED" fill-rule="nonzero"></path>
        <path d="M201.514353,101.070293 L205.535249,109.217683 C205.81486,109.784342 206.355491,110.176987 206.980898,110.267712 L215.972327,111.574299 C217.54737,111.803342 218.175751,113.73831 217.036485,114.848574 L210.530322,121.190391 C210.078185,121.631373 209.871452,122.267191 209.978537,122.889623 L211.514167,131.844614 C211.783367,133.412964 210.136933,134.608747 208.728467,133.868819 L200.686674,129.641189 C200.127452,129.347449 199.458914,129.347449 198.899692,129.641189 L190.8579,133.868819 C189.449433,134.609491 187.803,133.412964 188.0722,131.844614 L189.60783,122.889623 C189.714915,122.267191 189.508181,121.631373 189.056044,121.190391 L182.549882,114.848574 C181.410615,113.737566 182.038996,111.802598 183.61404,111.574299 L192.605469,110.267712 C193.230875,110.176987 193.771506,109.784342 194.051117,109.217683 L198.072014,101.070293 C198.775503,99.6432356 200.81012,99.6432356 201.514353,101.070293 Z M212.674313,101.788435 C213.480731,102.353095 213.676714,103.464573 213.112055,104.270991 L212.089647,105.73114 C211.524988,106.537557 210.41351,106.733541 209.607092,106.168881 C208.800674,105.604221 208.60469,104.492743 209.16935,103.686325 L210.191757,102.226177 C210.756417,101.419759 211.867895,101.223775 212.674313,101.788435 Z M187.325687,101.788435 C188.132105,101.223775 189.243583,101.419759 189.808243,102.226177 L190.83065,103.686325 C191.39531,104.492743 191.199326,105.604221 190.392908,106.168881 C189.58649,106.733541 188.475012,106.537557 187.910353,105.73114 L186.887945,104.270991 C186.323286,103.464573 186.519269,102.353095 187.325687,101.788435 Z M180.107984,125.392033 C179.771281,124.466949 180.248258,123.444068 181.173342,123.107364 L182.848356,122.497709 C183.773441,122.161006 184.796322,122.637983 185.133025,123.563068 C185.469728,124.488152 184.992751,125.511033 184.067666,125.847737 L182.392653,126.457392 C181.467568,126.794095 180.444687,126.317118 180.107984,125.392033 Z M219.892016,125.392033 C219.555313,126.317118 218.532432,126.794095 217.607347,126.457392 L215.932334,125.847737 C215.007249,125.511033 214.530272,124.488152 214.866975,123.563068 C215.203678,122.637983 216.226559,122.161006 217.151644,122.497709 L218.826658,123.107364 C219.751742,123.444068 220.228719,124.466949 219.892016,125.392033 Z M199.793183,132.976479 C200.777638,132.976479 201.575696,133.774537 201.575696,134.758991 L201.575696,136.541504 C201.575696,137.525958 200.777638,138.324016 199.793183,138.324016 C198.808729,138.324016 198.010671,137.525958 198.010671,136.541504 L198.010671,134.758991 C198.010671,133.774537 198.808729,132.976479 199.793183,132.976479 Z" id="animation" fill="#FADC75" fill-rule="nonzero"></path>
        <path d="M680,60 L720,60 L720,70 L680,70 L680,60 Z M680,75 L690,75 L690,85 L680,85 L680,75 Z M695,75 L720,75 L720,100 L695,100 L695,75 Z M680,90 L690,90 L690,100 L680,100 L680,90 Z" id="grid" fill="#E3B5E8" fill-rule="nonzero"></path>
        <path d="M639.333333,160 L621,170 L621,190.218333 L639.333333,200 L657.666667,190.218333 L657.666667,170.108333 L639.333333,160 Z M639.341667,178.106667 L626.221667,170.95 L639.325,163.801667 L652.516667,171.076667 L639.341667,178.106667 Z M624.333333,173.716667 L637.666667,180.988333 L637.666667,195.333333 L624.333333,188.22 L624.333333,173.716667 Z" id="3d" fill="#92D6AD" fill-rule="nonzero"></path>
        <path d="M69.2901761,362.284045 C70.3110981,361.479824 71.5995147,361 73,361 C76.3137085,361 79,363.686292 79,367 C79,368.400485 78.5201763,369.688902 77.7159546,370.709824 C79.1746323,373.485736 80,376.64648 80,380 C80,391.045695 71.045695,400 60,400 C48.954305,400 40,391.045695 40,380 C40,368.954305 48.954305,360 60,360 C63.3535196,360 66.5142642,360.825368 69.2901761,362.284045 Z M67.1455957,365.680335 C64.994889,364.605034 62.5681012,364 60,364 C51.163444,364 44,371.163444 44,380 C44,388.836556 51.163444,396 60,396 C68.836556,396 76,388.836556 76,380 C76,377.431899 75.3949656,375.005111 74.3196646,372.854404 C73.8950386,372.949711 73.4533921,373 73,373 C69.6862915,373 67,370.313708 67,367 C67,366.546608 67.0502889,366.104961 67.1455932,365.680334 Z M73,369 C74.1045695,369 75,368.104569 75,367 C75,365.895431 74.1045695,365 73,365 C71.8954305,365 71,365.895431 71,367 C71,368.104569 71.8954305,369 73,369 Z M60,388 C55.581722,388 52,384.418278 52,380 C52,375.581722 55.581722,372 60,372 C64.418278,372 68,375.581722 68,380 C68,384.418278 64.418278,388 60,388 Z" id="atom" fill="#F58E9F" fill-rule="nonzero"></path>
    </g>
</svg>