<svg width="208" height="70" xmlns="http://www.w3.org/2000/svg"><path d="M72.982 43.444c1.952-5.414 3.589-9.171 3.506-9.823-.002-.77-.324-1.433-.843-1.862.052-.042.1-.088.148-.14 1.06-1.142.723-2.973.206-4.386.147-.623.112-1.103.073-1.607-.02-.287-.045-.613-.045-1.059 0-.113-.005-.22-.017-.33a1.501 1.501 0 0 0-.057-.345c-.13-.58-.484-1.288-1.384-1.76.082-.225.147-.44.198-.639.206-.486.322-.83.385-1.138.22-1.083-.002-2.087-.611-2.812a2.889 2.889 0 0 0-.777-1.175 38.169 38.169 0 0 1-.632-1.46 1.11 1.11 0 1 0-2.063.824c.172.43.431 1.027.772 1.776.075.161.187.303.326.415.243.19.278.35.281.369.042.24.161.457.34.62.208.194.278.559.188.998-.033.162-.124.412-.284.788a1.09 1.09 0 0 0-.063.19c-.057.248-.16.551-.306.9a1.116 1.116 0 0 0-.042.736l.202.7c.105.364.389.649.753.757.499.146.532.307.553.413l.005.026.003.03c.007.037.01.076.01.117 0 .527.028.93.05 1.225.039.498.048.717-.057 1.064a1.12 1.12 0 0 0-.033.513c-.006.153.02.303.077.446.354.911.45 1.606.414 1.991-.223-.05-.053.712-.104.685-.326-.173-.076 0-.8-.054-.474-.035-.585-.048-.863.119-.841.503-1.608 3.664-.801 3.118.757-.513 1.953-1.198 2.21-.86.254.336-.042.822.448.638-.052.115-.237.37-.316.536-1.07 2.198-2.11 4.695-1.732 6.537.057.266.1 1.105-.35 1.776-.298.445-.96 1.143-1.598 1.263l2.63-.119zm1.17-16.206c-.116-.274-.26-.56-.491-.81a2.056 2.056 0 0 0-.367-.315l-.144-.101-.026-.02c-.005-.004-.005-.004-.01-.004.002.01-.048-.056-.045-.048a3.877 3.877 0 0 0-.292-.33c-.1-.099-.198-.197-.302-.29a6.346 6.346 0 0 0-.323-.276c-.088-.067-.172-.134-.284-.199a1.148 1.148 0 0 0-.319-.44 1.82 1.82 0 0 0-.532-.304c-.18-.069-.353-.118-.51-.17a1.502 1.502 0 0 1-.163-.06c.04-.042.08-.085.115-.128.096-.12.173-.242.246-.365a7.98 7.98 0 0 0 .377-.751l.328-.757c.108-.248.218-.503.35-.722.146-.22.312-.441.508-.609.091-.081.22-.153.291-.124.077.027.102.182.101.306-.003.264-.067.533-.14.796a8.85 8.85 0 0 1-.268.776c.118-.247.226-.5.318-.76.091-.259.175-.524.196-.809a.958.958 0 0 0-.01-.22c-.018-.071-.047-.163-.14-.211-.092-.045-.187-.021-.259.006a.874.874 0 0 0-.193.112 3.14 3.14 0 0 0-.585.615c-.169.24-.29.484-.418.73l-.374.73c-.13.239-.26.475-.407.692-.074.108-.152.211-.235.302a.863.863 0 0 1-.251.201l-.002-.002a.21.21 0 0 0-.1.281v.004a.653.653 0 0 0 .278.284c.091.057.18.094.262.131.17.073.326.134.47.204.143.071.27.15.36.242a.534.534 0 0 1 .151.299.27.27 0 0 0 .125.186l.043.029c.06.038.161.12.246.2a5.802 5.802 0 0 1 .512.557c.079.096.158.196.215.284.046.06.033.05.08.107l.06.067.049.046c.065.06.124.105.17.144.098.08.16.144.22.223.119.154.205.358.276.58v.004l.014.036a.45.45 0 0 0 .588.24.444.444 0 0 0 .24-.585v-.004zm-6.684-5.224s.434-1.102.361-1.474c-.074-.37-1.829-1.447-2.384-2.3-.554-.856-1.196-3.135-2.166-3.408a2.642 2.642 0 0 0-3.115 1.578c.961-.139 2.727-.286 3.337.819.61 1.104 1.908 3.16 3.966 4.785zm2.338-.66s-.38-.706-.23-1.057c.151-.353.776-.614.875-.9.098-.285.719-2.487 1.365-2.041.647.445.665.959.665.959-.297-.031-.892.345-1.114.665-.303.44-1.15 1.436-1.562 2.375v-.001zm-4.224.997c.256.476.043 1.778.313 1.987l1.093.25V23.45l-1.405-1.098v-.001zm7.141 8.087c-.103-.06-.208-.11-.31-.18-.105-.064-.202-.136-.301-.207a6.317 6.317 0 0 1-.542-.478c-.172-.163-.338-.326-.52-.41a.614.614 0 0 0-.138-.05c-.046-.018-.099-.013-.144-.023-.048-.002-.1 0-.15.002l-.155.022a.19.19 0 0 1-.217-.16v-.011l-.004-.032c-.01-.122.004-.25-.027-.364a1.319 1.319 0 0 0-.099-.326c-.03-.043-.05-.094-.083-.134-.039-.035-.063-.08-.106-.109a.727.727 0 0 0-.263-.143.652.652 0 0 0-.154-.037c-.051-.013-.108-.013-.163-.014a1.494 1.494 0 0 0-.335.034 1.75 1.75 0 0 0-.323.108c-.048.026-.099.048-.144.076l-.067.044-.067.04-.043.026c-.033.017-.053.031-.093.05-.055.02-.11.039-.165.055a.635.635 0 0 1-.157.027c-.05.003-.1.01-.152.007-.2-.015-.396-.08-.556-.192-.082-.054-.151-.125-.22-.192-.056-.076-.122-.15-.16-.232a1.44 1.44 0 0 1-.167-.512 2.007 2.007 0 0 1-.005-.508l.043-.24c.017-.079.044-.153.067-.227.04-.156.113-.288.173-.432.067-.134.144-.26.219-.395l.13.617c.004.004.008.01.014.011l-.028-.005c-.014-.004-.058-.007-.087-.012a4.574 4.574 0 0 0-.738.013c-.17.018-.343.044-.515.073-.172.03-.34.07-.512.106-.169.04-.339.086-.508.13l-.499.148c-.165.053-.33.11-.492.167-.162.058-.323.125-.48.19-.162.065-.317.14-.472.214a15.82 15.82 0 0 0-.45.25c-.152.085-.298.18-.438.279-.14.1-.278.204-.416.312-.131.114-.263.23-.387.353-.13.12-.242.256-.364.387-.113.138-.229.278-.332.428-.112.144-.203.303-.312.46l-.002.004a.054.054 0 0 1-.075.013.054.054 0 0 1-.023-.055c.036-.185.067-.38.13-.561.05-.188.13-.364.203-.546.087-.175.175-.352.283-.518.098-.173.223-.326.345-.484a5.65 5.65 0 0 1 .847-.839c.154-.13.32-.24.485-.35.168-.106.338-.211.513-.302.175-.098.355-.18.537-.257.18-.082.368-.144.556-.208a6.947 6.947 0 0 1 1.15-.272c.389-.06.78-.088 1.18-.09.198-.004.398.003.603.02.106.009.213.023.322.044.063.016.111.02.182.046.037.01.067.019.106.035a1.6 1.6 0 0 1 .14.072.424.424 0 0 1 .153.579l-.01.016-.012.02c-.064.1-.138.199-.195.3-.048.104-.118.205-.15.312-.017.05-.043.105-.058.156l-.035.155a1.17 1.17 0 0 0-.02.297.754.754 0 0 0 .061.26c.012.04.043.066.06.105.028.026.05.06.08.08a.427.427 0 0 0 .19.088c.03 0 .078.007.093 0 .01 0 .02 0 .032.003.019-.006.057-.027.086-.04l.046-.022.01-.005c.009-.004-.054.034-.027.017h.002l.002-.002.007-.004.025-.015.108-.06c.072-.036.146-.061.219-.093.15-.05.299-.09.455-.11.154-.02.313-.029.47-.01.08.008.159.015.238.039l.12.03.114.048c.154.06.298.161.417.28.064.058.106.133.157.2.046.07.073.147.107.22.053.15.09.305.096.456.023.152-.003.297-.005.441l-.22-.201.2-.012c.068.004.137.006.205.017.067.017.139.023.203.052.065.023.13.052.187.088.12.07.218.158.307.246.088.089.169.18.247.27.156.18.309.355.478.514.086.078.172.157.263.226.088.075.192.14.288.208v.002c.024.015.03.05.012.074a.05.05 0 0 1-.069.017l-.005.002zm-13.406 3.185a.801.801 0 0 0-.054.274c-.007.09 0 .18.006.27.013.18.048.36.083.537.07.355.16.71.252 1.06.096.355.189.704.293 1.05.048.172.106.344.16.504a4.026 4.026 0 0 0 .126.31c.002.008.011.024.002.011l-.016-.016a.268.268 0 0 0-.08-.05l-.495.084a4.7 4.7 0 0 1 .173-.137c.057-.044.115-.094.172-.128.115-.07.234-.139.35-.201.117-.058.238-.106.357-.158.119-.051.241-.09.361-.132a5.256 5.256 0 0 1 .736-.18c.123-.026.25-.045.376-.058.125-.02.254-.025.38-.031-.206.151-.413.292-.622.425l-.307.2c-.099.07-.205.128-.302.2l-.297.196-.283.201c-.09.067-.172.14-.262.203-.043.036-.073.071-.109.106-.035.034-.07.07-.108.103l-.036.029a.412.412 0 0 1-.46.058.698.698 0 0 1-.134-.096c-.036-.03-.042-.045-.063-.066a.995.995 0 0 1-.077-.105 2.005 2.005 0 0 1-.093-.166c-.053-.103-.086-.2-.124-.297a5.599 5.599 0 0 1-.183-.57 7.392 7.392 0 0 1-.2-1.154 5.45 5.45 0 0 1 .006-1.18c.024-.199.069-.396.132-.59a1.55 1.55 0 0 1 .131-.28.703.703 0 0 1 .206-.223l.003-.003zm3.714-4.286c.07-.042.33-.197.402-.237 2.911-1.636 6.674-.824 9.111.707.173.11.225.339.118.511a.373.373 0 0 1-.51.118c-2.253-1.415-5.709-2.176-8.354-.69l-.768-.41zm3.533-4.55c-1.938 0-3.006-.792-3.662-1.28a6.39 6.39 0 0 0-.35-.246.447.447 0 0 1-.143-.618.45.45 0 0 1 .617-.144c.13.083.265.183.408.288.686.51 1.623 1.206 3.526 1.093a.443.443 0 0 1 .473.419.445.445 0 0 1-.42.473c-.156.01-.304.015-.45.015zm4.497.09a.448.448 0 0 1-.033-.895c.24-.019.657-.182 1.284-.843a.446.446 0 1 1 .65.613c-.67.708-1.28 1.074-1.862 1.122a.258.258 0 0 1-.039.003zm-.228-2.11c0 .321-.006 1.41-.105 1.57-.1.164-.144.058-.144.058l-.5-.617.75-1.01zM66.8 17.452l.172.134c.108.096.253.25.41.434.153.188.33.412.498.666.17.252.335.527.494.811.157.284.346.556.46.842a2.665 2.665 0 0 1 .158.838c.005.128-.001.249-.018.36-.008.055-.013.103-.023.153-.017.047-.03.092-.04.132a.583.583 0 0 1-.089.18l-.041.056a.044.044 0 0 1-.063.01c-.004-.005-.01-.01-.013-.017l-.01-.02s-.007-.018-.026-.057c-.02-.038-.037-.075-.077-.137-.038-.06-.077-.124-.131-.207l-.163-.268c-.11-.2-.244-.432-.339-.7-.095-.268-.138-.58-.24-.874-.095-.297-.207-.585-.306-.859a19.355 19.355 0 0 0-.3-.74l-.139-.284-.115-.21-.125-.183c-.015-.019-.01-.048.01-.062.02-.012.04-.01.056.003v-.001zm2.756 4.016s-.045-.07-.093-.192a2.393 2.393 0 0 1-.134-.491 2.712 2.712 0 0 1-.035-.644c.01-.112.038-.227.061-.344.026-.117.043-.236.052-.356.005-.119.011-.24.004-.358a4.601 4.601 0 0 0-.023-.349c-.006-.115-.037-.22-.048-.327-.02-.104-.046-.202-.067-.295l-.077-.246c-.023-.075-.054-.134-.072-.19l-.064-.167v-.003a.044.044 0 0 1 .024-.058.045.045 0 0 1 .05.01l.124.134c.039.045.091.096.138.163l.163.223c.056.086.115.18.177.283.051.105.115.217.16.34.051.12.1.248.134.383.04.131.065.27.094.407l.073.416c.026.14.034.274.03.403a1.96 1.96 0 0 1-.182.675 2.37 2.37 0 0 1-.259.436c-.078.105-.14.16-.14.16a.058.058 0 0 1-.081-.001c-.005 0-.007-.005-.01-.01l.001-.002zm-10.904 8.13s.021.055.039.143c0 .048.038.086.057.123.014.029.064.078.086.111.042.036.067.07.115.1.036.032.085.06.125.09.048.026.088.06.14.084.049.03.1.055.151.085.054.023.104.057.16.076.028.012.054.029.08.041.03.01.058.02.083.035.058.029.115.041.17.07.058.02.116.038.173.06.058.014.114.031.167.047.054.017.102.021.144.033.084.019.144.036.144.036s-.021.051-.077.129c-.029.035-.06.09-.11.128a1.457 1.457 0 0 1-.175.136c-.07.037-.153.075-.242.104-.091.019-.192.048-.297.044a1.124 1.124 0 0 1-.321-.034c-.11-.019-.213-.072-.317-.115-.098-.061-.197-.119-.278-.201a1.187 1.187 0 0 1-.214-.265c-.055-.1-.098-.2-.118-.307-.029-.1-.02-.211-.014-.297.023-.098.039-.17.085-.242.038-.067.076-.122.117-.14.076-.048.13-.074.13-.074h-.003zm6.065-4.296l-.043.013c-.03.005-.07.019-.123.023a2.296 2.296 0 0 1-.727-.048 2.045 2.045 0 0 1-.611-.235 16.276 16.276 0 0 0-.307-.17 7.473 7.473 0 0 1-.594-.352c-.09-.062-.18-.118-.259-.182-.08-.062-.153-.12-.22-.18a2.877 2.877 0 0 1-.178-.16 1.243 1.243 0 0 1-.128-.133l-.106-.123c-.007-.01-.005-.026.004-.034.01-.007.02-.008.029 0h.003l.126.092c.039.03.091.062.15.1.057.038.124.076.2.116.147.084.327.167.52.254.194.084.402.17.613.247.106.038.214.073.321.101.108.03.213.058.31.094.197.071.373.16.524.236.077.041.144.077.205.112.062.037.112.063.157.093.09.052.143.086.143.086.014.01.017.025.008.039a.035.035 0 0 1-.015.01l-.002.001zm6.731-.145a.447.447 0 0 1-.215-.84c.33-.181 1.969-1.054 2.84-.255-.032.14-.048.489.081.636a.447.447 0 0 1-.632.027c-.283-.259-1.278.058-1.857.376a.447.447 0 0 1-.217.056zm-18.812.334v.06c.004.038 0 .097-.006.175-.02.153-.06.378-.144.649-.082.272-.19.599-.32.962-.124.364-.26.775-.377 1.216-.118.439-.206.916-.201 1.384.002.47.123.908.383 1.27.029.049.071.09.106.135.017.02.04.052.05.06l.077.083c.108.122.184.194.288.297.201.193.418.378.642.556.452.352.945.676 1.451.905.251.118.504.21.742.263.238.051.46.065.594.024a.446.446 0 0 0 .303-.224c.086-.137.146-.36.179-.6l.019-.181.004-.192c.005-.122-.001-.284 0-.422 0-.287.002-.567.003-.841.01-.55.02-1.07.046-1.551.02-.48.064-.923.101-1.316.025-.197.046-.38.074-.55.026-.17.065-.325.092-.465.024-.14.069-.264.102-.37.032-.105.065-.194.1-.263l.102-.21-.021.231c-.01.073-.014.163-.01.272.006.109-.002.228.012.366.014.275.059.606.098.988l.18 1.284.2 1.521c.035.273.068.552.103.836.015.149.036.275.045.445l.018.25v.26c-.014.352-.064.738-.266 1.145-.094.202-.251.401-.436.572a1.84 1.84 0 0 1-.654.354c-.465.142-.894.108-1.275.032a4.97 4.97 0 0 1-1.054-.35 7.718 7.718 0 0 1-1.733-1.135 7.958 7.958 0 0 1-1.049-1.083l-.069-.09c-.038-.047-.057-.079-.086-.12-.052-.077-.105-.15-.15-.235-.383-.645-.47-1.4-.385-2.015a5.382 5.382 0 0 1 .499-1.6c.213-.454.452-.834.661-1.166.207-.333.403-.61.552-.843.148-.234.262-.418.323-.552.03-.068.056-.12.067-.158l.023-.057-.003-.006zm3.387 13.04c-.129-.045-8.757 2.997-10.934 17.096l-.035.222.22.055c1.884.45 4.952 7.15 5.975 9.696l.09.226.23-.09c3.237-1.282 2.098-5.838 1.182-9.5-.354-1.416-.69-2.752-.664-3.575.099-3.185 1.839-5.567 5.176-7.07l.52-.235-1.76-6.825zm8.068-2.374s.099-.075.274-.187c.18-.109.444-.257.773-.4a8.06 8.06 0 0 1 2.545-.62c.24-.021.483-.02.72-.021a8.336 8.336 0 0 1 .699.054c.227.03.444.067.648.122.204.045.393.112.564.177.172.058.323.142.455.211.067.035.127.064.182.098.054.036.1.07.147.1.172.125.262.202.262.202s-.124-.007-.328-.035c-.05-.01-.105-.016-.166-.024-.062-.002-.127-.01-.197-.016-.14-.01-.294-.029-.466-.029-.17-.01-.35-.019-.543-.016-.192-.007-.393 0-.602.003-.208-.004-.426.022-.642.022-.22.022-.441.02-.666.048-.222.01-.445.033-.667.054-.22.019-.438.04-.65.06l-1.166.114c-.348.029-.638.054-.846.067-.206.016-.33.016-.33.016zM52.745 66.343c-.22-.147 2.454-2.851 2.482-3.115.343-3.115.495-5.207.319-7.326-.355-4.241.933-12.593 2.666-15.653.098-.175.297-.136.492-.182.195-.044 1.056.14 1.222.252l2.287 1.034c.268.182.695.377.591.68-3.387 9.923-3.99 14.616-3.326 19.693a.714.714 0 0 1-.376.725c0 .002-3.344 1.62-6.358 3.895v-.003zm14.637-44.01s.02.204.06.56l.031.296c.005.053.01.109.017.166.003.03.005.06.01.089v.023l.001.011v.006c.003-.01-.013.08-.006.043v.003c-.004.007.005.008-.033.055a.161.161 0 0 1-.056.039l-.024.007c-.118.02-.17 0-.246-.01a2.25 2.25 0 0 1-.208-.047l-.105-.029-.03-.007c-.035-.016-.022-.01-.037-.02l-.048-.022c-.065-.028-.14-.086-.211-.134a14.21 14.21 0 0 1-.796-.623c-.273-.223-.552-.47-.84-.725a39.542 39.542 0 0 1-1.757-1.654 35.788 35.788 0 0 1-.87-.879c-.14-.15-.283-.299-.415-.46a2.879 2.879 0 0 1-.195-.25c-.064-.083-.135-.185-.16-.217a.693.693 0 0 0-.11-.122c-.029-.024-.038-.01.052-.01.041-.004.088-.018.108-.04.02-.013.02-.019.014-.016a.56.56 0 0 0-.07.117c-.047.118-.088.265-.117.412-.036.147-.06.298-.083.441-.043.29-.08.566-.107.81-.029.248-.057.463-.077.64-.048.358-.082.566-.082.566a.048.048 0 0 1-.052.038.051.051 0 0 1-.038-.032l-.042-.144a4.995 4.995 0 0 1-.106-.41 7.752 7.752 0 0 1-.124-.646 6.997 6.997 0 0 1-.087-.86c-.01-.323-.019-.667.096-1.094.037-.11.07-.225.163-.362a.863.863 0 0 1 .201-.208c.1-.067.23-.123.367-.125a.82.82 0 0 1 .56.194c.12.096.203.19.28.29.086.121.12.182.172.255.048.072.096.148.151.225.108.153.22.31.34.467.232.316.493.623.753.934.53.612 1.08 1.208 1.6 1.764.26.278.518.543.76.792.241.247.483.483.696.674.052.042.086.087.153.125l.046.03c.002.002.029.016.01.008l.024.01.096.038c.062.024.124.045.182.062.053.018.129.03.134.03v.003a.07.07 0 0 0-.039.025c-.007.008-.013.04-.01.029l.004-.01.002-.003-.006.039v-.294l.007-.297c.004-.354.01-.56.01-.56 0-.025.018-.044.044-.044.023 0 .041.02.043.04h-.002l.002-.001zm5.573-11.435c-1.434-2.731-3.949-5.756-11.717-7.483a14.71 14.71 0 0 0-1.58-.259c-1.05-1.613-3.812-2.608-6.057-2.035 0 .403.014.973-.46 1.467-.367.385-1.032.724-2.226.901-.955.144-2.018.817-2.956 1.783-1.747 1.802-3.058 4.624-2.418 6.955.328.872.892 1.304 1.26 1a.79.79 0 0 0 .219-.331c.196-.503.332-.925.55-1.175.008-.012.02-.02.031-.029.025.02.05.043.08.06l.124.077c.676.422 1.38.831 2.011.975.002 0 .004-.002.006-.004l.012.004c-.186.828-.477 2.498-.24 4.055.307 2.022 1.05 4.227 1.936 5.755.154.262.118.44.079.55-.182.513-1.04.937-1.325 1.045a.44.44 0 0 0-.283.331l-.402 2.061a.448.448 0 0 0 .671.468c1.064-.645 2.367-1.453 2.548-1.634.266-.265.805-1.411.669-2.448.046-2.06.812-3.195 2.153-3.195.635 0 1.192.268 1.35.46.637.78.83 1.078.665 2.156-.082.544-.236 1.273-.385 1.98-.433 2.054-.46 2.317-.257 2.569a.499.499 0 0 0 .37.175c.737 0 1.96-1.817 2.897-5.809.797-3.397.362-6.772.128-8.585l-.053-.412c1.693.862 5.565 2.708 7.407 3.321.41.136.901.209 1.414.209 1.294 0 3.091-.475 3.898-1.812.37-.617.654-1.668-.123-3.146h.004zm-35.132 46.56a.377.377 0 0 0 .321-.084.37.37 0 0 0 .125-.308c-.003-.039-.275-3.752 1.837-7.63.562-1.03 1.225-2.23 1.926-3.502 2.069-3.75 4.413-8.001 5.652-10.575 1.677-3.492 2.718-7.368 2.856-10.636a.374.374 0 0 0-.165-.326.374.374 0 0 0-.364-.024c-.12.058-1.179.57-1.562.914a.38.38 0 0 0-.11.17c-.688 2.3-3.304 9.015-5.341 12.65-.486.864-1.147 1.999-1.88 3.239-.108.696-.239 1.394-.39 2.101 1.19-1.994 2.29-3.865 2.914-4.98 2.032-3.62 4.63-10.264 5.372-12.688a6.88 6.88 0 0 1 .748-.449c-.236 3-1.243 6.575-2.745 9.704-1.227 2.556-3.566 6.796-5.63 10.54a592.234 592.234 0 0 0-1.927 3.504c-1.786 3.277-1.954 6.377-1.944 7.554l.308.822v.005zM62.818 23.12c-.012 0-.023-.003-.036-.005a.178.178 0 0 1-.14-.211c.047-.25-.048-2.601-.733-3.819a.177.177 0 0 1 .067-.243.177.177 0 0 1 .244.069c.746 1.326.834 3.752.771 4.064a.178.178 0 0 1-.176.144h.003zm1.45 4.056c.05-.024.099-.048.15-.069a5.534 5.534 0 0 1 .957-.324 6.62 6.62 0 0 1 1.16-.175l.066-.005.283-.007h.034a.653.653 0 0 0-.04.21c0 .087.018.169.044.24l-.086-.015-.245-.034-.067-.006c-.083-.008-.173-.02-.273-.024a8.586 8.586 0 0 0-.397-.01 5.722 5.722 0 0 0-.93.071 4.908 4.908 0 0 0-.49.102c-.057.012-.114.029-.169.044l.002.002zM40.928 42.434c3.403-5.825 7.158-12.98 7.898-17.378-.493-.29-2.823-.425-5.51.786-.354 1.639-1.002 3.703-1.768 5.794.154 3.261.103 6.92-.62 10.799v-.001zm-.032-33.211c-1.296-.32-3.146-.697-5.29-1.134-5.338-1.088-11.49-2.056-13.2-3.039-1.394-.8-3.316-3.118-3.316-3.118v10.606l.713-.112c.02-.002 1.81-.278 3.825-.278.695 0 1.342.032 1.92.096.213.024.513.055.886.093 2.633.269 7.91.894 13.285 2.22l2.052.506 1.654-5.217-2.528-.623zm-11.71 24.34c-2.042-1.106-4.84-2.62-11.416-2.62-.234 0-.472.002-.713.006v-6.823c1.919.128 4.63.268 7.232.268 3.276 0 5.413-.227 6.351-.676l.118-.058.393-4.206.035-.404-.368.175c-.016.008-.402.187-1.94.43-.824.129-2.888.213-5.26.213-3.168 0-6.472-.143-9.302-.409l-2.181-.201v17.047l2.717-.285a30.334 30.334 0 0 1 3.137-.174c4.474 0 6.658 1.213 7.843 1.872.125.067.243.134.353.194a18.437 18.437 0 0 1-2.647 8.106c-1.515 2.452-3.244 3.475-3.873 3.784-.623-.305-2.339-1.313-3.866-3.786a18.115 18.115 0 0 1-2.406-6.295l-.034-.193-.198.005a8.01 8.01 0 0 1-4.542-1.33l-.406-.275.046.486c.311 3.313 1.566 6.92 3.534 10.164l.12.2c1.19 1.967 1.404 2.321 7.221 7.248l.534.45.534-.45c5.818-4.932 6.032-5.284 7.221-7.249l.121-.198c2.296-3.778 3.612-8.054 3.612-11.723v-2.373l-.527-.203c-.445-.176-.903-.425-1.441-.715l-.002-.001zm58.161 16.39c.93-3.06.592-3.653.46-3.881-.188-.331-.45-.606-2.041-1.182.39-1.093.42-1.962.088-2.595-.253-.483-.934-1.144-3.824-2.039 3.1-3.805 7.567-9.742 7.567-12.394 0-1.576-2.367-7.035-4.886-7.035-.087 0-.173.007-.257.019-1.642.225-3.739 3.729-10.683 17.848-1.271 2.583-2.276 4.624-2.69 5.32-.345.578-.577.757-.795.814-.26-.82-.422-1.824-.463-2.885-.063-1.596-.376-3.048-.388-3.108l-.048-.227-.13-.191c-.029-.043-.72-1.06-1.562-1.75-.872-.712-1.911-.788-2.318-.788-.09 0-.14.003-.14.003l-.883.058-.204.857c-.011.054-1.342 5.669-2.161 9.69l-.04.196 1.358 10.4.088.18c.933 1.884 1.86 3.24 2.476 4.143.14.204.33.483.452.674-.335 1.492-.3 2.394.106 2.914.256.33.639.515 1.05.515h11.186c.789 0 1.508-.565 2.634-3.364.198-.264.606-.813 1.105-1.486.582-.779 1.342-1.802 1.892-2.534.208-.246.418-.518.626-.805l3.39-2.54-.016-.618c-.007-.249-.09-2.37-.949-4.207v-.001zm-1.04-3.019c-.032.486-.35 1.89-.694 2.916-2.838 4.62-5.253 7.556-5.847 7.627-.556-.079-.645-.335-.806-.962-.078-.307-.168-.646-.36-.96 2.952-4.243 3.894-6.126 4.524-7.388.393-.786.65-1.294 1.192-1.991.808.27 1.662.587 1.99.757v.001zm-5.256 12.72c-.582.781-1.083 1.457-1.189 1.591l-.045.056-.026.065c-.394 1-.966 2.176-1.238 2.456H67.779c.002-.357.115-1.073.28-1.734l.02-.08-.005-.079c-.026-.335-.286-.719-.806-1.476-.58-.849-1.453-2.126-2.32-3.866l-1.286-9.845c.69-3.376 1.724-7.81 2.04-9.153.265.036.629.138.93.383.53.433 1.02 1.09 1.179 1.311.067.336.284 1.5.332 2.722.063 1.609.373 3.104.872 4.208l.113.252.275.034c.213.026.403.038.585.038 1.105 0 1.844-.479 2.547-1.66.449-.755 1.467-2.824 2.756-5.445 1.633-3.32 3.665-7.45 5.489-10.843 2.89-5.374 3.738-6.01 3.908-6.073l.026-.003c.347 0 1.11.667 1.96 2.132.806 1.386 1.24 2.691 1.24 3.216 0 2.352-6.014 9.967-8.338 12.715l-2.084 2.258.725.67 1.89-2.047c1.905.516 4.002 1.265 4.256 1.622.168.32-.196 1.432-.633 2.247-.738.906-1.054 1.535-1.486 2.4-.644 1.286-1.613 3.225-4.807 7.769-.213.048-.725.08-1.336-.432-.968-.814-1.388-2.365-1.15-2.947.163-.403 1.685-1.365 3.004-2.015l.292-.142-.019-.326c-.14-2.544 1.543-4.27 1.559-4.284l.849-.844h-2.684v.985h.474c-.54.809-1.2 2.154-1.19 3.87-.924.47-2.855 1.538-3.2 2.384-.446 1.1.25 3.08 1.43 4.074.654.55 1.27.69 1.726.69.347 0 .599-.08.706-.12.039.117.072.243.108.373.165.642.393 1.521 1.624 1.697.043.004.087.01.132.01.185 0 .404-.058.686-.234.13.397.391.77.875.94.024.007.048.011.072.017l-.345.464.002-.001zm2.71-3.575l-.077.07c-.081.093-.307.384-.633.818-.59.704-1.179 1.243-1.421 1.265-.268-.112-.307-.517-.304-.74.602-.614 1.398-1.59 2.48-3.12a81.66 81.66 0 0 0 2.19-3.28c.428 1.128.56 2.349.597 2.864l-2.832 2.122zm-44.05-38.206c-1.206-.1-2.316-.31-3.22-.589l-.181.3c-1.862 3.103-1.884 17.829-1.884 17.976v2.07c0 4.483-1.59 9.678-4.366 14.25l-.134.224c-1.553 2.562-3.454 4.802-8.573 8.663-.415.314-1.235.824-1.687 1.1-.45-.278-1.27-.788-1.685-1.1-4.908-3.7-6.796-5.864-8.253-8.152l-.431-.68v.003c-.906.278-2.017.489-3.224.587-2.283.187-4.29-.076-5.25-.619 1.079.83 3.098 3.374 5.348 5.87.824 1.029 1.84 2.04 2.943 3.017.494.455.984.872 1.466 1.236l.004.005c1.307 1.059 2.665 2.059 3.92 2.966.861.619 2.183 1.49 2.773 1.823.614.345 2.023 1.33 2.036 1.338l.355.247.353-.247c.014-.01 1.422-.992 2.036-1.338.592-.336 1.914-1.204 2.774-1.823 4.538-3.28 7.555-6.382 9.781-10.06l.135-.22c3.278-5.403 5.16-11.633 5.16-17.09V35.56c0-4.09.307-8.394.642-11.475.178-1.498.58-2.38 1.074-3.485.504-1.131 1.47-2.355 2.37-2.981-1.075.283-2.601.39-4.28.253h-.002zm33.755 14.573c-.652 0-1.288.443-1.778 1.227-.642-.234-1.424-.353-2.331-.353-2.596 0-5.795.98-7.854 1.857l-.537-.508c-.412-1.86.357-3.38 2.348-4.64l9.332.725c.182.091.64.282 1.339.32a.368.368 0 0 0 .291-.117c.824-.887.16-2.819-.148-3.576.208-.616.179-1.006.137-1.58a14.28 14.28 0 0 1-.048-1.142c0-.086-.007-.17-.018-.256v-.01a.359.359 0 0 0-.022-.124c-.167-.832-.858-1.122-1.328-1.26l-.201-.7a6.99 6.99 0 0 0 .364-1.077c.197-.46.302-.76.353-1.006.17-.834-.023-1.572-.52-2.032-.036-.202-.17-.645-.691-1.053a42.706 42.706 0 0 1-.781-1.802l-.822-.084c.17.505.62 1.516.968 2.278.027.058.067.11.121.147.245.177.364.357.422.48-.01.024-.02.047-.024.072a.368.368 0 0 0 .163.396c.405.259.57.8.438 1.45-.05.25-.2.608-.322.892a.321.321 0 0 0-.021.067 6.38 6.38 0 0 1-.38 1.102.36.36 0 0 0-.016.25l.297 1.025c.038.125.136.22.262.255.606.159.927.324 1.001.784.01.067.016.136.016.207 0 .513.028.891.051 1.195.044.573.065.86-.14 1.406a.381.381 0 0 0 .007.276c.513 1.197.677 2.291.434 2.78-.552-.062-.865-.234-.867-.234l-.398-.268a.368.368 0 0 0-.508.096c-.012.015-.022.033-.031.05l-8.767-.68a.37.37 0 0 0-.22.054c-2.383 1.463-3.312 3.352-2.761 5.614a.381.381 0 0 0 .105.182l.796.75c.108.101.268.13.402.07 1.98-.875 5.205-1.894 7.784-1.894.952 0 1.738.14 2.338.416.18.082.39.01.482-.165.435-.829.95-1.124 1.29-1.124.273 0 .448.182.468.48-.04.102-.159.344-.272.577-.682 1.406-2.103 4.333-1.7 6.3.079.381.096 1.306-.406 2.056-.354.527-.9.86-1.629.997-.155.028-.374-.077-.518.046-.287.25-.292-.008-.465-.029v.746c.417.038.792.028 1.12-.034.929-.174 1.638-.618 2.104-1.313.637-.949.623-2.094.518-2.617-.355-1.721 1.044-4.599 1.639-5.828.22-.45.31-.638.339-.765a.388.388 0 0 0 .01-.082c-.002-.738-.511-1.275-1.212-1.275l-.003.003zm-9.445 9.39a42.078 42.078 0 0 1-1.8-.976l-.047-.029c-1.05-.598-2.227-.93-3.315-.93a4.86 4.86 0 0 0-1.651.278c-.008.003-.016.005-.023.01-1.477.647-3.147 1.735-4.707 3.058a.367.367 0 0 0-.127.34c.019.128.105.235.223.287l4.33 1.786c1.141 1.994.867 4.461.6 6.849-.092.838-.181 1.631-.203 2.387-.012.402.031.914.081 1.51.148 1.76.347 4.15-.783 5.38-1.13-.148-2.792 1.269-4.251 2.516-.25.21-.489.42-.714.604-.811-1.946-3.652-8.44-5.905-9.493a.462.462 0 0 0-.115-.261c-.174-.211-.521-.301-1.127-.301-1.443 0-4.43.575-6.65 1.857l-.012.756a.384.384 0 0 0 .266-.045c2.087-1.247 5.051-1.825 6.395-1.825.24 0 .39.018.48.036-.02.182.1.352.282.399.503.12 1.658.92 3.735 4.942a61.915 61.915 0 0 1 2.153 4.677.363.363 0 0 0 .343.234.36.36 0 0 0 .229-.078c.338-.264.719-.59 1.121-.937 1.16-.989 2.746-2.348 3.595-2.348.064 0 .121.01.17.029a.377.377 0 0 0 .374-.08c1.543-1.428 1.318-4.14 1.152-6.118-.048-.573-.089-1.067-.078-1.426.022-.727.109-1.503.2-2.328.271-2.432.578-5.187-.763-7.417a.358.358 0 0 0-.176-.147l-3.876-1.603c1.812-1.46 3.288-2.216 4.045-2.55 1.258-.447 2.914-.21 4.335.604l.046.025c.765.438 1.485.824 2.168 1.163v-.835zm143.544-15.112c0 .898-.321 1.664-.963 2.29-.645.63-1.409.945-2.295.945-.6 0-1.148-.142-1.641-.429a3.14 3.14 0 0 1-1.167-1.17 3.18 3.18 0 0 1-.431-1.636c0-.887.316-1.65.945-2.293a3.09 3.09 0 0 1 2.294-.965c.884 0 1.648.322 2.294.966.642.642.962 1.405.962 2.29l.002.002zm-79.687 17.355c.584-.393 1.173.131 1.173.653v2.807c0 .522-.397 1.108-.882 1.304 0 0-.688.272-1.85.565-1.16.295-2.269.441-3.33.441-4.581 0-6.872-2.237-6.872-6.715V36.91a.955.955 0 0 0-.952-.951h-.982c-.521 0-.949-.25-.949-.556 0-.307.3-.863.666-1.236l7.203-7.339c.367-.372.83-.678 1.028-.678.199 0 .362.428.362.951v3.49c0 .522.428.948.949.948h4.179c.523 0 .952.429.952.951v2.518c0 .522-.428.951-.951.951h-4.18a.952.952 0 0 0-.948.949v3.863c0 .521.014 1.375.031 1.896 0 0 .007.265.092.676.082.412.317.76.698 1.035.384.276.963.415 1.742.415.891 0 1.939-.188 2.82-.716zm73.251 5.304V32.494c0-.523.426-.95.95-.95h4.48a.95.95 0 0 1 .947.948v17.132c0 4.479-2.29 6.714-6.872 6.714-1.06 0-2.171-.143-3.332-.44-1.16-.294-1.847-.566-1.847-.566-.486-.196-.882-.778-.882-1.302v-2.806c0-.522.585-1.05 1.173-.657.88.532 1.927.717 2.82.717.777 0 1.336-.167 1.74-.414.606-.367.822-1.066.822-1.486h.001zm-96.253-18.157a8.736 8.736 0 0 0-3.269.61c-1.025.405-2.405 1.651-2.405 1.651-.388.35-.705.208-.705-.313v-7.186a.954.954 0 0 0-.949-.95h-4.463a.953.953 0 0 0-.949.95v22.593c0 .521.427.949.95.949h4.461c.52 0 .95-.428.95-.95v-8.485c.018-.67.31-1.54.683-2.039.346-.418.7-.795 1.064-1.115a3.133 3.133 0 0 1 2.12-.806c1.026 0 1.72.36 2.086 1.08.365.719.547 1.508.547 2.367 0 .213-.002.353-.007.417l-.007.067-.002 1.087v7.43c0 .521.428.95.95.95h4.461c.525 0 .951-.429.951-.95V38.49c0-4.843-2.156-7.263-6.467-7.263zm58.518 3.365c-.466-1.09-1.184-1.923-2.157-2.5-.97-.578-2.176-.865-3.613-.865-1.438 0-2.706.294-3.809.882-1.102.59-2.166 1.461-3.19 2.616a5.495 5.495 0 0 0-1.041-1.643 5.152 5.152 0 0 0-1.457-1.114 6.493 6.493 0 0 0-1.636-.575 8.854 8.854 0 0 0-1.747-.167c-1.298 0-2.44.23-3.429.688-.989.46-2.214 1.57-2.214 1.57-.385.352-.701.213-.701-.31v-.679a.952.952 0 0 0-.951-.949h-4.461a.952.952 0 0 0-.95.949v16.089c0 .52.426.949.95.949h4.46c.524 0 .952-.427.952-.95v-8.415c0-.679.345-1.677.811-2.246.293-.369.55-.661.763-.864.248-.236.569-.448.964-.637a2.998 2.998 0 0 1 1.298-.283c.989 0 1.677.331 2.066.991.388.66.499 1.863.499 1.863.047.52.086 1.373.086 1.895v7.697c0 .521.426.949.949.949h4.462c.524 0 .95-.428.95-.95v-8.415c0-.697.365-1.737.854-2.296l-.018-.006c.288-.343.575-.652.861-.925.566-.534 1.29-.804 2.173-.804.907 0 1.57.317 1.987.946.419.63.539 1.907.539 1.907.05.52.089 1.373.089 1.895v7.697c0 .521.427.949.95.949h4.463a.952.952 0 0 0 .949-.95V38.56c-.002-1.556-.234-2.878-.7-3.969l-.001.001zm20.28 4.232c.326-.054 1.258-.214 2.047-.214 1.166 0 2.096.163 2.783.487.69.326 1.176.735 1.46 1.227a3.13 3.13 0 0 1 .421 1.574c0 .671-.24 1.323-.725 1.953-.483.63-1.324.945-2.526.945-1.012 0-2.205-.288-3.577-.865-1.373-.575-2.387-1.208-2.387-1.208-.441-.278-.803-.076-.803.445V47.5c1.156.79 2.42 1.38 3.8 1.766 1.379.39 2.82.585 4.329.585 1.885 0 3.485-.368 4.798-1.107 1.313-.734 2.299-1.716 2.953-2.94.654-1.228.98-2.541.98-3.94 0-1.357-.333-2.61-.998-3.755-.665-1.147-1.623-2.072-2.872-2.766-1.247-.694-2.697-1.041-4.345-1.041-.26 0-.434.004-.522.007-.089.006-.237.02-.44.037l-.208.017c-.21.024-.386-.383-.386-.906v-2.305c0-.522.428-.949.95-.949h6.866a.953.953 0 0 0 .949-.952v-3.259a.951.951 0 0 0-.95-.949h-12.29a.953.953 0 0 0-.951.95v12.336c0 .415.339.712.754.69.197-.012.542-.137.894-.194l-.003-.002zm-16.6 3.838c0 4.476 2.29 6.716 6.872 6.716.748 0 1.825-.242 2.416-.528.585-.283.949-.76.949-1.284v-2.533a.953.953 0 0 0-.95-.951h-.344c-.78 0-1.358.105-1.74-.171-.384-.278-.616-.623-.699-1.035a4.502 4.502 0 0 1-.093-.678 62.714 62.714 0 0 1-.032-1.898V25.98a.952.952 0 0 0-.95-.949h-4.48a.952.952 0 0 0-.95.949V42.66z" fill="#0B1038" fill-rule="nonzero"/></svg>