<svg width="208" height="196" xmlns="http://www.w3.org/2000/svg"><g fill="none" fill-rule="evenodd"><g fill-rule="nonzero"><path fill="#B04322" d="M85.062 123.836l-34.98 44.47 1.597 15.345 27.402 10.597 37.478.84 49.851-41.835-1.615-15.213z"/><path fill="#B83E1F" d="M77.485 179.076l1.596 15.172 37.478.84-1.593-15.39z"/><path fill="#C24121" d="M50.082 168.307l1.597 15.344 27.402 10.597-1.596-15.172z"/><path fill="#D94925" d="M85.062 123.836l-34.98 44.47 27.402 10.77 37.483.622 49.828-41.658z"/><path fill="#D14624" d="M164.795 138.04l1.615 15.213-49.851 41.835-1.592-15.39z"/><path fill="#E86127" d="M81.533 175.586l30.008.578 42.134-35.668-31.728-5.607z"/><path d="M92.503 164.54l.108.04h12.853l7.085-6.555-11.55-2.04 5.233-5.27 22.624 3.884-18.9 15.93-22.876-.53 5.423-5.46zm24.252-24.423l24.6 4.344-6.173 5.236-23.537-4.434 5.11-5.146z" fill="#F5F5F5"/><path d="M92.503 164.54L87.08 170l-.108-.003-17.4-6.92 6.561-8.079 9.737 1.588-3.391 4.272 10.024 3.682zm8.495-8.555l-22.43-3.963 12.664-16.411 25.523 4.506-5.11 5.146-14.525-2.736-4.509 5.849 13.62 2.339-5.233 5.27z" fill="#E0E0E0"/></g><path d="M109.911 15.941a2.558 2.558 0 1 1 0-5.116 2.558 2.558 0 0 1 0 5.116m-12.591 0a2.56 2.56 0 1 1 2.558-2.56 2.56 2.56 0 0 1-2.558 2.56m24.451-1.257a44.224 44.224 0 0 1 9.341 5.724 29.427 29.427 0 0 0-10.014-.993c-5.495.404-12.733 2.535-17.483 7.262-4.75-4.727-11.987-6.858-17.48-7.262-3.801-.281-7.185.214-10.018.995a44.208 44.208 0 0 1 9.343-5.724C89.358 7.949 100.84 0 103.615 0c2.774 0 14.256 7.947 18.156 14.684zM79.27 99.726C71.354 87.958 62.58 78.144 60.043 63.671c-11.083 4.139-25.485 8.185-39.198 6.093C9.387 68.017-1.423 56.412.154 41.67c4.137 1.781 11.825 3.156 19.51 3.156 7.684 0 22.268-1.178 33.501-7.853 11.232-6.676 12.28-7.638 16.486-10.103.223-.133.452-.268.694-.41 4.546-2.663 10.17-4.517 15.426-4.138 2.87.211 6.469.993 9.782 2.509 3.012 1.265 5.922 3.103 8.061 5.698 2.138-2.595 5.05-4.433 8.06-5.698 3.315-1.516 6.912-2.298 9.784-2.509 5.256-.38 10.88 1.475 15.425 4.138l.694.41c4.205 2.465 5.254 3.427 16.486 10.103 11.232 6.675 25.815 7.853 33.503 7.853 7.685 0 15.371-1.375 19.51-3.156 1.576 14.74-9.236 26.346-20.695 28.093-13.71 2.092-28.115-1.954-39.197-6.093-2.539 14.473-11.311 24.287-19.225 36.055-12.812 19.047-20.694 42.02-24.241 42.02-3.756 0-11.638-22.973-24.448-42.02zm23.946-28.455c8.144 0 14.745-6.595 14.745-14.732 0-8.136-6.601-14.732-14.745-14.732-8.143 0-14.745 6.596-14.745 14.732 0 8.137 6.602 14.732 14.745 14.732z" fill="#CF0000"/></g></svg>