<?xml version="1.0" encoding="UTF-8"?>
<svg width="208px" height="196px" viewBox="0 0 208 196" version="1.1" xmlns="http://www.w3.org/2000/svg" xmlns:xlink="http://www.w3.org/1999/xlink">
    <!-- Generator: Sketch 51.3 (57544) - http://www.bohemiancoding.com/sketch -->
    <title>logo</title>
    <desc>Created with Sketch.</desc>
    <defs></defs>
    <g id="logo" stroke="none" stroke-width="1" fill="none" fill-rule="evenodd">
        <g id="logo-html5-3d" transform="translate(49.910686, 123.778500)" fill-rule="nonzero">
            <polygon id="Path-2" fill="#B04322" points="35.1511601 0.0577092302 0.171567982 44.5281301 1.76870992 59.8725465 29.1700663 70.4695989 66.648312 71.3095021 116.499729 29.4745994 114.88426 14.2615885"></polygon>
            <polygon id="Path-2-Copy-3" fill="#B83E1F" points="27.5746556 55.2970468 29.1700663 70.4695989 66.648312 71.3095021 65.0555841 55.9199322"></polygon>
            <polygon id="Path-2-Copy-2" fill="#C24121" points="0.171567982 44.5281301 1.76870992 59.8725465 29.1700663 70.4695989 27.5746556 55.2970468"></polygon>
            <polygon id="Path-2-Copy" fill="#D94925" points="35.1511601 0.0577092302 0.171567982 44.5281301 27.5729243 55.2967505 65.0562391 55.9194642 114.88426 14.2615885"></polygon>
            <polygon id="Combined-Shape" fill="#D14624" points="114.88426 14.2615885 116.499729 29.4745994 66.648312 71.3095021 65.0562391 55.9194642"></polygon>
            <polygon id="Path-3" fill="#E86127" points="31.6227085 51.8072917 61.6307284 52.3859437 103.764705 16.7177401 72.0359366 11.1109765"></polygon>
            <path d="M42.5921506,40.7610107 L42.7005412,40.8008157 L55.5531276,40.8008157 L62.6386903,34.2465289 L51.0875025,32.2061504 L56.3209577,26.9360359 L78.9450572,30.8206282 L60.0448944,46.7503254 L37.1697747,46.2213693 L42.5921506,40.7610107 Z M66.8445736,16.338704 L91.4445645,20.6821303 L85.2716265,25.9184631 L61.7342583,21.484816 L66.8445736,16.338704 Z" id="Combined-Shape" fill="#F5F5F5"></path>
            <path d="M42.5921506,40.7610107 L37.1697747,46.2213693 L37.0610236,46.2188546 L19.6616907,39.2992059 L26.2226063,31.2199137 L35.9590893,32.8073075 L32.5678921,37.0797401 L42.5921506,40.7610107 Z M51.0875025,32.2061504 L28.6565321,28.2439891 L41.3217585,11.8323418 L66.8445736,16.338704 L61.7342583,21.484816 L47.2096597,18.7488711 L42.7005412,24.5973896 L56.3209577,26.9360359 L51.0875025,32.2061504 Z" id="Combined-Shape" fill="#E0E0E0"></path>
        </g>
        <path d="M109.911365,15.941419 C108.49749,15.941419 107.353438,14.7953569 107.353438,13.3821201 C107.353438,11.9688833 108.49749,10.8237207 109.911365,10.8237207 C111.323442,10.8237207 112.469292,11.9688833 112.469292,13.3821201 C112.469292,14.7953569 111.323442,15.941419 109.911365,15.941419 M97.3196003,15.941419 C95.9075238,15.941419 94.7598744,14.7953569 94.7598744,13.3821201 C94.7598744,11.9688833 95.9075238,10.8237207 97.3196003,10.8237207 C98.7316768,10.8237207 99.8775274,11.9688833 99.8775274,13.3821201 C99.8775274,14.7953569 98.7316768,15.941419 97.3196003,15.941419 M121.771009,14.6838092 C125.129413,16.2049953 128.264762,18.1345898 131.1123,20.407823 C128.280951,19.6278891 124.897364,19.1340208 121.098249,19.4146891 C115.602843,19.8194991 108.365276,21.9496995 103.615483,26.6769811 C98.8656891,21.9496995 91.6281225,19.8194991 86.1345154,19.4146891 C82.3336012,19.1340208 78.9500141,19.6287886 76.116867,20.4096222 C78.9662035,18.1345898 82.101553,16.2067945 85.4599566,14.6856084 C89.3580072,7.94866986 100.839898,0 103.615483,0 C106.389269,0 117.871159,7.9468707 121.771009,14.6838092 Z M79.2698088,99.726196 C71.3544092,87.9576456 62.5814403,78.1439384 60.0429635,63.6710987 C48.960323,67.8096577 34.5582052,71.85577 20.8452054,69.7636032 C9.38692803,68.0169895 -1.42276762,56.4117915 0.153646333,41.6705872 C4.29105734,43.452205 11.9785526,44.827237 19.6633454,44.827237 C27.3481382,44.827237 41.9322192,43.6487663 53.1652946,36.973758 C64.3974692,30.2978522 65.4442081,29.3356888 69.6509813,26.8710428 C69.8743817,26.7382068 70.1031869,26.6026782 70.3446034,26.4608668 C74.8909812,23.7978643 80.5156262,21.9436205 85.7709399,22.3232801 C88.6418149,22.5342021 92.239642,23.3159598 95.5528137,24.8319056 C98.5651155,26.0974377 101.474725,27.934703 103.614144,30.5303899 C105.751762,27.934703 108.664074,26.0974377 111.674574,24.8319056 C114.988646,23.3159598 118.586473,22.5342021 121.458249,22.3232801 C126.713563,21.9436205 132.338208,23.7978643 136.882784,26.4608668 C137.1233,26.6026782 137.353907,26.7382068 137.577307,26.8710428 C141.782279,29.3356888 142.830819,30.2978522 154.062994,36.973758 C165.295168,43.6487663 179.878349,44.827237 187.565844,44.827237 C195.250637,44.827237 202.937231,43.452205 207.075543,41.6705872 C208.651957,56.4117915 197.84046,68.0169895 186.381281,69.7636032 C172.670083,71.85577 158.266164,67.8096577 147.183523,63.6710987 C144.645046,78.1439384 135.872978,87.9576456 127.95938,99.726196 C115.147189,118.772902 107.265119,141.746347 103.717737,141.746347 C99.9622687,141.746347 92.0801989,118.772902 79.2698088,99.726196 Z M103.216066,71.2713375 C111.359588,71.2713375 117.961218,64.6755677 117.961218,56.5392733 C117.961218,48.4029789 111.359588,41.8072091 103.216066,41.8072091 C95.072543,41.8072091 88.4709135,48.4029789 88.4709135,56.5392733 C88.4709135,64.6755677 95.072543,71.2713375 103.216066,71.2713375 Z" id="logo-html5conf2018" fill="#CF0000"></path>
    </g>
</svg>