<?xml version="1.0" encoding="utf-8"?>
<!-- Generator: Adobe Illustrator 18.1.0, SVG Export Plug-In . SVG Version: 6.00 Build 0)  -->
<!DOCTYPE svg PUBLIC "-//W3C//DTD SVG 1.1//EN" "http://www.w3.org/Graphics/SVG/1.1/DTD/svg11.dtd">
<svg version="1.1" id="レイヤー_1" xmlns="http://www.w3.org/2000/svg" xmlns:xlink="http://www.w3.org/1999/xlink" x="0px"
	 y="0px" width="100.4px" height="94.2px" viewBox="0 0 100.4 94.2" enable-background="new 0 0 100.4 94.2" xml:space="preserve">
<g>
	<g>
		<g enable-background="new    ">
			<g>
				<defs>
					<rect id="SVGID_1_" x="24.2" y="59.9" width="56.2" height="34.3"/>
				</defs>
				<clipPath id="SVGID_2_">
					<use xlink:href="#SVGID_1_"  overflow="visible"/>
				</clipPath>
				<polygon clip-path="url(#SVGID_2_)" fill="#B64220" points="44.3,65.4 45,72.7 44.4,73.4 43.7,66.1 				"/>
				<polygon clip-path="url(#SVGID_2_)" fill="#BA4421" points="58.9,65 59.6,72.3 57.1,74.8 56.4,67.6 				"/>
				<polygon clip-path="url(#SVGID_2_)" fill="#9A3615" points="56.4,67.6 57.1,74.8 45,72.7 44.3,65.4 				"/>
				<polygon clip-path="url(#SVGID_2_)" fill="#CACBCB" points="56.3,67.6 57,74.8 55.4,76.4 54.7,69.2 				"/>
				<polygon clip-path="url(#SVGID_2_)" fill="#9A3615" points="74.6,67.8 75.3,75.1 59.6,72.3 58.9,65 				"/>
				<polygon clip-path="url(#SVGID_2_)" fill="#A8A8A9" points="53.8,70.1 54.5,77.4 47.8,76.1 47,68.9 				"/>
				<polygon clip-path="url(#SVGID_2_)" fill="#CACBCB" points="54.7,69.2 55.4,76.4 54.5,77.4 53.8,70.1 				"/>
				<polygon clip-path="url(#SVGID_2_)" fill="#B6B7B7" points="53.9,70.1 54.6,77.4 54.5,77.4 53.8,70.1 				"/>
				<polygon clip-path="url(#SVGID_2_)" fill="#C5C6C6" points="47,68.9 47.8,76.1 45.6,78.8 44.9,71.6 				"/>
				<polygon clip-path="url(#SVGID_2_)" fill="#A2451A" points="68.4,69.7 69.1,77 57.1,74.8 56.4,67.6 				"/>
				<polygon clip-path="url(#SVGID_2_)" fill="#B5421F" points="43.7,66.1 44.4,73.4 38.6,80.6 37.9,73.4 				"/>
				<polygon clip-path="url(#SVGID_2_)" fill="#DEDEDE" points="68.4,69.7 69.1,77 68.4,77.7 67.6,70.4 				"/>
				<polygon clip-path="url(#SVGID_2_)" fill="#9A3615" points="51.2,72.7 51.9,80 45.6,78.8 44.9,71.6 				"/>
				<polygon clip-path="url(#SVGID_2_)" fill="#9A3615" points="51.3,72.7 52,80 51.9,80 51.2,72.7 				"/>
				<polygon clip-path="url(#SVGID_2_)" fill="#BA4421" points="53.9,70.1 54.6,77.4 52,80 51.3,72.7 				"/>
				<polygon clip-path="url(#SVGID_2_)" fill="#DFE0E0" points="67.6,70.4 68.4,77.7 66.8,78.9 66.1,71.7 				"/>
				<polygon clip-path="url(#SVGID_2_)" fill="#B6B7B7" points="65.5,72.2 66.2,79.5 54.6,77.4 53.9,70.1 				"/>
				<polygon clip-path="url(#SVGID_2_)" fill="#DEDFDF" points="66.1,71.7 66.8,78.9 66.2,79.5 65.5,72.2 				"/>
				<polygon clip-path="url(#SVGID_2_)" fill="#A8A8A9" points="48.6,75.3 49.4,82.6 38.6,80.6 37.9,73.4 				"/>
				<polygon clip-path="url(#SVGID_2_)" fill="#9A3615" points="39.1,75.1 39.9,82.3 37.6,81.9 36.9,74.7 				"/>
				<polygon clip-path="url(#SVGID_2_)" fill="#9A3615" points="41.7,75.6 42.4,82.8 39.9,82.3 39.1,75.1 				"/>
				<polygon clip-path="url(#SVGID_2_)" fill="#CACBCB" points="51.2,72.7 51.9,80 49.4,82.6 48.6,75.3 				"/>
				<polygon clip-path="url(#SVGID_2_)" fill="#CACACA" points="51.2,72.7 48.6,75.3 37.9,73.4 43.7,66.1 44.3,65.4 56.3,67.6 
					54.7,69.2 53.8,70.1 47,68.9 44.9,71.6 				"/>
				<polygon clip-path="url(#SVGID_2_)" fill="#B6B7B7" points="48.7,75.3 49.5,82.6 49.4,82.6 48.6,75.3 				"/>
				<polygon clip-path="url(#SVGID_2_)" fill="#A2451A" points="61.1,74.5 61.8,81.8 52,80 51.3,72.7 				"/>
				<polygon clip-path="url(#SVGID_2_)" fill="#A2451A" points="62.4,74.7 63.2,82 61.8,81.8 61.1,74.5 				"/>
				<polygon clip-path="url(#SVGID_2_)" fill="#E0E0E1" points="62.4,74.7 63.2,82 62.3,82.6 61.6,75.4 				"/>
				<polygon clip-path="url(#SVGID_2_)" fill="#C5C6C6" points="41.7,75.6 42.4,82.8 40.7,84.9 40,77.7 				"/>
				<polygon clip-path="url(#SVGID_2_)" fill="#B6B7B7" points="54.6,76.4 55.3,83.6 49.5,82.6 48.7,75.3 				"/>
				<polygon clip-path="url(#SVGID_2_)" fill="#B64220" points="36.9,74.7 37.6,81.9 34.3,86.1 33.5,78.8 				"/>
				<polygon clip-path="url(#SVGID_2_)" fill="#BA4421" points="48.7,75.3 49.5,82.6 45.5,86.6 44.7,79.4 				"/>
				<polygon clip-path="url(#SVGID_2_)" fill="#8F3010" points="44.7,79.4 45.5,86.6 40.7,84.9 40,77.7 				"/>
				<polygon clip-path="url(#SVGID_2_)" fill="#C35525" points="54.6,76.4 50.7,79.6 44.7,79.4 48.7,75.3 				"/>
				<polygon clip-path="url(#SVGID_2_)" fill="#AF4C1F" points="50.7,79.6 51.5,86.8 45.5,86.6 44.7,79.4 				"/>
				<polygon clip-path="url(#SVGID_2_)" fill="#C65727" points="54.6,76.4 55.3,83.6 51.5,86.8 50.7,79.6 				"/>
				<polygon clip-path="url(#SVGID_2_)" fill="#CACACA" points="40,77.7 44.6,79.4 42,82.1 33.5,78.8 36.9,74.7 39.1,75.1 
					41.7,75.6 				"/>
				<polygon clip-path="url(#SVGID_2_)" fill="#CACBCB" points="44.6,79.4 45.4,86.6 42.7,89.3 42,82.1 				"/>
				<polygon clip-path="url(#SVGID_2_)" fill="#9B9B9C" points="42,82.1 42.7,89.3 34.3,86.1 33.5,78.8 				"/>
				<polygon clip-path="url(#SVGID_2_)" fill="#C5C5C6" points="42.1,82.1 42.8,89.3 42.7,89.3 42,82.1 				"/>
				<polygon clip-path="url(#SVGID_2_)" fill="#CACBCB" points="42.1,82.1 42.8,89.3 42.8,89.3 42.1,82.1 				"/>
				<polygon clip-path="url(#SVGID_2_)" fill="#A8A8A9" points="42.1,82.1 42.8,89.3 42.7,89.3 42,82.1 				"/>
				<polygon clip-path="url(#SVGID_2_)" fill="#CACACA" points="42.1,82.1 42,82.1 42.1,82.1 				"/>
				<polygon clip-path="url(#SVGID_2_)" fill="#DEDFDF" points="61.6,75.4 62.3,82.6 54.6,89.2 53.8,81.9 				"/>
				<polygon clip-path="url(#SVGID_2_)" fill="#DBDBDC" points="51.3,72.7 61.1,74.5 62.4,74.7 61.6,75.4 53.8,81.9 53.3,82.4 
					42.1,82.1 42,82.1 44.6,79.4 44.7,79.4 50.7,79.6 54.6,76.4 48.7,75.3 48.6,75.3 51.2,72.7 				"/>
				<polygon clip-path="url(#SVGID_2_)" fill="#DEDFDF" points="53.8,81.9 54.6,89.2 54,89.6 53.3,82.4 				"/>
				<polygon clip-path="url(#SVGID_2_)" fill="#C5C5C6" points="53.3,82.4 54,89.6 42.8,89.3 42.1,82.1 				"/>
				<polygon clip-path="url(#SVGID_2_)" fill="#B84320" points="42,82.1 42.7,89.3 40.2,91.9 39.5,84.7 				"/>
				<polygon clip-path="url(#SVGID_2_)" fill="#C65727" points="74.6,67.8 75.3,75.1 54.7,92.4 54,85.1 				"/>
				<polygon clip-path="url(#SVGID_2_)" fill="#AF4C1F" points="54,85.1 54.7,92.4 40.2,91.9 39.5,84.7 				"/>
				<polygon clip-path="url(#SVGID_2_)" fill="#C35525" points="58.9,65 74.6,67.8 54,85.1 39.5,84.7 42.1,82.1 53.3,82.4 
					53.8,81.9 61.6,75.4 62.4,74.7 61.1,74.5 51.3,72.7 53.9,70.1 65.5,72.2 66.1,71.7 67.6,70.4 68.4,69.7 56.4,67.6 				"/>
				<path clip-path="url(#SVGID_2_)" fill="#B94321" d="M41.3,59.9l38.5,6.9L55.7,87l-18.1-0.5l-13.4-5.2L41.3,59.9z M54,85.1
					l20.6-17.3L58.9,65l-2.5,2.6l-12.1-2.2l-0.6,0.7l-5.8,7.3l10.8,1.9l-4,4.1L40,77.7l1.7-2.1l-2.6-0.5l-2.2-0.4l-3.4,4.1l8.5,3.2
					l-2.5,2.6L54,85.1"/>
				<polygon clip-path="url(#SVGID_2_)" fill="#B94321" points="44.9,71.6 47,68.9 53.9,70.1 51.3,72.7 51.2,72.7 				"/>
				<polygon clip-path="url(#SVGID_2_)" fill="#DBDBDC" points="56.4,67.6 68.4,69.7 67.6,70.4 66.1,71.7 65.5,72.2 53.9,70.1 
					53.8,70.1 54.7,69.2 56.3,67.6 				"/>
				<polygon clip-path="url(#SVGID_2_)" fill="#8F3010" points="37.6,86.5 38.3,93.7 25,88.6 24.2,81.3 				"/>
				<polygon clip-path="url(#SVGID_2_)" fill="#A73B1B" points="55.7,87 56.4,94.2 38.3,93.7 37.6,86.5 				"/>
				<polygon clip-path="url(#SVGID_2_)" fill="#BC4522" points="79.7,66.8 80.5,74 56.4,94.2 55.7,87 				"/>
			</g>
		</g>
		<path fill="#C30D23" d="M100.3,20.1c-2,0.9-5.7,1.5-9.5,1.5c-3.7,0-10.8-0.6-16.2-3.8c-5.4-3.2-5.9-3.7-8-4.9
			c-0.1-0.1-0.2-0.1-0.3-0.2c-2.2-1.3-4.9-1.9-7.5-1.7c-1.4,0.1-3.1,0.5-4.7,1.2c-1.5,0.6-2.9,1.5-3.9,2.8c-0.7-0.9-1.7-1.6-2.7-2.2
			c-1.9-1.1-4.2-1.7-5.9-1.8c-2.1-0.1-4.2,0.2-6.1,1.1c-0.6,0.3-1.2,0.6-1.8,0.9c-2,1.2-2.5,1.7-8,4.9c-5.4,3.2-12.5,3.8-16.2,3.8
			c-3.7,0-7.4-0.7-9.5-1.5c-0.8,7.2,4.5,12.8,10,13.7c6.7,1,13.7-1,19.1-3c1.2,7.1,5.5,11.8,9.3,17.6c6.2,9.3,10,20.4,11.7,20.4
			c1.7,0,5.5-11.2,11.7-20.4c3.8-5.7,8.1-10.5,9.3-17.5c5.4,2,12.3,4,19,3C95.8,32.9,101.1,27.2,100.3,20.1 M50.2,34.5
			c-4,0-7.2-3.2-7.2-7.2c0-4,3.2-7.2,7.2-7.2c4,0,7.2,3.2,7.2,7.2C57.4,31.3,54.2,34.5,50.2,34.5"/>
	</g>
	<path fill="#C30D23" d="M59.1,7.1C57.2,3.9,51.6,0,50.2,0c-1.3,0-6.9,3.9-8.8,7.1c-1.6,0.7-3.2,1.7-4.5,2.8c1.4-0.4,3-0.6,4.9-0.5
		c2.7,0.2,6.2,1.2,8.5,3.5c2.3-2.3,5.8-3.3,8.5-3.5c1.8-0.1,3.5,0.1,4.9,0.5C62.2,8.8,60.7,7.9,59.1,7.1 M47.2,7.7
		c-0.7,0-1.2-0.6-1.2-1.2c0-0.7,0.6-1.2,1.2-1.2c0.7,0,1.2,0.6,1.2,1.2C48.4,7.2,47.9,7.7,47.2,7.7 M53.3,7.7
		c-0.7,0-1.2-0.6-1.2-1.2c0-0.7,0.6-1.2,1.2-1.2c0.7,0,1.2,0.6,1.2,1.2C54.5,7.2,54,7.7,53.3,7.7"/>
</g>
</svg>
