<?xml version="1.0" encoding="utf-8"?>
<!-- Generator: Adobe Illustrator 18.1.0, SVG Export Plug-In . SVG Version: 6.00 Build 0)  -->
<!DOCTYPE svg PUBLIC "-//W3C//DTD SVG 1.1//EN" "http://www.w3.org/Graphics/SVG/1.1/DTD/svg11.dtd">
<svg version="1.1" id="レイヤー_1" xmlns="http://www.w3.org/2000/svg" xmlns:xlink="http://www.w3.org/1999/xlink" x="0px"
	 y="0px" width="282.8px" height="62.6px" viewBox="0 0 282.8 62.6" enable-background="new 0 0 282.8 62.6" xml:space="preserve">
<g>
	
		<path fill-rule="evenodd" clip-rule="evenodd" stroke="#000000" stroke-width="0.6427" stroke-linecap="round" stroke-linejoin="round" stroke-miterlimit="10" d="
		M29.6,11c7.2,0.1,14.5,0.3,21.7,0.4c7.9,0.1,15.7,0,23.6,0c6.2,0,12.3,0.1,18.5,0.1c2.2,0,4.3-0.2,6.5-0.3c2.4-0.1,4.7-0.2,7.1-0.2
		c7.4,0,14.8,0.2,22.2,0.2c5.2,0,10.5,0.1,15.7-0.3c6.3-0.4,12.6-0.3,18.9-0.5c3.1-0.1,6.3,0,9.4,0c4,0,8,0,12,0
		c5.1,0,10.3,0,15.4,0.1c3.4,0,6.9,0,10.3,0.1c4.5,0.1,9,0.4,13.6,0.3c5-0.2,10,0.1,14.9,0c8.6-0.1,17.2-0.1,25.7,0
		c2.3,0,4.7,0.4,7,0.6c0.5,0,0.9,0.2,1.3,0.3c0.8,0.2,1.3,0.7,1.4,1.6c0.4,2.3,0.5,4.6,0.5,6.9c-0.1,4.4,0,8.8-0.1,13.2
		c-0.1,3.4-0.3,6.9-0.4,10.3c0,1.3-0.3,2.5-1,3.7c-0.9,1.7-2.2,2.7-4.2,3c-4.1,0.5-8.2,0.5-12.3,0.3c-3.4-0.2-6.9-0.4-10.3-0.5
		c-4.2-0.1-8.3-0.2-12.5-0.2c-5.9-0.1-11.9-0.2-17.8-0.2c-4.8,0-9.6,0.2-14.3,0.1c-4.3-0.1-8.5-0.3-12.8-0.5c-1.3-0.1-2.6,0-3.9-0.1
		c-5.5-0.1-11-0.3-16.5-0.4c-6.6,0-13.2,0-19.9,0.1c-4.9,0.1-9.8,0.3-14.6,0.3c-4.7,0-9.3-0.1-14,0c-7.2,0-14.4,0.2-21.6,0.2
		c-2.6,0-5.1,0-7.7,0.1c-4.4,0-8.7,0-13.1,0c-3.5,0-7.1,0-10.6,0c-4.3,0.1-8.6,0.3-12.9,0.3c-2.3,0-4.6-0.1-6.9-0.2
		c-3.8-0.1-7.6-0.3-11.4-0.4c-3.2-0.1-6.4-0.3-9.5-0.4c-1.6-0.1-3.2,0-4.8-0.1c-2.8-0.1-5.6-0.1-8.5-0.2c-1.3,0-2-0.6-2.2-1.9
		c-0.1-0.5-0.2-1-0.2-1.5c0.1-6.1,0.1-12.2,0.2-18.3c0-2.3,0.2-4.6,0.3-6.9c0-0.9,0-1.7,0-2.6c0-1.1,0-2.2,0.1-3.3
		c0.3-1.7,1.5-2.8,3.3-2.8c4.3-0.1,8.5-0.2,12.8-0.3C28.7,11,29.2,11,29.6,11C29.6,11,29.6,11,29.6,11z M250.9,47.6c0,0,0,0.1,0,0.1
		c3.9,0.2,7.9,0.4,11.9,0.5c1.8,0.1,3.6,0,5.4-0.2c2.9-0.2,4.1-2,4.1-4.4c0-2.9,0.2-5.9,0.2-8.8c0.1-5.7,0-11.4-0.6-17.1
		c-0.3-3-1.9-4.6-4.9-4.7c-2.4,0-4.8,0.1-7.2,0.1c-2.9,0-5.8,0-8.6,0c-1.7,0-3.5,0.3-5.2,0.3c-4.6,0-9.2-0.1-13.9-0.2
		c-1.8,0-3.6-0.2-5.4-0.2c-1.9,0-3.8,0.1-5.7,0.1c-4.6,0-9.1-0.2-13.7-0.2c-2.4,0-4.7,0.2-7.1,0.2c-3.1,0-6.2-0.1-9.2-0.1
		c-3.2,0-6.5,0-9.7,0c-1.6,0-3.2-0.2-4.8-0.1c-6,0.1-11.9,0.3-17.9,0.4c-4.7,0.1-9.5,0-14.2,0c-7.5,0.1-15.1,0.2-22.6,0.3
		c-4,0-7.9,0-11.9-0.1c-2.3,0-4.5-0.2-6.8-0.1c-3.6,0.3-7.2,0.3-10.8,0.2c-4.3-0.1-8.5-0.1-12.8-0.1c-3.2,0-6.5,0-9.7,0
		c-4.9,0-9.8-0.1-14.6-0.2c-1.7,0-3.4,0.1-5.1,0.1c-4.5-0.1-9-0.4-13.5,0c-1.4,0.1-2.8,0.1-4.2,0.1c-4.1,0-8.1,0-12.2,0
		c-1.3,0-2.5,0.3-3.8,0.5c-0.6,0.1-1.2,0.4-1.3,1.2c-0.2,1.3-0.5,2.5-0.6,3.8c-0.2,3.2-0.3,6.5-0.4,9.7c-0.1,3.4-0.2,6.8-0.3,10.2
		c0,0.7-0.1,1.3-0.1,2c0,1.2,0,2.4,0.1,3.5c0.1,1.4,0.6,1.9,2,2.1c1.2,0.2,2.3,0.2,3.5,0.3c7.3,0.2,14.7,0.3,22,0.4
		c0.8,0,1.6,0,2.5,0.1c3.7,0.1,7.4,0.3,11.1,0.4c6.2,0,12.4,0,18.6-0.1c1.3,0,2.6,0.1,3.8,0.1c3.3,0,6.6-0.2,9.9-0.1
		c4.8,0,9.6,0.2,14.3,0.2c7.1-0.1,14.3-0.3,21.4-0.5c3.2-0.1,6.5-0.2,9.7-0.2c3.9,0,7.8,0,11.7,0c5.5,0,11-0.1,16.5-0.1
		c1.9,0,3.7-0.1,5.5-0.1c0.9,0,1.8-0.1,2.8,0c2.2,0.1,4.3,0.3,6.5,0.4c3.1,0.1,6.2,0,9.2,0c2.6,0,5.2,0.2,7.9,0.2
		c4.7,0.1,9.4,0.1,14.2,0.2c2.8,0,5.6,0,8.5,0c1.8,0,3.7-0.2,5.5-0.2c5.2,0.1,10.5,0.2,15.7,0.3C241.5,47.7,246.2,47.6,250.9,47.6z"
		/>
	
		<path fill-rule="evenodd" clip-rule="evenodd" stroke="#000000" stroke-width="1.2854" stroke-linecap="round" stroke-linejoin="round" stroke-miterlimit="10" d="
		M7.9,46.1c-0.8,1.8-5.1,5.5-6.5,5.9C3.7,50,5.8,48.1,7.9,46.1z"/>
	
		<path fill-rule="evenodd" clip-rule="evenodd" stroke="#000000" stroke-width="1.2854" stroke-linecap="round" stroke-linejoin="round" stroke-miterlimit="10" d="
		M32.1,61.3c-0.5-2-0.1-4.2-0.3-6.2c0-0.3,0.2-0.7,0.3-1c0.1,0,0.2,0,0.3,0.1c0,2.4,0,4.8,0,7.2C32.3,61.2,32.2,61.3,32.1,61.3z"/>
	
		<path fill-rule="evenodd" clip-rule="evenodd" stroke="#000000" stroke-width="1.2854" stroke-linecap="round" stroke-linejoin="round" stroke-miterlimit="10" d="
		M56.5,53.5c0.1,2.8,0.2,5.5,0.4,8.5c-0.6-0.6-0.6-0.6-0.6-2.8c0-1-0.1-1.9-0.1-2.9C56.1,55.3,55.8,54.4,56.5,53.5z"/>
	
		<path fill-rule="evenodd" clip-rule="evenodd" stroke="#000000" stroke-width="1.2854" stroke-linecap="round" stroke-linejoin="round" stroke-miterlimit="10" d="
		M115.6,52.2c0.3,2.4-0.1,4.8-0.2,7.2C114.9,58.6,115.1,53.2,115.6,52.2z"/>
	
		<path fill-rule="evenodd" clip-rule="evenodd" stroke="#000000" stroke-width="1.2854" stroke-linecap="round" stroke-linejoin="round" stroke-miterlimit="10" d="
		M9.7,51.1c-1,2.3-2.3,4.3-4.1,6.3c0-1.2,0.8-1.7,1.2-2.4c0.4-0.7,0.9-1.4,1.4-2C8.7,52.4,8.9,51.5,9.7,51.1z"/>
	
		<path fill-rule="evenodd" clip-rule="evenodd" stroke="#000000" stroke-width="1.2854" stroke-linecap="round" stroke-linejoin="round" stroke-miterlimit="10" d="
		M109.1,52.4c0.2,2.5,0.4,4.9,0.2,7.4c-0.1,0-0.3,0-0.4,0c0-1.2,0-2.5,0-3.7C108.8,54.9,108.6,53.6,109.1,52.4z"/>
	
		<path fill-rule="evenodd" clip-rule="evenodd" stroke="#000000" stroke-width="1.2854" stroke-linecap="round" stroke-linejoin="round" stroke-miterlimit="10" d="
		M7.2,5.3c1.3,0.7,4,3.5,4.2,4.5C10,8.4,8.5,6.9,7,5.5C7.1,5.4,7.2,5.3,7.2,5.3z"/>
	
		<path fill-rule="evenodd" clip-rule="evenodd" stroke="#000000" stroke-width="1.2854" stroke-linecap="round" stroke-linejoin="round" stroke-miterlimit="10" d="
		M63.1,54.2c0.1,2.5,0.3,5,0.4,7.7c-0.6-0.9-1.1-5.8-0.8-7.7C62.9,54.2,63,54.2,63.1,54.2z"/>
	
		<path fill-rule="evenodd" clip-rule="evenodd" stroke="#000000" stroke-width="1.2854" stroke-linecap="round" stroke-linejoin="round" stroke-miterlimit="10" d="
		M7.9,36.1c-1.4,1.3-5.3,1.8-7,0.9c0.8,0,1.6,0,2.3,0c0.8-0.1,1.6-0.1,2.4-0.3C6.4,36.5,7.2,36.3,7.9,36.1z"/>
	
		<path fill-rule="evenodd" clip-rule="evenodd" stroke="#000000" stroke-width="1.2854" stroke-linecap="round" stroke-linejoin="round" stroke-miterlimit="10" d="
		M1.4,26.3c1.5-0.5,5.4-0.6,6.6-0.1C7.3,26.5,4.1,26.6,1.4,26.3z"/>
	
		<path fill-rule="evenodd" clip-rule="evenodd" stroke="#000000" stroke-width="1.2854" stroke-linecap="round" stroke-linejoin="round" stroke-miterlimit="10" d="
		M80.1,53.7c0.2,2.2,0.9,4.4,0.8,6.6C80.1,58.5,79.6,54.6,80.1,53.7z"/>
	
		<path fill-rule="evenodd" clip-rule="evenodd" stroke="#000000" stroke-width="1.2854" stroke-linecap="round" stroke-linejoin="round" stroke-miterlimit="10" d="
		M7.7,41c-1,1.4-5.4,3.2-7.1,2.9c1.2-0.4,2.4-0.7,3.5-1.1C5.3,42.2,6.3,41.6,7.7,41z"/>
	
		<path fill-rule="evenodd" clip-rule="evenodd" stroke="#000000" stroke-width="1.2854" stroke-linecap="round" stroke-linejoin="round" stroke-miterlimit="10" d="
		M177.1,52c0.4,2.1-0.1,4.3,0.7,6.5c-0.2-0.2-0.5-0.3-0.6-0.5C176.7,56.1,176.6,54.1,177.1,52z"/>
	
		<path fill-rule="evenodd" clip-rule="evenodd" stroke="#000000" stroke-width="1.2854" stroke-linecap="round" stroke-linejoin="round" stroke-miterlimit="10" d="
		M92.1,59.3c-0.9-1.4-0.7-2.9-0.8-4.4c0-0.6-0.2-1.3,0.4-2.1C91.9,55.2,92,57.2,92.1,59.3z"/>
	
		<path fill-rule="evenodd" clip-rule="evenodd" stroke="#000000" stroke-width="1.2854" stroke-linecap="round" stroke-linejoin="round" stroke-miterlimit="10" d="
		M43.1,54.1c0.1,2.4,0.3,4.7,0.4,7.1c-0.9-1.1-0.5-2.4-0.7-3.6C42.7,56.4,42.3,55.2,43.1,54.1z"/>
	
		<path fill-rule="evenodd" clip-rule="evenodd" stroke="#000000" stroke-width="1.2854" stroke-linecap="round" stroke-linejoin="round" stroke-miterlimit="10" d="
		M69.9,9.3c-0.4-2-0.8-4-1.2-6.1c0.3,0.1,0.5,0.2,0.5,0.3C69.6,5.2,70,7,70.3,8.8c0,0.1-0.1,0.3-0.2,0.5C70.1,9.3,70,9.3,69.9,9.3z"
		/>
	
		<path fill-rule="evenodd" clip-rule="evenodd" stroke="#000000" stroke-width="1.2854" stroke-linecap="round" stroke-linejoin="round" stroke-miterlimit="10" d="
		M103.3,52.5c0,2.3,0,4.5,0,6.8C102.6,58.3,102.5,53.9,103.3,52.5z"/>
	
		<path fill-rule="evenodd" clip-rule="evenodd" stroke="#000000" stroke-width="1.2854" stroke-linecap="round" stroke-linejoin="round" stroke-miterlimit="10" d="
		M37.6,2.1c1,2.1,1.8,4.2,1.8,6.6c-0.7-2.2-1.4-4.3-2.1-6.5C37.4,2.2,37.5,2.2,37.6,2.1z"/>
	
		<path fill-rule="evenodd" clip-rule="evenodd" stroke="#000000" stroke-width="1.2854" stroke-linecap="round" stroke-linejoin="round" stroke-miterlimit="10" d="
		M107.2,1.3c0.6,1.1,1.6,5.5,1.4,6.4C108.2,7,107.2,2.7,107.2,1.3z"/>
	
		<path fill-rule="evenodd" clip-rule="evenodd" stroke="#000000" stroke-width="1.2854" stroke-linecap="round" stroke-linejoin="round" stroke-miterlimit="10" d="
		M126.3,59c0-2,0-4,0-6.2C127,54.2,127,57.2,126.3,59z"/>
	
		<path fill-rule="evenodd" clip-rule="evenodd" stroke="#000000" stroke-width="1.2854" stroke-linecap="round" stroke-linejoin="round" stroke-miterlimit="10" d="
		M63.7,8.6c0.1-2.4-1.3-4.1-1.9-6.4C63.7,4.6,64.5,7.3,63.7,8.6z"/>
	
		<path fill-rule="evenodd" clip-rule="evenodd" stroke="#000000" stroke-width="1.2854" stroke-linecap="round" stroke-linejoin="round" stroke-miterlimit="10" d="
		M49.7,61.7c-0.1-0.3-0.4-0.6-0.4-0.9c0-2.3-0.6-4.6-0.3-6.9c0.1,0,0.2,0,0.3,0c0.2,2.6,0.3,5.2,0.5,7.8
		C49.9,61.7,49.8,61.7,49.7,61.7z"/>
	
		<path fill-rule="evenodd" clip-rule="evenodd" stroke="#000000" stroke-width="1.2854" stroke-linecap="round" stroke-linejoin="round" stroke-miterlimit="10" d="
		M11.4,60.2c-0.2-0.3-0.3-0.4-0.3-0.4c0-0.3,0.1-0.5,0.1-0.7c0.7-2.1,1.4-4.3,2.2-6.4C13.1,55.2,12.4,57.6,11.4,60.2z"/>
	
		<path fill-rule="evenodd" clip-rule="evenodd" stroke="#000000" stroke-width="1.2854" stroke-linecap="round" stroke-linejoin="round" stroke-miterlimit="10" d="
		M85.6,59.4c-0.7-0.9-1-4.5-0.6-6.1C85.7,55.4,85.2,57.5,85.6,59.4z"/>
	
		<path fill-rule="evenodd" clip-rule="evenodd" stroke="#000000" stroke-width="1.2854" stroke-linecap="round" stroke-linejoin="round" stroke-miterlimit="10" d="
		M101.8,2.1c0.5,1.9,0.9,3.8,0.8,5.8c-0.1,0-0.2,0-0.3,0.1c-0.1-0.8-0.2-1.7-0.3-2.5c-0.1-0.9-0.1-1.8-0.7-2.6
		c-0.1-0.1,0.1-0.4,0.1-0.7C101.5,2.1,101.7,2.1,101.8,2.1z"/>
	
		<path fill-rule="evenodd" clip-rule="evenodd" stroke="#000000" stroke-width="1.2854" stroke-linecap="round" stroke-linejoin="round" stroke-miterlimit="10" d="
		M244,1.3c0.7,2,0.4,4.1,0.6,6.2c-0.8-0.9-0.5-2.1-0.6-3.1C244,3.4,244,2.3,244,1.3z"/>
	
		<path fill-rule="evenodd" clip-rule="evenodd" stroke="#000000" stroke-width="1.2854" stroke-linecap="round" stroke-linejoin="round" stroke-miterlimit="10" d="
		M142.4,2.3c0.5,0.9,0.6,4.5,0,5.8C142.4,6.2,142.4,4.2,142.4,2.3z"/>
	
		<path fill-rule="evenodd" clip-rule="evenodd" stroke="#000000" stroke-width="1.2854" stroke-linecap="round" stroke-linejoin="round" stroke-miterlimit="10" d="
		M80.1,1.9C80.6,2.7,81.2,6.3,81,8C80.6,7.4,80,3.3,80.1,1.9z"/>
	
		<path fill-rule="evenodd" clip-rule="evenodd" stroke="#000000" stroke-width="1.2854" stroke-linecap="round" stroke-linejoin="round" stroke-miterlimit="10" d="
		M148.5,57.6c-0.8-1.3-0.9-4.4-0.2-5.9C148.3,53.8,148.4,55.7,148.5,57.6z"/>
	
		<path fill-rule="evenodd" clip-rule="evenodd" stroke="#000000" stroke-width="1.2854" stroke-linecap="round" stroke-linejoin="round" stroke-miterlimit="10" d="
		M37.5,53.5c0.1,2.3,0.2,4.6,0.3,7c-0.3-0.2-0.5-0.3-0.5-0.4c-0.1-2.2-0.3-4.4-0.4-6.7C37.2,53.5,37.3,53.5,37.5,53.5z"/>
	
		<path fill-rule="evenodd" clip-rule="evenodd" stroke="#000000" stroke-width="1.2854" stroke-linecap="round" stroke-linejoin="round" stroke-miterlimit="10" d="
		M263,7.8c-0.7-2-0.2-4-0.2-6c0.2,0,0.3,0,0.3,0c0.1,0.1,0.2,0.3,0.2,0.4c0,1.9,0,3.7,0,5.6C263.2,7.8,263.1,7.8,263,7.8z"/>
	
		<path fill-rule="evenodd" clip-rule="evenodd" stroke="#000000" stroke-width="1.2854" stroke-linecap="round" stroke-linejoin="round" stroke-miterlimit="10" d="
		M124.8,2.5c0.5,1.6,0.8,5,0.3,6.2c-0.2-2.3-0.4-4.2-0.6-6.1C124.6,2.5,124.7,2.5,124.8,2.5z"/>
	
		<path fill-rule="evenodd" clip-rule="evenodd" stroke="#000000" stroke-width="1.2854" stroke-linecap="round" stroke-linejoin="round" stroke-miterlimit="10" d="
		M136.9,8.5c0-2,0-3.9,0-6.1C137.8,4.1,137.8,7.3,136.9,8.5z"/>
	
		<path fill-rule="evenodd" clip-rule="evenodd" stroke="#000000" stroke-width="1.2854" stroke-linecap="round" stroke-linejoin="round" stroke-miterlimit="10" d="
		M131.9,58.7c-0.5-0.9-0.6-4-0.2-5.3C132.1,54.7,132.2,58.1,131.9,58.7z"/>
	
		<path fill-rule="evenodd" clip-rule="evenodd" stroke="#000000" stroke-width="1.2854" stroke-linecap="round" stroke-linejoin="round" stroke-miterlimit="10" d="
		M116.7,1.6c1,3.6,1.2,5.2,0.7,6.3c-0.4-2.2-0.7-4.2-1.1-6.3C116.5,1.6,116.6,1.6,116.7,1.6z"/>
	
		<path fill-rule="evenodd" clip-rule="evenodd" stroke="#000000" stroke-width="1.2854" stroke-linecap="round" stroke-linejoin="round" stroke-miterlimit="10" d="
		M230.1,59.3c-1-1-1.8-4.6-1.4-6.2C229.2,55.1,229.6,57,230.1,59.3z"/>
	
		<path fill-rule="evenodd" clip-rule="evenodd" stroke="#000000" stroke-width="1.2854" stroke-linecap="round" stroke-linejoin="round" stroke-miterlimit="10" d="
		M197.6,1.5c0.6,1.9,0.5,5.1,0,6.1C197.6,5.4,197.6,3.4,197.6,1.5z"/>
	
		<path fill-rule="evenodd" clip-rule="evenodd" stroke="#000000" stroke-width="1.2854" stroke-linecap="round" stroke-linejoin="round" stroke-miterlimit="10" d="
		M186.7,0.6c0.7,2.1,0.8,5,0,6.2C186.7,4.9,186.7,2.9,186.7,0.6z"/>
	
		<path fill-rule="evenodd" clip-rule="evenodd" stroke="#000000" stroke-width="1.2854" stroke-linecap="round" stroke-linejoin="round" stroke-miterlimit="10" d="
		M49.4,2.5c1.6,2.2,2.5,5.1,2.1,6.2C50.8,6.6,50.1,4.5,49.4,2.5z"/>
	
		<path fill-rule="evenodd" clip-rule="evenodd" stroke="#000000" stroke-width="1.2854" stroke-linecap="round" stroke-linejoin="round" stroke-miterlimit="10" d="
		M18.7,59.7c0-0.3-0.2-0.6-0.1-0.9c0.4-1.9-0.1-3.9,1-5.7c-0.2,2.2-0.4,4.4-0.6,6.6C18.9,59.7,18.8,59.7,18.7,59.7z"/>
	
		<path fill-rule="evenodd" clip-rule="evenodd" stroke="#000000" stroke-width="1.2854" stroke-linecap="round" stroke-linejoin="round" stroke-miterlimit="10" d="
		M75,53.6c0.1,2.1,0.3,4.2,0.4,6.4C74.7,59.1,74.4,55,75,53.6z"/>
	
		<path fill-rule="evenodd" clip-rule="evenodd" stroke="#000000" stroke-width="1.2854" stroke-linecap="round" stroke-linejoin="round" stroke-miterlimit="10" d="
		M1.7,31.6c1.9-0.2,3.8-0.3,5.7-0.5C6.5,32,4.4,32.3,1.7,31.6z"/>
	
		<path fill-rule="evenodd" clip-rule="evenodd" stroke="#000000" stroke-width="1.2854" stroke-linecap="round" stroke-linejoin="round" stroke-miterlimit="10" d="
		M57.6,8.8c-0.9-2.2-1.9-4.1-2.3-6.5C56.3,3.6,57.8,7.7,57.6,8.8z"/>
	
		<path fill-rule="evenodd" clip-rule="evenodd" stroke="#000000" stroke-width="1.2854" stroke-linecap="round" stroke-linejoin="round" stroke-miterlimit="10" d="
		M205.1,52.8c0,2,0,4,0,6c-0.6-2-0.5-4-0.5-6C204.7,52.8,204.9,52.8,205.1,52.8z"/>
	
		<path fill-rule="evenodd" clip-rule="evenodd" stroke="#000000" stroke-width="1.2854" stroke-linecap="round" stroke-linejoin="round" stroke-miterlimit="10" d="
		M129,8.2c-0.2-1.9-0.5-3.7-0.7-5.6c0-0.1,0.2-0.3,0.5-0.4c0.2,2,0.4,4,0.6,6C129.3,8.2,129.2,8.2,129,8.2z"/>
	
		<path fill-rule="evenodd" clip-rule="evenodd" stroke="#000000" stroke-width="1.2854" stroke-linecap="round" stroke-linejoin="round" stroke-miterlimit="10" d="
		M236,59.2c-0.7-0.7-1.4-3.8-1.3-5.6C235.2,54.2,235.9,57.3,236,59.2z"/>
	
		<path fill-rule="evenodd" clip-rule="evenodd" stroke="#000000" stroke-width="1.2854" stroke-linecap="round" stroke-linejoin="round" stroke-miterlimit="10" d="
		M235.3,6.9c-0.5-2-0.7-3.9-0.6-5.9c0.1,0,0.2,0,0.3,0c0.2,2,0.4,4,0.6,5.9C235.6,6.9,235.5,6.9,235.3,6.9z"/>
	
		<path fill-rule="evenodd" clip-rule="evenodd" stroke="#000000" stroke-width="1.2854" stroke-linecap="round" stroke-linejoin="round" stroke-miterlimit="10" d="
		M121.9,7.6c-0.6-1.9-0.6-4-0.9-6c0.9,0.8,0.6,1.9,0.8,2.9c0.3,1,0.3,2,0.5,3.1C122.1,7.5,122,7.5,121.9,7.6z"/>
	
		<path fill-rule="evenodd" clip-rule="evenodd" stroke="#000000" stroke-width="1.2854" stroke-linecap="round" stroke-linejoin="round" stroke-miterlimit="10" d="
		M240.8,59.6c-0.4-2-0.7-4.1-1.1-6.1c0.9,0.8,0.9,2,1,3c0.2,1,0.6,2,0.5,3.1C241.1,59.6,241,59.6,240.8,59.6z"/>
	
		<path fill-rule="evenodd" clip-rule="evenodd" stroke="#000000" stroke-width="1.2854" stroke-linecap="round" stroke-linejoin="round" stroke-miterlimit="10" d="
		M152.3,58.7c-0.3-2.1-0.6-4.2,0.1-6.4c0.1,2.1,0.2,4.3,0.3,6.4C152.5,58.7,152.4,58.7,152.3,58.7z"/>
	
		<path fill-rule="evenodd" clip-rule="evenodd" stroke="#000000" stroke-width="1.2854" stroke-linecap="round" stroke-linejoin="round" stroke-miterlimit="10" d="
		M1.9,21.6c1.8-0.4,4.9,0.2,5.8,0.9c-0.1,0.1-0.1,0.2-0.2,0.2c-0.5-0.1-0.9-0.1-1.4-0.2C4.7,22.1,3.3,21.8,1.9,21.6z"/>
	
		<path fill-rule="evenodd" clip-rule="evenodd" stroke="#000000" stroke-width="1.2854" stroke-linecap="round" stroke-linejoin="round" stroke-miterlimit="10" d="
		M192.2,7.2c-0.1-1.9-0.2-3.9-0.3-5.8c0.1,0,0.3,0,0.4,0c0.1,1.6,0.3,3.3,0.4,4.9c0,0.3-0.2,0.7-0.4,1.1
		C192.3,7.2,192.3,7.2,192.2,7.2z"/>
	
		<path fill-rule="evenodd" clip-rule="evenodd" stroke="#000000" stroke-width="1.2854" stroke-linecap="round" stroke-linejoin="round" stroke-miterlimit="10" d="
		M156.5,52c0.2,2,0.3,4.1,0.5,6.1C156.3,57,156,53.2,156.5,52z"/>
	
		<path fill-rule="evenodd" clip-rule="evenodd" stroke="#000000" stroke-width="1.2854" stroke-linecap="round" stroke-linejoin="round" stroke-miterlimit="10" d="
		M156.5,7.8c-0.1-2-0.3-4.1-0.4-6.1c0.8,1,0.5,2.1,0.7,3.2C156.9,5.8,157.3,6.8,156.5,7.8z"/>
	
		<path fill-rule="evenodd" clip-rule="evenodd" stroke="#000000" stroke-width="1.2854" stroke-linecap="round" stroke-linejoin="round" stroke-miterlimit="10" d="
		M162.2,7.4c-0.1-2.1-0.2-4.2-0.4-6.3C162.6,2.4,162.8,6.2,162.2,7.4z"/>
	
		<path fill-rule="evenodd" clip-rule="evenodd" stroke="#000000" stroke-width="1.2854" stroke-linecap="round" stroke-linejoin="round" stroke-miterlimit="10" d="
		M43.5,2.7c0.7,2,1.6,3.9,1.9,6c-0.1,0-0.2,0.1-0.3,0.1c-0.7-2-1.3-4-2-6C43.2,2.8,43.3,2.8,43.5,2.7z"/>
	
		<path fill-rule="evenodd" clip-rule="evenodd" stroke="#000000" stroke-width="1.2854" stroke-linecap="round" stroke-linejoin="round" stroke-miterlimit="10" d="
		M189.1,52.5c0.2,1.8,0.4,3.6,0.6,5.5c-0.1,0-0.2,0-0.4,0c-0.6-1.8-0.4-3.7-0.8-5.5C188.8,52.5,189,52.5,189.1,52.5z"/>
	
		<path fill-rule="evenodd" clip-rule="evenodd" stroke="#000000" stroke-width="1.2854" stroke-linecap="round" stroke-linejoin="round" stroke-miterlimit="10" d="
		M31.5,2.1c0.4,2,1.7,3.6,1.5,5.8C32.4,6,31.7,4.1,31,2.2C31.2,2.2,31.4,2.1,31.5,2.1z"/>
	
		<path fill-rule="evenodd" clip-rule="evenodd" stroke="#000000" stroke-width="1.2854" stroke-linecap="round" stroke-linejoin="round" stroke-miterlimit="10" d="
		M146.2,2.2c0.9,1.8,1.1,3.8,0.9,5.7c-0.1,0-0.2,0-0.3,0C146.6,6.1,146.4,4.1,146.2,2.2z"/>
	
		<path fill-rule="evenodd" clip-rule="evenodd" stroke="#000000" stroke-width="1.2854" stroke-linecap="round" stroke-linejoin="round" stroke-miterlimit="10" d="
		M161.6,51.8c0.2,2,0.3,4,0.5,6.2c-0.7-1.1-1.1-4.8-0.8-6.2C161.4,51.8,161.5,51.8,161.6,51.8z"/>
	
		<path fill-rule="evenodd" clip-rule="evenodd" stroke="#000000" stroke-width="1.2854" stroke-linecap="round" stroke-linejoin="round" stroke-miterlimit="10" d="
		M97.4,2.2c0.3,2.2,0.5,4.3,0.8,6.5c-0.1,0-0.3,0-0.4,0c-0.4-2.2-0.6-4.3-0.7-6.5C97.2,2.2,97.3,2.2,97.4,2.2z"/>
	
		<path fill-rule="evenodd" clip-rule="evenodd" stroke="#000000" stroke-width="1.2854" stroke-linecap="round" stroke-linejoin="round" stroke-miterlimit="10" d="
		M97.4,58.8c-0.5-1.1-0.8-5.2-0.6-6.3C97.3,53.2,97.5,55.8,97.4,58.8z"/>
	
		<path fill-rule="evenodd" clip-rule="evenodd" stroke="#000000" stroke-width="1.2854" stroke-linecap="round" stroke-linejoin="round" stroke-miterlimit="10" d="
		M271.7,7.5c0.3-2.5,1.5-4.5,2.7-5.1C273.5,4.1,272.6,5.8,271.7,7.5z"/>
	
		<path fill-rule="evenodd" clip-rule="evenodd" stroke="#000000" stroke-width="1.2854" stroke-linecap="round" stroke-linejoin="round" stroke-miterlimit="10" d="
		M85.6,8.3c-0.9-2-0.9-4.2-1.2-6.6C84.9,2.7,85.8,7.1,85.6,8.3z"/>
	
		<path fill-rule="evenodd" clip-rule="evenodd" stroke="#000000" stroke-width="1.2854" stroke-linecap="round" stroke-linejoin="round" stroke-miterlimit="10" d="
		M219.1,53.2c0.7,2,1.1,4,1.6,6.1c-0.2,0-0.3,0.1-0.5,0.1c-0.5-2-1-4.1-1.5-6.1C218.8,53.2,219,53.2,219.1,53.2z"/>
	
		<path fill-rule="evenodd" clip-rule="evenodd" stroke="#000000" stroke-width="1.2854" stroke-linecap="round" stroke-linejoin="round" stroke-miterlimit="10" d="
		M137.2,58.5c-0.4-1.1-0.2-4.8,0.4-6.2c0,1.2,0,2.2,0,3.1c0,0.9-0.4,1.8,0,2.7C137.6,58.1,137.4,58.3,137.2,58.5z"/>
	
		<path fill-rule="evenodd" clip-rule="evenodd" stroke="#000000" stroke-width="1.2854" stroke-linecap="round" stroke-linejoin="round" stroke-miterlimit="10" d="
		M223.9,7.4c-0.1-2.3-0.2-4.3-0.3-6.2C224.4,2,224.7,5.4,223.9,7.4z"/>
	
		<path fill-rule="evenodd" clip-rule="evenodd" stroke="#000000" stroke-width="1.2854" stroke-linecap="round" stroke-linejoin="round" stroke-miterlimit="10" d="
		M12.9,2.7c0.5,0.9,1,1.8,1.6,2.7C15,6.2,15.6,7,16.3,7.9C15.1,7.5,13,4.4,12.9,2.7z"/>
	
		<path fill-rule="evenodd" clip-rule="evenodd" stroke="#000000" stroke-width="1.2854" stroke-linecap="round" stroke-linejoin="round" stroke-miterlimit="10" d="
		M21.1,8.2c-0.9-1.9-1.7-3.6-2.4-5.3c1,0.6,1.3,1.6,1.7,2.5C20.8,6.2,21.6,7,21.1,8.2z"/>
	
		<path fill-rule="evenodd" clip-rule="evenodd" stroke="#000000" stroke-width="1.2854" stroke-linecap="round" stroke-linejoin="round" stroke-miterlimit="10" d="
		M203.7,1.3c0.2,2,0.8,3.9,0.1,5.9c-0.2-2-0.3-3.9-0.5-5.9C203.4,1.3,203.5,1.3,203.7,1.3z"/>
	
		<path fill-rule="evenodd" clip-rule="evenodd" stroke="#000000" stroke-width="1.2854" stroke-linecap="round" stroke-linejoin="round" stroke-miterlimit="10" d="
		M199.9,58.4c-0.4-1.9-0.7-3.9-0.7-5.9c0.1,0,0.3,0,0.4-0.1c0.2,2,0.5,3.9,0.7,5.9C200.1,58.4,200,58.4,199.9,58.4z"/>
	
		<path fill-rule="evenodd" clip-rule="evenodd" stroke="#000000" stroke-width="1.2854" stroke-linecap="round" stroke-linejoin="round" stroke-miterlimit="10" d="
		M258.1,1.1c0.3,1.9,0.5,3.9,0.3,5.8c-0.1,0-0.3,0-0.4,0c-0.1-1.9-0.2-3.9-0.3-5.8C257.8,1.1,258,1.1,258.1,1.1z"/>
	
		<path fill-rule="evenodd" clip-rule="evenodd" stroke="#000000" stroke-width="1.2854" stroke-linecap="round" stroke-linejoin="round" stroke-miterlimit="10" d="
		M4.2,10c0.3-0.1,0.5-0.2,0.6-0.1c1.6,1,3.1,2.1,4.7,3.2c0.1,0.1,0.1,0.2,0.2,0.6C7.6,12.7,6.1,11.2,4.2,10z"/>
	
		<path fill-rule="evenodd" clip-rule="evenodd" stroke="#000000" stroke-width="1.2854" stroke-linecap="round" stroke-linejoin="round" stroke-miterlimit="10" d="
		M267.6,1.3c0.5,1,0.2,4.4-0.5,5.8C267.3,4.9,267.3,3.1,267.6,1.3z"/>
	
		<path fill-rule="evenodd" clip-rule="evenodd" stroke="#000000" stroke-width="1.2854" stroke-linecap="round" stroke-linejoin="round" stroke-miterlimit="10" d="
		M213.6,1.5c0.6,1.1,0.7,4.6,0.3,5.9c-0.1-1.2-0.2-2.1-0.2-3C213.5,3.4,213.6,2.4,213.6,1.5z"/>
	
		<path fill-rule="evenodd" clip-rule="evenodd" stroke="#000000" stroke-width="1.2854" stroke-linecap="round" stroke-linejoin="round" stroke-miterlimit="10" d="
		M2.5,15.5c2,0.4,3.7,1.4,5.4,2.4c-1.1,0.3-1.8-0.6-2.7-0.9c-0.9-0.3-1.9-0.8-2.8-1.1C2.4,15.7,2.5,15.6,2.5,15.5z"/>
	
		<path fill-rule="evenodd" clip-rule="evenodd" stroke="#000000" stroke-width="1.2854" stroke-linecap="round" stroke-linejoin="round" stroke-miterlimit="10" d="
		M176.3,2.2c0,1.9,0.5,3.8,0.4,5.7c-0.1,0-0.3,0-0.4,0c-0.2-1.9-0.3-3.8-0.5-5.8C176,2.2,176.1,2.2,176.3,2.2z"/>
	
		<path fill-rule="evenodd" clip-rule="evenodd" stroke="#000000" stroke-width="1.2854" stroke-linecap="round" stroke-linejoin="round" stroke-miterlimit="10" d="
		M166.1,1.3c0.1,1.8,0.9,3.5,0.7,5.4c-0.1,0-0.2,0-0.3,0c-0.3-1.8-0.5-3.6-0.8-5.4C165.9,1.3,166,1.3,166.1,1.3z"/>
	
		<path fill-rule="evenodd" clip-rule="evenodd" stroke="#000000" stroke-width="1.2854" stroke-linecap="round" stroke-linejoin="round" stroke-miterlimit="10" d="
		M122,60c-0.6-2.5-0.5-5-0.4-7.5c0.1,0,0.2,0,0.4,0C122,55,122,57.5,122,60z"/>
	
		<path fill-rule="evenodd" clip-rule="evenodd" stroke="#000000" stroke-width="1.2854" stroke-linecap="round" stroke-linejoin="round" stroke-miterlimit="10" d="
		M69.2,52.7c0.2,2.3,0.3,4.5,0.5,7C68.9,58.4,68.6,54,69.2,52.7z"/>
	
		<path fill-rule="evenodd" clip-rule="evenodd" stroke="#000000" stroke-width="1.2854" stroke-linecap="round" stroke-linejoin="round" stroke-miterlimit="10" d="
		M74.6,2.1c0.4,2,1.2,3.9,0.5,6c-0.3-2-0.6-4-0.9-6C74.4,2.1,74.5,2.1,74.6,2.1z"/>
	
		<path fill-rule="evenodd" clip-rule="evenodd" stroke="#000000" stroke-width="1.2854" stroke-linecap="round" stroke-linejoin="round" stroke-miterlimit="10" d="
		M250.3,53.4c0.5,0.9,1.4,4.9,1.3,5.9C251,58.5,250.2,55,250.3,53.4z"/>
	
		<path fill-rule="evenodd" clip-rule="evenodd" stroke="#000000" stroke-width="1.2854" stroke-linecap="round" stroke-linejoin="round" stroke-miterlimit="10" d="
		M25.3,2C26,3.4,27,6.8,26.9,7.5C26.1,6.5,25.2,3.3,25.3,2z"/>
	
		<path fill-rule="evenodd" clip-rule="evenodd" stroke="#000000" stroke-width="1.2854" stroke-linecap="round" stroke-linejoin="round" stroke-miterlimit="10" d="
		M183.8,57.8c-0.8-1.8-0.6-3.7-0.6-5.6c0.1,0,0.2,0,0.4,0c0.2,1.8,0.4,3.7,0.6,5.5C184,57.7,183.9,57.8,183.8,57.8z"/>
	
		<path fill-rule="evenodd" clip-rule="evenodd" stroke="#000000" stroke-width="1.2854" stroke-linecap="round" stroke-linejoin="round" stroke-miterlimit="10" d="
		M275,51.1c1.2,1.6,2.3,3.1,3.6,4.8c-0.2,0-0.5,0.1-0.6,0C276.8,54.4,275.4,53.1,275,51.1z"/>
	
		<path fill-rule="evenodd" clip-rule="evenodd" stroke="#000000" stroke-width="1.2854" stroke-linecap="round" stroke-linejoin="round" stroke-miterlimit="10" d="
		M280.3,6.5c-1,1.7-3.5,2.8-5.1,2.2c1-0.3,1.9-0.4,2.7-0.8C278.6,7.6,279.3,7.1,280.3,6.5z"/>
	
		<path fill-rule="evenodd" clip-rule="evenodd" stroke="#000000" stroke-width="1.2854" stroke-linecap="round" stroke-linejoin="round" stroke-miterlimit="10" d="
		M266.1,53.5c0.6,1.9,1.7,3.5,2.2,5.4C267.2,57.8,265.9,54.5,266.1,53.5z"/>
	
		<path fill-rule="evenodd" clip-rule="evenodd" stroke="#000000" stroke-width="1.2854" stroke-linecap="round" stroke-linejoin="round" stroke-miterlimit="10" d="
		M171.2,2.2c0.1,1.8,0.5,3.6,0.3,5.4c-0.1,0-0.2,0-0.4,0c-0.1-1.8-0.2-3.6-0.3-5.5C170.9,2.2,171,2.2,171.2,2.2z"/>
	
		<path fill-rule="evenodd" clip-rule="evenodd" stroke="#000000" stroke-width="1.2854" stroke-linecap="round" stroke-linejoin="round" stroke-miterlimit="10" d="
		M89.5,2.4c0.8,1.9,1,3.8,1,5.8c-0.1,0-0.2,0-0.3,0.1c-0.3-1.9-0.7-3.9-1-5.8C89.3,2.4,89.4,2.4,89.5,2.4z"/>
	
		<path fill-rule="evenodd" clip-rule="evenodd" stroke="#000000" stroke-width="1.2854" stroke-linecap="round" stroke-linejoin="round" stroke-miterlimit="10" d="
		M248.1,2.2c1,1.8,1.1,4.3,0.5,5.3C248.4,5.8,248.3,4,248.1,2.2z"/>
	
		<path fill-rule="evenodd" clip-rule="evenodd" stroke="#000000" stroke-width="1.2854" stroke-linecap="round" stroke-linejoin="round" stroke-miterlimit="10" d="
		M253.5,1.9c0.1,1.7,0.3,3.5,0.5,5.4c-0.7-1-1-3.4-0.8-5.4C253.3,1.9,253.4,1.9,253.5,1.9z"/>
	
		<path fill-rule="evenodd" clip-rule="evenodd" stroke="#000000" stroke-width="1.2854" stroke-linecap="round" stroke-linejoin="round" stroke-miterlimit="10" d="
		M152,7.4c-0.2-2-0.3-3.9-0.5-5.9C152.2,2.4,152.6,5.8,152,7.4z"/>
	
		<path fill-rule="evenodd" clip-rule="evenodd" stroke="#000000" stroke-width="1.2854" stroke-linecap="round" stroke-linejoin="round" stroke-miterlimit="10" d="
		M167.3,57.8c-0.8-1.6-0.7-3.4-0.6-5.1C167.5,54.3,166.9,56.1,167.3,57.8z"/>
	
		<path fill-rule="evenodd" clip-rule="evenodd" stroke="#000000" stroke-width="1.2854" stroke-linecap="round" stroke-linejoin="round" stroke-miterlimit="10" d="
		M113.6,7.2c-0.2-1.8-0.3-3.7-0.5-5.5C113.9,2.5,114.3,5.6,113.6,7.2z"/>
	
		<path fill-rule="evenodd" clip-rule="evenodd" stroke="#000000" stroke-width="1.2854" stroke-linecap="round" stroke-linejoin="round" stroke-miterlimit="10" d="
		M25.4,61.1c0-2.6,0-5.3,0-7.9c0.6,2.6,0.1,5.3,0.4,7.9C25.7,61.1,25.5,61.1,25.4,61.1z"/>
	
		<path fill-rule="evenodd" clip-rule="evenodd" stroke="#000000" stroke-width="1.2854" stroke-linecap="round" stroke-linejoin="round" stroke-miterlimit="10" d="
		M246,53.5c0.4,1.7,0.7,3.4,1.1,5.1c-0.1,0-0.2,0.1-0.3,0.1c-0.6-1.2-0.7-2.6-1.1-4c-0.1-0.4,0-0.8,0-1.2
		C245.8,53.5,245.9,53.5,246,53.5z"/>
	
		<path fill-rule="evenodd" clip-rule="evenodd" stroke="#000000" stroke-width="1.2854" stroke-linecap="round" stroke-linejoin="round" stroke-miterlimit="10" d="
		M93.3,3.1c0.3,1.6,0.8,3.2,0.1,4.8c-0.1-1.6-0.3-3.2-0.5-4.9C93,3.1,93.2,3.1,93.3,3.1z"/>
	
		<path fill-rule="evenodd" clip-rule="evenodd" stroke="#000000" stroke-width="1.2854" stroke-linecap="round" stroke-linejoin="round" stroke-miterlimit="10" d="
		M133.3,8.9c-0.2-2.2-0.4-4.2-0.7-6.4C133.5,4.2,133.9,7.3,133.3,8.9z"/>
	
		<path fill-rule="evenodd" clip-rule="evenodd" stroke="#000000" stroke-width="1.2854" stroke-linecap="round" stroke-linejoin="round" stroke-miterlimit="10" d="
		M209.1,1.3c0.9,1.4,1,4,0,5.5C209.1,4.8,209.1,3.1,209.1,1.3z"/>
	
		<path fill-rule="evenodd" clip-rule="evenodd" stroke="#000000" stroke-width="1.2854" stroke-linecap="round" stroke-linejoin="round" stroke-miterlimit="10" d="
		M256.1,59.1c-0.5-1.9-1-3.8-1.4-5.7C255.5,54,256.3,57.4,256.1,59.1z"/>
	
		<path fill-rule="evenodd" clip-rule="evenodd" stroke="#000000" stroke-width="1.2854" stroke-linecap="round" stroke-linejoin="round" stroke-miterlimit="10" d="
		M223.3,53.2c0.3,1.8,0.6,3.7,1,5.9c-0.6-0.9-1.4-4.9-1.3-5.9C223.1,53.2,223.2,53.2,223.3,53.2z"/>
	
		<path fill-rule="evenodd" clip-rule="evenodd" stroke="#000000" stroke-width="1.2854" stroke-linecap="round" stroke-linejoin="round" stroke-miterlimit="10" d="
		M219.2,7.2c-0.2-1.8-0.5-3.6-0.7-5.4c0.1-0.1,0.2-0.2,0.3-0.3c0.1,0.2,0.2,0.5,0.2,0.7C219.2,3.9,219.9,5.5,219.2,7.2z"/>
	
		<path fill-rule="evenodd" clip-rule="evenodd" stroke="#000000" stroke-width="1.2854" stroke-linecap="round" stroke-linejoin="round" stroke-miterlimit="10" d="
		M215.7,58.3c-0.9-0.8-1.4-3.6-0.8-5.7C215.2,54.6,215.5,56.5,215.7,58.3z"/>
	
		<path fill-rule="evenodd" clip-rule="evenodd" stroke="#000000" stroke-width="1.2854" stroke-linecap="round" stroke-linejoin="round" stroke-miterlimit="10" d="
		M282.2,12.9c-1.9,1.4-4.2,1.9-5.2,1.4C278.6,13.9,280.2,13.5,282.2,12.9z"/>
	
		<path fill-rule="evenodd" clip-rule="evenodd" stroke="#000000" stroke-width="1.2854" stroke-linecap="round" stroke-linejoin="round" stroke-miterlimit="10" d="
		M172.2,52.5c0.3,1.8,0.6,3.5,0.8,5.3c-0.6-0.4-0.6-0.4-0.9-2.4c-0.1-0.9-0.2-1.9-0.4-2.8C171.9,52.5,172,52.5,172.2,52.5z"/>
	
		<path fill-rule="evenodd" clip-rule="evenodd" stroke="#000000" stroke-width="1.2854" stroke-linecap="round" stroke-linejoin="round" stroke-miterlimit="10" d="
		M194.9,58.4c-0.5-1.8-0.8-3.7-0.7-5.6C194.8,54.7,194.7,56.6,194.9,58.4z"/>
	
		<path fill-rule="evenodd" clip-rule="evenodd" stroke="#000000" stroke-width="1.2854" stroke-linecap="round" stroke-linejoin="round" stroke-miterlimit="10" d="
		M281.8,49c-1.8,0-3.4-1-3.9-2.4c0.6,0.4,1.1,0.9,1.7,1.2C280.2,48.2,280.9,48.5,281.8,49z"/>
	
		<path fill-rule="evenodd" clip-rule="evenodd" stroke="#000000" stroke-width="1.2854" stroke-linecap="round" stroke-linejoin="round" stroke-miterlimit="10" d="
		M281,42.6c-1.6,0.6-2.9-0.5-4.3-0.2C277.5,41.8,278.9,41.9,281,42.6z"/>
	
		<path fill-rule="evenodd" clip-rule="evenodd" stroke="#000000" stroke-width="1.2854" stroke-linecap="round" stroke-linejoin="round" stroke-miterlimit="10" d="
		M239.8,1.9c0.1,1.7,0.3,3.5,0.4,5.2c-0.1,0-0.2,0-0.3,0c-0.5-1.7-0.4-3.5-0.5-5.2C239.5,1.9,239.6,1.9,239.8,1.9z"/>
	
		<path fill-rule="evenodd" clip-rule="evenodd" stroke="#000000" stroke-width="1.2854" stroke-linecap="round" stroke-linejoin="round" stroke-miterlimit="10" d="
		M262.3,58.8c-0.8-1.5-1.5-3-1.8-4.9C261.3,54.7,262.4,57.7,262.3,58.8z"/>
	
		<path fill-rule="evenodd" clip-rule="evenodd" stroke="#000000" stroke-width="1.2854" stroke-linecap="round" stroke-linejoin="round" stroke-miterlimit="10" d="
		M271,52.9c0.9,1.6,1.8,3.2,2.8,4.9C272.2,56.6,270.9,54.1,271,52.9z"/>
	
		<path fill-rule="evenodd" clip-rule="evenodd" stroke="#000000" stroke-width="1.2854" stroke-linecap="round" stroke-linejoin="round" stroke-miterlimit="10" d="
		M229.3,7.4c-0.2-2.1-0.3-3.8-0.5-5.7C229.6,2.7,229.9,5.7,229.3,7.4z"/>
	
		<path fill-rule="evenodd" clip-rule="evenodd" stroke="#000000" stroke-width="1.2854" stroke-linecap="round" stroke-linejoin="round" stroke-miterlimit="10" d="
		M143.3,59c-0.6-1.3-0.8-5.2-0.2-6.4C143.2,54.6,143.3,56.6,143.3,59z"/>
	
		<path fill-rule="evenodd" clip-rule="evenodd" stroke="#000000" stroke-width="1.2854" stroke-linecap="round" stroke-linejoin="round" stroke-miterlimit="10" d="
		M181.3,2c0.6,1.2,0.7,4.6,0,6C181.3,5.8,181.3,3.9,181.3,2z"/>
	
		<path fill-rule="evenodd" clip-rule="evenodd" stroke="#000000" stroke-width="1.2854" stroke-linecap="round" stroke-linejoin="round" stroke-miterlimit="10" d="
		M281.5,32.4c-1,0.9-2.7,1.1-4,0.5C279,32.7,280.2,32.6,281.5,32.4z"/>
	
		<path fill-rule="evenodd" clip-rule="evenodd" stroke="#000000" stroke-width="1.2854" stroke-linecap="round" stroke-linejoin="round" stroke-miterlimit="10" d="
		M282.1,18.6c-1.2,0.8-2.4,1.2-3.8,0.6C279.6,19,280.9,18.8,282.1,18.6z"/>
	
		<path fill-rule="evenodd" clip-rule="evenodd" stroke="#000000" stroke-width="1.2854" stroke-linecap="round" stroke-linejoin="round" stroke-miterlimit="10" d="
		M210.4,52.9c0,2.2,0,4.3,0,6.4C209.9,58.4,209.8,54.6,210.4,52.9z"/>
	
		<path fill-rule="evenodd" clip-rule="evenodd" stroke="#000000" stroke-width="1.2854" stroke-linecap="round" stroke-linejoin="round" stroke-miterlimit="10" d="
		M277.2,37.4c1.5-0.1,2.7-0.2,4-0.2C280.4,37.9,278.8,38,277.2,37.4z"/>
	
		<path fill-rule="evenodd" clip-rule="evenodd" stroke="#000000" stroke-width="1.2854" stroke-linecap="round" stroke-linejoin="round" stroke-miterlimit="10" d="
		M282.1,23.6c-1.1,0.9-3.2,1.1-4.2,0.5C279.2,23.9,280.6,23.8,282.1,23.6z"/>
	
		<path fill-rule="evenodd" clip-rule="evenodd" stroke="#000000" stroke-width="1.2854" stroke-linecap="round" stroke-linejoin="round" stroke-miterlimit="10" d="
		M277.6,28.6c1.3-0.2,2.6-0.3,3.9-0.5c-1.2,0.8-2.5,0.9-3.9,0.9C277.6,28.8,277.6,28.7,277.6,28.6z"/>
	
		<path fill-rule="evenodd" clip-rule="evenodd" stroke="#000000" stroke-width="0.6427" stroke-linecap="round" stroke-linejoin="round" stroke-miterlimit="10" d="
		M54,15.9c0.7,0,1.1,0,1.4,0c1.3,0,1.3,0.1,1.7,1.3c1.6,5.9,3.1,11.9,4.7,17.8c0,0.1,0.1,0.2,0.3,0.5c0.4-1.4,0.9-2.6,1.2-3.8
		c1-3.5,2-7,3-10.5c0.5-1.7,1.1-3.3,1.7-5c0.3-0.8,0.8-1,1.6-0.9c1,0.1,1.4,0.4,1.4,1.3c0.1,1.9,0.1,3.8,0.2,5.7
		c0.3,7.1,0.6,14.2,1,21.2c0,0.4,0.1,0.9,0.2,1.6c-0.8,0-1.5,0.1-2.2,0c-0.6,0-0.8-0.6-0.8-1.1c-0.1-0.9-0.1-1.8-0.2-2.8
		c-0.1-2.6-0.1-5.1-0.2-7.7c-0.1-2.3-0.3-4.6-0.6-6.9c-1.1,1.8-1.5,3.9-2.1,5.9c-0.7,2.1-1.3,4.2-1.9,6.3c-0.5,2.1-0.9,4.2-1.4,6.5
		c-0.7,0.1-1.3,0.1-2.2,0.2c-0.8-6.3-3.1-12.1-4.9-18.1c-0.8,6-0.9,12-1.1,18.2c-0.9,0-1.6,0-2.5,0c-0.4-1.7-0.1-3.4-0.1-5
		c0.4-7.1,0.8-14.1,1.3-21.2C53.7,18.3,53.9,17.2,54,15.9z"/>
	
		<path fill-rule="evenodd" clip-rule="evenodd" stroke="#000000" stroke-width="0.6427" stroke-linecap="round" stroke-linejoin="round" stroke-miterlimit="10" d="
		M234.4,34c0.2-2.2,0.3-4,0.5-5.9c0.2-2.9,0.4-5.8,0.5-8.7c0-0.9-0.1-1.7-0.2-2.6c-0.1-0.7,0.2-1.2,1-1.3c0.8-0.1,1.7-0.5,2.5,0.1
		c-0.6,9.3-1.2,18.6-1.9,28.1c-0.5,0-1.1,0.1-1.7,0.1c-0.7-0.1-1.1-0.4-1.2-1.2c-0.5-3-1.5-5.7-2.6-8.5c-1.2-2.8-2-5.8-3-8.7
		c-0.1-0.2-0.2-0.4-0.4-0.7c-0.7,3.2-0.6,6.3-0.8,9.5c-0.2,3.2-0.3,6.4-0.4,9.8c-0.9,0-1.7,0-2.6,0c-0.1-0.2-0.2-0.3-0.2-0.5
		c0.3-9.2,0.6-18.3,1-27.4c1.9-0.9,3-0.5,3.6,1.2c1.8,5.2,3.6,10.4,5.4,15.5C233.9,33.1,234.1,33.4,234.4,34z"/>
	
		<path fill-rule="evenodd" clip-rule="evenodd" stroke="#000000" stroke-width="0.6427" stroke-linecap="round" stroke-linejoin="round" stroke-miterlimit="10" d="
		M20.9,28.5c2.9,0,5.6,0,8.5,0c0.1-0.8,0.2-1.6,0.2-2.4c0.2-3.1,0.5-6.1,0.7-9.2c0-0.7,0.5-1,1-1.1c1.6-0.3,2.3,0.5,2.2,2.2
		c-0.3,3.8-0.6,7.6-0.8,11.4c-0.3,4.8-0.4,9.6-0.6,14.5c-0.1,1.3-0.4,1.6-1.8,1.4c-0.3,0-0.6-0.1-1.1-0.2c0-1.4,0-2.8-0.1-4.2
		c0-1.5-0.1-3-0.1-4.5c0-1.4,0.1-2.9,0.2-4.5c-2.9-0.2-5.7-0.3-8.5-0.1c-0.9,4.4-0.2,8.8-0.4,13.1c-1.1,0.7-2.2,0.3-3.1,0
		c-0.3-0.1-0.5-0.9-0.6-1.5c-0.1-1.4-0.1-2.8,0-4.2c0.3-4.9,0.7-9.8,1.1-14.7c0.2-2.2,0.3-4.4,0.4-6.6c0.1-1.6,1.1-2.3,2.6-1.7
		c0.3,0.1,0.6,0.6,0.7,0.9c0.1,0.4,0,0.8-0.1,1.2C20.9,21.6,21,24.9,20.9,28.5z"/>
	
		<path fill-rule="evenodd" clip-rule="evenodd" stroke="#000000" stroke-width="0.6427" stroke-linecap="round" stroke-linejoin="round" stroke-miterlimit="10" d="
		M89.5,42.2c0.4-1.2,1.3-1.8,2.4-2.1c1.4,1.3,3.3,1.8,5.2,2c0.6,0.1,1.4,0,2-0.2c3.5-1.1,5.5-3.6,5-7.5c-0.2-2-2.8-3.9-4.4-4.2
		c-2.1-0.3-4.2-0.5-6.2,0.4c-0.1,0.1-0.3,0.1-0.4,0.1c-1.6,0.4-2-0.1-1.8-1.7c0.5-4.3,0.9-8.6,1.3-12.8c0-0.2,0.1-0.4,0.2-0.8
		c5.4,0,10.7-0.1,16.2,0.2c-0.1,1.2-0.1,2.2-0.2,3.2c-4.6,0-9,0-13.7,0c-0.3,2.8-0.7,5.6-1,8.3c1.2,0,2.2,0,3.2,0
		c2.7-0.1,5.2,0.7,7.5,1.9c1.8,0.9,2.9,2.6,3.2,4.7c0.5,4-0.6,7.4-4.1,9.8c-1.8,1.2-3.9,1.6-6,1.6c-2.1,0.1-4.2-0.3-6.2-1
		C90.7,43.8,90,43.3,89.5,42.2z"/>
	
		<path fill-rule="evenodd" clip-rule="evenodd" stroke="#000000" stroke-width="0.6427" stroke-linecap="round" stroke-linejoin="round" stroke-miterlimit="10" d="
		M149,23.4c-0.1,0.2-0.2,0.4-0.2,0.6c-0.2,2.3-0.3,4.5-0.4,6.8c-0.1,3.6-0.2,7.2-0.3,10.8c0,0.8,0,1.5,0.1,2.3c0,0.7-0.3,1-0.9,0.9
		c-0.3,0-0.5,0-0.8,0c-1.3,0-1.4-0.2-1.4-1.4c0.3-6.2,0.6-12.4,0.9-18.6c0.1-2.2,0.2-4.3,0.2-6.5c0-1.9,0.2-2.1,2.1-2.2
		c0.2,0,0.4,0,0.7,0c2.2,5.6,4.3,11.2,6.5,16.7c0.1,0,0.2,0,0.3,0c0.5-2.8,0.3-5.7,0.5-8.6c0.2-2.9,0.3-5.8,0.4-8.8
		c1.7-0.6,2.6-0.1,2.5,1.6c-0.1,3-0.3,6.1-0.5,9.1c-0.1,1.3-0.2,2.6-0.2,3.8c0,3.9,0,7.8,0,11.7c0,0.6,0.1,1.2,0.2,1.8
		c0.1,0.7-0.2,1.2-0.9,1.3c-0.8,0.1-1.3-0.2-1.5-1c-0.3-1.3-0.6-2.7-1-4c-0.4-1.3-0.9-2.6-1.3-3.9c-0.8-2.3-1.7-4.5-2.6-6.8
		c-0.7-1.9-1.4-3.7-2.2-5.6C149.2,23.4,149.1,23.4,149,23.4z"/>
	
		<path fill-rule="evenodd" clip-rule="evenodd" stroke="#000000" stroke-width="0.6427" stroke-linecap="round" stroke-linejoin="round" stroke-miterlimit="10" d="
		M200.7,31.5c1.6,4.2,3.7,8.3,5.3,12.8c-1.2,0-2.2,0.1-3.1,0c-0.3,0-0.6-0.6-0.8-1c-0.9-2.4-1.8-4.8-2.7-7.2c-0.5-1.4-1.2-2.7-1.8-4
		c-1.1,0-2.1,0-3.4,0c0,4,0,7.9,0,11.8c-2.9,0.9-3.2,0.5-3-2.1c0.3-3.5,0.4-7.1,0.5-10.6c0.1-3.2,0.3-6.5,0.4-9.7
		c0.1-1.8,0-3.6,0-5.4c0.3-0.1,0.6-0.3,0.8-0.3c2.2,0,4.3,0,6.5,0.1c1.5,0,2.8,0.7,4,1.5c1,0.6,1.8,1.5,2.2,2.7
		c1.4,3.6,0.6,6.8-1.9,9.6C202.9,30.3,201.8,30.7,200.7,31.5z M194.4,25.5C194.4,25.5,194.4,25.5,194.4,25.5c0.1,0.8,0,1.6,0.1,2.5
		c0.1,1.1,0.2,1.3,1.3,1.2c1-0.1,2-0.3,3-0.5c2.5-0.5,3.9-2.2,4.5-4.5c0.4-1.5,0.2-3.1-1-4.1c-1.8-1.6-3.9-2.2-6.3-1.7
		c-0.8,0.2-1.2,0.6-1.3,1.5C194.6,21.7,194.5,23.6,194.4,25.5z"/>
	
		<path fill-rule="evenodd" clip-rule="evenodd" stroke="#000000" stroke-width="0.6427" stroke-linecap="round" stroke-linejoin="round" stroke-miterlimit="10" d="
		M257.7,15.8c3.8,0,7.5,0,11.2,0c0,1,0.6,2,0,3c-2.6,0.1-5.2,0.3-7.9,0.4c-0.6,2.3-0.5,4.7-0.8,7.1c2.8,0.5,5.6,0.2,8.5,0.2
		c0,0.9,0.1,1.7,0.1,2.6c0,0.6-0.4,0.8-0.9,0.8c-1.8,0-3.6,0-5.4,0.1c-0.9,0-1.7,0.1-2.7,0.2c-0.3,3.4-0.7,6.7-1,10.1
		c3.6,0.3,6.9,0.1,10.5-0.3c0,1.6,0,3,0,4.6c-2.2,0.1-4.6,0.2-6.9,0.3c-1.9,0.1-3.9,0.2-5.8,0.2c-0.5,0-1-0.1-1.6-0.2
		C256.4,35.2,257.7,25.6,257.7,15.8z"/>
	
		<path fill-rule="evenodd" clip-rule="evenodd" stroke="#000000" stroke-width="0.6427" stroke-linecap="round" stroke-linejoin="round" stroke-miterlimit="10" d="
		M129.1,32.1c0.3-2.4,0.5-4.8,0.8-7.2c0.4-3.3,2-6.1,4.2-8.6c1.4-1.7,3.8-1.7,5.7-0.6c1.9,1.1,2.6,2.8,3,4.6
		c1.4,6,0.9,11.9-0.6,17.8c-0.4,1.4-1,2.7-1.9,3.8c-1.7,2.1-4.2,3-6.7,2.2c-1.4-0.5-2.5-1.4-3.1-3C129.3,38.3,129.2,35.3,129.1,32.1
		z M132.2,32.6c0,1-0.1,2,0,2.9c0.2,1.5,0.6,2.9,1.1,4.3c0.4,1.2,1.2,1.5,2.4,1.4c1.1-0.1,2.1-0.4,2.6-1.4c0.7-1.3,1.5-2.5,1.8-3.9
		c0.9-4.3,1.1-8.6,0.6-13c-0.1-1-0.4-1.9-0.8-2.8c-0.4-1.1-1.4-1.6-2.6-1.5c-1.7,0.2-2.7,1.2-3.3,2.7
		C132.8,24.9,131.9,28.7,132.2,32.6z"/>
	
		<path fill-rule="evenodd" clip-rule="evenodd" stroke="#000000" stroke-width="0.6427" stroke-linecap="round" stroke-linejoin="round" stroke-miterlimit="10" d="
		M188.3,30.4c-3.5,0-6.7,0-10.1,0c0,3.5,0,7,0,10.7c2.4,0,4.8,0,7.2,0c0.9,0,1.9,0,2.8,0.1c1,0.1,1.4,0.8,1.3,1.9
		c-0.1,1-0.4,1.3-1.5,1.3c-1.2,0-2.4,0-3.5,0c-2.5-0.1-4.9-0.2-7.4-0.3c-1.7-0.1-1.8-0.2-1.7-1.9c0.1-4.5,0.1-8.9,0.4-13.4
		c0.2-3.8,0.1-7.5,0-11.2c0-0.3-0.1-0.5,0-0.8c0.1-0.7,0.4-1.2,1.2-1.1c1,0.1,1.9,0.2,2.9,0.2c2.1,0,4.1,0,6.2,0.1
		c1.3,0,2.5,0.1,4,0.2c-0.2,1.1-0.4,2-0.7,3c-3.6-0.1-7-0.2-10.6-0.4c-0.1,2.7-0.2,5.2-0.3,8c0.6,0.1,1.1,0.2,1.7,0.3
		c2.4,0.1,4.7,0.2,7.1,0.3c1.3,0,1.5,0.2,1.5,1.5C188.5,29.4,188.4,29.9,188.3,30.4z"/>
	
		<path fill-rule="evenodd" clip-rule="evenodd" stroke="#000000" stroke-width="0.6427" stroke-linecap="round" stroke-linejoin="round" stroke-miterlimit="10" d="
		M255.3,21.9c-1.1-0.1-2.1-0.1-3.1-0.2c-0.1-0.3-0.3-0.6-0.4-0.8c-0.6-1.1-1.9-1.7-3-1.2c-1.3,0.6-2.6,1.3-3.4,2.8
		c-2.5,5-3,10.2-1.3,15.5c0.2,0.5,0.5,1,0.8,1.5c0.6,1,1.6,1.3,2.7,1.1c1.1-0.2,2-0.6,2.2-1.9c0-0.2,0.1-0.4,0.2-0.6
		c0.4-2.2,0.3-2.2,2.8-2.1c0.2,0,0.4,0.1,0.7,0.1c0.4,1.4-0.1,2.7-0.3,4.1c-0.4,3.1-4.3,4.5-6.6,4.2c-2.7-0.4-4.3-2.1-5.4-4.5
		c-1.3-3-1.7-6.1-1.2-9.3c0.3-2.2,0.6-4.4,1-6.5c0.4-2.1,1.4-4.1,2.9-5.7c1.5-1.6,3.2-2.5,5.4-2.5c1.5,0,2.9-0.2,4.3,0.8
		C255.6,18.2,256,19.3,255.3,21.9z"/>
	
		<path fill-rule="evenodd" clip-rule="evenodd" stroke="#000000" stroke-width="0.6427" stroke-linecap="round" stroke-linejoin="round" stroke-miterlimit="10" d="
		M128.2,17c-0.2,1.1-0.9,2-1.6,2.7c-0.8-0.3-1.6-0.5-2.3-0.8c-1-0.3-1.8,0-2.6,0.6c-1.4,1.1-2.3,2.6-3,4.2
		c-1.8,4.5-2.1,9.2-0.8,13.9c0.2,0.6,0.5,1.2,0.8,1.8c0.8,1.5,2.1,2,3.7,1.9c1.2-0.1,2-0.6,2.7-1.5c0.7-0.9,1-0.9,1.9-0.3
		c1.4,1,1.4,1.3,0.5,2.7c-2.2,3.5-6.5,3.3-9.1,1.5c-3.3-2.2-4.6-5.4-5.1-9.1c-0.6-5.2,0.8-9.9,3.2-14.3c0.9-1.6,2.2-3,3.6-4.2
		c2-1.7,4.7-1.6,7-0.2C127.5,16.3,127.8,16.6,128.2,17z"/>
	
		<path fill-rule="evenodd" clip-rule="evenodd" stroke="#000000" stroke-width="0.6427" stroke-linecap="round" stroke-linejoin="round" stroke-miterlimit="10" d="
		M221.2,44.2c-4.5-0.1-8.7-0.2-13-0.3c-0.5-1.7-0.1-3.1-0.1-4.6c0-0.9,0.1-1.7,0.2-2.6c0.2-5.3,0.5-10.7,0.7-16c0.1-1.7,0-3.4,0-5
		c1.4-0.6,9.4-0.6,12.9,0.1c0,0.7-0.1,1.4-0.1,2.2c-0.6,0-1.1,0.1-1.6,0.1c-2.3-0.1-4.6-0.2-6.9-0.3c-0.4,0-0.9,0-1.5,0
		c-0.2,2.8-0.5,5.5-0.7,8.4c3.5,0,6.8,0,10.3,0c0.1,1.1,0.1,2.1,0.2,3.2c-1.8,0.4-3.6-0.2-5.3-0.2c-1.7,0.1-3.5,0-5.4,0
		c-0.3,3.9-0.6,7.6-0.4,11.6c2.5,0.1,4.9,0.2,7.3,0.2c0.8,0,1.5,0.1,2.3,0.1c0.8,0,1.1,0.4,1.1,1.1
		C221.2,42.9,221.2,43.4,221.2,44.2z"/>
	
		<path fill-rule="evenodd" clip-rule="evenodd" stroke="#000000" stroke-width="0.6427" stroke-linecap="round" stroke-linejoin="round" stroke-miterlimit="10" d="
		M78.2,41.4c3,0.5,6,0.1,9,0.3c0,1.2,0,2.2,0,3.3c-2,0-3.8,0-5.6,0c-1.8,0-3.7,0-5.5-0.1c-1.4,0-1.5-0.1-1.4-1.5
		c0.1-4.2,0.2-8.4,0.3-12.6c0.1-4.5,0.1-9,0.1-13.5c0-1.6,0.2-1.9,2-1.8c0.6,0,1.2,0.2,2,0.4c-0.2,4.2-0.4,8.5-0.5,12.7
		C78.3,32.8,78.3,37,78.2,41.4z"/>
	
		<path fill-rule="evenodd" clip-rule="evenodd" stroke="#000000" stroke-width="0.6427" stroke-linecap="round" stroke-linejoin="round" stroke-miterlimit="10" d="
		M173.8,15.4c0.1,0.9,0.1,1.7,0.2,2.7c-3,0.1-5.8,0.2-8.8,0.3c-0.1,2.6-0.2,5-0.4,7.5c2.9,1,5.9,0,8.8,0.5c0,1,0,2,0,3.1
		c-2.9-0.1-5.8-0.2-8.8-0.3c-0.6,5-0.3,9.9-0.4,15c-0.8,0.1-1.6,0.1-2.5,0.2c-0.1-0.8-0.3-1.4-0.2-2c0.1-6.4,0.3-12.8,0.4-19.3
		c0-1.6-0.1-3.3-0.1-4.9c0-0.8,0-1.6,0-2.6C165.9,15.4,169.8,15.3,173.8,15.4z"/>
	
		<path fill-rule="evenodd" clip-rule="evenodd" stroke="#000000" stroke-width="0.6427" stroke-linecap="round" stroke-linejoin="round" stroke-miterlimit="10" d="
		M35.2,18.9c0.1-1,0.2-1.9,0.3-2.9c5.2-0.3,10.3,0.5,15.5,0.3c0.1,0.3,0.2,0.6,0.3,0.9c0.2,2.1-0.1,2.3-2.2,2.2
		c-1.4-0.1-2.8-0.3-4.3-0.4c-0.1,0.4-0.2,0.7-0.3,1c-0.2,3.1-0.4,6.2-0.6,9.4c-0.1,1.5-0.3,3.1-0.3,4.6c-0.1,2.8-0.2,5.6-0.2,8.5
		c0,0.3,0,0.6,0,0.9c-0.1,1.6-0.5,2-2.1,1.8c-0.3,0-0.5-0.1-0.9-0.2c-0.2-4.4,0.3-8.7,0.6-13c0.2-4.3,0.5-8.6,0.8-13
		C39.5,18.6,37.5,18.7,35.2,18.9z"/>
</g>
</svg>
