<svg xmlns="http://www.w3.org/2000/svg" width="219" height="71.414" viewBox="0 0 219 71.414"><path d="M76.14 44.324c2.036-5.648 3.744-9.568 3.658-10.248-.002-.804-.338-1.495-.88-1.943.054-.044.105-.092.154-.145 1.106-1.192.755-3.103.215-4.577.154-.65.117-1.15.077-1.676-.022-.3-.047-.64-.047-1.105 0-.118-.006-.23-.018-.344-.006-.122-.026-.243-.06-.36-.136-.605-.505-1.344-1.443-1.836.085-.235.153-.46.206-.667.215-.507.336-.866.402-1.187.23-1.13-.002-2.178-.638-2.934-.12-.352-.355-.8-.81-1.226-.287-.632-.513-1.156-.66-1.522-.238-.593-.912-.882-1.507-.645-.593.237-.882.91-.645 1.505.18.448.45 1.07.806 1.852.078.168.195.316.34.432.253.198.29.366.293.385.044.25.168.477.354.648.218.202.29.582.197 1.04-.035.17-.13.43-.297.823-.027.063-.05.13-.065.197-.06.26-.167.576-.32.94-.1.243-.117.515-.043.768l.21.73c.11.38.406.677.786.79.52.152.555.32.577.43l.005.028.003.03c.007.04.01.08.01.123 0 .55.03.97.053 1.278.04.52.05.748-.06 1.11-.053.174-.064.357-.034.535-.006.16.02.316.08.466.37.95.47 1.675.432 2.077-.233-.053-.055.742-.108.714-.34-.18-.08 0-.835-.056-.495-.037-.61-.05-.9.124-.878.525-1.678 3.823-.836 3.253.79-.535 2.037-1.25 2.305-.897.266.35-.043.857.468.665-.054.12-.247.386-.33.56-1.115 2.293-2.2 4.898-1.807 6.82.06.277.104 1.152-.364 1.852-.312.465-1.003 1.193-1.668 1.318l2.743-.124zM77.36 27.417c-.12-.286-.27-.584-.512-.846-.117-.13-.26-.245-.383-.328l-.15-.106-.027-.02c-.005-.004-.005-.004-.01-.005.002.01-.05-.058-.047-.05-.102-.132-.202-.236-.305-.343-.104-.104-.207-.206-.315-.304-.11-.1-.22-.194-.337-.287-.092-.07-.18-.14-.296-.208-.074-.18-.193-.344-.333-.46-.178-.153-.372-.243-.555-.316-.188-.072-.368-.123-.532-.178-.062-.02-.12-.04-.17-.063.042-.043.083-.088.12-.133.1-.124.18-.252.256-.38.15-.257.275-.52.394-.784l.342-.79c.113-.258.227-.524.365-.753.152-.23.325-.46.53-.635.095-.085.23-.16.304-.13.08.028.106.19.105.32-.003.275-.07.556-.146.83-.08.273-.174.543-.28.81.123-.258.236-.522.332-.793.095-.27.183-.547.205-.844.005-.074.003-.15-.01-.23-.02-.074-.05-.17-.147-.22-.096-.047-.195-.022-.27.006-.076.03-.14.072-.202.117-.242.185-.432.408-.61.642-.176.25-.303.505-.436.762l-.39.76c-.135.25-.272.496-.425.723-.077.113-.158.22-.245.315-.085.094-.18.172-.262.21l-.002-.002c-.11.052-.157.183-.104.293v.004c.078.163.196.238.29.296.095.06.187.098.273.137.177.076.34.14.49.213.15.074.283.157.376.252.092.096.14.196.158.312.013.077.058.15.13.194l.045.03c.062.04.168.125.257.21.093.088.185.184.274.28.09.097.177.198.26.3.082.1.165.205.224.296.048.064.034.053.084.112l.063.07.05.048c.068.062.13.11.178.15.102.083.167.15.23.233.123.16.213.373.287.604v.005l.015.038c.102.238.375.35.613.25.24-.1.35-.372.25-.61zM70.387 21.967s.453-1.15.377-1.538c-.077-.387-1.908-1.51-2.487-2.4-.578-.893-1.248-3.27-2.26-3.555-1.012-.284-2.58.07-3.25 1.646 1.003-.145 2.845-.298 3.482.854.636 1.152 1.99 3.297 4.137 4.993zM72.826 21.278s-.396-.737-.24-1.103c.158-.368.81-.64.913-.938.103-.298.75-2.595 1.424-2.13.675.464.694 1 .694 1-.31-.032-.93.36-1.162.694-.316.46-1.2 1.498-1.63 2.478zM68.42 22.318c.267.497.045 1.855.326 2.073l1.14.26v-1.186l-1.465-1.146zM75.87 30.755c-.108-.062-.217-.114-.323-.188-.11-.067-.212-.142-.315-.216-.2-.154-.388-.326-.565-.498-.18-.17-.353-.34-.543-.428-.046-.025-.095-.04-.144-.053-.048-.018-.103-.013-.15-.023-.05-.002-.104 0-.156.002l-.162.023c-.107.017-.21-.058-.226-.167v-.012l-.005-.033c-.01-.127.004-.26-.028-.38-.017-.124-.06-.236-.103-.34-.032-.045-.053-.098-.087-.14-.04-.036-.065-.084-.11-.113-.08-.066-.17-.12-.275-.15-.05-.018-.103-.032-.16-.038-.054-.014-.113-.014-.17-.015-.114-.004-.233.013-.35.036-.116.025-.228.065-.337.112-.05.027-.103.05-.15.08l-.07.046-.07.042-.045.026c-.034.018-.055.033-.097.053-.057.02-.114.04-.172.057-.062.02-.113.024-.164.028-.052.003-.105.01-.158.007-.208-.015-.413-.083-.58-.2-.086-.056-.158-.13-.23-.2-.058-.08-.127-.156-.167-.242-.093-.17-.152-.354-.174-.534-.03-.183-.02-.358-.005-.53l.045-.25c.017-.083.046-.16.07-.238.042-.162.117-.3.18-.45.07-.14.15-.272.228-.412l.137.643c.003.005.007.01.014.012l-.03-.005c-.014-.005-.06-.008-.09-.013-.075-.007-.157-.01-.242-.01-.17 0-.348.004-.528.024-.178.018-.358.046-.537.076-.18.032-.356.072-.535.11-.176.042-.353.09-.53.135l-.52.155c-.172.056-.344.115-.513.175-.17.06-.337.13-.502.198-.168.068-.33.146-.492.223-.158.085-.315.17-.47.26-.158.09-.31.188-.456.292s-.29.213-.434.326c-.137.118-.274.24-.404.368-.136.124-.252.267-.38.404-.118.144-.238.29-.346.446-.117.15-.212.316-.325.48l-.003.004c-.017.025-.053.032-.078.014-.02-.013-.028-.037-.024-.058.038-.193.07-.396.135-.585.053-.196.136-.38.213-.57.09-.182.182-.367.295-.54.102-.18.233-.34.36-.505.132-.16.266-.32.417-.46.148-.147.306-.286.467-.415.16-.136.333-.25.505-.366.176-.11.353-.22.536-.315.182-.102.37-.187.56-.268.188-.085.384-.15.58-.217.195-.065.394-.118.593-.166.2-.048.403-.085.607-.117.405-.062.814-.092 1.23-.094.207-.004.416.003.63.02.11.01.222.025.336.047.065.016.116.02.19.047.038.01.07.02.11.037.05.023.1.048.146.075.21.122.283.392.16.604l-.01.017-.013.02c-.067.105-.144.208-.204.314-.05.108-.123.214-.156.325-.018.053-.045.11-.06.163l-.037.162c-.017.105-.03.213-.02.31.004.1.03.19.063.27.012.043.045.07.062.11.03.027.052.062.083.084.06.05.128.077.2.092.03 0 .08.007.096 0 .01 0 .02 0 .033.003.02-.007.06-.028.09-.042l.048-.023.01-.005c.01-.004-.056.035-.028.018h.002l.003-.003.007-.004.026-.015.113-.062c.075-.038.152-.065.228-.098.156-.052.312-.093.475-.115.16-.02.326-.03.49-.01.084.008.166.016.248.04l.125.032.12.05c.16.062.31.168.435.293.066.06.11.138.163.207.048.073.077.154.112.23.055.157.094.318.1.476.024.158-.003.31-.005.46l-.23-.21.21-.012c.07.004.142.006.213.017.07.018.145.024.212.055.068.024.135.054.195.092.125.072.227.164.32.256.092.093.176.188.258.282.163.187.322.37.498.536.09.082.18.164.275.236.092.078.2.145.3.217v.002c.025.016.032.052.013.077-.017.026-.048.032-.072.018zM61.884 34.078c-.04.102-.053.19-.057.286-.007.093 0 .188.007.282.013.187.05.375.086.56.074.37.167.74.263 1.106.1.37.197.734.306 1.094.05.18.11.36.166.527.03.084.062.166.092.236.014.036.03.07.04.087.002.008.012.025.002.012-.005-.007 0 0-.017-.017-.024-.02-.053-.043-.083-.053l-.516.088c.06-.05.118-.096.18-.143.06-.045.12-.098.18-.133.12-.074.244-.145.365-.21.122-.06.248-.11.372-.165.124-.053.252-.094.377-.137.125-.04.252-.076.38-.107.127-.035.258-.06.388-.082.128-.026.26-.046.392-.06.13-.02.265-.026.397-.032-.216.158-.432.305-.65.443l-.32.21c-.103.072-.214.133-.315.207l-.31.205-.295.21c-.093.07-.18.145-.273.212-.045.037-.077.074-.114.11s-.074.073-.113.108l-.037.03c-.136.12-.328.138-.48.06-.05-.027-.098-.062-.14-.1-.038-.03-.044-.047-.066-.068-.043-.053-.058-.076-.08-.11-.042-.067-.07-.12-.097-.173-.055-.108-.09-.208-.13-.31-.078-.197-.135-.396-.19-.594-.1-.398-.174-.797-.21-1.205-.038-.406-.044-.817.007-1.23.025-.208.072-.414.138-.617.037-.1.08-.2.137-.292.054-.09.13-.177.214-.232zM65.758 29.606c.074-.043.344-.205.42-.247 3.037-1.707 6.962-.86 9.505.738.18.114.235.353.123.533-.114.18-.35.235-.533.123-2.35-1.476-5.955-2.27-8.714-.72l-.802-.427zM69.444 24.86c-2.022 0-3.136-.827-3.82-1.335-.14-.104-.263-.193-.365-.258-.22-.136-.287-.424-.15-.644.136-.218.424-.286.644-.15.135.086.277.19.426.3.715.532 1.693 1.258 3.678 1.14.262-.016.48.18.494.437.017.257-.18.48-.438.494-.163.01-.318.015-.47.015zM74.136 24.953c-.24 0-.445-.185-.465-.43-.02-.257.17-.482.43-.503.25-.02.686-.19 1.34-.88.176-.19.473-.196.66-.02.187.178.195.473.018.66-.698.738-1.335 1.12-1.943 1.17-.013.002-.027.003-.04.003zM73.898 22.753c0 .334-.006 1.47-.11 1.638-.104.17-.15.06-.15.06l-.522-.644.782-1.053zM69.69 17.206l.18.14c.113.1.264.26.427.453.16.196.344.43.52.694.177.263.35.55.516.847.163.296.36.58.48.878.055.15.096.3.12.45.024.148.044.286.045.424.004.134-.002.26-.02.375-.008.058-.013.108-.024.16-.017.05-.03.096-.042.138-.02.078-.065.15-.092.188l-.043.058c-.016.022-.044.026-.066.01-.004-.004-.01-.01-.013-.017l-.01-.02s-.008-.02-.028-.06c-.02-.04-.038-.078-.08-.143-.04-.062-.08-.13-.137-.216l-.17-.28c-.115-.208-.254-.45-.353-.73-.1-.28-.144-.606-.25-.912-.1-.31-.217-.61-.32-.896-.11-.285-.215-.547-.313-.772l-.145-.296-.12-.22-.13-.19c-.016-.02-.01-.05.01-.065.02-.012.042-.01.058.003zM72.566 21.396s-.047-.074-.097-.2c-.055-.125-.102-.308-.14-.513-.033-.205-.056-.438-.037-.672.01-.116.04-.236.064-.358.027-.123.045-.247.054-.372.005-.124.012-.25.004-.373-.005-.123-.01-.245-.024-.364-.006-.12-.038-.23-.05-.342-.02-.108-.048-.21-.07-.307l-.08-.257c-.024-.078-.056-.14-.075-.198l-.067-.174v-.004c-.01-.024.002-.05.025-.06.02-.008.038-.003.052.01l.13.14c.04.047.095.1.144.17l.17.233c.058.09.12.188.184.295.054.11.12.227.167.354.054.126.104.26.14.4.042.137.068.282.098.425l.076.434c.027.146.036.286.032.42-.016.273-.104.508-.19.705-.092.195-.187.347-.27.454-.082.11-.146.168-.146.168-.024.022-.062.022-.085-.002-.005 0-.007-.005-.01-.01zM61.19 29.877s.022.058.04.15c0 .05.04.09.06.128.015.03.067.082.09.116.044.038.07.073.12.104.037.034.088.062.13.094.05.027.092.062.147.088.05.032.104.057.157.088.056.024.108.06.166.08.03.012.057.03.085.043.03.01.06.02.086.036.06.03.12.043.178.073.06.02.12.04.18.062.06.015.118.033.174.05.056.017.106.022.15.034.088.02.15.038.15.038s-.022.053-.08.134c-.03.037-.062.095-.114.134-.05.044-.11.095-.183.142-.074.038-.16.078-.253.108-.095.02-.2.05-.31.046-.108.002-.223-.004-.335-.035-.115-.02-.222-.075-.33-.12-.103-.064-.206-.124-.29-.21-.09-.077-.162-.18-.224-.277-.057-.104-.102-.208-.123-.32-.03-.104-.02-.22-.014-.31.024-.102.04-.176.088-.252.04-.07.08-.127.122-.146.08-.05.135-.077.135-.077zM67.517 25.396l-.045.013c-.03.006-.072.02-.128.024-.057.006-.13.013-.206.012-.076 0-.164-.002-.257-.012-.092-.01-.192-.026-.295-.05-.104-.02-.21-.053-.318-.092-.107-.044-.215-.093-.32-.153-.106-.06-.214-.12-.32-.177-.217-.116-.428-.24-.62-.367-.093-.065-.187-.124-.27-.19-.083-.065-.16-.125-.23-.188-.07-.06-.133-.115-.185-.168-.054-.05-.1-.095-.134-.138l-.11-.128c-.008-.01-.006-.027.004-.036.01-.007.02-.008.03 0h.003l.132.096c.04.032.095.065.156.104.06.04.13.08.208.122.154.087.342.174.543.265.203.087.42.178.64.257.11.04.223.076.335.106.112.032.222.06.324.098.205.074.388.166.546.246.08.043.15.08.214.117.064.038.117.066.163.097.094.054.15.09.15.09.014.01.017.026.008.04-.003.004-.01.008-.016.01zM74.54 25.245c-.165 0-.325-.087-.41-.242-.124-.226-.042-.51.185-.634.345-.19 2.054-1.1 2.963-.267-.033.146-.05.51.085.664-.174.19-.47.203-.66.028-.295-.27-1.333.06-1.937.392-.073.04-.15.058-.226.058zM54.914 25.593v.062c.004.04 0 .102-.007.183-.02.16-.062.394-.15.677-.086.284-.198.625-.333 1.004-.13.38-.273.808-.394 1.268-.123.458-.215.956-.21 1.444.002.49.128.948.4 1.326.03.05.074.093.11.14.018.02.043.054.053.062l.08.087c.112.128.192.203.3.31.21.202.436.395.67.58.472.367.986.705 1.514.944.262.123.526.22.774.275.248.053.48.068.62.025.146-.04.222-.088.316-.234.09-.143.152-.376.186-.625l.02-.19.005-.2c.005-.127-.002-.296 0-.44 0-.3.002-.592.003-.878.01-.574.02-1.115.048-1.618.02-.5.066-.963.105-1.373.026-.205.048-.396.077-.573.027-.177.068-.34.096-.486.025-.145.072-.275.107-.385.033-.11.067-.203.104-.275l.106-.22-.022.242c-.01.076-.014.17-.01.284.006.113-.002.237.012.382.015.286.062.632.103 1.03.056.398.12.85.187 1.34l.21 1.587c.036.284.07.575.107.872.015.155.037.287.047.464l.018.26v.272c-.014.367-.066.77-.277 1.195-.098.21-.262.418-.455.596-.203.165-.44.304-.682.37-.485.148-.933.112-1.33.033-.397-.08-.758-.213-1.1-.366-.675-.318-1.272-.724-1.808-1.183-.27-.228-.52-.472-.754-.732-.113-.125-.25-.283-.34-.398l-.072-.093c-.04-.05-.06-.083-.09-.126-.054-.08-.11-.157-.156-.245-.4-.673-.49-1.46-.402-2.102.087-.648.297-1.198.52-1.67.223-.473.472-.87.69-1.216.216-.348.42-.637.576-.88.154-.244.273-.436.337-.576.032-.07.058-.124.07-.164l.024-.06zM58.447 39.197c-.134-.047-9.136 3.127-11.407 17.836l-.037.232.23.057c1.966.47 5.166 7.46 6.233 10.115l.095.236.24-.094c3.376-1.337 2.188-6.09 1.233-9.91-.37-1.478-.72-2.872-.693-3.73.103-3.323 1.918-5.808 5.4-7.376l.542-.246-1.835-7.12zM66.864 36.72s.103-.078.286-.195c.187-.113.463-.268.806-.417.685-.3 1.653-.575 2.656-.647.25-.022.504-.02.75-.022.125.005.25.01.37.02.123.006.243.018.36.037.237.03.463.07.676.127.213.047.41.117.588.185.18.06.337.148.475.22.07.036.133.066.19.102.056.037.105.073.153.105.18.13.274.21.274.21s-.13-.007-.342-.036c-.052-.01-.11-.017-.174-.026-.064-.002-.132-.01-.205-.016-.146-.01-.307-.03-.486-.03-.177-.01-.366-.02-.567-.017-.2-.007-.41 0-.628.003-.217-.004-.444.023-.67.023-.23.023-.46.02-.694.05-.232.01-.465.034-.696.056-.23.02-.457.043-.678.062l-1.217.12c-.363.03-.666.056-.883.07-.214.016-.343.016-.343.016zM55.027 68.214c-.23-.154 2.56-2.975 2.59-3.25.357-3.25.516-5.432.332-7.643-.37-4.425.974-13.138 2.782-16.33.102-.183.31-.142.513-.19.203-.046 1.102.146 1.275.263l2.386 1.078c.28.19.725.394.617.71-3.534 10.352-4.163 15.248-3.47 20.545.04.31-.116.61-.393.756 0 .002-3.488 1.69-6.633 4.064zM70.298 22.3s.02.212.062.584l.033.308c.005.056.01.114.017.174.003.03.005.062.01.092v.024l.002.012v.006c.003-.01-.014.083-.007.045v.003c-.004.007.006.008-.034.058-.017.018-.038.032-.058.04l-.025.008c-.124.02-.177 0-.257-.01-.073-.013-.145-.03-.217-.05l-.11-.03-.03-.008c-.037-.016-.024-.01-.04-.02l-.05-.023c-.067-.03-.145-.09-.22-.14-.277-.2-.545-.412-.83-.65-.285-.233-.576-.49-.877-.756-.603-.53-1.224-1.12-1.833-1.726-.308-.3-.61-.607-.907-.917-.147-.156-.295-.312-.433-.48-.07-.08-.14-.168-.204-.26-.066-.087-.14-.194-.166-.227-.04-.055-.086-.104-.115-.127-.03-.026-.04-.01.054-.01.043-.005.092-.02.113-.042.02-.014.02-.02.014-.017-.013.01-.045.067-.072.122-.05.123-.093.276-.123.43-.037.153-.063.31-.086.46-.045.303-.083.59-.112.845-.03.258-.06.483-.08.668-.05.373-.086.59-.086.59-.004.024-.028.043-.054.04-.02-.004-.033-.017-.04-.034 0 0-.014-.052-.044-.15s-.07-.242-.11-.428c-.045-.186-.09-.412-.13-.674-.04-.263-.08-.562-.09-.896-.01-.338-.02-.697.1-1.142.038-.116.072-.235.17-.378.048-.07.115-.147.21-.217.104-.07.24-.128.382-.13.29-.01.46.11.584.202.125.1.212.198.292.302.09.127.126.19.18.267.05.075.1.154.158.234.112.16.23.323.354.487.243.33.515.65.786.975.553.638 1.127 1.26 1.67 1.84.27.29.54.567.792.827.252.257.504.503.726.703.055.043.09.09.16.13l.048.032c.002.002.03.016.01.008l.025.01.1.04c.065.025.13.047.19.065.056.018.135.03.14.03v.004c-.014.003-.03.013-.04.026-.008.008-.014.042-.01.03l.003-.01.002-.003-.006.04V23.2l.007-.31c.005-.37.01-.584.01-.584 0-.026.02-.046.047-.046.024 0 .043.02.045.042h-.002zM76.112 10.37c-1.496-2.85-4.12-6.005-12.224-7.807-.535-.12-1.086-.207-1.648-.27C61.143.61 58.262-.428 55.92.17c0 .42.015 1.015-.48 1.53-.383.402-1.076.755-2.322.94-.996.15-2.105.852-3.084 1.86-1.822 1.88-3.19 4.824-2.522 7.256.342.91.93 1.36 1.314 1.043.09-.074.166-.187.228-.345.205-.525.347-.965.575-1.226.008-.012.02-.02.032-.03.026.02.052.045.083.063l.13.08c.705.44 1.44.867 2.098 1.017.002 0 .004-.002.006-.004l.012.004c-.194.864-.497 2.606-.25 4.23.32 2.11 1.096 4.41 2.02 6.004.16.274.123.46.082.574-.19.536-1.084.978-1.382 1.09-.152.055-.265.187-.295.346l-.42 2.15c-.036.18.04.366.19.472.153.106.353.112.51.016 1.11-.673 2.47-1.516 2.658-1.704.278-.277.84-1.473.698-2.554.048-2.15.847-3.334 2.247-3.334.662 0 1.243.28 1.408.48.664.814.866 1.125.694 2.25-.086.567-.247 1.328-.402 2.065-.452 2.143-.48 2.418-.268 2.68.09.11.243.183.385.183.77 0 2.045-1.896 3.023-6.06.832-3.544.378-7.065.134-8.957l-.055-.43c1.766.9 5.805 2.825 7.727 3.465.428.142.94.218 1.475.218 1.35 0 3.225-.495 4.067-1.89.385-.644.682-1.74-.128-3.282zM39.46 58.945c.026.006.053.008.08.008.093 0 .184-.035.255-.096.092-.08.14-.2.13-.322-.003-.04-.287-3.914 1.916-7.96.587-1.075 1.278-2.327 2.01-3.653 2.158-3.912 4.604-8.348 5.896-11.033 1.75-3.643 2.836-7.687 2.98-11.096.006-.136-.06-.264-.172-.34-.113-.074-.257-.083-.38-.025-.125.06-1.23.595-1.63.953-.054.048-.093.11-.114.177-.718 2.4-3.447 9.406-5.573 13.197-.507.902-1.196 2.086-1.96 3.38-.114.726-.25 1.454-.408 2.192 1.242-2.08 2.39-4.032 3.04-5.196 2.12-3.777 4.83-10.708 5.605-13.237.176-.13.48-.308.78-.468-.246 3.13-1.297 6.86-2.864 10.124-1.28 2.667-3.72 7.09-5.874 10.995-.733 1.325-1.424 2.58-2.01 3.657-1.863 3.418-2.038 6.652-2.028 7.88l.322.858zM65.536 23.12c-.012 0-.024-.003-.037-.005-.102-.02-.168-.118-.147-.22.05-.26-.05-2.714-.764-3.984-.052-.09-.02-.203.07-.254.09-.05.204-.02.254.072.778 1.384.87 3.915.805 4.24-.018.09-.096.15-.184.15zM67.048 27.352c.052-.025.104-.05.158-.072.155-.07.315-.133.498-.194.168-.058.338-.104.5-.144.28-.07.577-.12.905-.157.107-.012.21-.02.304-.026l.07-.005.295-.007h.035c-.023.063-.04.136-.042.218 0 .092.02.177.047.252l-.09-.016-.256-.036-.07-.006c-.086-.008-.18-.02-.284-.025-.13-.006-.268-.01-.415-.01-.16 0-.32.005-.47.017-.16.013-.326.03-.5.057-.186.03-.353.064-.51.106-.06.012-.12.03-.177.046zM42.7 43.27c3.55-6.077 7.468-13.542 8.24-18.13-.515-.303-2.945-.443-5.748.82-.37 1.71-1.046 3.863-1.845 6.045.16 3.402.107 7.22-.647 11.266zM42.667 8.622c-1.352-.333-3.283-.727-5.52-1.183-5.568-1.135-11.987-2.145-13.77-3.17-1.455-.835-3.46-3.253-3.46-3.253v11.065l.744-.117c.02-.002 1.888-.29 3.99-.29.726 0 1.4.033 2.003.1.223.025.536.057.925.097 2.747.28 8.252.932 13.86 2.316l2.14.528 1.726-5.443-2.637-.65zM30.45 34.016c-2.13-1.155-5.05-2.735-11.91-2.735-.244 0-.493.003-.744.007V24.17c2.002.133 4.83.28 7.545.28 3.418 0 5.647-.237 6.626-.706l.123-.06.41-4.388.036-.422-.383.183c-.017.008-.42.195-2.024.448-.86.135-3.013.223-5.488.223-3.305 0-6.752-.15-9.704-.427l-2.276-.21v17.785l2.835-.297c1.146-.12 2.247-.182 3.272-.182 4.668 0 6.947 1.266 8.183 1.953.13.07.253.14.368.202-.23 2.945-1.21 5.943-2.762 8.457-1.58 2.558-3.384 3.626-4.04 3.948-.65-.318-2.44-1.37-4.033-3.95-1.235-2-2.08-4.21-2.51-6.567l-.036-.202-.207.006c-.677.018-1.386-.062-2.095-.234-.97-.24-1.882-.64-2.644-1.154l-.423-.287.048.507c.325 3.457 1.634 7.22 3.687 10.604l.125.208c1.242 2.053 1.465 2.422 7.534 7.562l.557.47.557-.47c6.07-5.145 6.293-5.512 7.534-7.562l.126-.207c2.395-3.942 3.768-8.403 3.768-12.23v-2.476l-.55-.212c-.464-.183-.942-.443-1.503-.746zM91.128 51.115c.97-3.193.617-3.812.48-4.05-.197-.345-.47-.632-2.13-1.233.406-1.14.438-2.047.092-2.707-.264-.504-.975-1.193-3.99-2.127 3.234-3.97 7.895-10.164 7.895-12.93 0-1.645-2.47-7.34-5.098-7.34-.09 0-.18.007-.268.02-1.713.235-3.9 3.89-11.145 18.62-1.326 2.695-2.374 4.824-2.806 5.55-.36.603-.602.79-.83.85-.27-.856-.44-1.903-.483-3.01-.065-1.665-.392-3.18-.405-3.243l-.05-.236-.135-.2c-.03-.045-.752-1.105-1.63-1.826-.91-.742-1.994-.822-2.418-.822-.095 0-.147.004-.147.004l-.92.06-.213.894c-.012.057-1.4 5.914-2.255 10.11l-.042.204 1.417 10.85.092.188c.973 1.965 1.94 3.38 2.583 4.322.146.213.345.504.472.703-.35 1.557-.314 2.498.11 3.04.267.345.667.538 1.096.538H82.07c.823 0 1.573-.59 2.748-3.51.206-.275.632-.848 1.153-1.55.607-.813 1.4-1.88 1.973-2.644.217-.257.437-.54.654-.84l3.537-2.65-.017-.644c-.008-.26-.094-2.473-.99-4.39zm-1.086-3.15c-.033.507-.364 1.972-.724 3.042-2.96 4.82-5.48 7.883-6.1 7.957-.58-.082-.672-.35-.84-1.004-.082-.32-.176-.674-.376-1.002 3.08-4.426 4.062-6.39 4.72-7.707.41-.82.678-1.35 1.243-2.077.843.282 1.734.612 2.077.79zm-5.483 13.27c-.607.815-1.13 1.52-1.24 1.66l-.047.058-.027.068c-.412 1.044-1.008 2.27-1.292 2.563H70.712c.002-.373.12-1.12.292-1.81l.02-.083-.005-.082c-.027-.35-.298-.75-.84-1.54-.605-.886-1.516-2.218-2.42-4.034l-1.342-10.27c.72-3.523 1.798-8.148 2.128-9.55.276.038.656.144.97.4.553.452 1.064 1.138 1.23 1.368.07.35.296 1.564.346 2.84.066 1.678.39 3.238.91 4.39l.118.263.287.035c.222.027.42.04.61.04 1.153 0 1.924-.5 2.658-1.733.468-.787 1.53-2.945 2.875-5.68 1.703-3.463 3.823-7.772 5.726-11.312 3.015-5.606 3.9-6.27 4.077-6.336l.027-.003c.363 0 1.158.696 2.046 2.224.84 1.446 1.292 2.808 1.292 3.356 0 2.453-6.273 10.398-8.698 13.265l-2.174 2.355.756.7 1.972-2.136c1.988.538 4.175 1.32 4.44 1.692.176.334-.204 1.494-.66 2.344-.77.945-1.1 1.602-1.55 2.504-.672 1.342-1.683 3.365-5.015 8.105-.223.05-.757.084-1.394-.45-1.01-.85-1.448-2.468-1.2-3.075.17-.42 1.758-1.424 3.134-2.102l.305-.148-.02-.34c-.146-2.654 1.61-4.455 1.626-4.47l.886-.88h-2.8v1.027h.494c-.562.844-1.252 2.248-1.242 4.037-.963.492-2.978 1.605-3.337 2.488-.466 1.148.26 3.213 1.492 4.25.682.574 1.325.72 1.8.72.362 0 .625-.083.737-.126.04.123.075.254.112.39.172.67.41 1.587 1.695 1.77.044.005.09.01.137.01.193 0 .422-.06.716-.243.135.414.408.803.913.98.025.008.05.012.075.018l-.36.484zm2.827-3.73l-.08.074c-.085.097-.32.4-.66.853-.616.734-1.23 1.297-1.483 1.32-.28-.117-.32-.54-.317-.773.628-.64 1.458-1.658 2.587-3.254.916-1.293 1.77-2.61 2.286-3.422.446 1.176.583 2.45.622 2.988l-2.955 2.213zM41.43 17.646c-1.258-.103-2.416-.323-3.36-.614l-.188.313c-1.942 3.237-1.965 18.6-1.965 18.754v2.16c0 4.676-1.66 10.096-4.555 14.865l-.14.234c-1.62 2.673-3.604 5.01-8.944 9.038-.433.328-1.288.86-1.76 1.148-.47-.29-1.325-.822-1.758-1.148-5.12-3.86-7.09-6.117-8.61-8.504l-.45-.71v.003c-.945.29-2.104.51-3.363.613-2.382.195-4.475-.08-5.478-.646 1.126.865 3.233 3.52 5.58 6.123.86 1.074 1.92 2.13 3.07 3.148.516.475 1.027.91 1.53 1.29l.004.005c1.364 1.105 2.78 2.148 4.09 3.094.898.646 2.277 1.555 2.893 1.902.64.36 2.11 1.387 2.124 1.396l.37.258.368-.258c.015-.01 1.484-1.035 2.124-1.396.618-.35 1.997-1.256 2.894-1.902 4.735-3.422 7.882-6.658 10.205-10.494l.14-.23c3.42-5.637 5.384-12.137 5.384-17.83V36.1c0-4.268.32-8.758.67-11.972.185-1.563.604-2.482 1.12-3.636.526-1.18 1.533-2.457 2.473-3.11-1.122.296-2.714.408-4.466.264zM76.646 32.85c-.68 0-1.344.462-1.855 1.28-.67-.244-1.486-.368-2.432-.368-2.708 0-6.046 1.022-8.194 1.937l-.56-.53c-.43-1.94.372-3.527 2.45-4.84l9.735.756c.19.095.668.294 1.397.334.116.005.227-.038.304-.123.86-.925.167-2.94-.155-3.73.217-.643.187-1.05.143-1.648-.023-.306-.05-.686-.05-1.192 0-.09-.007-.178-.018-.267v-.01c0-.045-.008-.09-.023-.13-.175-.868-.896-1.17-1.386-1.315l-.21-.73c.177-.422.304-.8.38-1.123.206-.48.315-.793.368-1.05.177-.87-.024-1.64-.543-2.12-.037-.21-.177-.673-.72-1.098-.37-.815-.647-1.454-.815-1.88l-.857-.088c.178.527.647 1.582 1.01 2.377.028.06.07.114.126.153.255.185.38.372.44.5-.01.026-.02.05-.025.076-.037.16.03.325.17.413.423.27.595.835.457 1.513-.053.26-.208.634-.336.93-.01.022-.017.046-.022.07-.07.316-.204.703-.397 1.15-.036.082-.042.174-.016.26l.31 1.07c.04.13.142.23.273.266.632.166.967.338 1.045.818.01.07.016.142.016.216 0 .535.03.93.054 1.247.045.598.067.897-.147 1.467-.034.093-.03.196.008.288.535 1.248.706 2.39.453 2.9-.576-.065-.903-.244-.905-.244l-.415-.28c-.174-.117-.41-.073-.53.1-.013.016-.023.035-.033.053l-9.146-.71c-.08-.006-.162.014-.23.056-2.485 1.527-3.455 3.497-2.88 5.857.018.07.056.14.11.19l.83.783c.113.105.28.135.42.072 2.066-.912 5.43-1.975 8.12-1.975.993 0 1.814.146 2.44.434.187.085.407.01.502-.172.454-.865.992-1.173 1.347-1.173.284 0 .467.19.487.5-.042.107-.165.36-.283.603-.712 1.466-2.194 4.52-1.774 6.572.082.398.1 1.363-.423 2.145-.37.55-.94.898-1.7 1.04-.162.03-.39-.08-.54.048-.3.262-.305-.008-.485-.03v.778c.435.04.826.03 1.167-.035.97-.182 1.71-.645 2.196-1.37.665-.99.65-2.185.54-2.73-.37-1.796 1.09-4.798 1.71-6.08.23-.47.324-.666.354-.798.006-.027.01-.057.01-.086-.002-.77-.533-1.33-1.264-1.33zM66.792 42.646c-.578-.295-1.2-.63-1.877-1.018l-.05-.03c-1.095-.624-2.323-.97-3.458-.97-.61 0-1.19.098-1.723.29-.008.003-.016.005-.024.01-1.54.675-3.283 1.81-4.91 3.19-.104.088-.154.22-.133.354.02.135.11.246.233.3l4.518 1.864c1.19 2.08.904 4.654.626 7.145-.097.874-.19 1.702-.213 2.49-.012.42.033.954.085 1.575.154 1.836.362 4.33-.817 5.613-1.178-.154-2.913 1.324-4.435 2.625-.26.22-.51.438-.745.63-.846-2.03-3.81-8.804-6.16-9.903-.01-.098-.05-.195-.12-.273-.182-.22-.544-.314-1.176-.314-1.505 0-4.622.6-6.938 1.938l-.012.788c.095.018.193.002.277-.047 2.177-1.3 5.27-1.903 6.672-1.903.25 0 .406.018.5.037-.02.19.105.367.295.416.525.125 1.73.96 3.897 5.156 1.265 2.447 2.236 4.855 2.246 4.88.045.114.14.2.258.23.033.01.066.014.1.014.086 0 .17-.027.238-.082.353-.275.75-.615 1.17-.977 1.21-1.032 2.865-2.45 3.75-2.45.067 0 .127.01.178.03.134.046.284.013.39-.083 1.61-1.49 1.375-4.32 1.202-6.383-.05-.598-.093-1.113-.082-1.488.023-.758.114-1.568.21-2.428.282-2.537.602-5.412-.797-7.738-.042-.068-.106-.125-.183-.154l-4.044-1.672c1.89-1.523 3.43-2.312 4.22-2.66 1.312-.467 3.04-.22 4.522.63l.048.026c.798.457 1.55.86 2.262 1.213v-.867zM216.547 26.88c0 .937-.335 1.736-1.004 2.39-.673.657-1.47.985-2.395.985-.626 0-1.197-.148-1.712-.447-.514-.298-.92-.704-1.217-1.22-.3-.512-.45-1.082-.45-1.708 0-.925.33-1.722.986-2.392.656-.67 1.453-1.007 2.393-1.007.923 0 1.72.336 2.393 1.008.67.67 1.004 1.466 1.004 2.39zM133.412 44.986c.61-.41 1.224.137 1.224.682v2.928c0 .545-.414 1.156-.92 1.36 0 0-.718.284-1.93.59-1.21.308-2.367.46-3.474.46-4.78 0-7.17-2.334-7.17-7.006v-6.492c0-.545-.447-.992-.993-.992h-1.024c-.544 0-.99-.26-.99-.58 0-.32.312-.9.694-1.29l7.515-7.656c.383-.388.865-.707 1.073-.707.207 0 .377.446.377.992v3.64c0 .545.447.99.99.99h4.36c.546 0 .993.447.993.992v2.627c0 .544-.446.992-.992.992h-4.36c-.543 0-.99.445-.99.99v4.03c0 .544.015 1.435.033 1.978 0 0 .007.277.096.705.085.43.33.794.728 1.08.4.288 1.004.433 1.817.433.93 0 2.023-.196 2.942-.747zM209.833 50.52V32.9c0-.546.444-.992.99-.992h4.675c.544 0 .988.446.988.99v17.873c0 4.673-2.39 7.005-7.17 7.005-1.105 0-2.265-.15-3.476-.46-1.21-.306-1.927-.59-1.927-.59-.507-.204-.92-.812-.92-1.358V52.44c0-.544.61-1.095 1.224-.685.917.555 2.01.748 2.942.748.81 0 1.394-.174 1.815-.432.632-.383.858-1.112.858-1.55zM109.415 31.577c-1.206 0-2.342.21-3.41.636-1.07.423-2.51 1.723-2.51 1.723-.404.365-.735.217-.735-.327v-7.496c0-.545-.447-.992-.99-.992h-4.656c-.545 0-.99.447-.99.992v23.57c0 .544.445.99.99.99h4.655c.543 0 .99-.446.99-.99V40.83c.02-.7.324-1.607.714-2.127.36-.436.73-.83 1.11-1.164.64-.558 1.377-.84 2.212-.84 1.07 0 1.794.376 2.176 1.126.38.75.57 1.574.57 2.47 0 .222-.002.368-.007.435l-.007.07-.002 1.134v7.752c0 .543.446.99.99.99h4.655c.547 0 .992-.447.992-.99V39.154c0-5.052-2.25-7.577-6.747-7.577zM170.465 35.088c-.486-1.137-1.235-2.006-2.25-2.608-1.013-.603-2.27-.903-3.77-.903s-2.823.307-3.973.92c-1.15.616-2.26 1.525-3.328 2.73-.27-.652-.633-1.224-1.087-1.715-.455-.492-.963-.88-1.52-1.162-.56-.283-1.128-.482-1.706-.6-.577-.116-1.185-.174-1.823-.174-1.354 0-2.545.24-3.577.718-1.032.48-2.31 1.638-2.31 1.638-.402.367-.732.222-.732-.324V32.9c0-.545-.446-.99-.992-.99h-4.654c-.544 0-.99.445-.99.99v16.785c0 .543.444.99.99.99h4.654c.546 0 .992-.445.992-.99v-8.78c0-.708.36-1.75.847-2.343.305-.385.573-.69.796-.902.258-.246.593-.467 1.005-.664.412-.195.864-.295 1.354-.295 1.032 0 1.75.345 2.156 1.034.405.688.52 1.943.52 1.943.05.543.09 1.432.09 1.977v8.03c0 .544.445.99.99.99h4.655c.547 0 .992-.446.992-.99v-8.78c0-.727.38-1.812.89-2.395l-.018-.007c.3-.357.6-.68.898-.965.59-.557 1.345-.838 2.267-.838.946 0 1.638.33 2.073.986.437.658.562 1.99.562 1.99.052.543.093 1.432.093 1.977v8.03c0 .544.446.99.992.99h4.655c.544 0 .99-.446.99-.99V39.227c-.002-1.623-.244-3.002-.73-4.14zM191.623 39.503c.34-.057 1.312-.223 2.135-.223 1.217 0 2.187.17 2.903.508.72.34 1.227.766 1.523 1.28.295.52.44 1.063.44 1.642 0 .7-.25 1.38-.756 2.037-.504.658-1.382.986-2.636.986-1.056 0-2.3-.3-3.732-.902-1.432-.6-2.49-1.26-2.49-1.26-.46-.29-.838-.08-.838.464v4.52c1.206.825 2.526 1.44 3.965 1.843 1.438.406 2.942.61 4.516.61 1.967 0 3.636-.384 5.006-1.155 1.37-.766 2.398-1.79 3.08-3.068.683-1.28 1.022-2.65 1.022-4.11 0-1.415-.346-2.722-1.04-3.917-.694-1.197-1.693-2.162-2.997-2.886-1.3-.724-2.813-1.086-4.533-1.086-.27 0-.452.004-.544.008-.093.006-.247.02-.46.038l-.216.018c-.22.025-.403-.4-.403-.945v-2.405c0-.545.447-.99.992-.99h7.162c.545 0 .99-.447.99-.993v-3.4c0-.545-.445-.99-.99-.99h-12.823c-.544 0-.992.445-.992.99v12.87c0 .433.354.743.787.72.205-.012.565-.143.933-.202zM174.304 43.507c0 4.67 2.39 7.006 7.17 7.006.78 0 1.904-.252 2.52-.55.61-.296.99-.794.99-1.34V45.98c0-.545-.445-.992-.99-.992h-.36c-.813 0-1.417.11-1.816-.178-.4-.29-.642-.65-.728-1.08-.088-.432-.097-.707-.097-.707-.02-.545-.034-1.436-.034-1.98v-14.94c0-.545-.446-.99-.99-.99h-4.675c-.544 0-.99.445-.99.99v17.404z"/></svg>