<?xml version="1.0" encoding="utf-8"?>
<!-- Generator: Adobe Illustrator 15.0.2, SVG Export Plug-In . SVG Version: 6.00 Build 0)  -->
<!DOCTYPE svg PUBLIC "-//W3C//DTD SVG 1.1//EN" "http://www.w3.org/Graphics/SVG/1.1/DTD/svg11.dtd">
<svg version="1.1" id="レイヤー_1" xmlns="http://www.w3.org/2000/svg" xmlns:xlink="http://www.w3.org/1999/xlink" x="0px"
	 y="0px" width="200px" height="200px" viewBox="0 0 200 200" enable-background="new 0 0 200 200" xml:space="preserve">
<g>
	<g>
		<path fill="#004969" d="M23.361,153.309h3.945v0.832h-2.984v1.436h2.761v0.785h-2.761v1.606h3.037v0.833h-3.998V153.309z"/>
		<path fill="#004969" d="M29.201,154.824h0.83v0.584l0.014,0.017c0.262-0.438,0.715-0.709,1.237-0.709
			c0.858,0,1.403,0.462,1.403,1.355v2.729h-0.874V156.3c-0.017-0.621-0.263-0.892-0.776-0.892c-0.583,0-0.959,0.462-0.959,1.047
			v2.346h-0.875V154.824z"/>
		<path fill="#004969" d="M34.336,154.824h0.66v-1.193h0.873v1.193h0.792v0.655h-0.792v2.122c0,0.36,0.033,0.544,0.424,0.544
			c0.123,0,0.246,0,0.368-0.029v0.677c-0.191,0.016-0.376,0.045-0.569,0.045c-0.912,0-1.08-0.354-1.096-1.015v-2.344h-0.66V154.824z
			"/>
		<path fill="#004969" d="M39.102,157.04c0,0.622,0.338,1.175,1.068,1.175c0.506,0,0.812-0.221,0.965-0.66h0.83
			c-0.191,0.87-0.93,1.353-1.795,1.353c-1.244,0-1.943-0.868-1.943-2.091c0-1.132,0.738-2.101,1.92-2.101
			c1.251,0,2.018,1.131,1.872,2.324H39.102z M41.143,156.463c-0.031-0.554-0.405-1.055-0.996-1.055
			c-0.607,0-1.023,0.462-1.045,1.055H41.143z"/>
		<path fill="#004969" d="M43.65,154.824h0.821v0.771h0.016c0.101-0.425,0.622-0.879,1.159-0.879c0.199,0,0.253,0.016,0.331,0.022
			v0.848c-0.124-0.016-0.255-0.039-0.378-0.039c-0.6,0-1.074,0.487-1.074,1.36v1.894H43.65V154.824z"/>
		<path fill="#004969" d="M47.389,154.824h0.66v-1.193h0.875v1.193h0.791v0.655h-0.791v2.122c0,0.36,0.029,0.544,0.422,0.544
			c0.125,0,0.246,0,0.369-0.029v0.677c-0.192,0.016-0.378,0.045-0.568,0.045c-0.913,0-1.082-0.354-1.098-1.015v-2.344h-0.66V154.824
			z"/>
		<path fill="#004969" d="M54.795,157.915c0,0.216,0.045,0.3,0.207,0.3c0.055,0,0.123,0,0.215-0.016v0.609
			c-0.131,0.045-0.408,0.099-0.553,0.099c-0.352,0-0.606-0.122-0.676-0.482c-0.345,0.338-0.904,0.482-1.373,0.482
			c-0.714,0-1.358-0.385-1.358-1.16c0-0.993,0.79-1.155,1.526-1.238c0.63-0.116,1.19-0.046,1.19-0.561c0-0.455-0.468-0.54-0.82-0.54
			c-0.491,0-0.837,0.2-0.876,0.632h-0.875c0.062-1.023,0.93-1.324,1.804-1.324c0.774,0,1.589,0.315,1.589,1.154V157.915z
			 M53.92,156.809c-0.269,0.178-0.691,0.169-1.074,0.238c-0.377,0.062-0.715,0.2-0.715,0.661c0,0.393,0.498,0.507,0.807,0.507
			c0.385,0,0.982-0.197,0.982-0.752V156.809z"/>
		<path fill="#004969" d="M57.023,153.309h0.875v0.832h-0.875V153.309z M57.023,154.824h0.875v3.977h-0.875V154.824z"/>
		<path fill="#004969" d="M59.912,154.824h0.828v0.584l0.016,0.017c0.261-0.438,0.715-0.709,1.236-0.709
			c0.859,0,1.403,0.462,1.403,1.355v2.729h-0.875V156.3c-0.014-0.621-0.26-0.892-0.773-0.892c-0.585,0-0.961,0.462-0.961,1.047
			v2.346h-0.874V154.824z"/>
		<path fill="#004969" d="M65.445,154.824h0.829v0.555h0.023c0.261-0.393,0.589-0.663,1.22-0.663c0.483,0,0.936,0.208,1.113,0.663
			c0.291-0.408,0.668-0.663,1.244-0.663c0.835,0,1.326,0.369,1.326,1.34v2.745h-0.875v-2.322c0-0.632-0.038-1.07-0.721-1.07
			c-0.59,0-0.845,0.392-0.845,1.063v2.33h-0.875v-2.554c0-0.545-0.17-0.839-0.698-0.839c-0.453,0-0.867,0.369-0.867,1.031v2.361
			h-0.875V154.824z"/>
		<path fill="#004969" d="M73.799,157.04c0,0.622,0.338,1.175,1.066,1.175c0.507,0,0.814-0.221,0.969-0.66h0.828
			c-0.191,0.87-0.93,1.353-1.797,1.353c-1.242,0-1.94-0.868-1.94-2.091c0-1.132,0.737-2.101,1.919-2.101
			c1.249,0,2.018,1.131,1.872,2.324H73.799z M75.841,156.463c-0.031-0.554-0.405-1.055-0.997-1.055
			c-0.607,0-1.021,0.462-1.045,1.055H75.841z"/>
		<path fill="#004969" d="M78.512,154.824h0.828v0.584l0.016,0.017c0.26-0.438,0.714-0.709,1.236-0.709
			c0.857,0,1.402,0.462,1.402,1.355v2.729h-0.873V156.3c-0.016-0.621-0.26-0.892-0.775-0.892c-0.584,0-0.959,0.462-0.959,1.047
			v2.346h-0.875V154.824z"/>
		<path fill="#004969" d="M83.646,154.824h0.658v-1.193h0.877v1.193h0.79v0.655h-0.79v2.122c0,0.36,0.029,0.544,0.42,0.544
			c0.123,0,0.248,0,0.37-0.029v0.677c-0.192,0.016-0.376,0.045-0.567,0.045c-0.915,0-1.086-0.354-1.1-1.015v-2.344h-0.658V154.824z"
			/>
		<path fill="#004969" d="M91.42,156.969c0,0.846,0.622,1.177,1.39,1.177c0.844,0,1.158-0.413,1.158-0.83
			c0-0.422-0.229-0.591-0.452-0.677c-0.385-0.145-0.881-0.246-1.635-0.455c-0.937-0.252-1.213-0.822-1.213-1.391
			c0-1.1,1.014-1.614,2.004-1.614c1.145,0,2.102,0.607,2.102,1.753h-0.957c-0.049-0.708-0.523-0.97-1.182-0.97
			c-0.447,0-1.006,0.163-1.006,0.716c0,0.384,0.261,0.601,0.652,0.707c0.084,0.023,1.295,0.338,1.58,0.424
			c0.721,0.216,1.064,0.83,1.064,1.398c0,1.232-1.088,1.724-2.178,1.724c-1.251,0-2.264-0.6-2.287-1.962H91.42z"/>
		<path fill="#004969" d="M96.586,156.809c0-1.214,0.729-2.093,2.002-2.093c1.273,0,2.005,0.879,2.005,2.093
			c0,1.224-0.731,2.099-2.005,2.099C97.315,158.907,96.586,158.032,96.586,156.809z M99.718,156.809c0-0.685-0.347-1.4-1.13-1.4
			s-1.129,0.716-1.129,1.4c0,0.692,0.346,1.406,1.129,1.406S99.718,157.501,99.718,156.809z"/>
		<path fill="#004969" d="M102.396,153.309h0.871v5.492h-0.871V153.309z"/>
		<path fill="#004969" d="M108.836,158.801h-0.862v-0.554h-0.016c-0.214,0.399-0.689,0.66-1.127,0.66
			c-1.034,0-1.482-0.522-1.482-1.561v-2.522h0.875v2.438c0,0.699,0.286,0.952,0.761,0.952c0.729,0,0.974-0.468,0.974-1.084v-2.307
			h0.878V158.801z"/>
		<path fill="#004969" d="M110.552,154.824h0.659v-1.193h0.875v1.193h0.792v0.655h-0.792v2.122c0,0.36,0.031,0.544,0.423,0.544
			c0.122,0,0.245,0,0.369-0.029v0.677c-0.192,0.016-0.377,0.045-0.57,0.045c-0.912,0-1.081-0.354-1.097-1.015v-2.344h-0.659V154.824
			z"/>
		<path fill="#004969" d="M114.791,153.309h0.875v0.832h-0.875V153.309z M114.791,154.824h0.875v3.977h-0.875V154.824z"/>
		<path fill="#004969" d="M117.361,156.809c0-1.214,0.729-2.093,2.002-2.093c1.275,0,2.004,0.879,2.004,2.093
			c0,1.224-0.729,2.099-2.004,2.099C118.09,158.907,117.361,158.032,117.361,156.809z M120.492,156.809c0-0.685-0.346-1.4-1.129-1.4
			c-0.781,0-1.126,0.716-1.126,1.4c0,0.692,0.345,1.406,1.126,1.406C120.146,158.215,120.492,157.501,120.492,156.809z"/>
		<path fill="#004969" d="M123.225,154.824h0.83v0.584l0.014,0.017c0.262-0.438,0.713-0.709,1.236-0.709
			c0.861,0,1.404,0.462,1.404,1.355v2.729h-0.877V156.3c-0.014-0.621-0.26-0.892-0.771-0.892c-0.584,0-0.961,0.462-0.961,1.047
			v2.346h-0.875V154.824z"/>
		<path fill="#004969" d="M129.416,157.524c0.047,0.508,0.434,0.69,0.9,0.69c0.33,0,0.904-0.069,0.881-0.522
			c-0.021-0.46-0.658-0.515-1.297-0.66c-0.645-0.139-1.273-0.37-1.273-1.178c0-0.868,0.938-1.139,1.658-1.139
			c0.814,0,1.551,0.339,1.656,1.224h-0.912c-0.078-0.415-0.422-0.531-0.805-0.531c-0.254,0-0.723,0.062-0.723,0.406
			c0,0.433,0.645,0.493,1.289,0.641c0.639,0.146,1.281,0.377,1.281,1.16c0,0.946-0.949,1.292-1.771,1.292
			c-0.998,0-1.74-0.446-1.758-1.383H129.416z"/>
		<path fill="#004969" d="M140.631,155.055c-0.16-0.631-0.568-1.093-1.367-1.093c-1.174,0-1.662,1.039-1.662,2.094
			c0,1.053,0.488,2.09,1.662,2.09c0.852,0,1.32-0.638,1.396-1.437h0.938c-0.076,1.314-1.006,2.222-2.334,2.222
			c-1.641,0-2.625-1.306-2.625-2.875c0-1.57,0.984-2.877,2.625-2.877c1.236,0.008,2.213,0.691,2.328,1.876H140.631z"/>
		<path fill="#004969" d="M143.227,156.809c0-1.214,0.73-2.093,2.002-2.093c1.275,0,2.004,0.879,2.004,2.093
			c0,1.224-0.729,2.099-2.004,2.099C143.957,158.907,143.227,158.032,143.227,156.809z M146.357,156.809
			c0-0.685-0.346-1.4-1.129-1.4c-0.781,0-1.127,0.716-1.127,1.4c0,0.692,0.346,1.406,1.127,1.406
			C146.012,158.215,146.357,157.501,146.357,156.809z"/>
		<path fill="#004969" d="M148.936,154.824h0.828v0.555h0.023c0.262-0.393,0.59-0.663,1.219-0.663c0.484,0,0.938,0.208,1.113,0.663
			c0.291-0.408,0.668-0.663,1.244-0.663c0.836,0,1.326,0.369,1.326,1.34v2.745h-0.875v-2.322c0-0.632-0.035-1.07-0.719-1.07
			c-0.592,0-0.846,0.392-0.846,1.063v2.33h-0.875v-2.554c0-0.545-0.168-0.839-0.697-0.839c-0.453,0-0.867,0.369-0.867,1.031v2.361
			h-0.875V154.824z"/>
		<path fill="#004969" d="M156.764,154.824h0.828v0.537h0.018c0.244-0.452,0.719-0.646,1.227-0.646c1.25,0,1.857,0.955,1.857,2.116
			c0,1.067-0.537,2.075-1.713,2.075c-0.504,0-1.051-0.184-1.326-0.621h-0.016v1.983h-0.875V154.824z M158.719,155.408
			c-0.734,0-1.109,0.561-1.109,1.408c0,0.799,0.404,1.398,1.109,1.398c0.801,0,1.1-0.707,1.1-1.398
			C159.818,156.093,159.439,155.408,158.719,155.408z"/>
		<path fill="#004969" d="M165.881,157.915c0,0.216,0.047,0.3,0.207,0.3c0.055,0,0.125,0,0.215-0.016v0.609
			c-0.131,0.045-0.406,0.099-0.553,0.099c-0.352,0-0.607-0.122-0.676-0.482c-0.346,0.338-0.906,0.482-1.373,0.482
			c-0.713,0-1.357-0.385-1.357-1.16c0-0.993,0.789-1.155,1.527-1.238c0.627-0.116,1.188-0.046,1.188-0.561
			c0-0.455-0.469-0.54-0.82-0.54c-0.492,0-0.838,0.2-0.875,0.632h-0.875c0.061-1.023,0.93-1.324,1.805-1.324
			c0.773,0,1.588,0.315,1.588,1.154V157.915z M165.006,156.809c-0.268,0.178-0.689,0.169-1.074,0.238
			c-0.375,0.062-0.713,0.2-0.713,0.661c0,0.393,0.498,0.507,0.805,0.507c0.385,0,0.982-0.197,0.982-0.752V156.809z"/>
		<path fill="#004969" d="M167.953,154.824h0.828v0.584l0.014,0.017c0.264-0.438,0.717-0.709,1.238-0.709
			c0.857,0,1.402,0.462,1.402,1.355v2.729h-0.873V156.3c-0.014-0.621-0.262-0.892-0.777-0.892c-0.58,0-0.957,0.462-0.957,1.047
			v2.346h-0.875V154.824z"/>
		<path fill="#004969" d="M173.047,154.824h0.963l1.035,2.968h0.014l1.006-2.968h0.914l-1.543,4.19
			c-0.283,0.716-0.492,1.362-1.404,1.362c-0.207,0-0.406-0.015-0.605-0.046v-0.738c0.137,0.024,0.275,0.054,0.414,0.054
			c0.406,0,0.506-0.215,0.615-0.554l0.1-0.308L173.047,154.824z"/>
	</g>
</g>
<path fill="#006EBA" d="M104.648,70.579l-4.018,29.531l8.967,0.091c3.634,0.038,6.987-2.876,7.483-6.503l4.017-29.535l-8.973-0.093
	C108.492,64.033,105.141,66.946,104.648,70.579z M100.571,38.616c-27.945,0-40.605,12.659-40.605,40.607
	c0,27.95,12.66,40.608,40.605,40.608c27.953,0,40.61-12.658,40.61-40.608C141.182,51.275,128.524,38.616,100.571,38.616z
	 M100.571,113.813c-24.564,0-34.585-10.021-34.585-34.589c0-24.567,10.021-34.588,34.585-34.588c24.57,0,34.59,10.021,34.59,34.588
	C135.161,103.791,125.142,113.813,100.571,113.813z M92.549,56.127c-3.639-0.038-5.887,2.881-6.382,6.514l-5.072,37.262l8.964,0.094
	c3.646,0.037,6.992-2.877,7.483-6.504l5.072-37.261L92.549,56.127z"/>
<g>
	<g>
		<path fill="#004F71" d="M87.527,131.002l2.26,0.004l-0.003,3.206c0.888-1.217,1.907-2.124,3.063-2.725
			c1.153-0.6,2.44-0.898,3.86-0.896c2.478,0.002,4.598,0.894,6.359,2.676c1.76,1.784,2.64,3.927,2.638,6.433
			c-0.003,2.56-0.878,4.731-2.628,6.515c-1.748,1.785-3.854,2.676-6.32,2.674c-1.39-0.001-2.665-0.291-3.83-0.868
			c-1.163-0.58-2.213-1.44-3.154-2.586l-0.006,6.827l-2.258-0.002L87.527,131.002z M96.515,132.772
			c-1.938-0.002-3.569,0.672-4.897,2.021c-1.326,1.35-1.99,3.029-1.99,5.037c-0.002,1.318,0.292,2.504,0.881,3.557
			c0.59,1.055,1.435,1.888,2.538,2.506c1.101,0.618,2.263,0.926,3.487,0.928c1.204,0.001,2.336-0.308,3.396-0.93
			c1.057-0.62,1.904-1.489,2.53-2.604c0.629-1.116,0.946-2.284,0.947-3.507c0-1.233-0.312-2.404-0.934-3.509
			c-0.621-1.107-1.459-1.967-2.512-2.578C98.908,133.08,97.759,132.773,96.515,132.772z"/>
		<path fill="#004F71" d="M107.527,124.284l2.258,0.002l-0.008,9.892c0.908-1.197,1.91-2.09,3-2.683
			c1.092-0.593,2.272-0.889,3.545-0.887c1.308,0.001,2.464,0.334,3.473,0.997c1.01,0.663,1.756,1.552,2.236,2.668
			c0.479,1.116,0.719,2.865,0.719,5.247l-0.01,8.971l-2.258-0.004l0.006-8.313c0.002-2.007-0.076-3.348-0.236-4.021
			c-0.275-1.153-0.781-2.021-1.512-2.603c-0.73-0.585-1.688-0.876-2.874-0.877c-1.357-0.002-2.572,0.446-3.646,1.344
			c-1.075,0.895-1.783,2.004-2.128,3.329c-0.215,0.854-0.323,2.435-0.323,4.74l-0.006,6.391l-2.258-0.002L107.527,124.284z"/>
		<path fill="#004F71" d="M133.375,130.624c2.691,0.001,4.918,0.975,6.688,2.916c1.607,1.771,2.406,3.868,2.406,6.288
			c-0.002,2.432-0.855,4.555-2.555,6.37c-1.701,1.818-3.885,2.724-6.557,2.722c-2.682-0.002-4.867-0.913-6.566-2.732
			s-2.545-3.944-2.545-6.376c0.004-2.409,0.811-4.498,2.42-6.267C128.438,131.596,130.674,130.62,133.375,130.624z M133.365,132.805
			c-1.863-0.001-3.467,0.685-4.809,2.059c-1.34,1.374-2.01,3.036-2.012,4.985c0,1.258,0.303,2.431,0.914,3.518
			c0.607,1.088,1.434,1.928,2.471,2.521c1.039,0.593,2.18,0.889,3.424,0.89c1.24,0.002,2.383-0.293,3.424-0.884
			c1.037-0.591,1.863-1.429,2.475-2.516c0.609-1.086,0.92-2.258,0.92-3.516c0.002-1.949-0.67-3.612-2.012-4.989
			C136.818,133.496,135.217,132.808,133.365,132.805z"/>
		<path fill="#004F71" d="M144.295,131.055l2.258,0.002v2.549c0.689-1.003,1.42-1.75,2.186-2.236
			c0.764-0.487,1.564-0.73,2.395-0.729c0.623,0,1.295,0.199,2.004,0.595l-1.172,1.892c-0.477-0.203-0.875-0.305-1.197-0.306
			c-0.76,0-1.486,0.308-2.189,0.92c-0.705,0.613-1.24,1.565-1.609,2.856c-0.281,0.993-0.424,3-0.424,6.021l-0.006,5.893
			l-2.258-0.001L144.295,131.055z"/>
		<path fill="#004F71" d="M156.172,123.906c0.514,0.001,0.951,0.184,1.314,0.548c0.365,0.365,0.545,0.805,0.545,1.319
			c0,0.504-0.18,0.938-0.547,1.301c-0.363,0.365-0.805,0.546-1.318,0.545c-0.506,0-0.939-0.183-1.301-0.547
			c-0.365-0.364-0.545-0.798-0.545-1.303c0-0.515,0.18-0.953,0.547-1.318C155.23,124.088,155.666,123.906,156.172,123.906z
			 M155.043,131.063l2.256,0.003l-0.014,17.454l-2.258-0.002L155.043,131.063z"/>
		<path fill="#004F71" d="M177.168,131.083l-0.016,17.456l-2.258-0.002l0.002-2.999c-0.939,1.143-1.988,1.997-3.154,2.564
			c-1.166,0.566-2.441,0.851-3.824,0.849c-2.461-0.003-4.557-0.897-6.297-2.685c-1.738-1.787-2.605-3.96-2.604-6.52
			c0-2.505,0.881-4.646,2.639-6.428c1.758-1.778,3.871-2.668,6.342-2.666c1.424,0.001,2.717,0.305,3.869,0.904
			c1.156,0.602,2.168,1.512,3.041,2.73l0.002-3.207L177.168,131.083z M168.178,132.836c-1.236,0-2.379,0.304-3.43,0.914
			c-1.049,0.611-1.885,1.469-2.502,2.574c-0.619,1.104-0.932,2.272-0.934,3.506c0,1.223,0.313,2.393,0.936,3.511
			c0.621,1.115,1.461,1.986,2.514,2.608c1.053,0.623,2.184,0.934,3.391,0.935c1.217,0.001,2.371-0.305,3.463-0.92
			c1.09-0.616,1.93-1.449,2.518-2.502c0.588-1.052,0.885-2.236,0.885-3.555c0.002-2.01-0.658-3.689-1.973-5.041
			C171.727,133.515,170.107,132.837,168.178,132.836z"/>
	</g>
	<path fill="#006EBA" d="M58.967,139.889c-0.02-2.427-0.688-4.484-1.985-6.119c-1.825-2.312-4.3-3.486-7.356-3.489
		c-2.973-0.003-5.382,1.138-7.16,3.395c-1.395,1.765-2.104,3.803-2.104,6.061c-0.003,2.401,0.828,4.581,2.474,6.48
		c1.656,1.92,3.979,2.895,6.903,2.897c1.312,0.001,2.506-0.199,3.555-0.596c1.049-0.397,2.007-0.985,2.844-1.747
		c0.835-0.761,1.635-1.878,2.269-3.107l-2.638-1.417c-0.646,1.06-1.302,1.942-1.847,2.406c-0.536,0.46-1.199,0.834-1.975,1.114
		c-0.773,0.279-1.582,0.421-2.402,0.421c-1.705-0.001-3.094-0.579-4.249-1.764c-1.042-1.066-1.569-2.466-1.696-4.096
		c1.001,0.001,15.373,0.015,15.373,0.015L58.967,139.889z M43.949,137.516c0.416-1.167,0.946-2.123,1.641-2.737
		c1.136-1.008,2.457-1.498,4.043-1.498h0.006c0.95,0.001,1.87,0.204,2.733,0.604c0.858,0.397,1.554,0.925,2.073,1.568
		c0.421,0.523,0.744,1.245,1.007,2.072C54.377,137.523,45.086,137.516,43.949,137.516z M83.098,130.969
		c0,0-4.375,9.874-5.082,11.538c-0.73-1.656-5.895-11.549-5.895-11.549s-4.918,9.863-5.648,11.531
		c-0.707-1.678-5.25-11.541-5.25-11.541l-3.117-0.003l8.069,18.09l5.868-11.977l6.297,11.988l7.858-18.076L83.098,130.969z"/>
	<path fill="#0088CC" d="M22.887,130.944l4.364,0.004l-0.003,1.809c0.994-0.835,1.697-1.412,2.504-1.737
		c0.805-0.325,1.477-0.488,2.32-0.487c1.729,0.002,3.196,0.606,4.403,1.813c1.015,1.026,1.872,2.544,1.869,4.552l-0.011,11.516
		l-4.363-0.004l0.008-7.622c0.001-2.079-0.09-3.459-0.275-4.142c-0.186-0.682-0.509-1.201-0.971-1.56
		c-0.461-0.356-1.032-0.534-1.711-0.535c-0.882-0.001-1.639,0.294-2.271,0.884c-0.631,0.592-1.069,1.409-1.315,2.452
		c-0.128,0.544-0.192,1.721-0.192,3.532l-0.008,6.984l-4.364-0.004L22.887,130.944z"/>
</g>
</svg>
