<svg xmlns="http://www.w3.org/2000/svg" width="200" height="60" viewBox="0 0 200 60"><g><path fill="#ffffff" d="M100.59,26.99c-1.01,0-1.95,0.18-2.85,0.53c-0.89,0.35-2.09,1.44-2.09,1.44c-0.34,0.3-0.61,0.18-0.61-0.27v-6.25c0-0.46-0.37-0.83-0.83-0.83h-3.88c-0.45,0-0.83,0.37-0.83,0.83V42.1c0,0.45,0.37,0.83,0.83,0.83h3.88c0.45,0,0.83-0.37,0.83-0.83v-7.39c0.02-0.58,0.27-1.34,0.6-1.77c0.3-0.37,0.61-0.69,0.93-0.97c0.53-0.47,1.15-0.7,1.85-0.7c0.89,0,1.5,0.31,1.82,0.94c0.32,0.62,0.48,1.31,0.48,2.06c0,0.18,0,0.3-0.01,0.36c-0.01,0.06-0.01,0.06-0.01,0.06c0,0.07,0,0.49,0,0.95v6.47c0,0.46,0.37,0.83,0.83,0.83h3.88c0.45,0,0.83-0.37,0.83-0.83v-8.79C106.23,29.09,104.35,26.99,100.59,26.99z"/><path fill="#ffffff" d="M120.62,38.18c0.51-0.34,1.02,0.12,1.02,0.57v2.44c0,0.46-0.35,0.96-0.77,1.13c0,0-0.6,0.24-1.61,0.49c-1.01,0.26-1.98,0.38-2.9,0.38c-3.99,0-5.98-1.95-5.98-5.85v-5.42c0-0.46-0.37-0.83-0.83-0.83h-0.85c-0.45,0-0.83-0.22-0.83-0.49s0.26-0.75,0.58-1.08l6.27-6.39c0.32-0.32,0.72-0.59,0.9-0.59c0.17,0,0.31,0.37,0.31,0.83v3.04c0,0.46,0.37,0.83,0.83,0.83h3.64c0.46,0,0.83,0.37,0.83,0.83v2.19c0,0.46-0.37,0.83-0.83,0.83h-3.64c-0.45,0-0.83,0.37-0.83,0.83v3.36c0,0.46,0.01,1.2,0.03,1.65c0,0,0.01,0.23,0.08,0.59c0.07,0.36,0.27,0.66,0.61,0.9c0.33,0.24,0.84,0.36,1.52,0.36C118.94,38.8,119.85,38.64,120.62,38.18z"/><path fill="#ffffff" d="M151.54,29.92c-0.41-0.95-1.03-1.67-1.88-2.18c-0.85-0.5-1.89-0.75-3.15-0.75c-1.25,0-2.36,0.26-3.32,0.77c-0.96,0.51-1.89,1.27-2.78,2.28c-0.23-0.54-0.53-1.02-0.91-1.43s-0.8-0.73-1.27-0.97c-0.47-0.24-0.94-0.4-1.42-0.5c-0.48-0.1-0.99-0.15-1.52-0.15c-1.13,0-2.12,0.2-2.98,0.6s-1.93,1.37-1.93,1.37c-0.34,0.31-0.61,0.18-0.61-0.27v-0.59c0-0.46-0.37-0.83-0.83-0.83h-3.88c-0.45,0-0.83,0.37-0.83,0.83V42.1c0,0.45,0.37,0.83,0.83,0.83h3.88c0.46,0,0.83-0.37,0.83-0.83v-7.33c0-0.59,0.3-1.46,0.71-1.96c0.25-0.32,0.48-0.58,0.66-0.75c0.21-0.21,0.5-0.39,0.84-0.55c0.34-0.16,0.72-0.25,1.13-0.25c0.86,0,1.46,0.29,1.8,0.86c0.34,0.58,0.43,1.62,0.43,1.62c0.04,0.45,0.08,1.2,0.08,1.65v6.7c0,0.46,0.37,0.83,0.83,0.83h3.88c0.46,0,0.83-0.37,0.83-0.83v-7.33c0-0.61,0.32-1.51,0.74-2l-0.01,0c0.25-0.3,0.5-0.57,0.75-0.81c0.49-0.47,1.12-0.7,1.89-0.7c0.79,0,1.37,0.27,1.73,0.82c0.36,0.55,0.47,1.66,0.47,1.66c0.04,0.45,0.08,1.2,0.08,1.65v6.7c0,0.45,0.37,0.83,0.83,0.83h3.89c0.45,0,0.83-0.37,0.83-0.83v-8.73C152.15,32.02,151.95,30.87,151.54,29.92z"/><path fill="#ffffff" d="M154.75,36.94c0,3.9,1.99,5.85,5.98,5.85c0.65,0,1.59-0.21,2.1-0.46c0.51-0.25,0.83-0.66,0.83-1.12v-2.21c0-0.45-0.37-0.83-0.83-0.83h-0.3c-0.68,0-1.18,0.09-1.52-0.15c-0.33-0.24-0.54-0.54-0.61-0.9s-0.08-0.59-0.08-0.59c-0.01-0.45-0.03-1.2-0.03-1.65l0-12.47c0-0.46-0.37-0.83-0.83-0.83h-3.9c-0.45,0-0.83,0.37-0.83,0.83V36.94L154.75,36.94z"/><path fill="#ffffff" d="M184.4,42.8V28.09c0-0.46,0.37-0.83,0.83-0.83h3.9c0.45,0,0.83,0.37,0.83,0.83v14.92c0,3.9-1.99,5.85-5.98,5.85c-0.92,0-1.89-0.13-2.9-0.38c-1.01-0.26-1.61-0.5-1.61-0.5c-0.42-0.17-0.77-0.68-0.77-1.13V44.4c0-0.46,0.51-0.91,1.02-0.57c0.77,0.46,1.68,0.62,2.45,0.62c0.68,0,1.17-0.15,1.52-0.36C184.21,43.77,184.4,43.16,184.4,42.8z"/><path fill="#ffffff" d="M190,23.07c0,0.78-0.28,1.45-0.84,2c-0.56,0.55-1.23,0.82-2,0.82c-0.52,0-1-0.12-1.43-0.37s-0.77-0.59-1.02-1.02c-0.25-0.43-0.37-0.9-0.37-1.43c0-0.77,0.27-1.44,0.82-2c0.55-0.56,1.21-0.84,2-0.84c0.77,0,1.44,0.28,2,0.84C189.72,21.63,190,22.29,190,23.07z"/><path fill="#ffffff" d="M169.2,33.6c0.28-0.05,1.1-0.18,1.78-0.18c1.02,0,1.82,0.14,2.42,0.42c0.6,0.28,1.02,0.64,1.27,1.07c0.25,0.43,0.37,0.89,0.37,1.37c0,0.58-0.21,1.15-0.63,1.7c-0.42,0.55-1.15,0.82-2.2,0.82c-0.88,0-1.92-0.25-3.12-0.75S167.02,37,167.02,37c-0.38-0.24-0.7-0.07-0.7,0.39v3.77c1.01,0.69,2.11,1.2,3.31,1.54c1.2,0.34,2.46,0.51,3.77,0.51c1.64,0,3.03-0.32,4.18-0.96c1.14-0.64,2-1.49,2.57-2.56c0.57-1.07,0.85-2.21,0.85-3.43c0-1.18-0.29-2.27-0.87-3.27c-0.58-1-1.41-1.8-2.5-2.41c-1.09-0.61-2.35-0.91-3.79-0.91c-0.22,0-0.38,0-0.45,0.01c-0.08,0-0.21,0.01-0.38,0.03c-0.18,0.02-0.18,0.02-0.18,0.02c-0.18,0.02-0.34-0.33-0.34-0.79v-2.01c0-0.45,0.37-0.83,0.83-0.83h5.98c0.45,0,0.83-0.37,0.83-0.83v-2.84c0-0.46-0.37-0.83-0.83-0.83h-10.7c-0.45,0-0.83,0.37-0.83,0.83v10.74c0,0.36,0.29,0.62,0.66,0.6C168.59,33.76,168.89,33.65,169.2,33.6z"/></g><g><path fill="#ffffff" d="M72.83,37.62c1.7-4.71,3.12-7.98,3.05-8.55c0-0.67-0.28-1.25-0.74-1.62c0.05-0.04,0.09-0.08,0.13-0.12c0.92-0.99,0.63-2.59,0.18-3.82c0.13-0.54,0.1-0.96,0.06-1.4c-0.02-0.25-0.04-0.53-0.04-0.92c0-0.1,0-0.19-0.01-0.29c0-0.1-0.02-0.2-0.05-0.3c-0.11-0.5-0.42-1.12-1.2-1.53c0.07-0.2,0.13-0.38,0.17-0.56c0.18-0.42,0.28-0.72,0.34-0.99c0.19-0.94,0-1.82-0.53-2.45c-0.1-0.29-0.3-0.67-0.68-1.02c-0.24-0.53-0.43-0.96-0.55-1.27c-0.2-0.5-0.76-0.74-1.26-0.54c-0.5,0.2-0.74,0.76-0.54,1.26c0.15,0.37,0.38,0.89,0.67,1.54c0.06,0.14,0.16,0.26,0.28,0.36c0.21,0.17,0.24,0.31,0.24,0.32c0.04,0.21,0.14,0.4,0.29,0.54c0.18,0.17,0.24,0.48,0.16,0.87c-0.03,0.14-0.11,0.36-0.25,0.69c-0.02,0.05-0.04,0.11-0.05,0.16c-0.05,0.22-0.14,0.48-0.27,0.78c-0.08,0.2-0.1,0.43-0.04,0.64l0.18,0.61c0.09,0.32,0.34,0.57,0.66,0.66c0.43,0.13,0.46,0.27,0.48,0.36c0,0.01,0,0.01,0,0.02c0,0.01,0,0.02,0,0.02c0,0.03,0.01,0.07,0.01,0.1c0,0.46,0.03,0.81,0.04,1.07c0.03,0.44,0.04,0.62-0.05,0.93c-0.04,0.15-0.05,0.3-0.03,0.45c0,0.13,0.02,0.27,0.07,0.39c0.31,0.79,0.39,1.4,0.36,1.73c-0.19-0.04-0.05,0.62-0.09,0.6c-0.29-0.15-0.07,0-0.7-0.05c-0.41-0.03-0.51-0.04-0.75,0.1c-0.73,0.44-1.4,3.19-0.7,2.71c0.66-0.45,1.7-1.04,1.92-0.75c0.22,0.29-0.04,0.72,0.39,0.56c-0.05,0.1-0.21,0.32-0.28,0.47c-0.93,1.91-1.84,4.09-1.51,5.69c0.05,0.23,0.09,0.96-0.31,1.54c-0.26,0.39-0.84,1-1.39,1.1L72.83,37.62z"/><path fill="#ffffff" d="M73.84,23.52c-0.1-0.24-0.23-0.49-0.43-0.71c-0.1-0.11-0.22-0.2-0.32-0.27l-0.13-0.09l-0.02-0.02c0,0,0,0-0.01,0c0,0.01-0.04-0.05-0.04-0.04c-0.09-0.11-0.17-0.2-0.26-0.29c-0.09-0.09-0.17-0.17-0.26-0.25s-0.18-0.16-0.28-0.24c-0.08-0.06-0.15-0.12-0.25-0.17c-0.06-0.15-0.16-0.29-0.28-0.38c-0.15-0.13-0.31-0.2-0.46-0.26c-0.16-0.06-0.31-0.1-0.44-0.15c-0.05-0.02-0.1-0.04-0.14-0.05c0.04-0.04,0.07-0.07,0.1-0.11c0.08-0.1,0.15-0.21,0.21-0.32c0.13-0.22,0.23-0.43,0.33-0.65l0.29-0.66c0.09-0.22,0.19-0.44,0.3-0.63c0.13-0.19,0.27-0.38,0.44-0.53c0.08-0.07,0.19-0.13,0.26-0.11c0.07,0.02,0.09,0.16,0.09,0.27c0,0.23-0.06,0.46-0.12,0.69c-0.06,0.23-0.14,0.45-0.23,0.68c0.1-0.22,0.2-0.44,0.28-0.66c0.08-0.23,0.15-0.46,0.17-0.7c0-0.06,0-0.13-0.01-0.19c-0.01-0.06-0.04-0.14-0.12-0.18c-0.08-0.04-0.16-0.02-0.22,0.01c-0.06,0.02-0.12,0.06-0.17,0.1c-0.2,0.15-0.36,0.34-0.51,0.53c-0.15,0.21-0.25,0.42-0.36,0.64l-0.33,0.64c-0.11,0.21-0.23,0.41-0.35,0.6c-0.06,0.09-0.13,0.18-0.2,0.26c-0.07,0.08-0.15,0.14-0.22,0.18l0,0c-0.09,0.04-0.13,0.15-0.09,0.25l0,0c0.06,0.14,0.16,0.2,0.24,0.25c0.08,0.05,0.16,0.08,0.23,0.11c0.15,0.06,0.28,0.12,0.41,0.18c0.12,0.06,0.24,0.13,0.31,0.21c0.08,0.08,0.12,0.16,0.13,0.26c0.01,0.06,0.05,0.12,0.11,0.16l0.04,0.02c0.05,0.03,0.14,0.1,0.21,0.18c0.08,0.07,0.15,0.15,0.23,0.23c0.08,0.08,0.15,0.17,0.22,0.25c0.07,0.08,0.14,0.17,0.19,0.25c0.04,0.05,0.03,0.04,0.07,0.09l0.05,0.06l0.04,0.04c0.06,0.05,0.11,0.09,0.15,0.13c0.08,0.07,0.14,0.13,0.19,0.19c0.1,0.13,0.18,0.31,0.24,0.51l0,0c0,0.01,0.01,0.02,0.01,0.03c0.08,0.2,0.31,0.29,0.51,0.21S73.93,23.71,73.84,23.52z"/><path fill="#ffffff" d="M68.02,18.97c0,0,0.38-0.96,0.31-1.28c-0.06-0.32-1.59-1.26-2.08-2c-0.48-0.74-1.04-2.73-1.89-2.97c-0.84-0.24-2.15,0.06-2.71,1.37c0.84-0.12,2.38-0.25,2.91,0.71C65.1,15.76,66.23,17.55,68.02,18.97z"/><path fill="#ffffff" d="M70.06,18.39c0,0-0.33-0.62-0.2-0.92c0.13-0.31,0.67-0.53,0.76-0.78c0.09-0.25,0.63-2.17,1.19-1.78c0.56,0.39,0.58,0.83,0.58,0.83c-0.26-0.03-0.78,0.3-0.97,0.58C71.16,16.71,70.42,17.57,70.06,18.39z"/><path fill="#ffffff" d="M66.38,19.26c0.22,0.41,0.04,1.55,0.27,1.73l0.95,0.22v-0.99L66.38,19.26z"/><path fill="#ffffff" d="M72.6,26.3c-0.09-0.05-0.18-0.1-0.27-0.16c-0.09-0.06-0.18-0.12-0.26-0.18c-0.17-0.13-0.32-0.27-0.47-0.42c-0.15-0.14-0.29-0.29-0.45-0.36c-0.04-0.02-0.08-0.03-0.12-0.04c-0.04-0.02-0.08-0.01-0.12-0.02c-0.04,0-0.09,0-0.13,0l-0.13,0.02c-0.09,0.01-0.17-0.05-0.19-0.14l0-0.01l0-0.03c-0.01-0.11,0-0.22-0.02-0.32c-0.01-0.1-0.05-0.2-0.09-0.28c-0.03-0.04-0.04-0.08-0.07-0.12c-0.03-0.03-0.05-0.07-0.09-0.1c-0.07-0.05-0.14-0.1-0.23-0.12c-0.04-0.02-0.09-0.03-0.13-0.03c-0.04-0.01-0.09-0.01-0.14-0.01c-0.1,0-0.19,0.01-0.29,0.03c-0.1,0.02-0.19,0.05-0.28,0.09c-0.04,0.02-0.09,0.04-0.13,0.07l-0.06,0.04l-0.06,0.03l-0.04,0.02c-0.03,0.02-0.05,0.03-0.08,0.04c-0.05,0.02-0.09,0.03-0.14,0.05c-0.05,0.02-0.09,0.02-0.14,0.02c-0.04,0-0.09,0.01-0.13,0.01c-0.17-0.01-0.34-0.07-0.49-0.17c-0.07-0.05-0.13-0.11-0.19-0.17c-0.05-0.07-0.11-0.13-0.14-0.2c-0.08-0.14-0.13-0.3-0.15-0.45c-0.03-0.15-0.02-0.3,0-0.44l0.04-0.21c0.01-0.07,0.04-0.13,0.06-0.2c0.04-0.14,0.1-0.25,0.15-0.38c0.06-0.12,0.13-0.23,0.19-0.34l0.11,0.54c0,0.01,0.01,0.01,0.01,0.01l-0.02,0c-0.01,0-0.05-0.01-0.08-0.01c-0.06-0.01-0.13-0.01-0.2-0.01c-0.14,0-0.29,0-0.44,0.02c-0.15,0.01-0.3,0.04-0.45,0.06c-0.15,0.03-0.3,0.06-0.45,0.09c-0.15,0.03-0.29,0.07-0.44,0.11l-0.44,0.13c-0.14,0.05-0.29,0.1-0.43,0.15c-0.14,0.05-0.28,0.11-0.42,0.17c-0.14,0.06-0.27,0.12-0.41,0.19c-0.13,0.07-0.26,0.14-0.39,0.22c-0.13,0.07-0.26,0.16-0.38,0.24c-0.12,0.09-0.24,0.18-0.36,0.27c-0.11,0.1-0.23,0.2-0.34,0.31c-0.11,0.1-0.21,0.22-0.32,0.34c-0.1,0.12-0.2,0.24-0.29,0.37c-0.1,0.13-0.18,0.26-0.27,0.4l0,0c-0.01,0.02-0.04,0.03-0.07,0.01c-0.02-0.01-0.02-0.03-0.02-0.05c0.03-0.16,0.06-0.33,0.11-0.49c0.04-0.16,0.11-0.32,0.18-0.48c0.08-0.15,0.15-0.31,0.25-0.45c0.09-0.15,0.19-0.28,0.3-0.42c0.11-0.13,0.22-0.27,0.35-0.38c0.12-0.12,0.26-0.24,0.39-0.35c0.13-0.11,0.28-0.21,0.42-0.3c0.15-0.09,0.29-0.18,0.45-0.26c0.15-0.08,0.31-0.15,0.47-0.22c0.16-0.07,0.32-0.13,0.48-0.18c0.16-0.05,0.33-0.1,0.5-0.14c0.17-0.04,0.34-0.07,0.51-0.1c0.34-0.05,0.68-0.08,1.03-0.08c0.17,0,0.35,0,0.53,0.02c0.09,0.01,0.18,0.02,0.28,0.04c0.05,0.01,0.1,0.02,0.16,0.04c0.03,0.01,0.06,0.02,0.09,0.03c0.04,0.02,0.08,0.04,0.12,0.06c0.18,0.1,0.24,0.33,0.13,0.5l-0.01,0.01l-0.01,0.02c-0.06,0.09-0.12,0.17-0.17,0.26c-0.04,0.09-0.1,0.18-0.13,0.27c-0.02,0.05-0.04,0.09-0.05,0.14l-0.03,0.14c-0.01,0.09-0.03,0.18-0.02,0.26c0,0.08,0.02,0.16,0.05,0.22c0.01,0.04,0.04,0.06,0.05,0.09c0.02,0.02,0.04,0.05,0.07,0.07c0.05,0.04,0.11,0.06,0.17,0.08c0.03,0,0.07,0.01,0.08,0c0.01,0,0.02,0,0.03,0c0.02,0,0.05-0.02,0.08-0.03l0.04-0.02l0.01,0c0.01,0-0.05,0.03-0.02,0.01l0,0l0,0l0.01,0l0.02-0.01l0.09-0.05c0.06-0.03,0.13-0.06,0.19-0.08c0.13-0.04,0.26-0.08,0.4-0.1c0.13-0.02,0.27-0.02,0.41-0.01c0.07,0.01,0.14,0.01,0.21,0.03l0.1,0.03l0.1,0.04c0.13,0.05,0.26,0.14,0.36,0.25c0.06,0.05,0.09,0.12,0.14,0.17c0.04,0.06,0.06,0.13,0.09,0.19c0.05,0.13,0.08,0.27,0.08,0.4c0.02,0.13,0,0.26-0.01,0.38l-0.19-0.18l0.17-0.01c0.06,0,0.12,0.01,0.18,0.01c0.06,0.02,0.12,0.02,0.18,0.05c0.06,0.02,0.11,0.04,0.16,0.08c0.1,0.06,0.19,0.14,0.27,0.21c0.08,0.08,0.15,0.16,0.21,0.24c0.14,0.16,0.27,0.31,0.42,0.45c0.08,0.07,0.15,0.14,0.23,0.2c0.08,0.06,0.17,0.12,0.25,0.18l0,0c0.02,0.02,0.03,0.04,0.01,0.07C72.65,26.31,72.62,26.31,72.6,26.3z"/><path fill="#ffffff" d="M60.93,29.07c-0.03,0.08-0.04,0.16-0.05,0.24c-0.01,0.08,0,0.16,0.01,0.24c0.01,0.16,0.04,0.31,0.07,0.47c0.06,0.31,0.14,0.62,0.22,0.92c0.08,0.31,0.17,0.61,0.26,0.91c0.04,0.15,0.09,0.3,0.14,0.44c0.02,0.07,0.05,0.14,0.08,0.2c0.01,0.03,0.02,0.06,0.03,0.08c0,0,0.01,0.02,0,0.01c0-0.01,0,0-0.01-0.01c-0.02-0.02-0.04-0.04-0.07-0.04l-0.43,0.07c0.05-0.04,0.1-0.08,0.15-0.12c0.05-0.04,0.1-0.08,0.15-0.11c0.1-0.06,0.2-0.12,0.31-0.17c0.1-0.05,0.21-0.09,0.31-0.14c0.1-0.04,0.21-0.08,0.31-0.11c0.11-0.04,0.21-0.06,0.32-0.09c0.11-0.03,0.21-0.05,0.32-0.07c0.11-0.02,0.22-0.04,0.33-0.05c0.11-0.02,0.22-0.02,0.33-0.03c-0.18,0.13-0.36,0.25-0.54,0.37l-0.27,0.18c-0.09,0.06-0.18,0.11-0.26,0.17l-0.26,0.17c-0.08,0.06-0.16,0.12-0.25,0.17c-0.08,0.06-0.15,0.12-0.23,0.18c-0.04,0.03-0.06,0.06-0.1,0.09c-0.03,0.03-0.06,0.06-0.09,0.09l-0.03,0.03c-0.11,0.1-0.27,0.11-0.4,0.05c-0.04-0.02-0.08-0.05-0.12-0.08c-0.03-0.03-0.04-0.04-0.05-0.06c-0.04-0.04-0.05-0.06-0.07-0.09c-0.03-0.05-0.06-0.1-0.08-0.14c-0.05-0.09-0.08-0.17-0.11-0.26c-0.06-0.17-0.11-0.33-0.16-0.5c-0.08-0.33-0.15-0.67-0.18-1c-0.03-0.34-0.04-0.68,0.01-1.03c0.02-0.17,0.06-0.34,0.12-0.51c0.03-0.08,0.07-0.17,0.11-0.24C60.79,29.19,60.86,29.12,60.93,29.07z"/><path fill="#ffffff" d="M64.16,25.34c0.06-0.04,0.29-0.17,0.35-0.21c2.53-1.42,5.81-0.72,7.93,0.62c0.15,0.09,0.2,0.29,0.1,0.44c-0.09,0.15-0.29,0.2-0.44,0.1c-1.96-1.23-4.97-1.9-7.27-0.6L64.16,25.34z"/><path fill="#ffffff" d="M67.24,21.38c-1.69,0-2.62-0.69-3.19-1.11c-0.12-0.09-0.22-0.16-0.3-0.22c-0.18-0.11-0.24-0.35-0.12-0.54c0.11-0.18,0.35-0.24,0.54-0.12c0.11,0.07,0.23,0.16,0.36,0.25c0.6,0.44,1.41,1.05,3.07,0.95c0.22-0.01,0.4,0.15,0.41,0.37c0.01,0.21-0.15,0.4-0.36,0.41C67.49,21.38,67.36,21.38,67.24,21.38z"/><path fill="#ffffff" d="M71.15,21.46c-0.2,0-0.37-0.15-0.39-0.36c-0.02-0.21,0.14-0.4,0.36-0.42c0.21-0.02,0.57-0.16,1.12-0.74c0.15-0.16,0.39-0.16,0.55-0.01c0.16,0.15,0.16,0.39,0.01,0.55c-0.58,0.61-1.11,0.93-1.62,0.98C71.17,21.46,71.16,21.46,71.15,21.46z"/><path fill="#ffffff" d="M70.95,19.62c0,0.28-0.01,1.23-0.09,1.37s-0.13,0.05-0.13,0.05L70.3,20.5L70.95,19.62z"/><path fill="#ffffff" d="M67.44,14.99c0,0,0.06,0.04,0.15,0.12c0.09,0.08,0.22,0.22,0.35,0.38c0.13,0.16,0.29,0.36,0.43,0.58c0.15,0.22,0.29,0.46,0.43,0.71c0.14,0.25,0.3,0.48,0.4,0.73c0.05,0.13,0.08,0.25,0.1,0.37c0.02,0.12,0.04,0.24,0.04,0.35c0,0.11,0,0.22-0.02,0.31c-0.01,0.05-0.01,0.09-0.02,0.13c-0.01,0.04-0.02,0.08-0.03,0.12c-0.02,0.06-0.05,0.13-0.08,0.16C69.18,18.99,69.17,19,69.17,19c-0.01,0.02-0.04,0.02-0.06,0.01c0,0-0.01-0.01-0.01-0.01l-0.01-0.02c0,0-0.01-0.02-0.02-0.05c-0.02-0.03-0.03-0.06-0.07-0.12c-0.03-0.05-0.07-0.11-0.11-0.18c-0.04-0.07-0.09-0.15-0.14-0.23c-0.1-0.17-0.21-0.38-0.29-0.61c-0.08-0.23-0.12-0.51-0.21-0.76c-0.08-0.26-0.18-0.51-0.27-0.75c-0.09-0.24-0.18-0.46-0.26-0.64c-0.04-0.09-0.08-0.17-0.12-0.25c-0.04-0.07-0.07-0.13-0.1-0.18c-0.07-0.1-0.11-0.16-0.11-0.16c-0.01-0.02-0.01-0.04,0.01-0.05C67.41,14.98,67.43,14.98,67.44,14.99z"/><path fill="#ffffff" d="M69.84,18.49c0,0-0.04-0.06-0.08-0.17c-0.04-0.11-0.08-0.26-0.12-0.43c-0.03-0.17-0.05-0.37-0.03-0.56c0.01-0.1,0.03-0.2,0.05-0.3c0.02-0.1,0.04-0.21,0.04-0.31c0-0.1,0.01-0.21,0-0.31c0-0.1-0.01-0.21-0.02-0.3c0-0.1-0.03-0.19-0.04-0.29c-0.02-0.09-0.04-0.18-0.06-0.26c-0.02-0.08-0.05-0.15-0.07-0.21c-0.02-0.07-0.05-0.12-0.06-0.17c-0.04-0.09-0.06-0.15-0.06-0.15l0,0c-0.01-0.02,0-0.04,0.02-0.05c0.02-0.01,0.03,0,0.04,0.01c0,0,0.04,0.04,0.11,0.12c0.03,0.04,0.08,0.08,0.12,0.14c0.04,0.06,0.09,0.12,0.14,0.19c0.05,0.08,0.1,0.16,0.15,0.25c0.05,0.09,0.1,0.19,0.14,0.3c0.04,0.11,0.09,0.22,0.12,0.33c0.04,0.12,0.06,0.24,0.08,0.36c0.02,0.12,0.04,0.24,0.06,0.36c0.02,0.12,0.03,0.24,0.03,0.35c-0.01,0.23-0.09,0.42-0.16,0.59c-0.08,0.16-0.16,0.29-0.23,0.38c-0.07,0.09-0.12,0.14-0.12,0.14C69.9,18.52,69.87,18.52,69.84,18.49C69.85,18.5,69.84,18.5,69.84,18.49z"/><path fill="#ffffff" d="M60.35,25.57c0,0,0.02,0.05,0.03,0.13c0,0.04,0.04,0.08,0.05,0.11c0.01,0.03,0.06,0.07,0.08,0.1c0.04,0.03,0.06,0.06,0.1,0.09c0.03,0.03,0.07,0.05,0.11,0.08c0.04,0.02,0.08,0.05,0.12,0.07c0.04,0.03,0.09,0.05,0.13,0.07c0.05,0.02,0.09,0.05,0.14,0.07c0.02,0.01,0.05,0.02,0.07,0.03c0.02,0.01,0.05,0.02,0.07,0.03c0.05,0.02,0.1,0.04,0.15,0.06c0.05,0.02,0.1,0.03,0.15,0.05c0.05,0.01,0.1,0.03,0.15,0.04c0.05,0.01,0.09,0.02,0.12,0.03c0.07,0.02,0.12,0.03,0.12,0.03s-0.02,0.04-0.07,0.11c-0.02,0.03-0.05,0.08-0.1,0.11c-0.04,0.04-0.09,0.08-0.15,0.12c-0.06,0.03-0.13,0.06-0.21,0.09c-0.08,0.02-0.17,0.04-0.26,0.04c-0.09,0-0.19,0-0.28-0.03c-0.1-0.02-0.19-0.06-0.28-0.1c-0.08-0.05-0.17-0.1-0.24-0.18c-0.08-0.06-0.13-0.15-0.19-0.23c-0.05-0.09-0.08-0.17-0.1-0.27c-0.02-0.09-0.02-0.18-0.01-0.26c0.02-0.08,0.03-0.15,0.07-0.21c0.03-0.06,0.07-0.11,0.1-0.12C60.3,25.59,60.35,25.57,60.35,25.57z"/><path fill="#ffffff" d="M65.63,21.83c0,0-0.01,0-0.04,0.01c-0.03,0.01-0.06,0.02-0.11,0.02c-0.05,0.01-0.11,0.01-0.17,0.01c-0.06,0-0.14,0-0.21-0.01c-0.08-0.01-0.16-0.02-0.25-0.04c-0.09-0.02-0.17-0.05-0.27-0.08c-0.09-0.04-0.18-0.08-0.27-0.13c-0.09-0.05-0.18-0.1-0.27-0.15c-0.18-0.1-0.36-0.2-0.52-0.31c-0.08-0.06-0.16-0.1-0.23-0.16c-0.07-0.05-0.14-0.1-0.19-0.16c-0.06-0.05-0.11-0.1-0.16-0.14c-0.04-0.04-0.08-0.08-0.11-0.12c-0.06-0.07-0.09-0.11-0.09-0.11c-0.01-0.01-0.01-0.02,0-0.03c0.01-0.01,0.02-0.01,0.03,0l0,0c0,0,0.04,0.03,0.11,0.08c0.03,0.03,0.08,0.05,0.13,0.09c0.05,0.03,0.11,0.07,0.17,0.1c0.13,0.07,0.28,0.14,0.45,0.22c0.17,0.07,0.35,0.15,0.53,0.21c0.09,0.03,0.19,0.06,0.28,0.09c0.09,0.03,0.18,0.05,0.27,0.08c0.17,0.06,0.32,0.14,0.46,0.21c0.07,0.04,0.13,0.07,0.18,0.1c0.05,0.03,0.1,0.06,0.14,0.08c0.08,0.05,0.13,0.08,0.13,0.08c0.01,0.01,0.01,0.02,0.01,0.03C65.64,21.82,65.63,21.83,65.63,21.83z"/><path fill="#ffffff" d="M71.49,21.7c-0.14,0-0.27-0.07-0.34-0.2c-0.1-0.19-0.04-0.43,0.15-0.53c0.29-0.16,1.71-0.92,2.47-0.22c-0.03,0.12-0.04,0.43,0.07,0.55c-0.15,0.16-0.39,0.17-0.55,0.02c-0.25-0.23-1.11,0.05-1.62,0.33C71.62,21.69,71.55,21.7,71.49,21.7z"/><path fill="#ffffff" d="M55.11,21.99c0,0,0,0.02,0,0.05c0,0.03,0,0.08-0.01,0.15c-0.02,0.13-0.05,0.33-0.13,0.56c-0.07,0.24-0.17,0.52-0.28,0.84c-0.11,0.32-0.23,0.68-0.33,1.06c-0.1,0.38-0.18,0.8-0.18,1.21c0,0.41,0.11,0.79,0.34,1.11c0.02,0.04,0.06,0.08,0.09,0.12c0.01,0.02,0.04,0.04,0.04,0.05l0.07,0.07c0.09,0.11,0.16,0.17,0.25,0.26c0.17,0.17,0.36,0.33,0.56,0.49c0.39,0.31,0.82,0.59,1.26,0.79c0.22,0.1,0.44,0.18,0.65,0.23c0.21,0.04,0.4,0.06,0.52,0.02c0.12-0.03,0.18-0.07,0.26-0.2c0.08-0.12,0.13-0.31,0.15-0.52l0.02-0.16l0-0.17c0-0.11,0-0.25,0-0.37c0-0.25,0-0.49,0-0.73c0.01-0.48,0.02-0.93,0.04-1.35c0.02-0.42,0.06-0.81,0.09-1.15c0.02-0.17,0.04-0.33,0.06-0.48c0.02-0.15,0.06-0.28,0.08-0.41c0.02-0.12,0.06-0.23,0.09-0.32c0.03-0.09,0.06-0.17,0.09-0.23c0.06-0.12,0.09-0.18,0.09-0.18s-0.01,0.07-0.02,0.2c-0.01,0.06-0.01,0.14-0.01,0.24c0,0.09,0,0.2,0.01,0.32c0.01,0.24,0.05,0.53,0.09,0.86c0.05,0.33,0.1,0.71,0.16,1.12c0.05,0.41,0.11,0.85,0.18,1.33c0.03,0.24,0.06,0.48,0.09,0.73c0.01,0.13,0.03,0.24,0.04,0.39l0.01,0.22l0,0.23c-0.01,0.31-0.05,0.64-0.23,1c-0.08,0.18-0.22,0.35-0.38,0.5c-0.17,0.14-0.37,0.25-0.57,0.31c-0.41,0.12-0.78,0.09-1.11,0.03c-0.33-0.07-0.63-0.18-0.92-0.31c-0.56-0.27-1.06-0.6-1.51-0.99c-0.23-0.19-0.43-0.39-0.63-0.61c-0.09-0.1-0.21-0.24-0.28-0.33l-0.06-0.08c-0.03-0.04-0.05-0.07-0.08-0.1c-0.04-0.07-0.09-0.13-0.13-0.2c-0.34-0.56-0.41-1.22-0.34-1.75c0.07-0.54,0.25-1,0.43-1.39c0.19-0.4,0.39-0.73,0.58-1.02c0.18-0.29,0.35-0.53,0.48-0.73c0.13-0.2,0.23-0.36,0.28-0.48c0.03-0.06,0.05-0.1,0.06-0.14C55.11,22.01,55.11,21.99,55.11,21.99z"/><path fill="#ffffff" d="M58.06,33.35c-0.11-0.04-7.62,2.61-9.52,14.88l-0.03,0.2l0.19,0.05c1.64,0.39,4.31,6.23,5.2,8.44l0.08,0.2l0.2-0.08c2.82-1.12,1.83-5.08,1.03-8.27c-0.31-1.23-0.6-2.4-0.58-3.11c0.09-2.78,1.6-4.85,4.51-6.16l0.45-0.2L58.06,33.35z"/><path fill="#ffffff" d="M65.08,31.28c0,0,0.08-0.07,0.24-0.16c0.16-0.1,0.39-0.22,0.67-0.35c0.57-0.25,1.38-0.48,2.22-0.54c0.21-0.02,0.42-0.02,0.63-0.02c0.1,0,0.21,0.01,0.31,0.02c0.1,0,0.2,0.01,0.3,0.03c0.2,0.02,0.39,0.06,0.56,0.11c0.18,0.04,0.34,0.1,0.49,0.15c0.15,0.05,0.28,0.12,0.4,0.18c0.06,0.03,0.11,0.06,0.16,0.08c0.05,0.03,0.09,0.06,0.13,0.09c0.15,0.11,0.23,0.17,0.23,0.17s-0.11-0.01-0.29-0.03C71.08,31.01,71.04,31,70.98,31c-0.05,0-0.11-0.01-0.17-0.01c-0.12-0.01-0.26-0.02-0.4-0.03c-0.15-0.01-0.3-0.02-0.47-0.01c-0.17-0.01-0.34,0-0.52,0c-0.18,0-0.37,0.02-0.56,0.02c-0.19,0.02-0.38,0.02-0.58,0.04c-0.19,0.01-0.39,0.03-0.58,0.05c-0.19,0.02-0.38,0.04-0.57,0.05c-0.37,0.04-0.72,0.07-1.02,0.1c-0.3,0.03-0.55,0.05-0.74,0.06C65.19,31.28,65.08,31.28,65.08,31.28z"/><path fill="#ffffff" d="M55.21,57.56c-0.19-0.13,2.14-2.48,2.16-2.71c0.3-2.71,0.43-4.53,0.28-6.38c-0.31-3.69,0.81-10.96,2.32-13.63c0.08-0.15,0.26-0.12,0.43-0.16c0.17-0.04,0.92,0.12,1.06,0.22l1.99,0.9c0.23,0.16,0.6,0.33,0.51,0.59c-2.95,8.64-3.47,12.72-2.9,17.14c0.03,0.26-0.1,0.51-0.33,0.63C60.74,54.17,57.83,55.58,55.21,57.56z"/><path fill="#ffffff" d="M67.95,19.25c0,0,0.02,0.18,0.05,0.49c0.01,0.08,0.02,0.16,0.03,0.26c0,0.05,0.01,0.1,0.01,0.15c0,0.03,0,0.05,0.01,0.08l0,0.02l0,0.01l0,0c0-0.01-0.01,0.07-0.01,0.04l0,0c0,0.01,0.01,0.01-0.03,0.05c-0.01,0.02-0.03,0.03-0.05,0.03l-0.02,0.01c-0.1,0.02-0.15,0-0.21-0.01c-0.06-0.01-0.12-0.03-0.18-0.04c-0.03-0.01-0.06-0.02-0.09-0.03l-0.02-0.01c-0.03-0.01-0.02-0.01-0.03-0.02l-0.04-0.02c-0.06-0.02-0.12-0.08-0.19-0.12c-0.23-0.17-0.45-0.34-0.69-0.54c-0.24-0.2-0.48-0.41-0.73-0.63c-0.5-0.44-1.02-0.93-1.53-1.44c-0.26-0.25-0.51-0.51-0.76-0.77c-0.12-0.13-0.25-0.26-0.36-0.4c-0.06-0.07-0.12-0.14-0.17-0.22c-0.05-0.07-0.11-0.16-0.14-0.19c-0.03-0.05-0.07-0.09-0.1-0.11c-0.02-0.02-0.03-0.01,0.05-0.01c0.04,0,0.08-0.02,0.09-0.04c0.02-0.01,0.02-0.02,0.01-0.01c-0.01,0.01-0.04,0.06-0.06,0.1c-0.04,0.1-0.08,0.23-0.1,0.36c-0.03,0.13-0.05,0.26-0.07,0.38c-0.04,0.25-0.07,0.49-0.09,0.71c-0.03,0.22-0.05,0.4-0.07,0.56c-0.04,0.31-0.07,0.49-0.07,0.49c0,0.02-0.02,0.04-0.05,0.03c-0.02,0-0.03-0.01-0.03-0.03c0,0-0.01-0.04-0.04-0.13c-0.02-0.08-0.06-0.2-0.09-0.36c-0.04-0.15-0.08-0.34-0.11-0.56c-0.03-0.22-0.07-0.47-0.08-0.75c-0.01-0.28-0.02-0.58,0.08-0.95c0.03-0.1,0.06-0.2,0.14-0.32c0.04-0.06,0.1-0.12,0.18-0.18c0.09-0.06,0.2-0.11,0.32-0.11c0.24-0.01,0.38,0.09,0.49,0.17c0.1,0.08,0.18,0.17,0.24,0.25c0.08,0.11,0.11,0.16,0.15,0.22c0.04,0.06,0.08,0.13,0.13,0.19c0.09,0.13,0.19,0.27,0.29,0.41c0.2,0.27,0.43,0.54,0.66,0.81c0.46,0.53,0.94,1.05,1.39,1.54c0.23,0.24,0.45,0.47,0.66,0.69c0.21,0.22,0.42,0.42,0.6,0.59c0.05,0.04,0.08,0.08,0.13,0.11l0.04,0.03c0,0,0.02,0.01,0.01,0.01l0.02,0.01l0.08,0.03c0.05,0.02,0.11,0.04,0.16,0.05c0.05,0.02,0.11,0.03,0.12,0.03c0,0,0,0,0,0c-0.01,0-0.02,0.01-0.03,0.02c-0.01,0.01-0.01,0.03-0.01,0.03l0-0.01l0,0c0-0.03-0.01,0.04,0,0.03v0v-0.01v-0.02c0-0.03,0-0.05,0-0.08c0-0.05,0-0.1,0-0.15c0-0.09,0-0.18,0-0.26c0-0.31,0.01-0.49,0.01-0.49c0-0.02,0.02-0.04,0.04-0.04C67.93,19.21,67.95,19.22,67.95,19.25L67.95,19.25L67.95,19.25z"/><path fill="#ffffff" d="M72.8,9.29c-1.25-2.38-3.44-5.01-10.2-6.52c-0.45-0.1-0.91-0.17-1.38-0.23c-0.92-1.4-3.32-2.27-5.27-1.77l0,0c0,0,0,0,0,0c0,0.35,0.01,0.85-0.4,1.28c-0.32,0.33-0.9,0.63-1.94,0.78c-0.83,0.12-1.76,0.71-2.57,1.55c-1.52,1.57-2.66,4.02-2.1,6.05c0.29,0.76,0.78,1.13,1.1,0.87c0.07-0.06,0.14-0.16,0.19-0.29c0.17-0.44,0.29-0.81,0.48-1.02c0.01-0.01,0.02-0.02,0.03-0.02c0.02,0.02,0.04,0.04,0.07,0.05l0.11,0.07c0.59,0.36,1.2,0.72,1.75,0.85c0,0,0,0,0,0c0,0,0.01,0,0.01,0c-0.16,0.72-0.41,2.18-0.21,3.53c0.27,1.76,0.91,3.68,1.69,5.01c0.13,0.23,0.1,0.38,0.07,0.48c-0.16,0.45-0.91,0.81-1.15,0.91c-0.13,0.05-0.22,0.16-0.25,0.29l-0.35,1.79c-0.03,0.15,0.03,0.31,0.16,0.4c0.13,0.09,0.29,0.09,0.43,0.01c0.92-0.56,2.06-1.27,2.22-1.42c0.23-0.23,0.7-1.23,0.58-2.13c0.04-1.79,0.71-2.78,1.88-2.78c0.55,0,1.04,0.23,1.17,0.4c0.55,0.68,0.72,0.94,0.58,1.88c-0.07,0.47-0.21,1.11-0.34,1.72c-0.38,1.79-0.4,2.02-0.22,2.24c0.07,0.09,0.2,0.15,0.32,0.15c0.64,0,1.71-1.58,2.52-5.06c0.69-2.96,0.32-5.9,0.11-7.48c-0.02-0.12-0.03-0.25-0.05-0.36c1.47,0.75,4.84,2.36,6.45,2.89c0.36,0.12,0.78,0.18,1.23,0.18c1.13,0,2.69-0.41,3.39-1.58C73.23,11.49,73.48,10.58,72.8,9.29z"/><path fill="#ffffff" d="M42.21,49.83c0.02,0,0.04,0.01,0.07,0.01c0.08,0,0.15-0.03,0.21-0.08c0.08-0.07,0.12-0.17,0.11-0.27c0-0.03-0.24-3.27,1.6-6.64c0.49-0.9,1.07-1.94,1.68-3.05c1.8-3.26,3.84-6.96,4.92-9.21c1.46-3.04,2.37-6.41,2.49-9.26c0-0.11-0.05-0.22-0.14-0.28s-0.21-0.07-0.32-0.02c-0.1,0.05-1.03,0.5-1.36,0.8c-0.04,0.04-0.08,0.09-0.09,0.15c-0.6,2-2.88,7.85-4.65,11.01c-0.42,0.75-1,1.74-1.64,2.82c-0.09,0.6-0.21,1.21-0.34,1.83c1.04-1.74,1.99-3.37,2.54-4.34c1.77-3.15,4.03-8.94,4.68-11.05c0.15-0.11,0.4-0.26,0.65-0.39c-0.21,2.61-1.08,5.73-2.39,8.45c-1.07,2.22-3.11,5.92-4.9,9.17c-0.61,1.11-1.19,2.15-1.68,3.05c-1.55,2.85-1.7,5.55-1.69,6.58L42.21,49.83z"/><path fill="#ffffff" d="M63.98,19.93c-0.01,0-0.02,0-0.03,0c-0.08-0.02-0.14-0.1-0.12-0.18c0.04-0.22-0.04-2.27-0.64-3.33c-0.04-0.08-0.02-0.17,0.06-0.21s0.17-0.02,0.21,0.06c0.65,1.16,0.73,3.27,0.67,3.54C64.11,19.88,64.05,19.93,63.98,19.93z"/><path fill="#ffffff" d="M65.24,23.46c0.04-0.02,0.09-0.04,0.13-0.06c0.13-0.06,0.26-0.11,0.42-0.16c0.14-0.05,0.28-0.09,0.42-0.12c0.23-0.06,0.48-0.1,0.76-0.13c0.09-0.01,0.18-0.02,0.25-0.02l0.06,0l0.25-0.01h0.03c-0.02,0.05-0.03,0.11-0.03,0.18c0,0.08,0.02,0.15,0.04,0.21l-0.08-0.01l-0.21-0.03L67.2,23.3c-0.07-0.01-0.15-0.01-0.24-0.02c-0.11-0.01-0.22-0.01-0.35-0.01c-0.13,0-0.27,0-0.39,0.01c-0.13,0.01-0.27,0.02-0.42,0.05c-0.16,0.02-0.3,0.05-0.43,0.09C65.33,23.43,65.29,23.45,65.24,23.46z"/><path fill="#ffffff" d="M44.92,36.75c2.96-5.08,6.23-11.3,6.88-15.13c-0.43-0.25-2.46-0.37-4.8,0.68c-0.31,1.43-0.87,3.22-1.54,5.05C45.59,30.18,45.55,33.37,44.92,36.75z"/><path fill="#ffffff" d="M44.89,7.83c-1.13-0.28-2.74-0.61-4.61-0.99c-4.65-0.95-10-1.79-11.49-2.64c-1.21-0.7-2.89-2.72-2.89-2.72v9.23l0.62-0.1c0.02,0,1.57-0.24,3.33-0.24c0.6,0,1.17,0.03,1.67,0.08c0.19,0.02,0.45,0.05,0.77,0.08c2.29,0.23,6.89,0.78,11.57,1.93l1.79,0.44l1.44-4.54L44.89,7.83z"/><path fill="#ffffff" d="M34.7,29.02c-1.78-0.96-4.22-2.28-9.94-2.28c-0.2,0-0.41,0-0.62,0.01V20.8c1.67,0.11,4.03,0.24,6.3,0.24c2.85,0,4.71-0.2,5.53-0.59l0.1-0.05l0.34-3.66l0.03-0.35l-0.32,0.15c-0.01,0.01-0.35,0.16-1.69,0.37c-0.72,0.11-2.51,0.19-4.58,0.19c-2.76,0-5.63-0.13-8.1-0.36l-1.9-0.18v14.84l2.37-0.25c0.96-0.1,1.88-0.15,2.73-0.15c3.9,0,5.8,1.06,6.83,1.63c0.11,0.06,0.21,0.12,0.31,0.17c-0.19,2.46-1.01,4.96-2.31,7.06c-1.32,2.14-2.82,3.03-3.37,3.3c-0.54-0.26-2.04-1.15-3.37-3.3c-1.03-1.67-1.74-3.51-2.09-5.48l-0.03-0.17l-0.17,0c-0.56,0.01-1.16-0.05-1.75-0.2c-0.81-0.2-1.57-0.53-2.21-0.96l-0.35-0.24l0.04,0.43c0.27,2.88,1.36,6.03,3.08,8.85l0.1,0.17c1.04,1.71,1.22,2.02,6.29,6.31l0.46,0.39l0.46-0.39c5.07-4.29,5.25-4.6,6.29-6.31l0.1-0.17c2-3.29,3.14-7.01,3.14-10.21v-2.07l-0.46-0.18C35.56,29.49,35.16,29.28,34.7,29.02z"/><path fill="#ffffff" d="M85.33,43.29c0.81-2.66,0.52-3.18,0.4-3.38c-0.17-0.29-0.39-0.53-1.78-1.03c0.34-0.95,0.37-1.71,0.08-2.26c-0.22-0.42-0.81-1-3.33-1.78c2.7-3.31,6.59-8.48,6.59-10.79c0-1.37-2.06-6.12-4.25-6.12c-0.08,0-0.15,0-0.22,0.02c-1.43,0.2-3.25,3.25-9.3,15.54c-1.11,2.25-1.98,4.03-2.34,4.63c-0.3,0.5-0.5,0.66-0.69,0.71c-0.22-0.71-0.37-1.59-0.4-2.51c-0.05-1.39-0.33-2.65-0.34-2.71l-0.04-0.2l-0.11-0.17c-0.02-0.04-0.63-0.92-1.36-1.52c-0.76-0.62-1.66-0.69-2.02-0.69c-0.08,0-0.12,0-0.12,0l-0.77,0.05l-0.18,0.75c-0.01,0.04-1.17,4.94-1.88,8.44l-0.03,0.17l1.18,9.05l0.08,0.16c0.81,1.64,1.62,2.82,2.16,3.61c0.12,0.18,0.29,0.42,0.39,0.59c-0.29,1.3-0.26,2.08,0.09,2.54c0.22,0.29,0.56,0.45,0.91,0.45h9.74c0.69,0,1.31-0.49,2.29-2.93c0.17-0.23,0.53-0.71,0.96-1.29c0.51-0.68,1.17-1.57,1.65-2.21c0.18-0.22,0.36-0.45,0.55-0.7l2.95-2.21l-0.01-0.54C86.15,46.74,86.08,44.89,85.33,43.29z M84.43,40.66c-0.03,0.42-0.3,1.65-0.6,2.54c-2.47,4.02-4.57,6.58-5.09,6.64c-0.49-0.07-0.56-0.29-0.7-0.84c-0.07-0.27-0.15-0.56-0.31-0.83c2.57-3.69,3.39-5.33,3.94-6.43c0.34-0.68,0.56-1.12,1.04-1.73C83.4,40.24,84.14,40.51,84.43,40.66z M79.85,51.74c-0.51,0.68-0.94,1.27-1.04,1.39l-0.04,0.05l-0.02,0.06c-0.34,0.87-0.84,1.89-1.08,2.14h-9.38c0-0.31,0.1-0.94,0.24-1.51l0.02-0.07l0-0.07c-0.02-0.29-0.25-0.63-0.7-1.29c-0.5-0.74-1.26-1.85-2.02-3.37l-1.12-8.57c0.6-2.94,1.5-6.8,1.77-7.97c0.23,0.03,0.55,0.12,0.81,0.33c0.46,0.38,0.89,0.95,1.03,1.14c0.06,0.29,0.25,1.3,0.29,2.37c0.05,1.4,0.32,2.7,0.76,3.66l0.1,0.22l0.24,0.03c0.18,0.02,0.35,0.03,0.51,0.03c0.96,0,1.61-0.42,2.22-1.45c0.39-0.66,1.28-2.46,2.4-4.74c1.42-2.89,3.19-6.49,4.78-9.44c2.52-4.68,3.25-5.23,3.4-5.29c0.01,0,0.01,0,0.02,0c0.3,0,0.97,0.58,1.71,1.86c0.7,1.21,1.08,2.34,1.08,2.8c0,2.05-5.23,8.68-7.26,11.07l-1.81,1.96l0.63,0.58l1.65-1.78c1.66,0.45,3.48,1.1,3.71,1.41c0.15,0.28-0.17,1.25-0.55,1.96c-0.64,0.79-0.92,1.34-1.29,2.09c-0.56,1.12-1.41,2.81-4.19,6.77c-0.19,0.04-0.63,0.07-1.16-0.38c-0.84-0.71-1.21-2.06-1-2.57c0.14-0.35,1.47-1.19,2.62-1.75l0.25-0.12l-0.02-0.28c-0.12-2.21,1.34-3.72,1.36-3.73l0.74-0.73h-2.34v0.86h0.41c-0.47,0.7-1.04,1.88-1.04,3.37c-0.8,0.41-2.48,1.34-2.78,2.08c-0.39,0.96,0.22,2.68,1.25,3.55c0.57,0.48,1.1,0.6,1.5,0.6c0.3,0,0.52-0.07,0.61-0.1c0.03,0.1,0.06,0.21,0.09,0.33c0.14,0.56,0.34,1.32,1.41,1.48c0.04,0,0.08,0.01,0.11,0.01c0.16,0,0.35-0.05,0.6-0.2c0.11,0.35,0.34,0.67,0.76,0.82c0.02,0.01,0.04,0.01,0.06,0.02C80.05,51.47,79.95,51.6,79.85,51.74zM82.21,48.63l-0.07,0.06c-0.07,0.08-0.27,0.34-0.55,0.71c-0.51,0.61-1.03,1.08-1.24,1.1c-0.23-0.1-0.27-0.45-0.26-0.65c0.52-0.53,1.22-1.38,2.16-2.71c0.76-1.08,1.48-2.18,1.91-2.86c0.37,0.98,0.49,2.05,0.52,2.49L82.21,48.63z"/><path fill="#ffffff" d="M43.86,15.36c-1.05-0.09-2.02-0.27-2.81-0.51l-0.16,0.26c-1.62,2.7-1.64,15.52-1.64,15.65v1.8c0,3.9-1.38,8.43-3.8,12.41l-0.12,0.19c-1.35,2.23-3.01,4.18-7.46,7.54c-0.36,0.27-1.07,0.72-1.47,0.96c-0.39-0.24-1.11-0.68-1.47-0.96c-4.27-3.22-5.92-5.11-7.19-7.1l-0.38-0.59l0,0c-0.79,0.24-1.75,0.43-2.81,0.51C12.58,45.7,10.84,45.47,10,45c0.94,0.72,2.7,2.94,4.66,5.11c0.72,0.9,1.6,1.78,2.56,2.63c0.43,0.4,0.86,0.76,1.27,1.08c0,0,0,0,0,0c1.14,0.92,2.32,1.79,3.41,2.58c0.75,0.54,1.9,1.3,2.41,1.59c0.53,0.3,1.76,1.16,1.77,1.17l0.31,0.21l0.31-0.21c0.01-0.01,1.24-0.86,1.77-1.17c0.52-0.29,1.67-1.05,2.42-1.59c3.95-2.85,6.58-5.56,8.52-8.76l0.12-0.19c2.86-4.71,4.49-10.13,4.49-14.88v-1.8c0-3.56,0.27-7.31,0.56-9.99c0.15-1.3,0.5-2.07,0.93-3.03c0.44-0.98,1.28-2.05,2.06-2.6C46.65,15.39,45.32,15.48,43.86,15.36z"/><path fill="#ffffff" d="M73.25,28.05c-0.57,0-1.12,0.39-1.55,1.07c-0.56-0.2-1.24-0.31-2.03-0.31c-2.26,0-5.04,0.85-6.84,1.62l-0.47-0.44c-0.36-1.62,0.31-2.94,2.05-4.04l8.12,0.63c0.16,0.08,0.56,0.25,1.17,0.28c0.1,0,0.19-0.03,0.25-0.1c0.72-0.77,0.14-2.45-0.13-3.11c0.18-0.54,0.16-0.88,0.12-1.38c-0.02-0.25-0.04-0.57-0.04-0.99c0-0.08,0-0.15-0.01-0.22c0,0,0-0.01,0-0.01c0-0.04-0.01-0.08-0.02-0.11c-0.15-0.72-0.75-0.98-1.16-1.1l-0.18-0.61c0.15-0.35,0.25-0.67,0.32-0.94c0.17-0.4,0.26-0.66,0.31-0.88c0.15-0.73-0.02-1.37-0.45-1.77c-0.03-0.17-0.15-0.56-0.6-0.92c-0.31-0.68-0.54-1.21-0.68-1.57l-0.71-0.07c0.15,0.44,0.54,1.32,0.84,1.98c0.02,0.05,0.06,0.09,0.1,0.13c0.21,0.15,0.32,0.31,0.37,0.42c-0.01,0.02-0.02,0.04-0.02,0.06c-0.03,0.13,0.03,0.27,0.14,0.34c0.35,0.23,0.5,0.7,0.38,1.26c-0.04,0.22-0.17,0.53-0.28,0.78c-0.01,0.02-0.01,0.04-0.02,0.06c-0.06,0.26-0.17,0.59-0.33,0.96c-0.03,0.07-0.03,0.15-0.01,0.22l0.26,0.89c0.03,0.11,0.12,0.19,0.23,0.22c0.53,0.14,0.81,0.28,0.87,0.68c0.01,0.06,0.01,0.12,0.01,0.18c0,0.45,0.02,0.78,0.04,1.04c0.04,0.5,0.06,0.75-0.12,1.22c-0.03,0.08-0.03,0.16,0.01,0.24c0.45,1.04,0.59,2,0.38,2.42c-0.48-0.05-0.75-0.2-0.76-0.2l0,0c0,0,0,0,0,0l-0.35-0.23c-0.14-0.1-0.34-0.06-0.44,0.08C72,25.86,72,25.87,71.99,25.89l-7.63-0.59c-0.07,0-0.14,0.01-0.19,0.05c-2.07,1.27-2.88,2.92-2.4,4.89c0.01,0.06,0.05,0.12,0.09,0.16l0.69,0.65c0.09,0.09,0.23,0.11,0.35,0.06c1.72-0.76,4.53-1.65,6.77-1.65c0.83,0,1.51,0.12,2.04,0.36c0.16,0.07,0.34,0.01,0.42-0.14c0.38-0.72,0.83-0.98,1.12-0.98c0.24,0,0.39,0.16,0.41,0.42c-0.04,0.09-0.14,0.3-0.24,0.5c-0.59,1.22-1.83,3.77-1.48,5.49c0.07,0.33,0.08,1.14-0.35,1.79c-0.31,0.46-0.78,0.75-1.42,0.87c-0.13,0.03-0.33-0.07-0.45,0.04c-0.25,0.22-0.25-0.01-0.41-0.02v0.65c0.36,0.03,0.69,0.03,0.97-0.03c0.81-0.15,1.43-0.54,1.83-1.14c0.55-0.83,0.54-1.82,0.45-2.28c-0.31-1.5,0.91-4,1.43-5.07c0.19-0.39,0.27-0.56,0.29-0.67c0.01-0.02,0.01-0.05,0.01-0.07C74.3,28.52,73.86,28.05,73.25,28.05z"/><path fill="#ffffff" d="M65.02,36.23c-0.48-0.25-1-0.53-1.57-0.85l-0.04-0.02c-0.91-0.52-1.94-0.81-2.89-0.81c-0.51,0-0.99,0.08-1.44,0.24c-0.01,0-0.01,0-0.02,0.01c-1.28,0.56-2.74,1.51-4.1,2.66c-0.09,0.07-0.13,0.18-0.11,0.3s0.09,0.21,0.19,0.25l3.77,1.56c0.99,1.74,0.75,3.88,0.52,5.96c-0.08,0.73-0.16,1.42-0.18,2.08c-0.01,0.35,0.03,0.8,0.07,1.32c0.13,1.53,0.3,3.61-0.68,4.68c-0.98-0.13-2.43,1.1-3.7,2.19c-0.22,0.19-0.43,0.36-0.62,0.53c-0.71-1.7-3.18-7.35-5.14-8.26c-0.01-0.08-0.04-0.16-0.1-0.23c-0.15-0.18-0.46-0.26-0.98-0.26c-1.26,0-3.86,0.5-5.79,1.62l-0.01,0.66c0.08,0.02,0.16,0,0.23-0.04c1.82-1.08,4.4-1.59,5.57-1.59c0.21,0,0.34,0.01,0.42,0.03c-0.02,0.16,0.09,0.31,0.25,0.35c0.44,0.1,1.44,0.8,3.25,4.3c1.06,2.04,1.87,4.05,1.87,4.07c0.04,0.09,0.12,0.17,0.22,0.19c0.03,0.01,0.06,0.01,0.08,0.01c0.07,0,0.14-0.02,0.2-0.07c0.29-0.23,0.63-0.51,0.98-0.81c1.01-0.86,2.39-2.05,3.13-2.05c0.06,0,0.11,0.01,0.15,0.02c0.11,0.04,0.24,0.01,0.33-0.07c1.34-1.24,1.15-3.6,1-5.33c-0.04-0.5-0.08-0.93-0.07-1.24c0.02-0.63,0.09-1.31,0.17-2.03c0.24-2.12,0.5-4.52-0.66-6.46c-0.04-0.06-0.09-0.1-0.15-0.13l-3.37-1.39c1.58-1.27,2.86-1.93,3.52-2.22c1.1-0.39,2.54-0.18,3.77,0.53l0.04,0.02c0.67,0.38,1.29,0.72,1.89,1.01L65.02,36.23L65.02,36.23z"/></g></svg>
