<?xml version="1.0" encoding="utf-8"?>
<!-- Generator: Adobe Illustrator 16.2.1, SVG Export Plug-In . SVG Version: 6.00 Build 0)  -->
<!DOCTYPE svg PUBLIC "-//W3C//DTD SVG 1.1//EN" "http://www.w3.org/Graphics/SVG/1.1/DTD/svg11.dtd">
<svg version="1.1" id="レイヤー_1" xmlns="http://www.w3.org/2000/svg" xmlns:xlink="http://www.w3.org/1999/xlink" x="0px"
	 y="0px" width="473.118px" height="473.118px" viewBox="0 0 473.118 473.118" enable-background="new 0 0 473.118 473.118"
	 xml:space="preserve">
<g>
	<g>
		<path fill="#040000" d="M349.091,229.816c7.904-21.938,14.541-37.156,14.203-39.799c-0.006-3.122-1.312-5.807-3.42-7.544
			c0.211-0.172,0.412-0.36,0.6-0.562c4.299-4.632,2.932-12.05,0.834-17.778c0.598-2.523,0.453-4.468,0.301-6.512
			c-0.088-1.165-0.186-2.486-0.186-4.289c0-0.454-0.023-0.895-0.068-1.334c-0.021-0.478-0.098-0.945-0.229-1.402
			c-0.531-2.347-1.963-5.219-5.604-7.128c0.326-0.917,0.595-1.785,0.797-2.595c0.836-1.971,1.309-3.362,1.562-4.607
			c0.893-4.388-0.01-8.46-2.479-11.396c-0.467-1.366-1.379-3.107-3.146-4.761c-1.111-2.459-1.99-4.489-2.562-5.91
			c-0.924-2.309-3.543-3.43-5.852-2.506c-2.308,0.926-3.428,3.544-2.504,5.853c0.695,1.741,1.75,4.16,3.129,7.189
			c0.299,0.656,0.752,1.231,1.32,1.679c0.98,0.771,1.125,1.426,1.137,1.499c0.17,0.968,0.651,1.854,1.373,2.521
			c0.848,0.785,1.125,2.257,0.764,4.039c-0.135,0.661-0.502,1.675-1.156,3.193c-0.105,0.248-0.189,0.504-0.252,0.766
			c-0.232,1.009-0.648,2.235-1.238,3.646c-0.396,0.945-0.455,2.001-0.171,2.985l0.819,2.831c0.428,1.478,1.578,2.631,3.053,3.065
			c2.023,0.596,2.154,1.247,2.242,1.678c0.008,0.034,0.016,0.068,0.021,0.102c0.004,0.039,0.008,0.077,0.012,0.116
			c0.021,0.159,0.029,0.315,0.029,0.479c0,2.139,0.123,3.769,0.211,4.959c0.15,2.025,0.196,2.905-0.232,4.312
			c-0.205,0.677-0.248,1.388-0.127,2.076c-0.021,0.616,0.078,1.232,0.306,1.812c1.442,3.692,1.825,6.514,1.681,8.07
			c-0.906-0.203-0.213,2.886-0.418,2.776c-1.328-0.701-0.312-0.004-3.246-0.225c-1.92-0.145-2.365-0.192-3.486,0.479
			c-3.418,2.046-6.52,14.85-3.254,12.635c3.068-2.078,7.914-4.857,8.955-3.484c1.031,1.359-0.164,3.327,1.822,2.587
			c-0.211,0.468-0.959,1.499-1.287,2.177c-4.326,8.905-8.543,19.018-7.012,26.484c0.223,1.078,0.396,4.475-1.421,7.188
			c-1.216,1.81-3.896,4.636-6.479,5.123L349.091,229.816z"/>
	</g>
	<g>
		<path fill="#040000" d="M353.831,164.155c-0.473-1.112-1.051-2.271-1.986-3.291c-0.457-0.505-1.016-0.952-1.49-1.275l-0.588-0.412
			l-0.102-0.077c-0.021-0.016-0.021-0.016-0.035-0.021c0.004,0.036-0.201-0.23-0.188-0.192c-0.4-0.519-0.786-0.924-1.188-1.338
			c-0.4-0.408-0.805-0.8-1.225-1.184c-0.422-0.382-0.852-0.754-1.311-1.114c-0.359-0.275-0.697-0.542-1.15-0.81
			c-0.285-0.702-0.752-1.339-1.293-1.788c-0.691-0.592-1.443-0.939-2.158-1.224c-0.723-0.28-1.426-0.48-2.062-0.692
			c-0.238-0.079-0.461-0.162-0.664-0.248c0.168-0.172,0.326-0.347,0.469-0.521c0.387-0.48,0.703-0.978,0.996-1.478
			c0.584-1.001,1.066-2.021,1.529-3.046l1.328-3.064c0.438-1.006,0.879-2.039,1.42-2.928c0.592-0.893,1.262-1.781,2.051-2.466
			c0.377-0.33,0.896-0.623,1.189-0.505c0.307,0.113,0.416,0.739,0.412,1.242c-0.012,1.071-0.271,2.163-0.564,3.223
			c-0.305,1.064-0.674,2.111-1.082,3.146c0.475-1.004,0.914-2.027,1.289-3.082c0.367-1.052,0.709-2.124,0.795-3.277
			c0.02-0.289,0.014-0.585-0.043-0.891c-0.068-0.292-0.189-0.667-0.57-0.859c-0.375-0.182-0.756-0.088-1.041,0.024
			c-0.299,0.118-0.553,0.281-0.789,0.455c-0.939,0.714-1.676,1.578-2.371,2.484c-0.682,0.973-1.172,1.967-1.689,2.958l-1.52,2.956
			c-0.52,0.971-1.053,1.927-1.646,2.808c-0.299,0.438-0.613,0.856-0.947,1.226c-0.332,0.366-0.703,0.67-1.023,0.82l-0.008,0.003
			c-0.43,0.201-0.607,0.712-0.406,1.139l0.008,0.018c0.299,0.632,0.754,0.924,1.115,1.15c0.377,0.228,0.729,0.383,1.068,0.532
			c0.688,0.293,1.326,0.54,1.906,0.829c0.578,0.286,1.098,0.607,1.451,0.979c0.357,0.371,0.543,0.761,0.614,1.211
			c0.05,0.3,0.222,0.579,0.497,0.753l0.182,0.111c0.242,0.152,0.648,0.488,0.998,0.82c0.359,0.34,0.719,0.708,1.062,1.084
			c0.352,0.378,0.688,0.767,1.014,1.161c0.314,0.389,0.639,0.802,0.865,1.158c0.186,0.249,0.132,0.205,0.326,0.435l0.246,0.269
			l0.201,0.191c0.26,0.236,0.502,0.427,0.688,0.583c0.393,0.322,0.646,0.586,0.893,0.905c0.479,0.621,0.83,1.454,1.117,2.353
			l0.006,0.021c0.016,0.051,0.035,0.101,0.057,0.149c0.392,0.926,1.455,1.359,2.379,0.971
			C353.786,166.146,354.22,165.081,353.831,164.155z"/>
		<path fill="#040000" d="M326.743,142.988c0,0,1.762-4.472,1.467-5.974c-0.297-1.501-7.41-5.857-9.658-9.325
			c-2.248-3.464-4.85-12.702-8.781-13.803c-3.932-1.104-10.018,0.265-12.625,6.392c3.898-0.565,11.053-1.158,13.529,3.314
			C313.147,128.068,318.407,136.396,326.743,142.988z"/>
		<path fill="#040000" d="M336.22,140.312c0,0-1.537-2.863-0.928-4.286c0.607-1.427,3.139-2.479,3.543-3.644
			c0.406-1.161,2.914-10.081,5.535-8.276c2.617,1.809,2.695,3.882,2.695,3.882c-1.207-0.119-3.611,1.398-4.514,2.695
			C341.323,132.467,337.89,136.504,336.22,140.312z"/>
		<path fill="#040000" d="M319.11,144.351c1.035,1.932,0.17,7.203,1.258,8.051l4.432,1.011v-4.606L319.11,144.351z"/>
		<path fill="#040000" d="M348.044,177.12c-0.42-0.244-0.85-0.445-1.258-0.729c-0.428-0.26-0.82-0.55-1.221-0.842
			c-0.777-0.601-1.51-1.27-2.197-1.938c-0.693-0.655-1.369-1.325-2.109-1.663c-0.18-0.096-0.369-0.155-0.561-0.202
			c-0.186-0.073-0.395-0.06-0.58-0.099c-0.201-0.007-0.406,0.006-0.609,0.008l-0.625,0.097c-0.422,0.062-0.814-0.228-0.877-0.647
			l-0.006-0.049l-0.016-0.126c-0.041-0.498,0.012-1.016-0.109-1.479c-0.062-0.482-0.227-0.916-0.4-1.319
			c-0.119-0.181-0.201-0.386-0.336-0.545c-0.15-0.146-0.252-0.33-0.424-0.444c-0.314-0.253-0.662-0.467-1.07-0.58
			c-0.195-0.072-0.402-0.122-0.623-0.145c-0.209-0.049-0.436-0.049-0.658-0.057c-0.443-0.014-0.904,0.049-1.355,0.142
			c-0.453,0.097-0.893,0.251-1.312,0.428c-0.191,0.109-0.404,0.198-0.59,0.315l-0.27,0.177l-0.271,0.162l-0.178,0.102
			c-0.129,0.07-0.215,0.132-0.379,0.208c-0.217,0.083-0.441,0.16-0.668,0.225c-0.236,0.079-0.438,0.096-0.639,0.109
			c-0.201,0.012-0.406,0.041-0.609,0.024c-0.812-0.059-1.605-0.319-2.258-0.775c-0.332-0.217-0.609-0.5-0.887-0.775
			c-0.225-0.306-0.498-0.603-0.65-0.939c-0.361-0.661-0.588-1.377-0.678-2.074c-0.115-0.707-0.076-1.389-0.018-2.058l0.172-0.976
			c0.068-0.318,0.18-0.613,0.271-0.923c0.166-0.63,0.459-1.164,0.699-1.744c0.273-0.55,0.589-1.063,0.882-1.603l0.532,2.495
			c0.014,0.023,0.029,0.042,0.057,0.047l-0.115-0.021c-0.062-0.021-0.244-0.03-0.357-0.052c-0.291-0.025-0.605-0.044-0.938-0.046
			c-0.664,0.002-1.354,0.022-2.049,0.104c-0.693,0.066-1.396,0.177-2.086,0.293c-0.697,0.125-1.389,0.277-2.078,0.431
			c-0.689,0.159-1.369,0.346-2.055,0.521l-2.023,0.604c-0.668,0.215-1.332,0.447-1.99,0.682c-0.664,0.229-1.307,0.504-1.953,0.771
			c-0.649,0.26-1.276,0.562-1.908,0.865c-0.616,0.322-1.229,0.659-1.834,1.01c-0.604,0.347-1.193,0.724-1.766,1.13
			c-0.57,0.404-1.129,0.826-1.684,1.266c-0.531,0.458-1.064,0.928-1.568,1.43c-0.529,0.48-0.979,1.031-1.473,1.567
			c-0.459,0.559-0.928,1.123-1.346,1.73c-0.455,0.589-0.825,1.23-1.26,1.862l-0.014,0.021c-0.066,0.1-0.205,0.125-0.307,0.057
			c-0.072-0.051-0.105-0.141-0.09-0.224c0.148-0.752,0.271-1.535,0.523-2.272c0.205-0.763,0.528-1.477,0.828-2.216
			c0.354-0.707,0.709-1.426,1.146-2.097c0.396-0.701,0.906-1.32,1.396-1.965c0.516-0.616,1.037-1.24,1.627-1.791
			c0.576-0.566,1.184-1.104,1.812-1.609c0.617-0.522,1.293-0.965,1.963-1.419c0.686-0.425,1.371-0.851,2.08-1.228
			c0.707-0.39,1.438-0.722,2.178-1.035c0.73-0.329,1.49-0.586,2.25-0.842c0.758-0.257,1.529-0.457,2.307-0.646
			c0.775-0.184,1.562-0.327,2.35-0.45c1.574-0.239,3.166-0.355,4.775-0.367c0.805-0.01,1.619,0.02,2.457,0.091
			c0.418,0.037,0.852,0.094,1.303,0.178c0.252,0.061,0.447,0.085,0.74,0.182c0.145,0.046,0.27,0.083,0.424,0.146
			c0.193,0.085,0.387,0.182,0.566,0.286c0.818,0.476,1.1,1.524,0.625,2.347l-0.041,0.065l-0.055,0.084
			c-0.26,0.402-0.553,0.803-0.791,1.217c-0.195,0.419-0.475,0.831-0.604,1.258c-0.074,0.211-0.178,0.424-0.234,0.635l-0.152,0.632
			c-0.062,0.412-0.121,0.83-0.078,1.207c0.018,0.388,0.111,0.737,0.25,1.045c0.049,0.172,0.172,0.272,0.24,0.427
			c0.109,0.105,0.203,0.24,0.322,0.326c0.229,0.195,0.498,0.303,0.771,0.36c0.116-0.001,0.314,0.026,0.377,0.004
			c0.037-0.007,0.076-0.003,0.123,0.009c0.088-0.022,0.236-0.106,0.354-0.158l0.186-0.089l0.047-0.021
			c0.025-0.018-0.229,0.134-0.115,0.068l0.008-0.005l0.016-0.008l0.025-0.015l0.107-0.062l0.438-0.236
			c0.293-0.151,0.595-0.259,0.893-0.386c0.604-0.202,1.215-0.36,1.842-0.443c0.625-0.079,1.264-0.11,1.906-0.042
			c0.32,0.034,0.643,0.065,0.963,0.16l0.479,0.12l0.47,0.189c0.625,0.247,1.202,0.656,1.687,1.144
			c0.256,0.229,0.426,0.536,0.631,0.806c0.188,0.28,0.299,0.596,0.441,0.893c0.211,0.612,0.361,1.237,0.387,1.848
			c0.092,0.615-0.012,1.197-0.023,1.791l-0.895-0.821l0.811-0.046c0.275,0.017,0.557,0.027,0.832,0.063
			c0.273,0.071,0.562,0.096,0.822,0.216c0.271,0.096,0.527,0.21,0.764,0.36c0.484,0.278,0.88,0.638,1.244,0.993
			c0.354,0.362,0.683,0.73,0.998,1.094c0.633,0.728,1.25,1.434,1.937,2.083c0.349,0.318,0.696,0.636,1.065,0.919
			c0.354,0.304,0.773,0.563,1.16,0.846l0.006,0.006c0.099,0.07,0.119,0.207,0.047,0.304
			C348.261,177.149,348.138,177.174,348.044,177.12z"/>
		<path fill="#040000" d="M293.718,190.027c-0.15,0.396-0.205,0.739-0.221,1.109c-0.027,0.364,0.002,0.731,0.027,1.095
			c0.049,0.729,0.199,1.453,0.336,2.173c0.289,1.441,0.648,2.875,1.021,4.304c0.385,1.426,0.768,2.852,1.189,4.244
			c0.203,0.697,0.432,1.391,0.652,2.047c0.113,0.32,0.24,0.646,0.355,0.92c0.055,0.144,0.115,0.269,0.15,0.345
			c0.014,0.022,0.051,0.096,0.014,0.042c-0.021-0.025,0,0.008-0.066-0.061c-0.09-0.091-0.205-0.163-0.324-0.209l-2.002,0.35
			c0.227-0.191,0.459-0.375,0.693-0.559c0.23-0.174,0.465-0.375,0.699-0.521c0.469-0.286,0.949-0.553,1.424-0.813
			c0.477-0.229,0.967-0.431,1.445-0.645c0.482-0.194,0.979-0.354,1.466-0.523c0.491-0.161,0.983-0.292,1.481-0.421
			c0.494-0.14,1.002-0.228,1.504-0.322c0.5-0.104,1.01-0.182,1.521-0.234c0.506-0.072,1.023-0.103,1.543-0.119
			c-0.84,0.612-1.684,1.174-2.521,1.715l-1.246,0.817c-0.404,0.279-0.834,0.518-1.229,0.801l-1.203,0.796
			c-0.387,0.271-0.764,0.554-1.15,0.811c-0.359,0.275-0.697,0.568-1.059,0.833c-0.174,0.138-0.295,0.287-0.445,0.429
			c-0.145,0.142-0.285,0.279-0.438,0.413l-0.145,0.126c-0.527,0.463-1.271,0.525-1.859,0.221c-0.195-0.104-0.387-0.231-0.555-0.381
			c-0.141-0.129-0.168-0.179-0.254-0.271c-0.168-0.193-0.223-0.295-0.312-0.43c-0.158-0.25-0.273-0.463-0.375-0.67
			c-0.213-0.417-0.354-0.806-0.512-1.194c-0.299-0.774-0.521-1.545-0.729-2.312c-0.396-1.542-0.68-3.099-0.822-4.678
			c-0.145-1.578-0.172-3.178,0.029-4.785c0.096-0.804,0.279-1.606,0.535-2.393c0.146-0.394,0.314-0.772,0.53-1.135
			C293.097,190.577,293.394,190.236,293.718,190.027z"/>
		<path fill="#040000" d="M308.765,172.656c0.289-0.17,1.338-0.794,1.637-0.961c11.791-6.622,27.035-3.329,36.912,2.873
			c0.701,0.441,0.914,1.367,0.477,2.068c-0.439,0.701-1.365,0.913-2.068,0.473c-9.125-5.729-23.129-8.816-33.848-2.798
			L308.765,172.656z"/>
		<path fill="#040000" d="M323.085,154.219c-7.854,0-12.186-3.209-14.842-5.182c-0.549-0.403-1.018-0.751-1.42-1.006
			c-0.852-0.529-1.107-1.648-0.578-2.5c0.527-0.849,1.646-1.109,2.5-0.577c0.525,0.33,1.074,0.735,1.656,1.167
			c2.779,2.061,6.576,4.883,14.285,4.419c1.014-0.06,1.859,0.7,1.92,1.7c0.062,1-0.701,1.86-1.701,1.922
			C324.278,154.2,323.671,154.219,323.085,154.219z"/>
		<path fill="#040000" d="M341.306,154.584c-0.936,0-1.729-0.72-1.807-1.667c-0.082-0.999,0.662-1.875,1.658-1.957
			c0.977-0.08,2.67-0.738,5.209-3.421c0.689-0.729,1.84-0.76,2.564-0.069c0.729,0.689,0.758,1.837,0.068,2.565
			c-2.711,2.86-5.184,4.348-7.549,4.542C341.407,154.582,341.354,154.584,341.306,154.584z"/>
		<path fill="#040000" d="M340.385,146.042c0,1.3-0.025,5.703-0.431,6.358c-0.403,0.657-0.588,0.231-0.588,0.231l-2.025-2.501
			L340.385,146.042z"/>
		<path fill="#040000" d="M324.038,124.494c0,0,0.256,0.196,0.701,0.545c0.438,0.387,1.021,1.013,1.654,1.761
			c0.625,0.763,1.336,1.675,2.018,2.7c0.691,1.016,1.363,2.141,2.004,3.288c0.631,1.146,1.398,2.253,1.865,3.404
			c0.217,0.586,0.375,1.167,0.471,1.743c0.092,0.581,0.17,1.117,0.172,1.652c0.016,0.521-0.01,1.01-0.07,1.458
			c-0.037,0.224-0.059,0.418-0.102,0.617c-0.062,0.194-0.113,0.377-0.162,0.54c-0.084,0.303-0.25,0.584-0.357,0.732
			c-0.105,0.146-0.166,0.224-0.166,0.224c-0.061,0.08-0.176,0.099-0.256,0.037c-0.021-0.018-0.043-0.041-0.055-0.065l-0.037-0.075
			c0,0-0.039-0.081-0.111-0.233c-0.078-0.146-0.146-0.301-0.312-0.557c-0.15-0.239-0.309-0.506-0.525-0.839
			c-0.197-0.324-0.418-0.69-0.658-1.089c-0.447-0.808-0.988-1.749-1.373-2.833c-0.385-1.086-0.557-2.356-0.975-3.541
			c-0.383-1.197-0.838-2.367-1.24-3.48c-0.422-1.104-0.834-2.127-1.215-2.995c-0.207-0.423-0.396-0.811-0.561-1.152
			c-0.186-0.33-0.342-0.618-0.473-0.854c-0.314-0.469-0.5-0.735-0.5-0.735c-0.057-0.083-0.037-0.197,0.045-0.257
			C323.886,124.44,323.976,124.446,324.038,124.494z"/>
		<path fill="#040000" d="M335.206,140.773c0,0-0.182-0.287-0.375-0.772c-0.209-0.49-0.393-1.199-0.535-2
			c-0.129-0.797-0.221-1.699-0.148-2.609c0.043-0.455,0.152-0.921,0.248-1.394c0.109-0.478,0.176-0.958,0.209-1.445
			c0.02-0.482,0.045-0.973,0.014-1.448c-0.018-0.479-0.041-0.954-0.098-1.413c-0.021-0.467-0.145-0.895-0.193-1.329
			c-0.086-0.422-0.188-0.818-0.271-1.193c-0.117-0.367-0.223-0.703-0.316-1c-0.092-0.306-0.215-0.548-0.285-0.77
			c-0.164-0.432-0.262-0.678-0.262-0.678l-0.006-0.014c-0.035-0.097,0.013-0.2,0.105-0.236c0.07-0.028,0.146-0.007,0.2,0.046
			c0,0,0.185,0.198,0.505,0.544c0.156,0.178,0.373,0.381,0.561,0.653c0.199,0.27,0.424,0.574,0.67,0.906
			c0.215,0.351,0.463,0.729,0.707,1.146c0.213,0.428,0.463,0.88,0.648,1.375c0.205,0.49,0.398,1.007,0.541,1.55
			c0.164,0.538,0.266,1.099,0.379,1.657c0.1,0.563,0.195,1.127,0.295,1.683c0.104,0.561,0.139,1.107,0.123,1.635
			c-0.066,1.052-0.4,1.97-0.736,2.73c-0.363,0.757-0.729,1.349-1.061,1.768c-0.312,0.423-0.561,0.654-0.561,0.654
			c-0.092,0.091-0.237,0.086-0.33-0.007C335.224,140.802,335.214,140.788,335.206,140.773z"/>
		<path fill="#040000" d="M291.028,173.712c0,0,0.078,0.222,0.146,0.582c0.002,0.195,0.164,0.354,0.23,0.499
			c0.064,0.122,0.266,0.317,0.355,0.45c0.172,0.145,0.271,0.276,0.461,0.398c0.146,0.129,0.344,0.238,0.506,0.364
			c0.203,0.104,0.361,0.237,0.574,0.344c0.188,0.122,0.406,0.222,0.607,0.341c0.219,0.097,0.422,0.229,0.646,0.316
			c0.111,0.042,0.219,0.105,0.328,0.161c0.113,0.042,0.229,0.081,0.338,0.141c0.227,0.117,0.457,0.167,0.689,0.282
			c0.229,0.079,0.465,0.148,0.697,0.242c0.229,0.056,0.459,0.127,0.678,0.191c0.217,0.065,0.41,0.092,0.584,0.137
			c0.344,0.073,0.58,0.146,0.58,0.146s-0.084,0.208-0.307,0.521c-0.113,0.146-0.242,0.373-0.445,0.523
			c-0.193,0.171-0.432,0.371-0.711,0.55c-0.287,0.146-0.615,0.304-0.982,0.419c-0.367,0.075-0.777,0.191-1.197,0.181
			c-0.424,0.01-0.869-0.016-1.305-0.136c-0.447-0.07-0.863-0.284-1.285-0.467c-0.396-0.245-0.797-0.478-1.125-0.814
			c-0.354-0.295-0.625-0.694-0.867-1.067c-0.221-0.407-0.396-0.81-0.479-1.244c-0.113-0.399-0.078-0.852-0.055-1.206
			c0.096-0.391,0.156-0.68,0.346-0.976c0.156-0.272,0.312-0.499,0.473-0.573C290.815,173.813,291.028,173.712,291.028,173.712z"/>
		<path fill="#040000" d="M315.599,156.308c0,0-0.061,0.018-0.176,0.048c-0.117,0.028-0.279,0.075-0.497,0.102
			c-0.216,0.022-0.501,0.05-0.797,0.048c-0.299-0.002-0.642-0.009-1.001-0.053c-0.363-0.033-0.749-0.101-1.152-0.188
			c-0.406-0.082-0.815-0.212-1.238-0.362c-0.411-0.171-0.833-0.363-1.24-0.599c-0.41-0.227-0.828-0.454-1.246-0.684
			c-0.838-0.447-1.66-0.926-2.4-1.424c-0.365-0.257-0.729-0.483-1.048-0.744c-0.327-0.247-0.63-0.483-0.898-0.725
			c-0.272-0.228-0.517-0.446-0.722-0.653c-0.207-0.201-0.391-0.372-0.52-0.538c-0.27-0.315-0.424-0.495-0.424-0.495
			c-0.033-0.042-0.027-0.104,0.014-0.142c0.035-0.029,0.086-0.031,0.123-0.004l0.008,0.005c0,0,0.186,0.136,0.514,0.374
			c0.157,0.123,0.369,0.249,0.604,0.399c0.229,0.155,0.503,0.312,0.808,0.477c0.596,0.338,1.326,0.674,2.104,1.027
			c0.789,0.335,1.629,0.689,2.487,0.999c0.431,0.159,0.865,0.292,1.302,0.411c0.432,0.125,0.857,0.232,1.258,0.382
			c0.795,0.289,1.51,0.646,2.121,0.959c0.307,0.164,0.584,0.312,0.832,0.454c0.25,0.147,0.45,0.257,0.633,0.375
			c0.367,0.212,0.586,0.355,0.586,0.355c0.051,0.032,0.062,0.101,0.033,0.15C315.646,156.284,315.622,156.301,315.599,156.308z"/>
		<path fill="#040000" d="M342.876,155.719c-0.645,0-1.264-0.339-1.592-0.94c-0.482-0.878-0.164-1.979,0.715-2.464
			c1.34-0.739,7.979-4.271,11.506-1.036c-0.125,0.568-0.195,1.983,0.334,2.582c-0.678,0.739-1.826,0.788-2.564,0.11
			c-1.146-1.054-5.178,0.231-7.523,1.521C343.47,155.646,343.171,155.719,342.876,155.719z"/>
		<path fill="#040000" d="M266.646,157.07c0,0,0.002,0.082,0.006,0.24c0.014,0.158,0.002,0.394-0.029,0.709
			c-0.078,0.618-0.242,1.528-0.588,2.629c-0.33,1.104-0.766,2.427-1.291,3.901c-0.504,1.48-1.061,3.145-1.527,4.93
			c-0.478,1.78-0.836,3.713-0.817,5.609c0.009,1.904,0.5,3.68,1.562,5.15c0.116,0.193,0.284,0.361,0.428,0.542
			c0.065,0.076,0.164,0.208,0.203,0.239l0.309,0.34c0.438,0.498,0.748,0.787,1.166,1.198c0.812,0.786,1.693,1.537,2.605,2.259
			c1.834,1.422,3.83,2.738,5.881,3.665c1.016,0.476,2.045,0.855,3.01,1.064c0.957,0.205,1.854,0.264,2.404,0.099
			c0.562-0.149,0.857-0.345,1.225-0.91c0.354-0.556,0.588-1.458,0.719-2.425l0.074-0.744l0.021-0.773
			c0.02-0.498-0.006-1.154,0.004-1.716c0.004-1.163,0.006-2.303,0.01-3.41c0.037-2.229,0.074-4.331,0.185-6.284
			c0.081-1.945,0.259-3.746,0.411-5.331c0.105-0.8,0.188-1.545,0.301-2.231c0.104-0.687,0.264-1.321,0.375-1.887
			c0.094-0.564,0.277-1.07,0.416-1.498c0.127-0.431,0.26-0.79,0.402-1.069c0.271-0.554,0.41-0.85,0.41-0.85
			s-0.031,0.324-0.088,0.934c-0.047,0.294-0.055,0.664-0.039,1.104c0.021,0.438-0.014,0.92,0.045,1.482
			c0.057,1.109,0.24,2.459,0.398,4c0.217,1.55,0.461,3.297,0.729,5.202c0.252,1.911,0.527,3.98,0.818,6.169
			c0.135,1.103,0.271,2.23,0.414,3.388c0.062,0.6,0.146,1.112,0.188,1.801l0.068,1.01l-0.006,1.059
			c-0.05,1.427-0.254,2.996-1.07,4.643c-0.379,0.819-1.018,1.624-1.766,2.312c-0.789,0.643-1.717,1.181-2.648,1.436
			c-1.887,0.578-3.627,0.44-5.166,0.136c-1.547-0.316-2.949-0.829-4.27-1.429c-2.628-1.233-4.945-2.809-7.027-4.594
			c-1.047-0.885-2.025-1.832-2.932-2.842c-0.439-0.485-0.976-1.1-1.314-1.548l-0.282-0.36c-0.16-0.2-0.229-0.323-0.349-0.489
			c-0.209-0.315-0.435-0.612-0.606-0.951c-1.56-2.616-1.908-5.677-1.56-8.166c0.336-2.523,1.149-4.657,2.02-6.488
			c0.866-1.84,1.831-3.381,2.682-4.729c0.838-1.351,1.635-2.473,2.234-3.418c0.598-0.947,1.062-1.695,1.312-2.239
			c0.119-0.268,0.221-0.482,0.266-0.635C266.62,157.147,266.646,157.07,266.646,157.07z"/>
		<path fill="#040000" d="M280.372,209.905c-0.521-0.178-35.484,12.146-44.308,69.274l-0.142,0.911l0.896,0.214
			c7.639,1.824,20.064,28.978,24.209,39.288l0.371,0.922l0.925-0.365c13.116-5.191,8.501-23.65,4.792-38.483
			c-1.438-5.741-2.793-11.167-2.689-14.491c0.396-12.916,7.453-22.561,20.969-28.656l2.111-0.951L280.372,209.905z"/>
		<path fill="#040000" d="M313.063,200.295c0,0,0.396-0.306,1.109-0.761c0.727-0.446,1.799-1.041,3.129-1.622
			c2.66-1.173,6.42-2.234,10.32-2.521c0.971-0.089,1.955-0.081,2.916-0.088c0.48,0.018,0.963,0.044,1.436,0.079
			c0.473,0.021,0.939,0.062,1.398,0.141c0.918,0.116,1.797,0.271,2.623,0.493c0.824,0.183,1.592,0.456,2.285,0.718
			c0.699,0.233,1.309,0.574,1.842,0.851c0.266,0.143,0.518,0.262,0.736,0.396c0.219,0.15,0.412,0.289,0.594,0.414
			c0.705,0.5,1.068,0.818,1.068,0.818s-0.506-0.032-1.33-0.146c-0.203-0.026-0.43-0.059-0.676-0.093
			c-0.252-0.007-0.518-0.039-0.801-0.062c-0.57-0.041-1.191-0.113-1.887-0.121c-0.688-0.029-1.418-0.079-2.199-0.062
			c-0.775-0.029-1.596-0.005-2.439,0.012c-0.842-0.014-1.721,0.087-2.604,0.086c-0.891,0.09-1.791,0.082-2.695,0.188
			c-0.904,0.051-1.811,0.142-2.703,0.22c-0.896,0.083-1.779,0.166-2.635,0.245c-1.729,0.169-3.344,0.327-4.729,0.463
			c-1.402,0.12-2.58,0.227-3.424,0.275C313.56,200.289,313.063,200.295,313.063,200.295z"/>
		<path fill="#040000" d="M267.087,322.614c-0.891-0.604,9.939-11.559,10.059-12.627c1.389-12.623,2.004-21.093,1.289-29.688
			c-1.434-17.188,3.787-51.019,10.807-63.425c0.398-0.705,1.201-0.546,1.992-0.73c0.789-0.183,4.281,0.562,4.953,1.018l9.268,4.184
			c1.081,0.733,2.812,1.521,2.393,2.758c-13.727,40.207-16.17,59.225-13.477,79.791c0.154,1.204-0.451,2.379-1.525,2.945
			C292.843,306.838,279.304,313.392,267.087,322.614z"/>
		<path fill="#040000" d="M326.397,144.279c0,0,0.086,0.824,0.24,2.269c0.037,0.359,0.08,0.76,0.125,1.195
			c0.021,0.217,0.043,0.441,0.066,0.678c0.012,0.117,0.021,0.236,0.033,0.356l0.012,0.093l0.004,0.046l0.002,0.021
			c0.006-0.033-0.053,0.325-0.029,0.181l-0.004,0.011c-0.016,0.025,0.025,0.03-0.131,0.222c-0.064,0.07-0.148,0.125-0.227,0.157
			l-0.1,0.028c-0.479,0.084-0.688,0-0.998-0.038c-0.281-0.054-0.561-0.118-0.846-0.192c-0.143-0.039-0.283-0.079-0.428-0.119
			l-0.111-0.033c-0.146-0.057-0.096-0.043-0.154-0.067l-0.193-0.1c-0.262-0.109-0.568-0.354-0.861-0.541
			c-1.074-0.772-2.109-1.598-3.217-2.521c-1.109-0.909-2.238-1.907-3.408-2.939c-2.34-2.062-4.752-4.351-7.121-6.703
			c-1.195-1.169-2.369-2.358-3.521-3.565c-0.572-0.604-1.146-1.212-1.682-1.864c-0.27-0.308-0.539-0.654-0.789-1.01
			c-0.254-0.344-0.535-0.756-0.643-0.883c-0.154-0.214-0.334-0.404-0.447-0.493c-0.111-0.102-0.146-0.039,0.215-0.035
			c0.17-0.023,0.355-0.077,0.439-0.164c0.072-0.053,0.08-0.083,0.057-0.064c-0.057,0.035-0.182,0.259-0.283,0.47
			c-0.199,0.477-0.361,1.072-0.479,1.671c-0.145,0.595-0.246,1.2-0.334,1.788c-0.172,1.179-0.32,2.292-0.434,3.286
			c-0.119,1.001-0.229,1.874-0.312,2.593c-0.188,1.448-0.33,2.289-0.33,2.289c-0.014,0.102-0.109,0.172-0.211,0.157
			c-0.072-0.013-0.129-0.066-0.15-0.132c0,0-0.061-0.201-0.176-0.584c-0.115-0.382-0.271-0.941-0.432-1.664
			c-0.174-0.72-0.352-1.599-0.508-2.618c-0.15-1.021-0.307-2.183-0.35-3.479c-0.037-1.312-0.068-2.704,0.395-4.434
			c0.146-0.45,0.275-0.912,0.652-1.47c0.191-0.273,0.451-0.571,0.824-0.845c0.396-0.269,0.93-0.496,1.479-0.51
			c1.123-0.034,1.785,0.436,2.27,0.79c0.486,0.383,0.824,0.77,1.135,1.174c0.355,0.497,0.492,0.744,0.699,1.039
			c0.195,0.292,0.381,0.597,0.615,0.906c0.434,0.616,0.887,1.254,1.371,1.888c0.945,1.277,2.002,2.53,3.053,3.786
			c2.145,2.479,4.381,4.896,6.482,7.153c1.057,1.125,2.094,2.195,3.078,3.207c0.979,1.007,1.957,1.961,2.816,2.734
			c0.217,0.166,0.35,0.354,0.623,0.511l0.188,0.118c0.008,0.009,0.115,0.065,0.039,0.033l0.097,0.04l0.386,0.152
			c0.256,0.096,0.504,0.184,0.742,0.254c0.213,0.07,0.521,0.119,0.543,0.12c-0.002,0.002,0.002,0.004-0.007,0.009
			c-0.05,0.015-0.106,0.053-0.146,0.104c-0.035,0.032-0.062,0.161-0.049,0.118l0.018-0.043l0.006-0.011
			c0.023-0.153-0.029,0.197-0.023,0.157v-0.023v-0.046l0.002-0.092c0-0.122,0.002-0.242,0.002-0.359
			c0.002-0.234,0.004-0.462,0.006-0.68c0.006-0.437,0.016-0.836,0.021-1.198c0.022-1.447,0.038-2.273,0.038-2.273
			c0-0.101,0.084-0.181,0.186-0.179c0.092,0.001,0.168,0.072,0.178,0.162L326.397,144.279L326.397,144.279z"/>
		<path fill="#040000" d="M348.981,97.946c-5.814-11.066-16.008-23.324-47.479-30.32c-2.076-0.461-4.221-0.807-6.404-1.057
			c-4.26-6.531-15.445-10.56-24.543-8.241v0.001h-0.002c0,1.632,0.057,3.942-1.863,5.946c-1.494,1.561-4.182,2.933-9.021,3.652
			c-3.869,0.576-8.181,3.304-11.98,7.224c-7.078,7.295-12.393,18.732-9.797,28.178c1.328,3.537,3.615,5.278,5.105,4.054
			c0.344-0.282,0.646-0.722,0.885-1.334c0.793-2.041,1.344-3.749,2.229-4.759c0.039-0.044,0.086-0.072,0.126-0.114
			c0.104,0.086,0.205,0.177,0.321,0.25l0.511,0.313c2.737,1.697,5.584,3.362,8.146,3.941c0.008-0.004,0.017-0.008,0.021-0.013
			c0.019,0.004,0.032,0.01,0.05,0.014c-0.753,3.358-1.93,10.125-0.972,16.426c1.247,8.196,4.254,17.132,7.847,23.32
			c0.616,1.063,0.477,1.783,0.314,2.232c-0.741,2.081-4.213,3.794-5.367,4.229c-0.592,0.221-1.023,0.733-1.146,1.354l-1.636,8.346
			c-0.139,0.706,0.153,1.426,0.742,1.837c0.59,0.411,1.367,0.436,1.979,0.062c4.307-2.616,9.594-5.89,10.322-6.616
			c1.076-1.078,3.268-5.722,2.711-9.92c0.188-8.354,3.289-12.948,8.729-12.948c2.572,0,4.826,1.084,5.465,1.866
			c2.582,3.16,3.365,4.369,2.697,8.737c-0.336,2.204-0.959,5.16-1.561,8.021c-1.758,8.326-1.863,9.395-1.039,10.41
			c0.344,0.425,0.941,0.715,1.491,0.715c2.993,0,7.946-7.366,11.743-23.538c3.232-13.77,1.473-27.444,0.521-34.792
			c-0.074-0.583-0.146-1.146-0.211-1.667c6.857,3.486,22.547,10.964,30.012,13.452c1.666,0.556,3.646,0.849,5.729,0.849
			c5.238,0,12.521-1.922,15.797-7.339C350.976,108.194,352.13,103.934,348.981,97.946z"/>
		<path fill="#040000" d="M206.624,286.605c0.103,0.022,0.207,0.033,0.311,0.033c0.361,0,0.714-0.131,0.991-0.374
			c0.354-0.312,0.543-0.776,0.505-1.248c-0.012-0.15-1.112-15.202,7.442-30.915c2.275-4.182,4.959-9.043,7.802-14.194
			c8.383-15.193,17.885-32.418,22.897-42.849c6.796-14.145,11.018-29.851,11.577-43.093c0.022-0.526-0.231-1.026-0.673-1.316
			c-0.438-0.291-1-0.327-1.475-0.1c-0.484,0.232-4.773,2.312-6.336,3.707c-0.207,0.185-0.359,0.423-0.439,0.688
			c-2.788,9.321-13.389,36.532-21.644,51.249c-1.971,3.512-4.646,8.11-7.618,13.139c-0.439,2.809-0.965,5.646-1.582,8.513
			c4.828-8.086,9.282-15.664,11.816-20.182c8.228-14.666,18.754-41.59,21.769-51.412c0.683-0.51,1.86-1.193,3.027-1.82
			c-0.957,12.166-5.035,26.653-11.125,39.329c-4.979,10.354-14.457,27.537-22.821,42.696c-2.846,5.157-5.53,10.021-7.812,14.21
			c-7.23,13.284-7.909,25.845-7.869,30.604L206.624,286.605z"/>
		<path fill="#040000" d="M307.903,147.458c-0.047,0-0.094-0.005-0.143-0.016c-0.393-0.077-0.648-0.46-0.57-0.854
			c0.201-1.011-0.189-10.543-2.967-15.478c-0.195-0.35-0.072-0.792,0.277-0.987s0.793-0.072,0.988,0.275
			c3.021,5.378,3.375,15.207,3.125,16.473C308.548,147.219,308.245,147.458,307.903,147.458z"/>
		<g>
			<path fill="#040000" d="M313.774,163.903c0.205-0.102,0.408-0.196,0.612-0.279c0.601-0.274,1.224-0.518,1.938-0.756
				c0.653-0.224,1.314-0.399,1.936-0.559c1.093-0.268,2.246-0.468,3.518-0.609c0.421-0.044,0.817-0.07,1.186-0.097l0.267-0.019
				l1.151-0.028l0.139,0.001c-0.091,0.246-0.16,0.53-0.164,0.847c-0.003,0.36,0.08,0.692,0.183,0.982l-0.354-0.063l-0.988-0.14
				l-0.273-0.027c-0.334-0.03-0.704-0.066-1.103-0.092c-0.501-0.025-1.04-0.045-1.61-0.045c-0.625,0-1.238,0.022-1.824,0.066
				c-0.619,0.053-1.271,0.111-1.942,0.225c-0.724,0.113-1.377,0.248-1.985,0.413C314.224,163.772,313.999,163.835,313.774,163.903z"
				/>
		</g>
		<g>
			<path fill="#040000" d="M219.208,225.736c13.792-23.616,29.008-52.605,32-70.423c-1.996-1.18-11.435-1.725-22.319,3.175
				c-1.434,6.651-4.066,15.009-7.167,23.485C222.343,195.191,222.137,210.019,219.208,225.736z"/>
		</g>
		<g>
			<path fill="#040000" d="M219.077,91.154c-5.25-1.296-12.755-2.824-21.441-4.597c-21.621-4.407-46.557-8.327-53.48-12.305
				c-5.646-3.245-13.436-12.636-13.436-12.636v42.979l2.887-0.453c0.072-0.011,7.328-1.134,15.497-1.134
				c2.813,0,5.431,0.133,7.776,0.396c0.868,0.097,2.082,0.22,3.594,0.372c10.668,1.084,32.05,3.617,53.836,8.996l8.312,2.054
				l6.702-21.144L219.077,91.154z"/>
			<path fill="#040000" d="M171.633,189.786c-8.28-4.485-19.621-10.627-46.267-10.627c-0.944,0-1.909,0.008-2.887,0.021v-27.644
				c7.779,0.521,18.755,1.095,29.31,1.095c13.27,0,21.927-0.924,25.729-2.747l0.479-0.229l1.592-17.046l0.142-1.639l-1.489,0.713
				c-0.062,0.03-1.627,0.756-7.858,1.739c-3.334,0.525-11.7,0.868-21.315,0.868c-12.838,0-26.224-0.589-37.689-1.661l-8.839-0.826
				v69.085l11.013-1.156c4.452-0.467,8.729-0.705,12.711-0.705c18.134,0,26.985,4.918,31.784,7.585
				c0.51,0.284,0.983,0.549,1.431,0.785c-0.902,11.445-4.704,23.089-10.73,32.854c-6.137,9.938-13.144,14.085-15.688,15.34
				c-2.524-1.232-9.483-5.328-15.666-15.34c-4.8-7.775-8.08-16.356-9.746-25.507l-0.144-0.788l-0.801,0.021
				c-2.627,0.065-5.384-0.244-8.137-0.921c-3.762-0.924-7.312-2.475-10.268-4.48l-1.646-1.112l0.188,1.979
				c1.262,13.421,6.347,28.047,14.32,41.185l0.482,0.8c4.822,7.966,5.69,9.397,29.267,29.371l2.157,1.822l2.159-1.825
				c23.576-19.973,24.445-21.403,29.265-29.366l0.484-0.802c9.3-15.324,14.633-32.644,14.633-47.507v-9.62l-2.135-0.824
				C175.668,191.972,173.808,190.966,171.633,189.786z"/>
		</g>
		<path fill="#040000" d="M407.306,256.195c3.77-12.399,2.395-14.806,1.869-15.726c-0.77-1.345-1.826-2.456-8.279-4.791
			c1.582-4.422,1.705-7.95,0.363-10.513c-1.029-1.964-3.785-4.637-15.496-8.27c12.564-15.409,30.662-39.471,30.662-50.22
			c0-6.383-9.592-28.501-19.801-28.501c-0.35,0-0.695,0.021-1.037,0.07c-6.652,0.918-15.146,15.106-43.287,72.32
			c-5.15,10.47-9.217,18.738-10.896,21.558c-1.395,2.338-2.336,3.066-3.229,3.298c-1.045-3.322-1.701-7.396-1.869-11.696
			c-0.252-6.465-1.52-12.349-1.572-12.594l-0.199-0.917l-0.521-0.771c-0.117-0.174-2.92-4.298-6.334-7.09
			c-3.531-2.886-7.742-3.198-9.387-3.198c-0.367,0-0.572,0.018-0.572,0.018l-3.576,0.232l-0.824,3.472
			c-0.051,0.214-5.438,22.973-8.76,39.272l-0.16,0.79l5.502,42.141l0.357,0.724c3.776,7.633,7.539,13.137,10.033,16.788
			c0.566,0.832,1.342,1.963,1.832,2.736c-1.355,6.035-1.219,9.702,0.43,11.812c1.035,1.327,2.586,2.088,4.256,2.088h45.311
			c3.201,0,6.113-2.294,10.676-13.643c0.803-1.062,2.457-3.288,4.479-6.013c2.354-3.163,5.434-7.305,7.658-10.268
			c0.842-1.005,1.695-2.103,2.537-3.267l13.74-10.3l-0.066-2.502C411.116,272.246,410.778,263.647,407.306,256.195z
			 M403.087,243.961c-0.127,1.97-1.416,7.669-2.812,11.82c-11.5,18.729-21.289,30.618-23.688,30.91
			c-2.258-0.317-2.615-1.362-3.271-3.908c-0.318-1.237-0.68-2.618-1.459-3.887c11.959-17.189,15.777-24.815,18.338-29.938
			c1.594-3.182,2.627-5.24,4.828-8.072C398.292,241.98,401.751,243.269,403.087,243.961z M381.788,295.5
			c-2.354,3.165-4.387,5.896-4.816,6.447l-0.178,0.229l-0.105,0.269c-1.602,4.048-3.916,8.812-5.021,9.951h-43.662
			c0.01-1.456,0.465-4.351,1.135-7.036l0.078-0.312l-0.023-0.32c-0.1-1.367-1.152-2.913-3.26-5.993
			c-2.35-3.438-5.885-8.606-9.401-15.666l-5.209-39.881c2.798-13.688,6.979-31.648,8.261-37.096c1.076,0.156,2.549,0.557,3.77,1.555
			c2.148,1.758,4.133,4.415,4.781,5.319c0.271,1.354,1.15,6.072,1.344,11.023c0.256,6.521,1.508,12.575,3.529,17.05l0.463,1.023
			l1.117,0.137c0.858,0.105,1.633,0.156,2.365,0.156c4.479,0,7.471-1.951,10.32-6.734c1.822-3.058,5.947-11.44,11.171-22.061
			c6.614-13.449,14.849-30.186,22.241-43.934c11.711-21.777,15.145-24.358,15.836-24.614c0.035-0.004,0.068-0.006,0.104-0.006
			c1.41,0,4.5,2.702,7.945,8.636c3.262,5.613,5.02,10.903,5.02,13.031c0,9.524-24.363,40.393-33.783,51.521l-8.441,9.146
			l2.938,2.714l7.658-8.293c7.723,2.088,16.217,5.127,17.246,6.57c0.684,1.304-0.791,5.809-2.562,9.112
			c-2.996,3.67-4.275,6.221-6.023,9.717c-2.611,5.22-6.539,13.075-19.479,31.492c-0.867,0.19-2.939,0.321-5.412-1.756
			c-3.918-3.294-5.625-9.583-4.664-11.941c0.662-1.633,6.83-5.535,12.176-8.159l1.188-0.584l-0.072-1.322
			c-0.572-10.308,6.248-17.296,6.312-17.361l3.434-3.417h-10.877v4h1.92c-2.178,3.271-4.863,8.729-4.822,15.673
			c-3.742,1.909-11.566,6.235-12.962,9.665c-1.813,4.458,1.003,12.482,5.796,16.515c2.645,2.225,5.143,2.786,6.99,2.786
			c1.402,0,2.426-0.32,2.861-0.487c0.158,0.479,0.295,0.989,0.433,1.518c0.673,2.604,1.591,6.164,6.584,6.869
			c0.173,0.024,0.351,0.038,0.534,0.038c0.75,0,1.641-0.23,2.781-0.939c0.525,1.611,1.586,3.114,3.549,3.805
			c0.097,0.032,0.191,0.049,0.287,0.072C382.724,294.239,382.263,294.86,381.788,295.5z M392.776,281.018l-0.311,0.289
			c-0.33,0.38-1.24,1.562-2.562,3.318c-2.395,2.854-4.777,5.029-5.762,5.126c-1.092-0.45-1.238-2.096-1.229-3.011
			c2.441-2.483,5.66-6.438,10.047-12.633c3.559-5.025,6.873-10.133,8.879-13.29c1.73,4.569,2.262,9.52,2.414,11.602L392.776,281.018
			z"/>
		<path fill="#040000" d="M214.279,126.207c-4.893-0.4-9.391-1.255-13.059-2.385l-0.729,1.216
			c-7.544,12.573-7.632,72.241-7.632,72.844v8.387c0,18.171-6.447,39.218-17.69,57.747l-0.547,0.904
			c-6.291,10.391-13.991,19.467-34.735,35.109c-1.68,1.271-5.002,3.337-6.833,4.456c-1.83-1.117-5.151-3.188-6.833-4.456
			c-19.882-14.994-27.537-23.757-33.442-33.03l-1.751-2.75l-0.001,0.002c-3.668,1.129-8.167,1.98-13.059,2.384
			c-9.254,0.758-17.38-0.316-21.275-2.509c4.376,3.356,12.562,13.67,21.683,23.776c3.334,4.173,7.447,8.281,11.923,12.235
			c2,1.839,3.985,3.534,5.933,5.01c0.007,0.005,0.014,0.009,0.021,0.016c5.297,4.292,10.8,8.342,15.888,12.018
			c3.485,2.518,8.842,6.039,11.236,7.389c2.486,1.404,8.19,5.389,8.249,5.428l1.432,1.002l1.432-1.002
			c0.06-0.039,5.763-4.021,8.248-5.428c2.399-1.354,7.756-4.875,11.238-7.389c18.393-13.287,30.616-25.857,39.635-40.757
			l0.542-0.896c13.29-21.896,20.912-47.143,20.912-69.26v-8.387c0-16.571,1.242-34.011,2.604-46.494
			c0.72-6.07,2.346-9.639,4.348-14.122c2.044-4.577,5.954-9.54,9.605-12.078C227.268,126.328,221.083,126.764,214.279,126.207z"/>
		<g>
			<path fill="#040000" d="M351.056,185.255c-2.643,0-5.221,1.795-7.205,4.974c-2.607-0.95-5.779-1.431-9.451-1.431
				c-10.516,0-23.48,3.966-31.828,7.522l-2.174-2.053c-1.67-7.545,1.449-13.703,9.527-18.802l37.807,2.936
				c0.74,0.369,2.6,1.143,5.426,1.297c0.451,0.021,0.881-0.148,1.184-0.477c3.338-3.594,0.646-11.42-0.604-14.492
				c0.843-2.493,0.725-4.081,0.55-6.399c-0.089-1.185-0.196-2.656-0.196-4.625c0-0.353-0.021-0.691-0.064-1.035
				c0-0.015,0-0.026,0-0.04c0-0.18-0.03-0.354-0.09-0.512c-0.68-3.37-3.486-4.547-5.383-5.104l-0.82-2.831
				c0.688-1.641,1.184-3.104,1.475-4.364c0.803-1.857,1.23-3.084,1.434-4.079c0.689-3.383-0.098-6.366-2.113-8.233
				c-0.143-0.812-0.688-2.613-2.793-4.263c-1.438-3.168-2.516-5.646-3.168-7.303l-3.326-0.343c0.693,2.046,2.516,6.146,3.925,9.236
				c0.106,0.235,0.274,0.44,0.485,0.594c0.994,0.717,1.48,1.443,1.713,1.948c-0.041,0.092-0.072,0.188-0.098,0.29
				c-0.143,0.617,0.121,1.26,0.656,1.602c1.646,1.049,2.312,3.245,1.777,5.874c-0.204,1.014-0.805,2.463-1.303,3.612
				c-0.037,0.087-0.064,0.178-0.088,0.271c-0.271,1.23-0.791,2.732-1.541,4.466c-0.139,0.32-0.162,0.68-0.063,1.015l1.2,4.149
				c0.148,0.509,0.553,0.899,1.062,1.034c2.453,0.646,3.754,1.312,4.057,3.175c0.045,0.277,0.066,0.554,0.066,0.842
				c0,2.079,0.114,3.613,0.207,4.848c0.172,2.318,0.26,3.479-0.57,5.694c-0.135,0.36-0.125,0.762,0.027,1.115
				c2.074,4.854,2.742,9.29,1.76,11.272c-2.242-0.254-3.513-0.954-3.52-0.954l0,0c0,0,0,0-0.002,0l-1.616-1.08
				c-0.675-0.452-1.586-0.282-2.058,0.379c-0.049,0.069-0.092,0.143-0.127,0.214l-35.522-2.758
				c-0.315-0.021-0.632,0.052-0.899,0.218c-9.652,5.932-13.416,13.583-11.185,22.749c0.067,0.281,0.218,0.537,0.429,0.736
				l3.223,3.042c0.439,0.414,1.082,0.525,1.636,0.282c8.021-3.537,21.093-7.668,31.532-7.668c3.857,0,7.045,0.563,9.477,1.68
				c0.727,0.332,1.584,0.04,1.954-0.667c1.761-3.359,3.854-4.556,5.228-4.556c1.109,0,1.822,0.741,1.896,1.947
				c-0.164,0.415-0.638,1.392-1.097,2.334c-2.768,5.698-8.524,17.557-6.893,25.528c0.318,1.555,0.389,5.296-1.646,8.326
				c-1.43,2.131-3.646,3.493-6.6,4.049c-0.627,0.119-1.517-0.318-2.088,0.179c-1.17,1.018-1.188-0.032-1.893-0.107v3.011
				c1.689,0.157,3.209,0.12,4.535-0.131c3.771-0.711,6.645-2.503,8.535-5.327c2.582-3.847,2.529-8.475,2.092-10.601
				c-1.428-6.978,4.234-18.637,6.652-23.613c0.887-1.826,1.252-2.587,1.366-3.099c0.024-0.108,0.037-0.222,0.037-0.332
				C355.96,187.428,353.897,185.255,351.056,185.255z"/>
			<path fill="#040000" d="M312.786,223.306c-2.246-1.146-4.66-2.444-7.297-3.954l-0.191-0.109
				c-4.254-2.435-9.025-3.772-13.434-3.772c-2.365,0-4.617,0.378-6.689,1.125c-0.031,0.011-0.062,0.023-0.094,0.038
				c-5.979,2.624-12.752,7.023-19.078,12.391c-0.398,0.339-0.592,0.86-0.511,1.376c0.081,0.519,0.427,0.954,0.907,1.153
				l17.545,7.248c4.621,8.083,3.512,18.077,2.436,27.75c-0.379,3.398-0.736,6.611-0.83,9.665c-0.051,1.632,0.123,3.713,0.326,6.123
				c0.596,7.137,1.404,16.812-3.178,21.8c-4.57-0.594-11.312,5.142-17.221,10.197c-1.01,0.862-1.983,1.697-2.895,2.454
				c-3.285-7.895-14.794-34.201-23.924-38.467c-0.044-0.39-0.199-0.758-0.467-1.07c-0.708-0.841-2.119-1.216-4.57-1.216
				c-5.848,0-17.952,2.335-26.948,7.52l-0.047,3.055c0.366,0.079,0.751,0.015,1.073-0.18c8.461-5.044,20.47-7.395,25.92-7.395
				c0.972,0,1.576,0.068,1.94,0.141c-0.08,0.746,0.406,1.439,1.144,1.617c2.041,0.485,6.72,3.737,15.14,20.034
				c4.912,9.506,8.686,18.859,8.723,18.953c0.176,0.438,0.547,0.769,1.002,0.891c0.128,0.033,0.261,0.051,0.391,0.051
				c0.331,0,0.655-0.109,0.924-0.318c1.369-1.067,2.912-2.391,4.545-3.787c4.694-4.02,11.127-9.521,14.562-9.521
				c0.262,0,0.494,0.035,0.693,0.104c0.521,0.184,1.104,0.062,1.512-0.313c6.258-5.789,5.34-16.773,4.668-24.794
				c-0.191-2.318-0.359-4.32-0.314-5.78c0.09-2.934,0.439-6.087,0.812-9.426c1.1-9.854,2.34-21.023-3.09-30.049
				c-0.166-0.274-0.416-0.489-0.713-0.612l-15.705-6.488c7.338-5.918,13.32-8.98,16.387-10.333
				c5.102-1.815,11.805-0.851,17.568,2.447l0.19,0.109c3.103,1.775,6.024,3.344,8.786,4.718v-3.371h0.003V223.306z"/>
		</g>
	</g>
</g>
<g>
	<g>
		<g>
			<path fill="#070001" d="M337.34,365.481c0,1.529-0.544,2.829-1.636,3.897c-1.097,1.067-2.395,1.603-3.898,1.603
				c-1.021,0-1.95-0.243-2.789-0.729c-0.838-0.485-1.498-1.146-1.982-1.986c-0.487-0.836-0.729-1.765-0.729-2.785
				c0-1.506,0.534-2.805,1.604-3.896c1.068-1.092,2.367-1.641,3.897-1.641c1.504,0,2.803,0.547,3.897,1.641
				C336.794,362.677,337.34,363.975,337.34,365.481z"/>
		</g>
	</g>
	<path fill="#070001" d="M201.909,394.979c0.994-0.668,1.994,0.224,1.994,1.11v4.77c0,0.889-0.675,1.885-1.501,2.212
		c0,0-1.168,0.464-3.14,0.966c-1.971,0.5-3.858,0.748-5.66,0.748c-7.79,0-11.681-3.804-11.681-11.41v-10.578
		c0-0.889-0.729-1.614-1.615-1.614h-1.667c-0.888,0-1.615-0.426-1.615-0.947c0-0.521,0.51-1.464,1.133-2.098l12.242-12.474
		c0.622-0.632,1.408-1.151,1.747-1.151c0.337,0,0.615,0.726,0.615,1.615v5.93c0,0.889,0.729,1.615,1.615,1.615h7.103
		c0.889,0,1.614,0.726,1.614,1.614v4.28c0,0.888-0.726,1.615-1.614,1.615h-7.103c-0.888,0-1.615,0.726-1.615,1.614v6.562
		c0,0.888,0.026,2.34,0.055,3.229c0,0,0.017,0.448,0.157,1.147c0.141,0.701,0.536,1.29,1.187,1.76
		c0.65,0.472,1.637,0.705,2.959,0.705C198.633,396.198,200.413,395.877,201.909,394.979z"/>
	<path fill="#070001" d="M326.401,403.991v-28.703c0-0.889,0.728-1.614,1.614-1.614h7.614c0.887,0,1.611,0.726,1.611,1.614v29.115
		c0,7.609-3.894,11.412-11.681,11.412c-1.802,0-3.69-0.249-5.663-0.75c-1.97-0.5-3.138-0.965-3.138-0.965
		c-0.826-0.33-1.502-1.323-1.502-2.211v-4.77c0-0.889,0.998-1.78,1.996-1.112c1.494,0.898,3.273,1.219,4.792,1.219
		c1.32,0,2.271-0.286,2.96-0.705C326.034,405.895,326.401,404.707,326.401,403.991z"/>
	<path fill="#070001" d="M162.818,373.134c-1.963,0-3.813,0.345-5.556,1.037c-1.742,0.688-4.087,2.806-4.087,2.806
		c-0.659,0.595-1.198,0.355-1.198-0.532v-12.209c0-0.889-0.727-1.614-1.614-1.614h-7.583c-0.887,0-1.613,0.727-1.613,1.614v38.396
		c0,0.887,0.727,1.614,1.613,1.614h7.583c0.888,0,1.614-0.728,1.614-1.614v-14.426c0.034-1.138,0.528-2.617,1.164-3.462
		c0.586-0.712,1.188-1.353,1.811-1.896c1.039-0.91,2.241-1.366,3.604-1.366c1.742,0,2.923,0.611,3.543,1.833
		c0.621,1.221,0.931,2.562,0.931,4.024c0,0.359-0.006,0.596-0.015,0.705c-0.011,0.11-0.011,0.11-0.011,0.11
		c-0.002,0.13-0.004,0.961-0.004,1.85v12.628c0,0.887,0.726,1.614,1.613,1.614h7.584c0.888,0,1.614-0.728,1.614-1.614v-17.155
		C173.811,377.248,170.146,373.134,162.818,373.134z"/>
	<path fill="#070001" d="M262.272,378.854c-0.793-1.852-2.013-3.269-3.665-4.25c-1.648-0.979-3.698-1.471-6.142-1.471
		c-2.442,0-4.599,0.5-6.471,1.501c-1.873,1.002-3.683,2.482-5.423,4.446c-0.438-1.062-1.028-1.993-1.771-2.795
		c-0.74-0.8-1.568-1.432-2.479-1.892c-0.912-0.46-1.838-0.786-2.777-0.976c-0.941-0.189-1.933-0.285-2.973-0.285
		c-2.205,0-4.145,0.39-5.825,1.171c-1.682,0.781-3.763,2.669-3.763,2.669c-0.656,0.597-1.193,0.359-1.193-0.528v-1.155
		c0-0.89-0.728-1.615-1.613-1.615h-7.584c-0.887,0-1.612,0.726-1.612,1.615v27.344c0,0.887,0.726,1.614,1.612,1.614h7.584
		c0.887,0,1.613-0.728,1.613-1.614v-14.303c0-1.152,0.588-2.85,1.38-3.816c0.497-0.63,0.933-1.126,1.295-1.47
		c0.42-0.402,0.966-0.763,1.638-1.082c0.67-0.319,1.407-0.48,2.207-0.48c1.682,0,2.852,0.562,3.512,1.682
		c0.661,1.122,0.848,3.167,0.848,3.167c0.08,0.884,0.146,2.335,0.146,3.221v13.081c0,0.887,0.728,1.614,1.614,1.614h7.585
		c0.887,0,1.613-0.728,1.613-1.614v-14.302c0-1.188,0.618-2.955,1.446-3.905l-0.025-0.004c0.484-0.585,0.976-1.109,1.464-1.573
		c0.96-0.91,2.19-1.366,3.69-1.366c1.543,0,2.671,0.537,3.381,1.605c0.71,1.073,0.914,3.243,0.914,3.243
		c0.085,0.885,0.15,2.335,0.15,3.221v13.081c0,0.887,0.729,1.614,1.615,1.614h7.584c0.887,0,1.612-0.728,1.612-1.614v-17.036
		C263.456,382.954,263.063,380.708,262.272,378.854z"/>
	<path fill="#070001" d="M296.737,386.047c0.556-0.09,2.141-0.36,3.479-0.36c1.981,0,3.561,0.277,4.729,0.826
		c1.175,0.551,1.999,1.247,2.48,2.088c0.479,0.84,0.72,1.73,0.72,2.672c0,1.143-0.411,2.249-1.231,3.319
		c-0.821,1.072-2.251,1.605-4.292,1.605c-1.724,0-3.75-0.489-6.084-1.471c-2.331-0.981-4.056-2.058-4.056-2.058
		c-0.75-0.472-1.366-0.129-1.366,0.759v7.366c1.963,1.343,4.115,2.343,6.458,3.003c2.344,0.661,4.794,0.99,7.357,0.99
		c3.201,0,5.92-0.625,8.154-1.878c2.231-1.25,3.903-2.916,5.016-5c1.112-2.082,1.666-4.315,1.666-6.698
		c0-2.304-0.563-4.431-1.695-6.382c-1.131-1.951-2.758-3.52-4.881-4.699c-2.121-1.182-4.586-1.772-7.387-1.772
		c-0.441,0-0.736,0.007-0.886,0.016c-0.152,0.011-0.403,0.029-0.753,0.061c-0.351,0.03-0.351,0.03-0.351,0.03
		c-0.358,0.041-0.656-0.651-0.656-1.541v-3.917c0-0.888,0.729-1.615,1.615-1.615h11.668c0.888,0,1.613-0.726,1.613-1.615v-5.54
		c0-0.889-0.727-1.614-1.613-1.614h-20.89c-0.888,0-1.614,0.727-1.614,1.614v20.964c0,0.706,0.575,1.212,1.28,1.175
		C295.554,386.355,296.142,386.142,296.737,386.047z"/>
	<path fill="#070001" d="M268.526,392.57c0,7.608,3.892,11.412,11.683,11.412c1.27,0,3.1-0.41,4.102-0.896
		c0.994-0.483,1.613-1.291,1.613-2.181v-4.308c0-0.889-0.728-1.615-1.611-1.615h-0.589c-1.323,0-2.309,0.178-2.96-0.294
		c-0.649-0.469-1.045-1.058-1.187-1.759c-0.141-0.701-0.155-1.148-0.155-1.148c-0.029-0.887-0.056-2.339-0.056-3.228v-24.338
		c0-0.89-0.726-1.614-1.611-1.614h-7.614c-0.889,0-1.613,0.727-1.613,1.614L268.526,392.57L268.526,392.57z"/>
</g>
</svg>
