<svg id="レイヤー_1" data-name="レイヤー 1" xmlns="http://www.w3.org/2000/svg" viewBox="0 0 274.96 85.04"><defs><style>.cls-1{fill:#e50012;}</style></defs><title>アートボード 1</title><path class="cls-1" d="M72.91,35.48q-8,.3-12.25,5.42a17.44,17.44,0,0,0-4.28,11.23,18.24,18.24,0,0,0,4,11.36q4,5.22,12.27,5.57,8.38-.3,12.64-5.33a17.53,17.53,0,0,0,4.27-11.6A17.18,17.18,0,0,0,85.2,40.68Q80.92,35.74,72.91,35.48ZM79.7,62.64a6.82,6.82,0,0,1-6.51,5,7.17,7.17,0,0,1-6.73-4.87,27.74,27.74,0,0,1-1.81-10.82,25.73,25.73,0,0,1,1.77-10.48A6.81,6.81,0,0,1,72.82,37a7.13,7.13,0,0,1,6.52,4.64,24.7,24.7,0,0,1,1.91,10.3A30.29,30.29,0,0,1,79.7,62.64Z"/><path class="cls-1" d="M118.38,38.75q-2.88-2.41-8.93-2.49H93.59v1.12a4.18,4.18,0,0,1,3.23,1.06,4,4,0,0,1,.85,2.8V63a4.84,4.84,0,0,1-.84,3.19q-.89,1.11-3.33,1.11v1.06h15.86V67.33a4.36,4.36,0,0,1-3.28-1,4.67,4.67,0,0,1-.93-3.33V53.86h4.48q6.09-.12,8.87-2.68a7.89,7.89,0,0,0,2.73-6.12A7.78,7.78,0,0,0,118.38,38.75Zm-6.7,11.64q-1.34,1.83-4.77,1.86h-1.75V39.79a1.82,1.82,0,0,1,.53-1.37,2.45,2.45,0,0,1,1.69-.54q3.41,0,4.55,2A9.88,9.88,0,0,1,113,45.16,8.55,8.55,0,0,1,111.68,50.38Z"/><path class="cls-1" d="M196.7,63.58,184.92,35.48h-1.21q-1.1,2.68-2.54,6.29l-3,7.53q-1.57,3.92-3,7.53t-2.52,6.38A9.58,9.58,0,0,1,171.13,66a3.13,3.13,0,0,1-2.46,1.26v1.17h9.39V67.22q-2.38,0-3.24-1a2.45,2.45,0,0,1-.14-2.71l1.7-4.49h10.54l2,5.07q.56,1.7-.38,2.43a5.29,5.29,0,0,1-3.24.71v1.17h15V67.22a2.68,2.68,0,0,1-2.13-1A9.84,9.84,0,0,1,196.7,63.58ZM177.13,57.1l4.48-11.39,4.55,11.39Z"/><path class="cls-1" d="M200.73,45.93h1.12a9.38,9.38,0,0,1,2.37-5.79q2.14-2.38,6.68-2.48V62.91a4.62,4.62,0,0,1-1,3.4,4.75,4.75,0,0,1-3.52,1v1.06h16.51V67.33a5,5,0,0,1-3.51-.91q-1-1-1-3.51V37.66q4.89.07,6.81,2.37a11.09,11.09,0,0,1,2.37,5.9h1.14V36.26h-28Z"/><path class="cls-1" d="M260.61,58.41a1,1,0,0,0-.71.12,11.92,11.92,0,0,1-4.49,6.2,12.62,12.62,0,0,1-7.2,1.94h-1.42a3.36,3.36,0,0,1-2.41-.68,2.51,2.51,0,0,1-.65-1.9V52.69q4.28,0,5.72,1.8a10.71,10.71,0,0,1,1.79,5.67h.65a2.75,2.75,0,0,1,.49,0l0-16.07h-1a12.89,12.89,0,0,1-2.07,5.47q-1.32,1.65-5.56,1.6V40.28a2.25,2.25,0,0,1,.63-1.78,3.09,3.09,0,0,1,2.15-.62h1.7a11.26,11.26,0,0,1,6.88,1.82q2.56,1.87,3,6.12h1V36.26H232.16v1.06a4.35,4.35,0,0,1,3.18.94,3.58,3.58,0,0,1,.89,2.67V63.87a3.38,3.38,0,0,1-.91,2.55,4.55,4.55,0,0,1-3.26,1v1h27.27l1.91-10A1.83,1.83,0,0,1,260.61,58.41Z"/><path class="cls-1" d="M49.52,67.12a3.24,3.24,0,0,1-1.4-.71,3.62,3.62,0,0,1-1-2.33,9.66,9.66,0,0,1-.06-1.18V34.63l-1.3.53a62.28,62.28,0,0,0-6.19,3v22h0v2.51c0,1.58-.13,4.23-3.73,4.23-10.62,0-24.34-20.89,8.65-34.7,20.14-8.43,49.26-13.55,83.56-16.61-28-1.94-96.94,2.92-111.49,26C8.89,53.81,16.87,68.39,37,68.39H51.63V67.33a10,10,0,0,1-1.14,0A6.27,6.27,0,0,1,49.52,67.12Z"/><path class="cls-1" d="M150.34,56.31a5.88,5.88,0,0,1,3.69.82,3.22,3.22,0,0,1,1,2.71v4.48a3.22,3.22,0,0,1-1.14,2.87,6.25,6.25,0,0,1-3.72.95c-9.92,0-23-20.94,9.58-34.49C179.89,25.26,209,20.09,243.3,17c-28-1.94-96.94,2.92-111.49,26-7.31,11.6-.4,26.84,17.69,26.84a31.23,31.23,0,0,0,7.07-.79,26,26,0,0,0,5.64-1.91V59.54a3.07,3.07,0,0,1,.91-2.43,4.27,4.27,0,0,1,2.87-.8V55.25H150.34Z"/></svg>