<svg id="layer_1" data-name="layer_1" xmlns="http://www.w3.org/2000/svg" viewBox="0 0 766 137"><defs><style>.cls-1,.cls-2,.cls-3{stroke:#000;stroke-linecap:round;stroke-linejoin:round;fill-rule:evenodd;}.cls-1{stroke-width:1.4px;}.cls-2{stroke-width:2.8px;}.cls-3{stroke-width:1.79px;}</style></defs><title>アートボード 1</title><path class="cls-1" d="M65,24H746a4,4,0,0,1,3,3,81,81,0,0,1,1,15c0,10,0,19,0,29s-1,20-1,28a19,19,0,0,1-2,8c-2,4-154,1-158,1H30c-3,0-4-1-5-4a16,16,0,0,1,0-3c0-13,0-27,1-40s1-10,1-15,0-4,0-6a56,56,0,0,1,0-7c1-4,3-6,7-6H65Zm483,80h38c6-1,158,1,158-5s0-18,0-24,0-30-1-42-153-5-159-5H36a3,3,0,0,0-3,3,82,82,0,0,0-1,8c0,7-1,14-1,21V85c0,1,0,3,0,4s0,5,0,8,1,4,4,4H547Z"/><path class="cls-2" d="M17,101c-2,4-11,12-14,13Z"/><path class="cls-2" d="M70,134c-1-4,0-9-1-14v-2h1v16Z"/><path class="cls-2" d="M123,117v18c-1-1-1-1-1-6v-6C122,121,122,119,123,117Z"/><path class="cls-2" d="M252,114c1,5,0,10,0,16S251,116,252,114Z"/><path class="cls-2" d="M21,112a51,51,0,0,1-9,14c0-3,2-4,3-5l3-4C19,114,19,112,21,112Z"/><path class="cls-2" d="M238,114c0,5,1,11,1,16h-1c0-3,0-5,0-8S237,117,238,114Z"/><path class="cls-2" d="M16,11c3,2,9,8,9,10L15,12Z"/><path class="cls-2" d="M138,118v17c-1-2-2-13-2-17Z"/><path class="cls-2" d="M17,79c-3,3-12,4-15,2H17Z"/><path class="cls-2" d="M3,57c3-1,12-1,14,0Z"/><path class="cls-2" d="M175,117c0,5,2,10,2,14S174,119,175,117Z"/><path class="cls-2" d="M17,89c-2,3-12,7-15,6l8-3Z"/><path class="cls-2" d="M386,114c1,5,0,9,2,14h-1A28,28,0,0,1,386,114Z"/><path class="cls-2" d="M201,129c-2-3-1-6-2-10s0-3,1-5Z"/><path class="cls-2" d="M94,118v15c-2-2-1-5-1-8S92,120,94,118Z"/><path class="cls-2" d="M153,20,150,7h1l2,12h-1Z"/><path class="cls-2" d="M225,115v15C224,127,224,118,225,115Z"/><path class="cls-2" d="M82,5c2,5,4,9,4,14L81,5Z"/><path class="cls-2" d="M234,3c1,2,3,12,3,14S234,6,234,3Z"/><path class="cls-2" d="M276,129V115C277,118,277,125,276,129Z"/><path class="cls-2" d="M139,19c0-5-3-9-4-14S141,16,139,19Z"/><path class="cls-2" d="M109,135v-2c0-5-1-10-1-15h1v17Z"/><path class="cls-2" d="M25,131H24v-2l5-14A75,75,0,0,1,25,131Z"/><path class="cls-2" d="M187,130c-2-2-2-10-1-13S186,125,187,130Z"/><path class="cls-2" d="M222,5a35,35,0,0,1,2,13h-1V12c0-2,0-4-1-6s0-1,0-1Z"/><path class="cls-2" d="M533,3c2,4,1,9,1,13s-1-4-1-7S533,5,533,3Z"/><path class="cls-2" d="M311,5c1,2,1,10,0,13Z"/><path class="cls-2" d="M175,4c1,2,2,10,2,13S175,7,175,4Z"/><path class="cls-2" d="M324,126c-2-3-2-10-1-13Z"/><path class="cls-2" d="M82,117v15H82V117Z"/><path class="cls-2" d="M574,17c-1-4,0-9,0-13h1c0,4,0,8,0,12Z"/><path class="cls-2" d="M272,5c1,3,2,11,1,13V5Z"/><path class="cls-2" d="M299,19V5C301,9,301,16,299,19Z"/><path class="cls-2" d="M288,128c-1-2-1-9,0-12S288,127,288,128Z"/><path class="cls-2" d="M255,3c2,8,3,11,2,14L254,4Z"/><path class="cls-2" d="M502,129c-2-2-4-10-3-13Z"/><path class="cls-2" d="M431,3c1,4,1,11,0,13Z"/><path class="cls-2" d="M407,1c2,5,2,11,0,13Z"/><path class="cls-2" d="M108,5c4,5,5,11,5,13Z"/><path class="cls-2" d="M41,130a6,6,0,0,1,0-2c1-4,0-9,2-12v14Z"/><path class="cls-2" d="M164,117v14C163,129,162,120,164,117Z"/><path class="cls-2" d="M4,69H16C14,70,10,70,4,69Z"/><path class="cls-2" d="M126,19c-2-5-4-9-5-14S126,17,126,19Z"/><path class="cls-2" d="M448,115v13c-1-4-1-9-1-13Z"/><path class="cls-2" d="M281,18,280,6h1V18Z"/><path class="cls-2" d="M515,129c-1-2-3-8-3-12S515,125,515,129Z"/><path class="cls-2" d="M514,15a45,45,0,0,1-1-13h1V15Z"/><path class="cls-2" d="M266,16c-1-4-1-9-2-13s1,4,2,6a61,61,0,0,1,1,7Z"/><path class="cls-2" d="M525,130l-2-13c2,2,2,4,2,7s1,4,1,7Z"/><path class="cls-2" d="M332,128c-1-5-1-9,0-14v14Z"/><path class="cls-2" d="M4,47c4-1,11,0,13,2H13Z"/><path class="cls-2" d="M419,16V3h1c0,4,1,7,1,11v2Z"/><path class="cls-2" d="M342,114v13C341,124,340,116,342,114Z"/><path class="cls-2" d="M342,17V4c2,2,1,5,1,7S343,15,342,17Z"/><path class="cls-2" d="M354,16V2C355,5,355,13,354,16Z"/><path class="cls-2" d="M95,6c1,4,3,9,4,13H98L94,6Z"/><path class="cls-2" d="M413,115v12h-1c-1-4-1-8-2-12Z"/><path class="cls-2" d="M69,5c1,4,4,8,3,13L68,5Z"/><path class="cls-2" d="M319,5a23,23,0,0,1,2,12h-1Z"/><path class="cls-2" d="M353,113v14c-1-2-2-10-2-14Z"/><path class="cls-2" d="M213,5l2,14h-1a104,104,0,0,1-2-14Z"/><path class="cls-2" d="M213,128c-1-2-2-11-1-14S213,122,213,128Z"/><path class="cls-2" d="M742,16c1-5,3-10,6-11Z"/><path class="cls-2" d="M187,18c-2-4-2-9-3-14S187,16,187,18Z"/><path class="cls-2" d="M478,116c2,4,2,9,3,13h-1l-3-13Z"/><path class="cls-2" d="M299,128c-1-2-1-11,1-14s0,5,0,7-1,4,0,6Z"/><path class="cls-2" d="M489,16V3C490,4,490,12,489,16Z"/><path class="cls-2" d="M28,6l4,6,4,6C33,16,28,10,28,6Z"/><path class="cls-2" d="M46,18,41,6c2,1,3,3,4,5S47,15,46,18Z"/><path class="cls-2" d="M444,3c1,4,2,8,0,13V3Z"/><path class="cls-2" d="M436,127a64,64,0,0,1-2-13h1l2,13Z"/><path class="cls-2" d="M563,2a50,50,0,0,1,1,13h-1V3Z"/><path class="cls-2" d="M9,22h1l10,7h0Z"/><path class="cls-2" d="M584,3c1,2,0,10-1,13S583,7,584,3Z"/><path class="cls-2" d="M466,3c1,2,1,10,1,13s0-5-1-7S466,5,466,3Z"/><path class="cls-2" d="M6,34l12,5c-2,1-4-1-6-2L5,35Z"/><path class="cls-2" d="M385,5c0,4,1,8,1,12h-1V5Z"/><path class="cls-2" d="M363,3c0,4,2,8,1,12h-1L362,3Z"/><path class="cls-2" d="M266,131c-1-5-1-11-1-16h1Z"/><path class="cls-2" d="M151,115v15C150,127,150,118,151,115Z"/><path class="cls-2" d="M163,5c1,4,3,8,1,13L162,5Z"/><path class="cls-2" d="M546,117c1,2,3,11,3,13S546,120,546,117Z"/><path class="cls-2" d="M55,4c1,3,4,10,4,12S55,7,55,4Z"/><path class="cls-2" d="M401,126c-2-4-1-8-1-12h1v12Z"/><path class="cls-2" d="M749,112l8,10h-1C753,119,750,116,749,112Z"/><path class="cls-2" d="M760,14c-2,4-8,6-11,5l6-2Z"/><path class="cls-2" d="M581,117c1,4,4,8,5,12S580,119,581,117Z"/><path class="cls-2" d="M374,5c0,4,1,8,1,12h-1V5Z"/><path class="cls-2" d="M195,5a35,35,0,0,1,2,13h-1L195,5Z"/><path class="cls-2" d="M541,5c2,4,2,9,1,12Z"/><path class="cls-2" d="M553,4V16c-2-2-2-8-2-12Z"/><path class="cls-2" d="M332,16V3C332,5,333,13,332,16Z"/><path class="cls-2" d="M365,126c-2-4-1-7-1-11S364,122,365,126Z"/><path class="cls-2" d="M248,16V4C249,5,249,12,248,16Z"/><path class="cls-2" d="M55,133V116c1,6,0,12,1,17Z"/><path class="cls-2" d="M537,117l2,11h-1c-1-3-2-6-2-9a9,9,0,0,1,0-3Z"/><path class="cls-2" d="M204,7c1,3,2,7,0,11V7Z"/><path class="cls-2" d="M291,19V5C291,9,292,16,291,19Z"/><path class="cls-2" d="M730,17a35,35,0,0,0,2-13h-1l-2,13Z"/><path class="cls-2" d="M456,3c2,3,2,9,0,12Z"/><path class="cls-2" d="M559,129l-3-12C557,118,559,125,559,129Z"/><path class="cls-2" d="M487,116l2,13c-1-2-3-11-3-13Z"/><path class="cls-2" d="M478,16,477,4h1C478,8,480,12,478,16Z"/><path class="cls-2" d="M471,127c-2-2-3-8-2-12Z"/><path class="cls-2" d="M765,28c-4,3-9,4-11,3Z"/><path class="cls-2" d="M376,115l2,12c-1-1-1-1-2-5v-6Z"/><path class="cls-2" d="M425,128a34,34,0,0,1-1-12C425,119,425,123,425,128Z"/><path class="cls-2" d="M764,107c-4,0-7-2-8-5l4,3Z"/><path class="cls-2" d="M762,93c-3,1-6-1-9,0S757,91,762,93Z"/><path class="cls-2" d="M523,4V16h-1c-1-4-1-8-1-11Z"/><path class="cls-2" d="M572,128a37,37,0,0,1-4-11C570,119,573,126,572,128Z"/><path class="cls-2" d="M740,115l6,11C743,124,740,118,740,115Z"/><path class="cls-2" d="M500,16V4C501,6,502,12,500,16Z"/><path class="cls-2" d="M313,129c-1-3-2-11,0-14Z"/><path class="cls-2" d="M649,114c1,5,0,10,0,16S648,116,649,114Z"/><path class="cls-2" d="M635,114c0,5,1,11,1,16h-1c0-3,0-5,0-8S634,117,635,114Z"/><path class="cls-2" d="M598,129c-2-3-1-6-2-10s0-3,1-5Z"/><path class="cls-2" d="M623,115v15C621,127,621,118,623,115Z"/><path class="cls-2" d="M673,129V115C674,118,674,125,673,129Z"/><path class="cls-2" d="M721,126c-2-3-2-10-1-13Z"/><path class="cls-2" d="M685,128c-1-2-1-9,0-12S686,127,685,128Z"/><path class="cls-2" d="M730,128c-1-5-1-9,0-14v14Z"/><path class="cls-2" d="M610,128c-1-2-2-11-1-14S610,122,610,128Z"/><path class="cls-2" d="M697,128c-1-2-1-11,1-14s0,5,0,7-1,4,0,6Z"/><path class="cls-2" d="M663,131c-1-5-1-11-1-16h1Z"/><path class="cls-2" d="M710,129c-1-3-2-11,0-14Z"/><path class="cls-2" d="M396,4c1,3,1,10,0,13Z"/><path class="cls-2" d="M651,3c-1,4-1,11,0,13Z"/><path class="cls-2" d="M675,1c-2,5-2,11,0,13Z"/><path class="cls-2" d="M663,16V3h-1c0,4-1,7-1,11v2Z"/><path class="cls-2" d="M594,16V3C592,4,592,12,594,16Z"/><path class="cls-2" d="M638,3c-1,4-2,8,0,13V3Z"/><path class="cls-2" d="M616,3c-1,2-1,10-1,13s0-5,1-7S616,5,616,3Z"/><path class="cls-2" d="M697,5c0,4-1,8-1,12h1V5Z"/><path class="cls-2" d="M720,3c0,4-2,8-1,12h1l2-12Z"/><path class="cls-2" d="M709,5c0,4-1,8-1,12h1V5Z"/><path class="cls-2" d="M626,3c-2,3-2,9,0,12Z"/><path class="cls-2" d="M604,16l2-12h-1C604,8,602,12,604,16Z"/><path class="cls-2" d="M687,4c-1,3-1,10,0,13Z"/><path class="cls-2" d="M763,71a8,8,0,0,1-9,1Z"/><path class="cls-2" d="M764,41c-3,2-5,3-8,1Z"/><path class="cls-2" d="M459,115v14C458,127,458,119,459,115Z"/><path class="cls-2" d="M754,82h9C761,83,757,83,754,82Z"/><path class="cls-2" d="M764,52c-2,2-7,2-9,1Z"/><path class="cls-2" d="M755,62h9c-3,2-6,2-8,2Z"/><path class="cls-1" d="M118,35h3c3,0,3,0,4,3l10,39h1l3-8,7-23,4-11c1-2,2-2,3-2s3,1,3,3,0,8,0,12l2,46v3h-5c-1,0-2-1-2-2s0-4,0-6,0-11,0-17-1-10-1-15-3,9-5,13l-4,14-3,14h-5c-2-14-7-26-11-40-2,13-2,26-2,40h-5c-1-4,0-7,0-11l3-46Z"/><path class="cls-1" d="M511,74V61c0-6,1-13,1-19a38,38,0,0,0,0-6c0-2,0-3,2-3s4-1,6,0l-4,61h-4a3,3,0,0,1-3-3,84,84,0,0,0-6-19c-3-6-4-13-7-19h-1c-1,7-1,14-2,21s-1,14-1,21h-6l2-60c4-2,6-1,8,3l12,34Z"/><path class="cls-1" d="M46,62H64V57c1-7,1-13,1-20a2,2,0,0,1,2-2c3-1,5,1,5,5s-1,17-2,25-1,21-1,32-1,4-4,3H64V89c0-3,0-6,0-10s0-6,0-10H45c-2,10,0,19-1,29s-5,1-7,0-1-2-1-3a82,82,0,0,1,0-9l2-32V39c0-4,2-5,6-4v2a7,7,0,0,1,0,3C46,47,46,54,46,62Z"/><path class="cls-1" d="M195,92a7,7,0,0,1,5-5c3,3,7,4,11,4h4c8-2,12-8,11-16s-6-8-10-9-9-1-14,1h-1c-4,1-4,0-4-4l3-28V34h35v7H207l-2,18h7c6,0,11,1,16,4a13,13,0,0,1,7,10c1,9-1,16-9,21s-9,3-13,4l-13-2A7,7,0,0,1,195,92Z"/><path class="cls-1" d="M325,51h0c0,5-1,10-1,15s-1,16-1,24,0,3,0,5-1,2-2,2h-2c-3,0-3,0-3-3l2-41q0-7,0-14c0-4,0-5,5-5h2l14,36h1c1-6,1-13,1-19s1-13,1-19,6,0,5,3-1,13-1,20,0,6,0,8,0,17,0,26,0,3,0,4,0,3-2,3a3,3,0,0,1-3-2l-2-9-3-9-6-15-5-12Z"/><path class="cls-1" d="M438,69c3,9,8,18,11,28h-7l-2-2-6-16-4-9h-7V96c-6,2-7,1-7-5s1-15,1-23,1-14,1-21,0-8,0-12h16c3,0,6,2,9,3a11,11,0,0,1,5,6c3,8,1,15-4,21ZM424,56h0c0,2,0,4,0,5s1,3,3,3h7c5-1,8-5,10-10s0-7-2-9a15,15,0,0,0-14-4,3,3,0,0,0-3,3C425,47,424,51,424,56Z"/><path class="cls-1" d="M562,34h25c0,2,1,4,0,6H570c-1,5-1,10-2,16h18c0,2,0,4,0,6s-1,2-2,2H567l-2,22h23V97H556C559,77,562,56,562,34Z"/><path class="cls-1" d="M282,70l2-16c1-7,4-13,9-19s8-4,12-1,6,6,7,10,2,26-1,39a22,22,0,0,1-4,8c-4,5-9,7-15,5a11,11,0,0,1-7-6C282,84,282,77,282,70Zm7,1a39,39,0,0,0,0,6,58,58,0,0,0,2,9c1,3,3,3,5,3s4-1,6-3,3-6,4-9a88,88,0,0,0,1-28,27,27,0,0,0-2-6,5,5,0,0,0-6-3,8,8,0,0,0-7,6C290,54,288,63,288,71Z"/><path class="cls-1" d="M411,66H389V90h22c2,0,3,2,3,4s-1,3-3,3H386c-4,0-4,0-4-4s0-19,1-29,0-16,0-24a11,11,0,0,1,0-2c0-2,1-3,3-2h28v7H390V58h19c3,0,3,0,3,3Z"/><path class="cls-1" d="M557,48h-7V46a5,5,0,0,0-7-3c-3,1-6,3-7,6s-7,22-3,34l2,3c1,2,3,3,6,2s4-1,5-4h0c1-5,1-5,6-5h2c1,3,0,6-1,9s-9,10-14,9-9-4-12-10a36,36,0,0,1-3-20c1-5,1-10,2-14a25,25,0,0,1,6-12c3-3,7-5,12-5s6,0,9,2S559,42,557,48Z"/><path class="cls-1" d="M280,37a12,12,0,0,1-4,6l-5-2a6,6,0,0,0-6,1,22,22,0,0,0-7,9,46,46,0,0,0-2,30l2,4c2,3,4,4,8,4a8,8,0,0,0,6-3c2-2,2-2,4-1s3,3,1,6-14,7-20,3-10-12-11-20,2-22,7-31a32,32,0,0,1,8-9c4-4,10-4,15,0Z"/><path class="cls-1" d="M483,97H454c-1-4,0-7,0-10s0-4,0-6,1-23,1-35,0-7,0-11,20-1,28,0v5H462l-2,18h23v7c-4,1-8,0-12,0H460c-1,8-1,17-1,25h21c2,0,2,1,2,2S483,95,483,97Z"/><path class="cls-1" d="M171,90h20v7H166c-3,0-3,0-3-3s1-18,1-28,0-20,0-30,0-4,4-4h4c0,9-1,18-1,28S171,81,171,90Z"/><path class="cls-1" d="M379,34v6H360V56c6,2,13,0,19,1v7H360c-1,11-1,22-1,33h-5a31,31,0,0,1-1-4c0-14,1-28,1-42s0-7,0-11,0-4,0-6Z"/><path class="cls-1" d="M77,41V35h34v2c0,5,0,5-5,5H98V64c0,3-1,7-1,10s0,12-1,18,0,1,0,2-1,4-5,4H88c0-10,1-19,1-28s1-19,2-28Z"/><path class="cls-3" d="M672,58c-1,8-1,16-2,23s-5,11-12,12-11-3-13-9a58,58,0,0,1,0-24,101,101,0,0,1,3-14c2-6,8-10,14-8a11,11,0,0,1,8,9C671,51,672,55,672,58Zm-7,1V50c0-2-2-3-4-4s-4,1-4,3a23,23,0,0,0-2,6c-1,5-2,10-2,15a49,49,0,0,0,0,10c0,3,3,5,6,5s4-1,5-4S664,66,665,59Z"/><path class="cls-3" d="M614,55h-5c-3,0-4-1-3-3l4-7c3-5,8-8,14-8a12,12,0,0,1,12,13,28,28,0,0,1-2,7,95,95,0,0,1-13,24l-3,5h21v8l-31-2c-1-3,0-5,2-7l10-16,6-13a20,20,0,0,0,1-7c0-3-1-5-4-6a5,5,0,0,0-6,3Z"/><path class="cls-3" d="M682,53h-4l-2-7V45l7-7c2-2,4-1,7,0-2,19-1,39-2,58h-8Z"/><path d="M707,59c0-5,0-10,1-15l-3,3h19l-2-3c0-2-1,3-2,4l-2,5-3,12c-2,8-5,21-6,29s9,2,10,1,4-21,7-30l4-14c1-3,4-10,2-12s-8-2-11-1H706c-6,0-6-1-7,6s-1,11-1,16,9,6,9,0Z"/></svg>