<?xml version="1.0" encoding="UTF-8" standalone="no"?>
<svg width="1416px" height="122px" viewBox="0 0 1416 122" version="1.1" xmlns="http://www.w3.org/2000/svg" xmlns:xlink="http://www.w3.org/1999/xlink">
    <!-- Generator: Sketch 39.1 (31720) - http://www.bohemiancoding.com/sketch -->
    <title>title</title>
    <desc>Created with Sketch.</desc>
    <defs></defs>
    <g id="Page-1" stroke="none" stroke-width="1" fill="none" fill-rule="evenodd">
        <g id="title">
            <g id="Page-1">
                <polygon id="Fill-1" fill="#1B354C" points="6.585 66.8004 6.585 118.8334 0.052 118.8334 0.052 2.7214 6.585 2.7214 6.585 60.2684 55.207 60.2684 55.207 2.7214 61.74 2.7214 61.74 118.8334 55.207 118.8334 55.207 66.8004"></polygon>
                <polygon id="Stroke-2" stroke="#1B354C" stroke-width="4.104" points="6.585 66.8004 6.585 118.8334 0.052 118.8334 0.052 2.7214 6.585 2.7214 6.585 60.2684 55.207 60.2684 55.207 2.7214 61.74 2.7214 61.74 118.8334 55.207 118.8334 55.207 66.8004"></polygon>
                <polygon id="Fill-4" fill="#1B354C" points="112.1768 9.2515 112.1768 118.8335 105.6438 118.8335 105.6438 9.2515 76.2508 9.2515 76.2508 2.7205 141.5658 2.7205 141.5658 9.2515"></polygon>
                <polygon id="Stroke-5" stroke="#1B354C" stroke-width="4.104" points="112.1768 9.2515 112.1768 118.8335 105.6438 118.8335 105.6438 9.2515 76.2508 9.2515 76.2508 2.7205 141.5658 2.7205 141.5658 9.2515"></polygon>
                <polygon id="Fill-7" fill="#1B354C" points="163.5527 2.7203 207.1687 78.1953 250.7097 2.7203 258.1837 2.7203 257.8957 3.2283 257.8957 118.8333 251.3627 118.8333 251.3627 14.5493 207.1687 91.0393 162.8997 14.5493 162.8997 118.8333 156.3707 118.8333 156.3707 3.2283 156.0787 2.7203"></polygon>
                <polygon id="Stroke-8" stroke="#1B354C" stroke-width="4.104" points="163.5527 2.7203 207.1687 78.1953 250.7097 2.7203 258.1837 2.7203 257.8957 3.2283 257.8957 118.8333 251.3627 118.8333 251.3627 14.5493 207.1687 91.0393 162.8997 14.5493 162.8997 118.8333 156.3707 118.8333 156.3707 3.2283 156.0787 2.7203"></polygon>
                <polygon id="Fill-10" fill="#1B354C" points="279.958 118.8336 279.958 2.7206 286.491 2.7206 286.491 112.3026 331.482 112.3026 331.482 118.8336"></polygon>
                <g id="Group-73" transform="translate(279.000000, 0.566000)">
                    <polygon id="Stroke-11" stroke="#1B354C" stroke-width="4.104" points="0.958 118.2676 0.958 2.1546 7.491 2.1546 7.491 111.7366 52.482 111.7366 52.482 118.2676"></polygon>
                    <path d="M79.478,38.2227 C81.899,37.4497 84.608,36.7237 87.606,36.0447 C90.704,35.5137 93.702,35.2457 96.607,35.2457 C101.925,35.2457 107.031,36.0947 111.917,37.7867 C122.85,41.5127 130.978,48.3827 136.3,58.3977 C139.638,64.6377 141.31,71.0247 141.31,77.5547 C141.31,81.6187 140.68,85.7077 139.422,89.8207 C136.084,100.7047 129.407,108.8327 119.391,114.2027 C113.295,117.4457 107.007,119.0647 100.523,119.0647 C96.411,119.0647 92.227,118.4107 87.97,117.1077 C79.262,114.4467 72.44,109.7527 67.507,103.0277 L72.148,97.8757 C76.26,103.9717 82.211,108.2047 90.002,110.5747 C93.485,111.6407 96.92,112.1717 100.306,112.1717 C105.725,112.1717 110.999,110.8177 116.129,108.1077 C124.497,103.6577 130.084,96.8847 132.889,87.7877 C133.955,84.3037 134.488,80.8687 134.488,77.4827 C134.488,72.0637 133.11,66.7677 130.352,61.5897 C125.9,53.2697 119.127,47.5107 110.033,44.3187 C106.114,42.9637 101.805,42.2857 97.112,42.2857 C90.968,42.2857 84.147,43.4727 76.649,45.8417 L71.422,41.2707 L84.776,4.4777 L84.776,2.1547 L121.062,2.1547 L121.062,8.6857 L90.219,8.6857 L79.478,38.2227 Z" id="Fill-13" fill="#1B354C"></path>
                    <path d="M79.478,38.2227 C81.899,37.4497 84.608,36.7237 87.606,36.0447 C90.704,35.5137 93.702,35.2457 96.607,35.2457 C101.925,35.2457 107.031,36.0947 111.917,37.7867 C122.85,41.5127 130.978,48.3827 136.3,58.3977 C139.638,64.6377 141.31,71.0247 141.31,77.5547 C141.31,81.6187 140.68,85.7077 139.422,89.8207 C136.084,100.7047 129.407,108.8327 119.391,114.2027 C113.295,117.4457 107.007,119.0647 100.523,119.0647 C96.411,119.0647 92.227,118.4107 87.97,117.1077 C79.262,114.4467 72.44,109.7527 67.507,103.0277 L72.148,97.8757 C76.26,103.9717 82.211,108.2047 90.002,110.5747 C93.485,111.6407 96.92,112.1717 100.306,112.1717 C105.725,112.1717 110.999,110.8177 116.129,108.1077 C124.497,103.6577 130.084,96.8847 132.889,87.7877 C133.955,84.3037 134.488,80.8687 134.488,77.4827 C134.488,72.0637 133.11,66.7677 130.352,61.5897 C125.9,53.2697 119.127,47.5107 110.033,44.3187 C106.114,42.9637 101.805,42.2857 97.112,42.2857 C90.968,42.2857 84.147,43.4727 76.649,45.8417 L71.422,41.2707 L84.776,4.4777 L84.776,2.1547 L121.062,2.1547 L121.062,8.6857 L90.219,8.6857 L79.478,38.2227 L79.478,38.2227 Z" id="Stroke-15" stroke="#1B354C" stroke-width="4.104"></path>
                    <path d="M304.6616,99.7617 L309.5986,104.1887 C298.2776,114.4937 284.9476,119.6457 269.6096,119.6457 C253.1616,119.6457 239.1426,113.8527 227.5566,102.2667 C215.9696,90.6797 210.1746,76.6607 210.1746,60.2107 C210.1746,43.8097 215.9696,29.8047 227.5566,18.1917 C239.1426,6.5817 253.1616,0.7757 269.6096,0.7757 C284.9476,0.7757 298.2776,5.9277 309.5986,16.2337 L304.6616,20.7327 C294.6946,11.8797 283.0116,7.4527 269.6096,7.4527 C255.0496,7.4527 242.6136,12.6047 232.3096,22.9087 C222.0056,33.2147 216.8516,45.6487 216.8516,60.2107 C216.8516,74.8237 222.0056,87.2797 232.3096,97.5857 C242.6136,107.8897 255.0496,113.0437 269.6096,113.0437 C283.0116,113.0437 294.6946,108.6147 304.6616,99.7617" id="Fill-17" fill="#1B354C"></path>
                    <path d="M304.6616,99.7617 L309.5986,104.1887 C298.2776,114.4937 284.9476,119.6457 269.6096,119.6457 C253.1616,119.6457 239.1426,113.8527 227.5566,102.2667 C215.9696,90.6797 210.1746,76.6607 210.1746,60.2107 C210.1746,43.8097 215.9696,29.8047 227.5566,18.1917 C239.1426,6.5817 253.1616,0.7757 269.6096,0.7757 C284.9476,0.7757 298.2776,5.9277 309.5986,16.2337 L304.6616,20.7327 C294.6946,11.8797 283.0116,7.4527 269.6096,7.4527 C255.0496,7.4527 242.6136,12.6047 232.3096,22.9087 C222.0056,33.2147 216.8516,45.6487 216.8516,60.2107 C216.8516,74.8237 222.0056,87.2797 232.3096,97.5857 C242.6136,107.8897 255.0496,113.0437 269.6096,113.0437 C283.0116,113.0437 294.6946,108.6147 304.6616,99.7617 L304.6616,99.7617 Z" id="Stroke-19" stroke="#1B354C" stroke-width="4.104"></path>
                    <path d="M385.5063,7.1621 C370.8943,7.1621 358.4223,12.3261 348.0943,22.6561 C337.7663,32.9861 332.6003,45.4541 332.6003,60.0661 C332.6003,74.6781 337.7663,87.1591 348.0943,97.5141 C358.4223,107.8651 370.8943,113.0441 385.5063,113.0441 C400.1143,113.0441 412.5863,107.8651 422.9143,97.5141 C433.2423,87.1591 438.4083,74.6781 438.4083,60.0661 C438.4083,45.4541 433.2423,32.9861 422.9143,22.6561 C412.5863,12.3261 400.1143,7.1621 385.5063,7.1621 M427.6313,17.9391 C439.2663,29.5751 445.0853,43.6171 445.0853,60.0661 C445.0853,76.5151 439.2663,90.5581 427.6313,102.1921 C415.9973,113.8281 401.9543,119.6461 385.5063,119.6461 C369.0543,119.6461 355.0113,113.8281 343.3763,102.1921 C331.7423,90.5581 325.9233,76.5151 325.9233,60.0661 C325.9233,43.6171 331.7423,29.5751 343.3763,17.9391 C355.0113,6.3031 369.0543,0.4851 385.5063,0.4851 C401.9543,0.4851 415.9973,6.3031 427.6313,17.9391" id="Fill-21" fill="#1B354C"></path>
                    <path d="M385.5063,7.1621 C370.8943,7.1621 358.4223,12.3261 348.0943,22.6561 C337.7663,32.9861 332.6003,45.4541 332.6003,60.0661 C332.6003,74.6781 337.7663,87.1591 348.0943,97.5141 C358.4223,107.8651 370.8943,113.0441 385.5063,113.0441 C400.1143,113.0441 412.5863,107.8651 422.9143,97.5141 C433.2423,87.1591 438.4083,74.6781 438.4083,60.0661 C438.4083,45.4541 433.2423,32.9861 422.9143,22.6561 C412.5863,12.3261 400.1143,7.1621 385.5063,7.1621 L385.5063,7.1621 Z M427.6313,17.9391 C439.2663,29.5751 445.0853,43.6171 445.0853,60.0661 C445.0853,76.5151 439.2663,90.5581 427.6313,102.1921 C415.9973,113.8281 401.9543,119.6461 385.5063,119.6461 C369.0543,119.6461 355.0113,113.8281 343.3763,102.1921 C331.7423,90.5581 325.9233,76.5151 325.9233,60.0661 C325.9233,43.6171 331.7423,29.5751 343.3763,17.9391 C355.0113,6.3031 369.0543,0.4851 385.5063,0.4851 C401.9543,0.4851 415.9973,6.3031 427.6313,17.9391 L427.6313,17.9391 Z" id="Stroke-23" stroke="#1B354C" stroke-width="4.104"></path>
                    <polygon id="Fill-25" fill="#1B354C" points="465.04 2.1543 472.226 2.1543 531.877 105.4233 531.877 2.1543 538.41 2.1543 538.41 118.2673 531.877 118.2673 471.573 13.9833 471.573 118.2673 465.04 118.2673"></polygon>
                    <polygon id="Stroke-27" stroke="#1B354C" stroke-width="4.104" points="465.04 2.1543 472.226 2.1543 531.877 105.4233 531.877 2.1543 538.41 2.1543 538.41 118.2673 531.877 118.2673 471.573 13.9833 471.573 118.2673 465.04 118.2673"></polygon>
                    <polygon id="Fill-29" fill="#1B354C" points="610.9785 2.1543 610.9785 8.6853 566.7125 8.6853 566.7125 56.9443 610.9785 56.9443 610.9785 63.4773 566.7125 63.4773 566.7125 118.2673 560.1805 118.2673 560.1805 2.1543"></polygon>
                    <polygon id="Stroke-31" stroke="#1B354C" stroke-width="4.104" points="610.9785 2.1543 610.9785 8.6853 566.7125 8.6853 566.7125 56.9443 610.9785 56.9443 610.9785 63.4773 566.7125 63.4773 566.7125 118.2673 560.1805 118.2673 560.1805 2.1543"></polygon>
                    <polygon id="Fill-33" fill="#1B354C" points="688.9932 2.1543 688.9932 8.6853 637.4702 8.6853 637.4702 56.9443 688.9932 56.9443 688.9932 63.4773 637.4702 63.4773 637.4702 111.7363 688.9932 111.7363 688.9932 118.2673 630.9372 118.2673 630.9372 2.1543"></polygon>
                    <polygon id="Stroke-35" stroke="#1B354C" stroke-width="4.104" points="688.9932 2.1543 688.9932 8.6853 637.4702 8.6853 637.4702 56.9443 688.9932 56.9443 688.9932 63.4773 637.4702 63.4773 637.4702 111.7363 688.9932 111.7363 688.9932 118.2673 630.9372 118.2673 630.9372 2.1543"></polygon>
                    <path d="M715.4854,8.7598 L715.4854,71.3868 L735.2224,71.3868 C743.8364,71.3868 751.2024,68.3258 757.3224,62.2058 C763.4424,56.0878 766.5004,48.6968 766.5004,40.0348 C766.5004,31.3778 763.4424,23.9988 757.3224,17.9038 C751.2024,11.8078 743.8364,8.7598 735.2224,8.7598 L715.4854,8.7598 Z M737.1824,77.9168 C736.5534,77.9678 735.9014,77.9908 735.2224,77.9908 L715.4854,77.9908 L715.4854,118.2678 L708.11.25,118.2678 L708.11.25,2.1548 L739.4304,2.1548 C748.2844,3.3648 755.8064,7.0668 762.0034,13.2588 C769.4054,20.6598 773.1044,29.5858 773.1044,40.0348 C773.1044,50.5358 769.4054,59.4858 762.0034,66.8878 C756.8734,72.0158 750.9944,75.3788 744.3694,76.9758 L771.1444,118.2678 L763.0894,118.2678 L737.1824,77.9168 Z" id="Fill-37" fill="#1B354C"></path>
                    <path d="M715.4854,8.7598 L715.4854,71.3868 L735.2224,71.3868 C743.8364,71.3868 751.2024,68.3258 757.3224,62.2058 C763.4424,56.0878 766.5004,48.6968 766.5004,40.0348 C766.5004,31.3778 763.4424,23.9988 757.3224,17.9038 C751.2024,11.8078 743.8364,8.7598 735.2224,8.7598 L715.4854,8.7598 L715.4854,8.7598 Z M737.1824,77.9168 C736.5534,77.9678 735.9014,77.9908 735.2224,77.9908 L715.4854,77.9908 L715.4854,118.2678 L708.11.25,118.2678 L708.11.25,2.1548 L739.4304,2.1548 C748.2844,3.3648 755.8064,7.0668 762.0034,13.2588 C769.4054,20.6598 773.1044,29.5858 773.1044,40.0348 C773.1044,50.5358 769.4054,59.4858 762.0034,66.8878 C756.8734,72.0158 750.9944,75.3788 744.3694,76.9758 L771.1444,118.2678 L763.0894,118.2678 L737.1824,77.9168 L737.1824,77.9168 Z" id="Stroke-39" stroke="#1B354C" stroke-width="4.104"></path>
                    <polygon id="Fill-41" fill="#1B354C" points="846.0381 2.1543 846.0381 8.6853 794.5141 8.6853 794.5141 56.9443 846.0381 56.9443 846.0381 63.4773 794.5141 63.4773 794.5141 111.7363 846.0381 111.7363 846.0381 118.2673 787.9811 118.2673 787.9811 2.1543"></polygon>
                    <polygon id="Stroke-43" stroke="#1B354C" stroke-width="4.104" points="846.0381 2.1543 846.0381 8.6853 794.5141 8.6853 794.5141 56.9443 846.0381 56.9443 846.0381 63.4773 794.5141 63.4773 794.5141 111.7363 846.0381 111.7363 846.0381 118.2673 787.9811 118.2673 787.9811 2.1543"></polygon>
                    <polygon id="Fill-45" fill="#1B354C" points="865.9961 2.1543 873.1831 2.1543 932.8331 105.4233 932.8331 2.1543 939.3661 2.1543 939.3661 118.2673 932.8331 118.2673 872.5291 13.9833 872.5291 118.2673 865.9961 118.2673"></polygon>
                    <polygon id="Stroke-47" stroke="#1B354C" stroke-width="4.104" points="865.9961 2.1543 873.1831 2.1543 932.8331 105.4233 932.8331 2.1543 939.3661 2.1543 939.3661 118.2673 932.8331 118.2673 872.5291 13.9833 872.5291 118.2673 865.9961 118.2673"></polygon>
                    <path d="M1053.8076,99.7617 L1058.7456,104.1887 C1047.4236,114.4937 1034.0936,119.6457 1018.7556,119.6457 C1002.3076,119.6457 988.2886,113.8527 976.7036,102.2667 C965.1166,90.6797 959.3216,76.6607 959.3216,60.2107 C959.3216,43.8097 965.1166,29.8047 976.7036,18.1917 C988.2886,6.5817 1002.3076,0.7757 1018.7556,0.7757 C1034.0936,0.7757 1047.4236,5.9277 1058.7456,16.2337 L1053.8076,20.7327 C1043.8406,11.8797 1032.1586,7.4527 1018.7556,7.4527 C1004.1966,7.4527 991.7596,12.6047 981.4556,22.9087 C971.1516,33.2147 965.9976,45.6487 965.9976,60.2107 C965.9976,74.8237 971.1516,87.2797 981.4556,97.5857 C991.7596,107.8897 1004.1966,113.0437 1018.7556,113.0437 C1032.1586,113.0437 1043.8406,108.6147 1053.8076,99.7617" id="Fill-49" fill="#1B354C"></path>
                    <path d="M1053.8076,99.7617 L1058.7456,104.1887 C1047.4236,114.4937 1034.0936,119.6457 1018.7556,119.6457 C1002.3076,119.6457 988.2886,113.8527 976.7036,102.2667 C965.1166,90.6797 959.3216,76.6607 959.3216,60.2107 C959.3216,43.8097 965.1166,29.8047 976.7036,18.1917 C988.2886,6.5817 1002.3076,0.7757 1018.7556,0.7757 C1034.0936,0.7757 1047.4236,5.9277 1058.7456,16.2337 L1053.8076,20.7327 C1043.8406,11.8797 1032.1586,7.4527 1018.7556,7.4527 C1004.1966,7.4527 991.7596,12.6047 981.4556,22.9087 C971.1516,33.2147 965.9976,45.6487 965.9976,60.2107 C965.9976,74.8237 971.1516,87.2797 981.4556,97.5857 C991.7596,107.8897 1004.1966,113.0437 1018.7556,113.0437 C1032.1586,113.0437 1043.8406,108.6147 1053.8076,99.7617 L1053.8076,99.7617 Z" id="Stroke-51" stroke="#1B354C" stroke-width="4.104"></path>
                    <polygon id="Fill-53" fill="#1B354C" points="1134.9404 2.1543 1134.9404 8.6853 1083.4174 8.6853 1083.4174 56.9443 1134.9404 56.9443 1134.9404 63.4773 1083.4174 63.4773 1083.4174 111.7363 1134.9404 111.7363 1134.9404 118.2673 1076.8844 118.2673 1076.8844 2.1543"></polygon>
                    <polygon id="Stroke-55" stroke="#1B354C" stroke-width="4.104" points="1134.9404 2.1543 1134.9404 8.6853 1083.4174 8.6853 1083.4174 56.9443 1134.9404 56.9443 1134.9404 63.4773 1083.4174 63.4773 1083.4174 111.7363 1134.9404 111.7363 1134.9404 118.2673 1076.8844 118.2673 1076.8844 2.1543"></polygon>
                </g>
            </g>
        </g>
    </g>
</svg>