<?xml version="1.0" encoding="utf-8"?>
<!-- Generator: Adobe Illustrator 12.0.0, SVG Export Plug-In . SVG Version: 6.00 Build 51448)  -->
<!DOCTYPE svg PUBLIC "-//W3C//DTD SVG 1.1//EN" "http://www.w3.org/Graphics/SVG/1.1/DTD/svg11.dtd" [
	<!ENTITY ns_svg "http://www.w3.org/2000/svg">
	<!ENTITY ns_xlink "http://www.w3.org/1999/xlink">
]>
<svg  version="1.1" id="レイヤー_1" xmlns="&ns_svg;" xmlns:xlink="&ns_xlink;" width="841.89" height="595.276"
	 viewBox="0 0 841.89 595.276" overflow="visible" enable-background="new 0 0 841.89 595.276" xml:space="preserve">
<rect x="532.303" y="225.472" fill="#FF4D00" width="87.816" height="87.818"/>
<path fill="#FFFFFF" d="M558.801,255.702h-6.781v-24.96h-7.168v24.96h-6.912v5.997h6.912v46.058h7.168v-46.058h6.781V255.702z
	 M568.297,298.233h14.729v-5.997h-14.729V298.233z M609.248,230.751h-11.896v5.995h11.896V230.751z M613.076,246.265v-5.997h-25.123
	v-9.517h-7.168v9.517h-25.504v5.997h25.504v4.396h-17.723v26.783h28.906v4.398H555v5.997h36.969v13.923h-7.705v5.994h14.871v-19.917
	h13.941v-5.997h-13.941v-4.398h7.48v-26.783h-18.662v-4.396H613.076z M580.785,271.449H570.23v-4.396h10.555V271.449z
	 M580.785,261.055H570.23v-4.397h10.555V261.055z M599.447,271.449h-11.494v-4.396h11.494V271.449z M599.447,261.055h-11.494v-4.397
	h11.494V261.055z"/>
<path fill="#FF4D00" d="M453.053,268.798h10.197v-43.326h-10.197V268.798z M498.064,225.472v77.621h-14.762v10.197h24.955v-87.818
	H498.064z"/>
<polygon fill="#FF4D00" points="373.807,225.472 373.807,268.798 384,268.798 384,235.667 418.814,235.667 418.814,303.092 
	404.053,303.092 404.053,313.29 429.012,313.29 429.012,225.472 "/>
<g>
	<defs>
		<rect id="XMLID_1_" width="841.89" height="595.276"/>
	</defs>
	<clipPath id="XMLID_3_">
		<use xlink:href="#XMLID_1_" />
	</clipPath>
	<path clip-path="url(#XMLID_3_)" fill="#FF4D00" d="M386.622,332.928c7.738,0,14.261,6.191,14.261,14.262
		c0,7.811-6.412,14.113-14.261,14.113S372.361,355,372.361,347.19C372.361,339.12,378.883,332.928,386.622,332.928 M386.622,356.586
		c5.196,0,9.212-4.385,9.212-9.434c0-5.232-4.09-9.508-9.212-9.508s-9.212,4.275-9.212,9.508
		C377.41,352.202,381.426,356.586,386.622,356.586"/>
	<polygon clip-path="url(#XMLID_3_)" fill="#FF4D00" points="404.672,333.481 410.421,333.481 421.697,353.307 421.771,353.307 
		421.771,333.481 426.819,333.481 426.819,360.751 421.181,360.751 409.794,340.924 409.721,340.924 409.721,360.751 
		404.672,360.751 	"/>
	<polygon clip-path="url(#XMLID_3_)" fill="#FF4D00" points="432.01,333.481 437.058,333.481 437.058,356.034 445.386,356.034 
		445.386,360.751 432.01,360.751 	"/>
	<rect x="448.22" y="333.481" clip-path="url(#XMLID_3_)" fill="#FF4D00" width="5.048" height="27.27"/>
	<polygon clip-path="url(#XMLID_3_)" fill="#FF4D00" points="458.461,333.481 464.21,333.481 475.486,353.307 475.56,353.307 
		475.56,333.481 480.607,333.481 480.607,360.751 474.97,360.751 463.583,340.924 463.51,340.924 463.51,360.751 458.461,360.751 	
		"/>
	<polygon clip-path="url(#XMLID_3_)" fill="#FF4D00" points="485.394,333.481 500.06,333.481 500.06,338.198 490.441,338.198 
		490.441,344.868 499.654,344.868 499.654,349.585 490.441,349.585 490.441,356.034 500.06,356.034 500.06,360.751 485.394,360.751 
			"/>
	<polygon clip-path="url(#XMLID_3_)" fill="#FF4D00" points="512.877,333.481 518.036,333.481 522.753,352.532 522.826,352.532 
		527.507,333.481 531.191,333.481 535.761,352.532 535.835,352.532 540.588,333.481 545.747,333.481 537.824,360.751 
		533.808,360.751 529.386,342.731 529.313,342.731 524.816,360.751 520.837,360.751 	"/>
	<path clip-path="url(#XMLID_3_)" fill="#FF4D00" d="M561.254,332.928c7.739,0,14.262,6.191,14.262,14.262
		c0,7.811-6.412,14.113-14.262,14.113c-7.849,0-14.261-6.303-14.261-14.113C546.993,339.12,553.516,332.928,561.254,332.928
		 M561.254,356.586c5.196,0,9.213-4.385,9.213-9.434c0-5.232-4.09-9.508-9.213-9.508c-5.122,0-9.212,4.275-9.212,9.508
		C552.042,352.202,556.059,356.586,561.254,356.586"/>
	<path clip-path="url(#XMLID_3_)" fill="#FF4D00" d="M579.083,333.481h8.364c3.133,0,5.086,0.59,6.634,1.842
		c1.548,1.254,3.206,3.465,3.206,6.598c0,1.805-0.663,4.643-2.616,6.521c-1.622,1.549-3.17,1.916-4.533,2.248l7.407,10.061h-6.117
		l-7.223-10.43h-0.073v10.43h-5.049V333.481z M584.132,346.526h3.242c4.164,0,4.864-2.764,4.864-4.201
		c0-1.51-0.921-4.127-4.864-4.127h-3.242V346.526z"/>
	<polygon clip-path="url(#XMLID_3_)" fill="#FF4D00" points="601.372,333.481 606.421,333.481 606.421,345.274 606.494,345.274 
		615.007,333.481 620.939,333.481 610.658,346.895 620.939,360.751 615.007,360.751 606.494,348.774 606.421,348.774 
		606.421,360.751 601.372,360.751 	"/>
	<path clip-path="url(#XMLID_3_)" fill="#FF4D00" d="M283.087,338.274c-4.496,1.418-9.285,2.186-14.265,2.188
		c-13.106-0.004-24.891-5.287-33.491-13.872c-8.585-8.601-13.868-20.384-13.873-33.492c0.002-4.771,0.711-9.364,2.016-13.695
		l0.002-0.003c9.205-0.715,16.451-8.41,16.451-17.797c0-9.862-7.993-17.854-17.853-17.854c-9.858,0-17.852,7.992-17.852,17.854
		c0,3.625,1.08,6.998,2.936,9.812c-2.386,6.787-3.699,14.08-3.7,21.683c0.007,36.104,29.263,65.358,65.364,65.364
		c9.242-0.002,18.03-1.93,25.999-5.391C289.681,349.319,285.591,344.215,283.087,338.274 M333.279,303.901
		c0.587-3.516,0.906-7.121,0.906-10.803c-0.007-36.101-29.26-65.356-65.363-65.363c-13.34,0.003-25.739,4.008-36.08,10.868
		c5.741,2.667,10.315,7.415,12.752,13.281c6.883-3.909,14.824-6.146,23.328-6.149c13.108,0.004,24.892,5.287,33.492,13.874
		c8.585,8.599,13.866,20.382,13.87,33.489c-0.001,1.438-0.068,2.86-0.194,4.264c-0.14-0.002-0.277-0.01-0.418-0.01
		c-15.046,0-27.242,12.197-27.242,27.242c0,15.047,12.196,27.242,27.242,27.242c15.045,0,27.242-12.195,27.242-27.242
		C342.814,316.311,339.112,308.897,333.279,303.901"/>
</g>
</svg>
