<?xml version="1.0" encoding="utf-8"?>
<!-- Generator: Adobe Illustrator 21.1.0, SVG Export Plug-In . SVG Version: 6.00 Build 0)  -->
<svg version="1.1" id="レイヤー_1" xmlns="http://www.w3.org/2000/svg" xmlns:xlink="http://www.w3.org/1999/xlink" x="0px"
	 y="0px" viewBox="0 0 287 49.8" style="enable-background:new 0 0 287 49.8;" xml:space="preserve">
<style type="text/css">
	.st0{fill:#000;}
</style>
<g>
	<polygon class="st0" points="57.3,17.1 63.5,17.1 63.5,36.8 68.1,32.1 68.1,17.1 70.2,17.1 74.4,13 57.3,13 	"/>
</g>
<path class="st0" d="M286.8,19.7c-0.1-0.8-0.4-1.6-0.7-2.3c-0.3-0.7-0.8-1.4-1.5-2.1c-0.8-0.8-1.7-1.4-2.8-1.7
	c-1.1-0.4-2.2-0.6-3.5-0.6h-8.6v23.8h4.6v-4.1v-3V17.1h3.5c0.8,0,1.5,0.1,2,0.4c0.6,0.2,1,0.6,1.4,1.1c0.2,0.3,0.4,0.6,0.5,0.9
	c0.1,0.3,0.2,0.7,0.3,1.2c0.1,0.5,0.1,1.1,0.1,1.7c0,0.7,0,1.4,0,2.3c0,1.8-0.1,3.2-0.2,4.1c-0.1,1-0.4,1.7-0.8,2.2
	c-0.4,0.5-0.9,0.9-1.4,1.1c-0.1,0-0.2,0.1-0.3,0.1l-4.4,4.4h3.1c1.2,0,2.4-0.2,3.5-0.6c1.1-0.4,2-0.9,2.8-1.7
	c0.7-0.7,1.2-1.4,1.5-2.1c0.3-0.8,0.6-1.5,0.7-2.4c0.1-0.8,0.2-1.7,0.2-2.5c0-0.9,0-1.8,0-2.7s0-1.8,0-2.6
	C287,21.3,286.9,20.5,286.8,19.7z"/>
<g>
	<path class="st0" d="M132.1,14.7c-0.8-0.6-1.6-1.1-2.6-1.4c-1-0.3-2-0.5-3.1-0.5c-1.3,0-2.5,0.2-3.6,0.7s-2,1.1-2.9,1.9
		c-0.6,0.6-1.1,1.2-1.4,1.9c-0.3,0.7-0.6,1.4-0.7,2.2c-0.1,0.8-0.2,1.6-0.2,2.5c0,0.9,0,1.8,0,2.9c0,1,0,2,0,2.9
		c0,0.9,0.1,1.7,0.2,2.5c0.1,0.8,0.4,1.5,0.7,2.2c0.3,0.7,0.8,1.3,1.4,1.9c0.8,0.8,1.8,1.5,2.9,1.9c1.1,0.4,2.2,0.7,3.6,0.7
		c1.1,0,2.1-0.2,3.1-0.5c1-0.3,1.9-0.8,2.6-1.4c0.8-0.6,1.4-1.4,1.9-2.4c0.5-0.9,0.9-2,1.1-3.3h-4.7c-0.2,1-0.7,1.8-1.3,2.4
		c-0.6,0.6-1.5,1-2.7,1c-0.6,0-1.2-0.1-1.7-0.3c-0.5-0.2-0.9-0.5-1.3-0.9c-0.2-0.2-0.4-0.5-0.6-0.8s-0.3-0.7-0.4-1.2
		c-0.1-0.5-0.2-1.1-0.2-1.9c0-0.8,0-1.7,0-2.8s0-2.1,0-2.8c0-0.8,0.1-1.4,0.2-1.9c0.1-0.5,0.2-0.9,0.4-1.2s0.3-0.6,0.6-0.8
		c0.3-0.4,0.8-0.7,1.3-0.9c0.5-0.2,1.1-0.3,1.7-0.3c1.2,0,2.1,0.3,2.7,1c0.6,0.6,1.1,1.4,1.3,2.4l3.5-3.5
		C133.4,16,132.8,15.3,132.1,14.7z"/>
</g>
<g>
	<polygon class="st0" points="92.8,17.1 99.7,17.1 103.8,13 88.2,13 88.2,36.8 99.7,36.8 103.8,32.6 92.8,32.6 	"/>
</g>
<polygon class="st0" points="95,27.2 95,27.2 99.9,22.2 95,22.2 "/>
<g>
	<polygon class="st0" points="215.2,17.1 222,17.1 226.2,13 210.5,13 210.5,36.8 222,36.8 226.2,32.6 215.2,32.6 	"/>
</g>
<polygon class="st0" points="217.3,27.2 217.3,27.2 222.3,22.2 217.3,22.2 "/>
<g>
	<polygon class="st0" points="244.8,17.1 251.6,17.1 255.8,13 240.1,13 240.1,36.8 251.6,36.8 255.8,32.6 244.8,32.6 	"/>
</g>
<polygon class="st0" points="246.9,27.2 246.9,27.2 251.9,22.2 246.9,22.2 "/>
<polygon class="st0" points="187.5,27.2 187.5,27.2 192.5,22.2 187.5,22.2 "/>
<g>
	<polygon class="st0" points="180.8,13 180.8,36.8 185.4,32.1 185.4,17.1 192.3,17.1 196.4,13 	"/>
</g>
<g>
	<polygon class="st0" points="161.9,17.6 161.9,22.7 153.8,22.7 153.8,13 149.2,13 149.2,36.8 153.8,32.1 153.8,26.8 161.9,26.8 
		161.9,36.8 166.5,32.1 166.5,13 	"/>
</g>
<polygon class="st0" points="49.8,0 0,0 0,0 0,0 0,49.8 9.6,40.2 9.6,9.6 40.2,9.6 "/>
<polygon class="st0" points="32.5,17.2 17.2,17.2 17.2,32.5 "/>
</svg>
