<?xml version="1.0" encoding="UTF-8" standalone="no"?>
<!-- Created with Inkscape (http://www.inkscape.org/) -->

<svg
   xmlns:dc="http://purl.org/dc/elements/1.1/"
   xmlns:cc="http://creativecommons.org/ns#"
   xmlns:rdf="http://www.w3.org/1999/02/22-rdf-syntax-ns#"
   xmlns:svg="http://www.w3.org/2000/svg"
   xmlns="http://www.w3.org/2000/svg"
   xmlns:sodipodi="http://sodipodi.sourceforge.net/DTD/sodipodi-0.dtd"
   xmlns:inkscape="http://www.inkscape.org/namespaces/inkscape"
   id="svg2985"
   version="1.1"
   inkscape:version="0.48.2 r9819"
   width="2125.9875"
   height="2997.6375"
   xml:space="preserve"
   sodipodi:docname="logo_appiaries.ai"><metadata
     id="metadata2991"><rdf:RDF><cc:Work
         rdf:about=""><dc:format>image/svg+xml</dc:format><dc:type
           rdf:resource="http://purl.org/dc/dcmitype/StillImage" /><dc:title></dc:title></cc:Work></rdf:RDF></metadata><defs
     id="defs2989"><clipPath
       clipPathUnits="userSpaceOnUse"
       id="clipPath3005"><path
         d="m 0,2398.107 1700.788,0 L 1700.788,0 0,0 0,2398.107 z"
         id="path3007" /></clipPath><clipPath
       clipPathUnits="userSpaceOnUse"
       id="clipPath3013"><path
         d="m 1029.27,1866.12 105.06,0 0,-121.31 -105.06,0 0,121.31 z"
         id="path3015" /></clipPath><clipPath
       clipPathUnits="userSpaceOnUse"
       id="clipPath3029"><path
         d="m 1089.54,1766.58 105.06,0 0,-121.31 -105.06,0 0,121.31 z"
         id="path3031" /></clipPath><clipPath
       clipPathUnits="userSpaceOnUse"
       id="clipPath3045"><path
         d="m 1204.83,1766.58 105.06,0 0,-121.31 -105.06,0 0,121.31 z"
         id="path3047" /></clipPath><clipPath
       clipPathUnits="userSpaceOnUse"
       id="clipPath3061"><path
         d="m 1089.54,1967.24 105.06,0 0,-121.31 -105.06,0 0,121.31 z"
         id="path3063" /></clipPath><clipPath
       clipPathUnits="userSpaceOnUse"
       id="clipPath3077"><path
         d="m 1204.83,1967.24 105.06,0 0,-121.31 -105.06,0 0,121.31 z"
         id="path3079" /></clipPath><clipPath
       clipPathUnits="userSpaceOnUse"
       id="clipPath3101"><path
         d="m 0,2398.107 1700.788,0 L 1700.788,0 0,0 0,2398.107 z"
         id="path3103" /></clipPath><clipPath
       clipPathUnits="userSpaceOnUse"
       id="clipPath3109"><path
         d="m 393.368,1832.77 12.159,0 0,-71.09 -12.159,0 0,71.09 z"
         id="path3111" /></clipPath><clipPath
       clipPathUnits="userSpaceOnUse"
       id="clipPath3137"><path
         d="m 794.905,1832.77 12.159,0 0,-71.09 -12.159,0 0,71.09 z"
         id="path3139" /></clipPath><clipPath
       clipPathUnits="userSpaceOnUse"
       id="clipPath3183"><path
         d="m 1029.27,1180.75 105.06,0 0,-121.3 -105.06,0 0,121.3 z"
         id="path3185" /></clipPath><clipPath
       clipPathUnits="userSpaceOnUse"
       id="clipPath3199"><path
         d="m 1089.54,1081.22 105.06,0 0,-121.313 -105.06,0 0,121.313 z"
         id="path3201" /></clipPath><clipPath
       clipPathUnits="userSpaceOnUse"
       id="clipPath3215"><path
         d="m 1204.83,1081.22 105.06,0 0,-121.313 -105.06,0 0,121.313 z"
         id="path3217" /></clipPath><clipPath
       clipPathUnits="userSpaceOnUse"
       id="clipPath3231"><path
         d="m 1089.54,1281.87 105.06,0 0,-121.31 -105.06,0 0,121.31 z"
         id="path3233" /></clipPath><clipPath
       clipPathUnits="userSpaceOnUse"
       id="clipPath3247"><path
         d="m 1204.83,1281.87 105.06,0 0,-121.31 -105.06,0 0,121.31 z"
         id="path3249" /></clipPath><clipPath
       clipPathUnits="userSpaceOnUse"
       id="clipPath3271"><path
         d="m 393.368,1147.41 12.159,0 0,-71.1 -12.159,0 0,71.1 z"
         id="path3273" /></clipPath><clipPath
       clipPathUnits="userSpaceOnUse"
       id="clipPath3299"><path
         d="m 794.905,1147.41 12.159,0 0,-71.1 -12.159,0 0,71.1 z"
         id="path3301" /></clipPath></defs><sodipodi:namedview
     pagecolor="#ffffff"
     bordercolor="#666666"
     borderopacity="1"
     objecttolerance="10"
     gridtolerance="10"
     guidetolerance="10"
     inkscape:pageopacity="0"
     inkscape:pageshadow="2"
     inkscape:window-width="1152"
     inkscape:window-height="810"
     id="namedview2987"
     showgrid="false"
     inkscape:zoom="0.6"
     inkscape:cx="1103.4165"
     inkscape:cy="1415.5549"
     inkscape:window-x="0"
     inkscape:window-y="0"
     inkscape:window-maximized="0"
     inkscape:current-layer="g2993" /><g
     id="g2993"
     inkscape:groupmode="layer"
     inkscape:label="logo_appiaries"
     transform="matrix(1.25,0,0,-1.25,0,2997.6375)"><path
       d="m 1503.113,1549.297 -1305.831,0 0,513.914 1305.831,0 0,-513.914 z"
       style="fill:#494544;fill-opacity:1;fill-rule:nonzero;stroke:none"
       id="path2995" /><g
       id="g2997"
       transform="translate(1265.0986,1775.1411)"><path
         d="M 0,0 52.531,-30.327 105.063,0 l 0,60.658 L 52.531,90.979 0,60.658 0,0 z"
         style="fill:#ffe88b;fill-opacity:1;fill-rule:nonzero;stroke:none"
         id="path2999" /></g><g
       id="g3001"><g
         id="g3003"
         clip-path="url(#clipPath3005)"><g
           id="g3009"><g
             id="g3011" /><g
             id="g3017"><g
               clip-path="url(#clipPath3013)"
               opacity="0.300003"
               id="g3019"><g
                 transform="translate(1081.793,1866.1206)"
                 id="g3021"><path
                   d="m 0,0 -52.525,-30.321 0,-60.658 52.525,-30.328 52.537,30.328 0,60.658 L 0,0 z m 0,-6.866 46.592,-26.89 0,-53.792 -46.592,-26.89 -46.58,26.884 0,53.801 L 0,-6.866 z"
                   style="fill:#a1a2a2;fill-opacity:1;fill-rule:nonzero;stroke:none"
                   id="path3023" /></g></g></g></g><g
           id="g3025"><g
             id="g3027" /><g
             id="g3033"><g
               clip-path="url(#clipPath3029)"
               opacity="0.300003"
               id="g3035"><g
                 transform="translate(1194.6016,1675.606)"
                 id="g3037"><path
                   d="M 0,0 -52.531,-30.333 -105.063,0 l 0,60.655 52.532,30.322 L 0,60.655 0,0 z"
                   style="fill:#a1a2a2;fill-opacity:1;fill-rule:nonzero;stroke:none"
                   id="path3039" /></g></g></g></g><g
           id="g3041"><g
             id="g3043" /><g
             id="g3049"><g
               clip-path="url(#clipPath3045)"
               opacity="0.300003"
               id="g3051"><g
                 transform="translate(1257.3525,1766.5825)"
                 id="g3053"><path
                   d="m 0,0 -52.525,-30.321 0,-60.656 L 0,-121.31 l 52.538,30.333 0,60.656 L 0,0 z m 0,-6.863 46.592,-26.896 0,-53.792 L 0,-114.446 l -46.579,26.895 0,53.792 L 0,-6.863 z"
                   style="fill:#a1a2a2;fill-opacity:1;fill-rule:nonzero;stroke:none"
                   id="path3055" /></g></g></g></g><g
           id="g3057"><g
             id="g3059" /><g
             id="g3065"><g
               clip-path="url(#clipPath3061)"
               opacity="0.300003"
               id="g3067"><g
                 transform="translate(1142.0703,1967.2383)"
                 id="g3069"><path
                   d="m 0,0 -52.531,-30.331 0,-60.654 52.531,-30.328 52.531,30.328 0,60.654 L 0,0 z m 0,-6.866 46.586,-26.896 0,-53.791 L 0,-114.446 l -46.586,26.893 0,53.791 L 0,-6.866 z"
                   style="fill:#a1a2a2;fill-opacity:1;fill-rule:nonzero;stroke:none"
                   id="path3071" /></g></g></g></g><g
           id="g3073"><g
             id="g3075" /><g
             id="g3081"><g
               clip-path="url(#clipPath3077)"
               opacity="0.300003"
               id="g3083"><g
                 transform="translate(1204.8271,1876.2534)"
                 id="g3085"><path
                   d="M 0,0 52.525,-30.328 105.063,0 l 0,60.654 L 52.525,90.985 0,60.654 0,0 z"
                   style="fill:#a1a2a2;fill-opacity:1;fill-rule:nonzero;stroke:none"
                   id="path3087" /></g></g></g></g></g></g><g
       id="g3089"
       transform="translate(1317.6299,1744.8198)"><path
         d="m 0,0 -52.531,30.327 0,60.652 L 0,60.652 0,0 z"
         style="fill:#d0a600;fill-opacity:1;fill-rule:nonzero;stroke:none"
         id="path3091" /></g><g
       id="g3093"
       transform="translate(1317.6299,1744.8198)"><path
         d="m 0,0 52.532,30.327 0,60.652 L 0,60.652 0,0 z"
         style="fill:#fcc700;fill-opacity:1;fill-rule:nonzero;stroke:none"
         id="path3095" /></g><g
       id="g3105"><g
         id="g3107" /><g
         id="g3113"><g
           clip-path="url(#clipPath3109)"
           id="g3115"
           style="opacity:0.30000299"><path
             d="m 405.527,1761.676 -12.159,0 0,71.098 12.159,0 0,-71.098 z"
             style="fill:#a1a2a2;fill-opacity:1;fill-rule:nonzero;stroke:none"
             id="path3117"
             inkscape:connector-curvature="0" /></g></g></g><g
       id="g3119"
       transform="translate(467.9932,1831.6709)"><path
         d="m 0,0 49.535,0 c 35.553,0 36.599,-71.092 0,-71.092 L 0,-71.092 0,0 z m 0,-120.575 0,34.897 43.828,0 c 62.86,0 63.557,100.258 0,100.258 l -58.408,0 0,-135.155 14.58,0 z"
         style="fill:#f5a409;fill-opacity:1;fill-rule:nonzero;stroke:none"
         id="path3121"
         inkscape:connector-curvature="0" /></g><g
       id="g3123"
       transform="translate(591.1841,1831.6709)"><path
         d="m 0,0 49.541,0 c 35.547,0 36.598,-71.092 0,-71.092 L 0,-71.092 0,0 z m 0,-120.575 0,34.897 43.833,0 c 62.861,0 63.558,100.258 0,100.258 l -58.413,0 0,-135.155 14.58,0 z"
         style="fill:#f5a409;fill-opacity:1;fill-rule:nonzero;stroke:none"
         id="path3125"
         inkscape:connector-curvature="0" /></g><g
       id="g3127"
       transform="translate(421.4653,1788.6011)"><path
         d="m 0,0 c 0,-25.021 -21.408,-26.925 -29.584,-26.925 l -19.957,0 0,71.098 L 0,44.173 0,0 z m 0,68.824 0,-10.071 -43.833,0 c -62.861,0 -63.558,-100.258 0,-100.258 l 17.222,0 c 20.526,0 41.186,16.734 41.186,36.558 l 0,73.771 -14.575,0 z"
         style="fill:#f5a409;fill-opacity:1;fill-rule:nonzero;stroke:none"
         id="path3129"
         inkscape:connector-curvature="0" /></g><path
       d="m 421.46,1825.156 14.58,0 0,-78.06 -14.58,0 0,78.06 z"
       style="fill:#f5a409;fill-opacity:1;fill-rule:nonzero;stroke:none"
       id="path3131"
       inkscape:connector-curvature="0" /><g
       id="g3133"><g
         id="g3135" /><g
         id="g3141"><g
           clip-path="url(#clipPath3137)"
           id="g3143"
           style="opacity:0.30000299"><path
             d="m 807.064,1761.676 -12.159,0 0,71.098 12.159,0 0,-71.098 z"
             style="fill:#a1a2a2;fill-opacity:1;fill-rule:nonzero;stroke:none"
             id="path3145"
             inkscape:connector-curvature="0" /></g></g></g><path
       d="m 714.38,1747.096 -14.58,0 0,110.329 14.58,0 0,-110.329 z"
       style="fill:#fcc700;fill-opacity:1;fill-rule:nonzero;stroke:none"
       id="path3147"
       inkscape:connector-curvature="0" /><path
       d="m 714.38,1870.955 -14.58,0 0,15.213 14.58,0 0,-15.213 z"
       style="fill:#fcc700;fill-opacity:1;fill-rule:nonzero;stroke:none"
       id="path3149"
       inkscape:connector-curvature="0" /><g
       id="g3151"
       transform="translate(823.0029,1788.6011)"><path
         d="m 0,0 c 0,-25.021 -21.409,-26.925 -29.584,-26.925 l -19.957,0 0,71.098 L 0,44.173 0,0 z m 0,68.824 0,-10.071 -43.833,0 c -62.861,0 -63.559,-100.258 0,-100.258 l 17.222,0 c 20.526,0 41.185,16.734 41.185,36.558 l 0,73.771 -14.574,0 z"
         style="fill:#fcc700;fill-opacity:1;fill-rule:nonzero;stroke:none"
         id="path3153"
         inkscape:connector-curvature="0" /></g><path
       d="m 822.997,1825.156 14.58,0 0,-78.06 -14.58,0 0,78.06 z"
       style="fill:#fcc700;fill-opacity:1;fill-rule:nonzero;stroke:none"
       id="path3155"
       inkscape:connector-curvature="0" /><path
       d="m 973.183,1747.096 -14.58,0 0,110.329 14.58,0 0,-110.329 z"
       style="fill:#fcc700;fill-opacity:1;fill-rule:nonzero;stroke:none"
       id="path3157"
       inkscape:connector-curvature="0" /><path
       d="m 973.183,1870.955 -14.58,0 0,15.213 14.58,0 0,-15.213 z"
       style="fill:#fcc700;fill-opacity:1;fill-rule:nonzero;stroke:none"
       id="path3159"
       inkscape:connector-curvature="0" /><path
       d="m 869.53,1747.096 -14.58,0 0,110.329 14.58,0 0,-110.329 z"
       style="fill:#fcc700;fill-opacity:1;fill-rule:nonzero;stroke:none"
       id="path3161"
       inkscape:connector-curvature="0" /><g
       id="g3163"
       transform="translate(864.624,1829.2583)"><path
         d="M 0,0 76.605,0 C 70.503,36.656 6.033,37.025 0,0"
         style="fill:#fcc700;fill-opacity:1;fill-rule:nonzero;stroke:none"
         id="path3165"
         inkscape:connector-curvature="0" /></g><path
       d="m 1073.658,1828.019 -38.067,0 0,15.93 38.067,0 0,-15.93 z m -38.067,-66.343 0,51.762 38.067,0 0,0 31.256,0 c -2.02,22.883 -17.338,44.306 -45.72,45.023 l -0.145,0.07 -12.164,0 c -75.102,0 -75.102,-111.433 0,-111.433 l 52.827,0 0,14.58 -64.121,0 z"
       style="fill:#fcc700;fill-opacity:1;fill-rule:nonzero;stroke:none"
       id="path3167"
       inkscape:connector-curvature="0" /><g
       id="g3169"
       transform="translate(1214.5762,1842.8452)"><path
         d="m 0,0 0,14.58 -66.711,0 c -34.937,0 -33.254,-62.454 0,-62.454 l 40.959,0 0,-33.295 -63.309,0 0,-14.58 66.711,0 c 36.041,0 36.041,62.455 0,62.455 l -40.953,0 0,33.294 L 0,0 z"
         style="fill:#fcc700;fill-opacity:1;fill-rule:nonzero;stroke:none"
         id="path3171"
         inkscape:connector-curvature="0" /></g><path
       d="m 1503.113,863.932 -1305.831,0 0,513.914 1305.831,0 0,-513.914 z"
       style="fill:#ffffff;fill-opacity:1;fill-rule:nonzero;stroke:none"
       id="path3173"
       inkscape:connector-curvature="0" /><g
       id="g3530"><g
         transform="translate(1265.0986,1089.7754)"
         id="g3175"><path
           inkscape:connector-curvature="0"
           id="path3177"
           style="fill:#ffe88b;fill-opacity:1;fill-rule:nonzero;stroke:none"
           d="M 0,0 52.531,-30.327 105.063,0 l 0,60.658 L 52.531,90.979 0,60.658 0,0 z" /></g><g
         id="g3179"><g
           id="g3181" /><g
           id="g3187"><g
             style="opacity:0.30000299"
             id="g3189"
             clip-path="url(#clipPath3183)"><g
               id="g3191"
               transform="translate(1081.793,1180.7549)"><path
                 inkscape:connector-curvature="0"
                 id="path3193"
                 style="fill:#a1a2a2;fill-opacity:1;fill-rule:nonzero;stroke:none"
                 d="m 0,0 -52.525,-30.321 0,-60.658 52.525,-30.328 52.537,30.328 0,60.658 L 0,0 z m 0,-6.866 46.592,-26.89 0,-53.792 -46.592,-26.89 -46.58,26.884 0,53.801 L 0,-6.866 z" /></g></g></g></g><g
         id="g3195"><g
           id="g3197" /><g
           id="g3203"><g
             style="opacity:0.30000299"
             id="g3205"
             clip-path="url(#clipPath3199)"><g
               id="g3207"
               transform="translate(1194.6016,990.2402)"><path
                 inkscape:connector-curvature="0"
                 id="path3209"
                 style="fill:#a1a2a2;fill-opacity:1;fill-rule:nonzero;stroke:none"
                 d="M 0,0 -52.531,-30.333 -105.063,0 l 0,60.655 52.532,30.322 L 0,60.655 0,0 z" /></g></g></g></g><g
         id="g3211"><g
           id="g3213" /><g
           id="g3219"><g
             style="opacity:0.30000299"
             id="g3221"
             clip-path="url(#clipPath3215)"><g
               id="g3223"
               transform="translate(1257.3525,1081.2168)"><path
                 inkscape:connector-curvature="0"
                 id="path3225"
                 style="fill:#a1a2a2;fill-opacity:1;fill-rule:nonzero;stroke:none"
                 d="m 0,0 -52.525,-30.321 0,-60.656 L 0,-121.31 l 52.538,30.333 0,60.656 L 0,0 z m 0,-6.863 46.592,-26.896 0,-53.792 L 0,-114.446 l -46.579,26.895 0,53.792 L 0,-6.863 z" /></g></g></g></g><g
         id="g3227"><g
           id="g3229" /><g
           id="g3235"><g
             style="opacity:0.30000299"
             id="g3237"
             clip-path="url(#clipPath3231)"><g
               id="g3239"
               transform="translate(1142.0703,1281.8726)"><path
                 inkscape:connector-curvature="0"
                 id="path3241"
                 style="fill:#a1a2a2;fill-opacity:1;fill-rule:nonzero;stroke:none"
                 d="m 0,0 -52.531,-30.331 0,-60.654 52.531,-30.327 52.531,30.327 0,60.654 L 0,0 z m 0,-6.866 46.586,-26.896 0,-53.791 L 0,-114.447 l -46.586,26.894 0,53.791 L 0,-6.866 z" /></g></g></g></g><g
         id="g3243"><g
           id="g3245" /><g
           id="g3251"><g
             style="opacity:0.30000299"
             id="g3253"
             clip-path="url(#clipPath3247)"><g
               id="g3255"
               transform="translate(1204.8271,1190.8877)"><path
                 inkscape:connector-curvature="0"
                 id="path3257"
                 style="fill:#a1a2a2;fill-opacity:1;fill-rule:nonzero;stroke:none"
                 d="M 0,0 52.525,-30.327 105.063,0 l 0,60.654 L 52.525,90.985 0,60.654 0,0 z" /></g></g></g></g><g
         transform="translate(1317.6299,1059.4541)"
         id="g3259"><path
           inkscape:connector-curvature="0"
           id="path3261"
           style="fill:#d0a600;fill-opacity:1;fill-rule:nonzero;stroke:none"
           d="m 0,0 -52.531,30.327 0,60.652 L 0,60.651 0,0 z" /></g><g
         transform="translate(1317.6299,1059.4541)"
         id="g3263"><path
           inkscape:connector-curvature="0"
           id="path3265"
           style="fill:#fcc700;fill-opacity:1;fill-rule:nonzero;stroke:none"
           d="m 0,0 52.532,30.327 0,60.652 L 0,60.651 0,0 z" /></g><g
         id="g3267"><g
           id="g3269" /><g
           id="g3275"><g
             style="opacity:0.30000299"
             id="g3277"
             clip-path="url(#clipPath3271)"><path
               inkscape:connector-curvature="0"
               id="path3279"
               style="fill:#a1a2a2;fill-opacity:1;fill-rule:nonzero;stroke:none"
               d="m 405.527,1076.311 -12.159,0 0,71.098 12.159,0 0,-71.098 z" /></g></g></g><g
         transform="translate(467.9932,1146.3047)"
         id="g3281"><path
           inkscape:connector-curvature="0"
           id="path3283"
           style="fill:#f5a409;fill-opacity:1;fill-rule:nonzero;stroke:none"
           d="m 0,0 49.535,0 c 35.553,0 36.599,-71.092 0,-71.092 L 0,-71.092 0,0 z m 0,-120.574 0,34.896 43.828,0 c 62.86,0 63.557,100.258 0,100.258 l -58.408,0 0,-135.154 14.58,0 z" /></g><g
         transform="translate(591.1841,1146.3047)"
         id="g3285"><path
           inkscape:connector-curvature="0"
           id="path3287"
           style="fill:#f5a409;fill-opacity:1;fill-rule:nonzero;stroke:none"
           d="m 0,0 49.541,0 c 35.547,0 36.598,-71.092 0,-71.092 L 0,-71.092 0,0 z m 0,-120.574 0,34.896 43.833,0 c 62.861,0 63.558,100.258 0,100.258 l -58.413,0 0,-135.154 14.58,0 z" /></g><g
         transform="translate(421.4653,1103.2354)"
         id="g3289"><path
           inkscape:connector-curvature="0"
           id="path3291"
           style="fill:#f5a409;fill-opacity:1;fill-rule:nonzero;stroke:none"
           d="m 0,0 c 0,-25.021 -21.408,-26.925 -29.584,-26.925 l -19.957,0 0,71.098 L 0,44.173 0,0 z m 0,68.824 0,-10.071 -43.833,0 c -62.861,0 -63.558,-100.258 0,-100.258 l 17.222,0 c 20.526,0 41.186,16.734 41.186,36.558 l 0,73.771 -14.575,0 z" /></g><path
         inkscape:connector-curvature="0"
         id="path3293"
         style="fill:#f5a409;fill-opacity:1;fill-rule:nonzero;stroke:none"
         d="m 421.46,1139.79 14.58,0 0,-78.06 -14.58,0 0,78.06 z" /><g
         id="g3295"><g
           id="g3297" /><g
           id="g3303"><g
             style="opacity:0.30000299"
             id="g3305"
             clip-path="url(#clipPath3299)"><path
               inkscape:connector-curvature="0"
               id="path3307"
               style="fill:#a1a2a2;fill-opacity:1;fill-rule:nonzero;stroke:none"
               d="m 807.064,1076.311 -12.159,0 0,71.098 12.159,0 0,-71.098 z" /></g></g></g><path
         inkscape:connector-curvature="0"
         id="path3309"
         style="fill:#fcc700;fill-opacity:1;fill-rule:nonzero;stroke:none"
         d="m 714.38,1061.73 -14.58,0 0,110.329 14.58,0 0,-110.329 z" /><path
         inkscape:connector-curvature="0"
         id="path3311"
         style="fill:#fcc700;fill-opacity:1;fill-rule:nonzero;stroke:none"
         d="m 714.38,1185.589 -14.58,0 0,15.213 14.58,0 0,-15.213 z" /><g
         transform="translate(823.0029,1103.2354)"
         id="g3313"><path
           inkscape:connector-curvature="0"
           id="path3315"
           style="fill:#fcc700;fill-opacity:1;fill-rule:nonzero;stroke:none"
           d="m 0,0 c 0,-25.021 -21.409,-26.925 -29.584,-26.925 l -19.957,0 0,71.098 L 0,44.173 0,0 z m 0,68.824 0,-10.071 -43.833,0 c -62.861,0 -63.559,-100.258 0,-100.258 l 17.222,0 c 20.526,0 41.185,16.734 41.185,36.558 l 0,73.771 -14.574,0 z" /></g><path
         inkscape:connector-curvature="0"
         id="path3317"
         style="fill:#fcc700;fill-opacity:1;fill-rule:nonzero;stroke:none"
         d="m 822.997,1139.79 14.58,0 0,-78.06 -14.58,0 0,78.06 z" /><path
         inkscape:connector-curvature="0"
         id="path3319"
         style="fill:#fcc700;fill-opacity:1;fill-rule:nonzero;stroke:none"
         d="m 973.183,1061.73 -14.58,0 0,110.329 14.58,0 0,-110.329 z" /><path
         inkscape:connector-curvature="0"
         id="path3321"
         style="fill:#fcc700;fill-opacity:1;fill-rule:nonzero;stroke:none"
         d="m 973.183,1185.589 -14.58,0 0,15.213 14.58,0 0,-15.213 z" /><path
         inkscape:connector-curvature="0"
         id="path3323"
         style="fill:#fcc700;fill-opacity:1;fill-rule:nonzero;stroke:none"
         d="m 869.53,1061.73 -14.58,0 0,110.329 14.58,0 0,-110.329 z" /><g
         transform="translate(864.624,1143.8926)"
         id="g3325"><path
           inkscape:connector-curvature="0"
           id="path3327"
           style="fill:#fcc700;fill-opacity:1;fill-rule:nonzero;stroke:none"
           d="M 0,0 76.605,0 C 70.503,36.656 6.033,37.025 0,0" /></g><path
         inkscape:connector-curvature="0"
         id="path3329"
         style="fill:#fcc700;fill-opacity:1;fill-rule:nonzero;stroke:none"
         d="m 1073.658,1142.652 -38.067,0 0,15.931 38.067,0 0,-15.931 z m -38.067,-66.341 0,51.761 38.067,0 0,0 31.256,0 c -2.02,22.883 -17.338,44.307 -45.72,45.024 l -0.145,0.069 -12.164,0 c -75.102,0 -75.102,-111.433 0,-111.433 l 52.827,0 0,14.581 -64.121,0 z" /><g
         transform="translate(1214.5762,1157.4795)"
         id="g3331"><path
           inkscape:connector-curvature="0"
           id="path3333"
           style="fill:#fcc700;fill-opacity:1;fill-rule:nonzero;stroke:none"
           d="m 0,0 0,14.58 -66.711,0 c -34.937,0 -33.254,-62.454 0,-62.454 l 40.959,0 0,-33.295 -63.309,0 0,-14.58 66.711,0 c 36.041,0 36.041,62.455 0,62.455 l -40.953,0 0,33.294 L 0,0 z" /></g></g></g></svg>