<svg xmlns="http://www.w3.org/2000/svg" width="100" height="100" viewBox="0 0 100 100">
<g>
<polygon fill="#B94321" points="44.774,74.388 46.865,71.701 53.732,72.895 51.145,75.482 51.045,75.482"/>
<polygon fill="#8F3010" stroke="#8F3010" stroke-width="0.5" points="37.508,89.22 38.204,96.386 24.965,91.31 24.169,84.043"/>
<polygon fill="#A73B1B" stroke="#A73B1B" stroke-width="0.5" points="55.524,89.718 56.222,96.884 38.204,96.386 37.508,89.22"/>
<polygon fill="#BC4522" stroke="#BC4522" stroke-width="0.5" points="79.421,69.609 80.218,76.777 56.229,96.884 55.531,89.718"/>
<path fill="#B94321" stroke="#B94321" stroke-width="0.5" d="M41.19,62.742l38.323,6.867L55.524,89.718L37.508,89.22l-13.339-5.177L41.19,62.742z"/>
<polyline fill="#C35525" stroke="#C35525" stroke-width="0.5" points="58.71,67.818 74.338,70.604 53.832,87.826 39.399,87.328"/>
<polygon fill="#DBDBDC" stroke="#DBDBDC" stroke-width="0.5" points="51.145,75.482 60.9,77.274 62.194,77.473 61.397,78.171 53.633,84.642 53.135,85.139 41.988,84.84 41.887,84.84 44.476,82.152 44.575,82.152 50.548,82.352 54.43,79.167 48.557,78.07 48.458,78.07 51.045,75.482"/>
<polygon fill="#DBDBDC" stroke="#DBDBDC" stroke-width="0.5" points="56.222,70.406 68.166,72.496 67.37,73.194 65.877,74.487 65.279,74.984 53.732,72.895 53.633,72.895 54.529,71.998 56.121,70.406"/>
<polygon fill="#CACACA" stroke="#CACACA" stroke-width="0.5" points="39.896,80.459 44.476,82.152 41.887,84.84 33.426,81.554 36.811,77.473 39.001,77.872 41.589,78.369"/>
<polygon fill="#CACACA" stroke="#CACACA" stroke-width="0.5" points="51.045,75.482 48.458,78.07 37.807,76.181 43.58,68.913 44.177,68.217 56.121,70.406 54.529,71.998 53.633,72.895 46.865,71.701 44.774,74.388"/>
</g>
<path fill="#C30D23" d="M99.92,23.124c-1.991,0.896-5.674,1.493-9.457,1.493c-3.682,0-10.75-0.597-16.125-3.783c-5.375-3.185-5.873-3.683-7.963-4.877c-0.101-0.1-0.199-0.1-0.3-0.199c-2.188-1.294-4.877-1.892-7.466-1.692c-1.393,0.1-3.085,0.498-4.678,1.195c-1.492,0.597-2.887,1.493-3.881,2.787c-0.697-0.896-1.693-1.593-2.688-2.19c-1.891-1.095-4.181-1.692-5.873-1.792c-2.091-0.1-4.181,0.199-6.073,1.095c-0.597,0.299-1.194,0.598-1.792,0.896c-1.991,1.195-2.488,1.692-7.963,4.877c-5.375,3.186-12.442,3.783-16.126,3.783c-3.683,0-7.365-0.697-9.456-1.493c-0.796,7.167,4.479,12.741,9.954,13.637c6.669,0.995,13.637-0.996,19.013-2.986c1.193,7.067,5.475,11.746,9.257,17.519c6.172,9.257,9.954,20.308,11.646,20.308c1.691,0,5.474-11.15,11.645-20.308c3.784-5.674,8.063-10.452,9.259-17.419c5.374,1.991,12.243,3.982,18.913,2.986C95.44,35.865,100.717,30.192,99.92,23.124 M50.05,37.458c-3.982,0-7.167-3.186-7.167-7.167c0-3.982,3.186-7.167,7.167-7.167c3.981,0,7.167,3.185,7.167,7.167C57.217,34.272,54.031,37.458,50.05,37.458"/>
<path fill="#C30D23" d="M58.909,10.184c-1.892-3.186-7.466-7.067-8.859-7.067c-1.294,0-6.869,3.882-8.76,7.067c-1.593,0.697-3.186,1.692-4.479,2.787c1.393-0.398,2.986-0.597,4.877-0.498c2.688,0.199,6.172,1.195,8.461,3.484c2.29-2.289,5.773-3.285,8.46-3.484c1.793-0.1,3.484,0.1,4.878,0.498C61.994,11.875,60.501,10.98,58.909,10.184 M47.064,10.781c-0.697,0-1.195-0.598-1.195-1.195c0-0.697,0.598-1.195,1.195-1.195c0.697,0,1.194,0.598,1.194,1.195C48.258,10.283,47.761,10.781,47.064,10.781 M53.135,10.781c-0.695,0-1.193-0.598-1.193-1.195c0-0.697,0.597-1.195,1.193-1.195c0.697,0,1.195,0.598,1.195,1.195C54.33,10.283,53.832,10.781,53.135,10.781"/>
</svg>
