<svg xmlns="http://www.w3.org/2000/svg" width="600" height="412" viewBox="0 0 600 412"><path fill="#E44D26" fill-rule="evenodd" d="M142.48 143.37v.02l142.4 142.3-64.72-142.4H64.8L.1 285.7" clip-rule="evenodd"/><path fill="#F16529" d="M.1.97l64.72 142.4h155.36L284.88.97 142.5 143.37v-.03"/><path fill="#369CD6" fill-rule="evenodd" d="M599.77 1l-142.4 64.7v155.36l142.4 64.7-142.4-142.36" clip-rule="evenodd"/><path fill="#2162AF" d="M315 285.77l142.38-64.72V65.7L315 1l142.4 142.38h-.03"/><path fill="#231815" d="M40.27 389.74H28.33V361.8H12.58v27.94H.64v-63.7h11.94v25.32h15.75v-25.3h11.94v63.68zm31.03 0H59.4v-53.27H47.12v-10.42H83.6v10.42H71.3v53.27zm42.04 0l-12.2-54.23h-.48c.55 4.2.83 8.1.83 11.5v42.8H90.4v-63.7h18.34l10.98 50.1h.35l10.87-50h18.6v63.7h-11.3v-43.2c0-3.5.2-7.2.6-10.9h-.35L126.3 390h-13zm47.56 0v-63.7h11.95v53.33h16.54v10.36h-28.5zm52.4-39.86c4.84 0 8.68 1.67 11.53 5 2.85 3.35 4.28 7.92 4.28 13.73 0 7-1.7 12.4-5.3 16.3-3.5 3.9-8.5 5.8-14.8 5.8-5.6 0-10.2-1.1-13.6-3.2v-11.1c1.5 1.1 3.4 2.1 5.8 2.9 2.4.8 4.6 1.3 6.6 1.3 6.3 0 9.5-3.6 9.5-10.9 0-6.8-3.1-10.2-9.2-10.2-2.4 0-5 .5-7.7 1.4l-3.9-2.8 2-31.9h27.4v10.6h-17.2l-.85 13.8c1.6-.36 3.5-.54 5.64-.54zm76.46 39.86h-28.92v-63.7h28.92v10.25h-17v15.1h15.77v10.3h-15.76v17.6h17v10.3zm17.07-24.8l-12.2-23.73h12.1l6.5 14.9 6.02-14.8h12.03l-12.3 23.7 12.82 24.8h-12.2l-6.94-15.5-6.44 15.5h-12.16l12.77-24.8zm52.4 25.66c-2.1 0-3.97-.47-5.6-1.4-1.62-.95-3.14-2.6-4.54-5h-.7c.4 3.95.7 6.34.7 7.15v19.8h-11.7V341.2h9l2 6.34h.5c2.4-4.82 5.9-7.23 10.5-7.23 4.4 0 7.9 2.2 10.4 6.6 2.5 4.4 3.8 10.6 3.8 18.6 0 7.9-1.3 14.1-3.9 18.5s-6.2 6.7-10.7 6.7zm-3.6-40.46c-2.28 0-3.93 1.06-4.94 3.16-1.1 2.1-1.6 5.6-1.6 10.48v1.52c0 5.35.5 9.23 1.5 11.67 1 2.44 2.7 3.66 5.1 3.66 4.1 0 6.1-5.14 6.1-15.42 0-5-.5-8.8-1.5-11.3s-2.6-3.7-4.8-3.7zm44.4 40.46c-6.1 0-10.92-2.15-14.45-6.46-3.52-4.32-5.28-10.42-5.28-18.32 0-8 1.6-14.27 4.78-18.77 3.2-4.5 7.64-6.75 13.34-6.75 5.33 0 9.52 1.92 12.6 5.77 3.07 3.85 4.6 9.24 4.6 16.18v6.2h-23.48c.1 4.32 1 7.53 2.68 9.64 1.7 2.1 4.04 3.1 7.02 3.1 3.8 0 7.7-1.2 11.68-3.5v9.5c-3.75 2.2-8.24 3.3-13.48 3.3zm-1.7-41.37c-1.66 0-3.04.88-4.12 2.63-1 1.76-1.7 4.48-1.8 8.17h11.9c0-3.54-.6-6.23-1.6-8.06s-2.4-2.74-4.2-2.74zm45.87-8.93c1.42 0 2.83.22 4.2.65l-1.35 11.24c-.82-.3-1.9-.5-3.2-.5-2.85 0-5.03 1.1-6.55 3.3-1.52 2.2-2.28 5.4-2.28 9.7v24.9h-11.67v-48.5h9.6l1.32 7.6h.4c1.28-3.1 2.7-5.3 4.2-6.6 1.53-1.3 3.3-2 5.32-2zm26.4 40.5c1.65 0 3.42-.4 5.32-1.2v9.04c-1.9 1.3-4.75 1.97-8.55 1.97-4.25 0-7.4-1.2-9.44-3.7-2.05-2.5-3.08-6.3-3.08-11.3v-25.2h-4.74v-5.1l6.1-4.2 3-10.3h7.5v10.5h8.9v9.2h-8.8V376c0 3.25 1.3 4.88 4 4.88zm38.4-5.26c0 4.73-1.4 8.43-4.18 11.08-2.8 2.66-6.9 4-12.36 4-4.82 0-8.8-.96-11.97-2.85V377.7c1.6 1.12 3.4 2.03 5.6 2.76 2.1.72 4 1.1 5.7 1.1 1.8 0 3.2-.46 4.1-1.34.9-.9 1.4-2.06 1.4-3.5 0-1.5-.5-2.78-1.5-3.9s-2.8-2.44-5.5-4.04c-3.6-2.1-6.1-4.32-7.6-6.68-1.6-2.37-2.3-5.16-2.3-8.4 0-4.1 1.4-7.38 4.2-9.8 2.8-2.4 6.7-3.6 11.7-3.6 4.3 0 8.4 1.13 12.2 3.4l-3.8 8.3c-3.15-1.67-5.9-2.5-8.27-2.5-1.5 0-2.6.38-3.36 1.16-.78.8-1.1 1.75-1.1 2.88 0 1.3.4 2.47 1.33 3.5.9 1 2.6 2.27 5.1 3.77 3.05 1.9 5.18 3.4 6.4 4.7 1.24 1.3 2.2 2.7 2.86 4.4.63 1.7 1 3.6 1 5.7zm7.3 8.23c0-2.27.6-4.02 1.82-5.27 1.2-1.25 3.02-1.88 5.42-1.88s4.2.62 5.44 1.85c1.23 1.24 1.84 3 1.84 5.3 0 2.27-.63 4.02-1.9 5.27-1.28 1.25-3.07 1.87-5.38 1.87-2.37 0-4.17-.6-5.4-1.8-1.23-1.2-1.85-3-1.85-5.2zm22.9 27.4c-2.45 0-4.5-.37-6.1-1.1v-9.62c1.35.52 2.6.78 3.78.78 2.75 0 4.12-2.47 4.12-7.4V341.2h11.68v54.16c0 5.05-1.18 8.95-3.53 11.7-2.36 2.73-5.67 4.1-9.95 4.1zm1.36-82.63c0-1.92.57-3.44 1.7-4.55 1.12-1.2 2.68-1.7 4.67-1.7 1.96 0 3.5.5 4.6 1.7 1.12 1.1 1.67 2.6 1.67 4.5s-.57 3.4-1.7 4.5c-1.15 1.1-2.67 1.6-4.58 1.6-1.9 0-3.43-.6-4.6-1.6-1.17-1.1-1.76-2.7-1.76-4.7zm43.84 62.06c-2.1 0-3.97-.47-5.6-1.4-1.6-.95-3.13-2.6-4.53-5h-.62c.47 3.95.7 6.34.7 7.15v19.8H562.6V341.2h9.03l2.02 6.34h.53c2.43-4.82 5.96-7.23 10.58-7.23 4.44 0 7.92 2.2 10.44 6.6 2.52 4.4 3.77 10.6 3.77 18.6 0 7.9-1.3 14.1-3.9 18.5s-6.16 6.7-10.67 6.7zm-3.6-40.46c-2.27 0-3.92 1.06-4.93 3.16-1 2.1-1.54 5.6-1.6 10.48v1.52c0 5.35.5 9.23 1.53 11.67 1.03 2.44 2.73 3.66 5.1 3.66 4.1 0 6.14-5.14 6.14-15.42 0-5-.5-8.8-1.5-11.3-1.02-2.5-2.6-3.7-4.73-3.7z"/></svg>